G04 #@! TF.FileFunction,Soldermask,Bot*
%FSLAX46Y46*%
G04 Gerber Fmt 4.6, Leading zero omitted, Abs format (unit mm)*
G04 Created by KiCad (PCBNEW 4.0.7) date 07/12/19 13:24:00*
%MOMM*%
%LPD*%
G01*
G04 APERTURE LIST*
%ADD10C,0.100000*%
%ADD11C,3.400000*%
%ADD12C,1.924000*%
%ADD13R,1.000000X2.400000*%
%ADD14R,1.400000X1.400000*%
%ADD15O,1.400000X1.400000*%
%ADD16R,1.400000X2.100000*%
%ADD17C,1.130000*%
%ADD18R,1.200000X1.150000*%
%ADD19R,1.150000X1.200000*%
%ADD20R,2.100000X2.100000*%
%ADD21O,2.100000X2.100000*%
G04 APERTURE END LIST*
D10*
D11*
X113000000Y-102000000D03*
X113000000Y-53000000D03*
X197000000Y-53000000D03*
X197000000Y-102000000D03*
D12*
X194650000Y-61080000D03*
X194650000Y-63620000D03*
X194650000Y-66160000D03*
X194650000Y-68700000D03*
X178650000Y-68700000D03*
X178650000Y-66160000D03*
X178650000Y-63620000D03*
X178650000Y-61080000D03*
D13*
X126365000Y-88012000D03*
X125095000Y-88012000D03*
X123825000Y-88012000D03*
X122555000Y-88012000D03*
X121285000Y-88012000D03*
X120015000Y-88012000D03*
X118745000Y-88012000D03*
X117475000Y-88012000D03*
X116205000Y-88012000D03*
X116205000Y-78612000D03*
X117475000Y-78612000D03*
X118745000Y-78612000D03*
X120015000Y-78612000D03*
X121285000Y-78612000D03*
X122555000Y-78612000D03*
X123825000Y-78612000D03*
X125095000Y-78612000D03*
X126365000Y-78612000D03*
D12*
X146113000Y-91440000D03*
X146113000Y-93980000D03*
X146113000Y-96520000D03*
X146113000Y-99060000D03*
X133823000Y-99060000D03*
X133823000Y-96520000D03*
X133823000Y-93980000D03*
X133823000Y-91440000D03*
D14*
X162814000Y-89535000D03*
D15*
X162814000Y-90805000D03*
X161544000Y-89535000D03*
X161544000Y-90805000D03*
X160274000Y-89535000D03*
X160274000Y-90805000D03*
X159004000Y-89535000D03*
X159004000Y-90805000D03*
X157734000Y-89535000D03*
X157734000Y-90805000D03*
D16*
X150568500Y-91376500D03*
X150568500Y-97676500D03*
X154368500Y-91376500D03*
X154368500Y-97676500D03*
D12*
X152558272Y-61170404D03*
X152558272Y-63710404D03*
X152558272Y-66250404D03*
X152558272Y-68790404D03*
X136558272Y-68790404D03*
X136558272Y-66250404D03*
X136558272Y-63710404D03*
X136558272Y-61170404D03*
X173558272Y-61090404D03*
X173558272Y-63630404D03*
X173558272Y-66170404D03*
X173558272Y-68710404D03*
X157558272Y-68710404D03*
X157558272Y-66170404D03*
X157558272Y-63630404D03*
X157558272Y-61090404D03*
X131558272Y-61170404D03*
X131558272Y-63710404D03*
X131558272Y-66250404D03*
X131558272Y-68790404D03*
X115558272Y-68790404D03*
X115558272Y-66250404D03*
X115558272Y-63710404D03*
X115558272Y-61170404D03*
D17*
X120423000Y-91948000D03*
X115543000Y-91948000D03*
D18*
X154698000Y-83820000D03*
X156198000Y-83820000D03*
X154750000Y-80500000D03*
X156250000Y-80500000D03*
X171640500Y-82042000D03*
X173140500Y-82042000D03*
D19*
X127762000Y-76466000D03*
X127762000Y-77966000D03*
D18*
X118884000Y-90297000D03*
X120384000Y-90297000D03*
D19*
X130937000Y-91936000D03*
X130937000Y-90436000D03*
D18*
X115836000Y-90297000D03*
X117336000Y-90297000D03*
D20*
X197739000Y-90360500D03*
D21*
X197739000Y-92900500D03*
X197739000Y-95440500D03*
X197739000Y-97980500D03*
M02*
