%TF.GenerationSoftware,KiCad,Pcbnew,4.0.7*%
%TF.CreationDate,2019-07-19T19:42:11-04:00*%
%TF.ProjectId,Pressure Scanner Board,5072657373757265205363616E6E6572,rev?*%
%TF.FileFunction,Legend,Bot*%
%FSLAX46Y46*%
G04 Gerber Fmt 4.6, Leading zero omitted, Abs format (unit mm)*
G04 Created by KiCad (PCBNEW 4.0.7) date 07/19/19 19:42:11*
%MOMM*%
%LPD*%
G01*
G04 APERTURE LIST*
%ADD10C,0.100000*%
%ADD11C,0.300000*%
%ADD12C,0.150000*%
%ADD13C,0.120000*%
G04 APERTURE END LIST*
D10*
D11*
X194206857Y-50926071D02*
X194206857Y-52140357D01*
X194135429Y-52283214D01*
X194064000Y-52354643D01*
X193921143Y-52426071D01*
X193635429Y-52426071D01*
X193492571Y-52354643D01*
X193421143Y-52283214D01*
X193349714Y-52140357D01*
X193349714Y-50926071D01*
X191778285Y-52283214D02*
X191849714Y-52354643D01*
X192064000Y-52426071D01*
X192206857Y-52426071D01*
X192421142Y-52354643D01*
X192564000Y-52211786D01*
X192635428Y-52068929D01*
X192706857Y-51783214D01*
X192706857Y-51568929D01*
X192635428Y-51283214D01*
X192564000Y-51140357D01*
X192421142Y-50997500D01*
X192206857Y-50926071D01*
X192064000Y-50926071D01*
X191849714Y-50997500D01*
X191778285Y-51068929D01*
X190921142Y-52426071D02*
X191064000Y-52354643D01*
X191135428Y-52283214D01*
X191206857Y-52140357D01*
X191206857Y-51711786D01*
X191135428Y-51568929D01*
X191064000Y-51497500D01*
X190921142Y-51426071D01*
X190706857Y-51426071D01*
X190564000Y-51497500D01*
X190492571Y-51568929D01*
X190421142Y-51711786D01*
X190421142Y-52140357D01*
X190492571Y-52283214D01*
X190564000Y-52354643D01*
X190706857Y-52426071D01*
X190921142Y-52426071D01*
X189778285Y-51426071D02*
X189778285Y-52426071D01*
X189778285Y-51568929D02*
X189706857Y-51497500D01*
X189563999Y-51426071D01*
X189349714Y-51426071D01*
X189206857Y-51497500D01*
X189135428Y-51640357D01*
X189135428Y-52426071D01*
X188421142Y-51426071D02*
X188421142Y-52426071D01*
X188421142Y-51568929D02*
X188349714Y-51497500D01*
X188206856Y-51426071D01*
X187992571Y-51426071D01*
X187849714Y-51497500D01*
X187778285Y-51640357D01*
X187778285Y-52426071D01*
X185421142Y-51640357D02*
X185921142Y-51640357D01*
X185921142Y-52426071D02*
X185921142Y-50926071D01*
X185206856Y-50926071D01*
X184421142Y-52426071D02*
X184564000Y-52354643D01*
X184635428Y-52283214D01*
X184706857Y-52140357D01*
X184706857Y-51711786D01*
X184635428Y-51568929D01*
X184564000Y-51497500D01*
X184421142Y-51426071D01*
X184206857Y-51426071D01*
X184064000Y-51497500D01*
X183992571Y-51568929D01*
X183921142Y-51711786D01*
X183921142Y-52140357D01*
X183992571Y-52283214D01*
X184064000Y-52354643D01*
X184206857Y-52426071D01*
X184421142Y-52426071D01*
X183278285Y-52426071D02*
X183278285Y-51426071D01*
X183278285Y-51711786D02*
X183206857Y-51568929D01*
X183135428Y-51497500D01*
X182992571Y-51426071D01*
X182849714Y-51426071D01*
X182349714Y-52426071D02*
X182349714Y-51426071D01*
X182349714Y-51568929D02*
X182278286Y-51497500D01*
X182135428Y-51426071D01*
X181921143Y-51426071D01*
X181778286Y-51497500D01*
X181706857Y-51640357D01*
X181706857Y-52426071D01*
X181706857Y-51640357D02*
X181635428Y-51497500D01*
X181492571Y-51426071D01*
X181278286Y-51426071D01*
X181135428Y-51497500D01*
X181064000Y-51640357D01*
X181064000Y-52426071D01*
X179706857Y-51426071D02*
X179706857Y-52426071D01*
X180349714Y-51426071D02*
X180349714Y-52211786D01*
X180278286Y-52354643D01*
X180135428Y-52426071D01*
X179921143Y-52426071D01*
X179778286Y-52354643D01*
X179706857Y-52283214D01*
X178778285Y-52426071D02*
X178921143Y-52354643D01*
X178992571Y-52211786D01*
X178992571Y-50926071D01*
X177564000Y-52426071D02*
X177564000Y-51640357D01*
X177635429Y-51497500D01*
X177778286Y-51426071D01*
X178064000Y-51426071D01*
X178206857Y-51497500D01*
X177564000Y-52354643D02*
X177706857Y-52426071D01*
X178064000Y-52426071D01*
X178206857Y-52354643D01*
X178278286Y-52211786D01*
X178278286Y-52068929D01*
X178206857Y-51926071D01*
X178064000Y-51854643D01*
X177706857Y-51854643D01*
X177564000Y-51783214D01*
X175778286Y-52354643D02*
X175564000Y-52426071D01*
X175206857Y-52426071D01*
X175064000Y-52354643D01*
X174992571Y-52283214D01*
X174921143Y-52140357D01*
X174921143Y-51997500D01*
X174992571Y-51854643D01*
X175064000Y-51783214D01*
X175206857Y-51711786D01*
X175492571Y-51640357D01*
X175635429Y-51568929D01*
X175706857Y-51497500D01*
X175778286Y-51354643D01*
X175778286Y-51211786D01*
X175706857Y-51068929D01*
X175635429Y-50997500D01*
X175492571Y-50926071D01*
X175135429Y-50926071D01*
X174921143Y-50997500D01*
X174349715Y-51997500D02*
X173635429Y-51997500D01*
X174492572Y-52426071D02*
X173992572Y-50926071D01*
X173492572Y-52426071D01*
X172992572Y-51640357D02*
X172492572Y-51640357D01*
X172278286Y-52426071D02*
X172992572Y-52426071D01*
X172992572Y-50926071D01*
X172278286Y-50926071D01*
X170492572Y-52426071D02*
X170492572Y-50926071D01*
X169921144Y-50926071D01*
X169778286Y-50997500D01*
X169706858Y-51068929D01*
X169635429Y-51211786D01*
X169635429Y-51426071D01*
X169706858Y-51568929D01*
X169778286Y-51640357D01*
X169921144Y-51711786D01*
X170492572Y-51711786D01*
X168992572Y-52426071D02*
X168992572Y-51426071D01*
X168992572Y-51711786D02*
X168921144Y-51568929D01*
X168849715Y-51497500D01*
X168706858Y-51426071D01*
X168564001Y-51426071D01*
X167492573Y-52354643D02*
X167635430Y-52426071D01*
X167921144Y-52426071D01*
X168064001Y-52354643D01*
X168135430Y-52211786D01*
X168135430Y-51640357D01*
X168064001Y-51497500D01*
X167921144Y-51426071D01*
X167635430Y-51426071D01*
X167492573Y-51497500D01*
X167421144Y-51640357D01*
X167421144Y-51783214D01*
X168135430Y-51926071D01*
X166849716Y-52354643D02*
X166706859Y-52426071D01*
X166421144Y-52426071D01*
X166278287Y-52354643D01*
X166206859Y-52211786D01*
X166206859Y-52140357D01*
X166278287Y-51997500D01*
X166421144Y-51926071D01*
X166635430Y-51926071D01*
X166778287Y-51854643D01*
X166849716Y-51711786D01*
X166849716Y-51640357D01*
X166778287Y-51497500D01*
X166635430Y-51426071D01*
X166421144Y-51426071D01*
X166278287Y-51497500D01*
X165635430Y-52354643D02*
X165492573Y-52426071D01*
X165206858Y-52426071D01*
X165064001Y-52354643D01*
X164992573Y-52211786D01*
X164992573Y-52140357D01*
X165064001Y-51997500D01*
X165206858Y-51926071D01*
X165421144Y-51926071D01*
X165564001Y-51854643D01*
X165635430Y-51711786D01*
X165635430Y-51640357D01*
X165564001Y-51497500D01*
X165421144Y-51426071D01*
X165206858Y-51426071D01*
X165064001Y-51497500D01*
X163706858Y-51426071D02*
X163706858Y-52426071D01*
X164349715Y-51426071D02*
X164349715Y-52211786D01*
X164278287Y-52354643D01*
X164135429Y-52426071D01*
X163921144Y-52426071D01*
X163778287Y-52354643D01*
X163706858Y-52283214D01*
X162992572Y-52426071D02*
X162992572Y-51426071D01*
X162992572Y-51711786D02*
X162921144Y-51568929D01*
X162849715Y-51497500D01*
X162706858Y-51426071D01*
X162564001Y-51426071D01*
X161492573Y-52354643D02*
X161635430Y-52426071D01*
X161921144Y-52426071D01*
X162064001Y-52354643D01*
X162135430Y-52211786D01*
X162135430Y-51640357D01*
X162064001Y-51497500D01*
X161921144Y-51426071D01*
X161635430Y-51426071D01*
X161492573Y-51497500D01*
X161421144Y-51640357D01*
X161421144Y-51783214D01*
X162135430Y-51926071D01*
X159706859Y-52354643D02*
X159492573Y-52426071D01*
X159135430Y-52426071D01*
X158992573Y-52354643D01*
X158921144Y-52283214D01*
X158849716Y-52140357D01*
X158849716Y-51997500D01*
X158921144Y-51854643D01*
X158992573Y-51783214D01*
X159135430Y-51711786D01*
X159421144Y-51640357D01*
X159564002Y-51568929D01*
X159635430Y-51497500D01*
X159706859Y-51354643D01*
X159706859Y-51211786D01*
X159635430Y-51068929D01*
X159564002Y-50997500D01*
X159421144Y-50926071D01*
X159064002Y-50926071D01*
X158849716Y-50997500D01*
X157564002Y-52354643D02*
X157706859Y-52426071D01*
X157992573Y-52426071D01*
X158135431Y-52354643D01*
X158206859Y-52283214D01*
X158278288Y-52140357D01*
X158278288Y-51711786D01*
X158206859Y-51568929D01*
X158135431Y-51497500D01*
X157992573Y-51426071D01*
X157706859Y-51426071D01*
X157564002Y-51497500D01*
X156278288Y-52426071D02*
X156278288Y-51640357D01*
X156349717Y-51497500D01*
X156492574Y-51426071D01*
X156778288Y-51426071D01*
X156921145Y-51497500D01*
X156278288Y-52354643D02*
X156421145Y-52426071D01*
X156778288Y-52426071D01*
X156921145Y-52354643D01*
X156992574Y-52211786D01*
X156992574Y-52068929D01*
X156921145Y-51926071D01*
X156778288Y-51854643D01*
X156421145Y-51854643D01*
X156278288Y-51783214D01*
X155564002Y-51426071D02*
X155564002Y-52426071D01*
X155564002Y-51568929D02*
X155492574Y-51497500D01*
X155349716Y-51426071D01*
X155135431Y-51426071D01*
X154992574Y-51497500D01*
X154921145Y-51640357D01*
X154921145Y-52426071D01*
X154206859Y-51426071D02*
X154206859Y-52426071D01*
X154206859Y-51568929D02*
X154135431Y-51497500D01*
X153992573Y-51426071D01*
X153778288Y-51426071D01*
X153635431Y-51497500D01*
X153564002Y-51640357D01*
X153564002Y-52426071D01*
X152278288Y-52354643D02*
X152421145Y-52426071D01*
X152706859Y-52426071D01*
X152849716Y-52354643D01*
X152921145Y-52211786D01*
X152921145Y-51640357D01*
X152849716Y-51497500D01*
X152706859Y-51426071D01*
X152421145Y-51426071D01*
X152278288Y-51497500D01*
X152206859Y-51640357D01*
X152206859Y-51783214D01*
X152921145Y-51926071D01*
X151564002Y-52426071D02*
X151564002Y-51426071D01*
X151564002Y-51711786D02*
X151492574Y-51568929D01*
X151421145Y-51497500D01*
X151278288Y-51426071D01*
X151135431Y-51426071D01*
X148635431Y-52426071D02*
X149135431Y-51711786D01*
X149492574Y-52426071D02*
X149492574Y-50926071D01*
X148921146Y-50926071D01*
X148778288Y-50997500D01*
X148706860Y-51068929D01*
X148635431Y-51211786D01*
X148635431Y-51426071D01*
X148706860Y-51568929D01*
X148778288Y-51640357D01*
X148921146Y-51711786D01*
X149492574Y-51711786D01*
X147421146Y-52354643D02*
X147564003Y-52426071D01*
X147849717Y-52426071D01*
X147992574Y-52354643D01*
X148064003Y-52211786D01*
X148064003Y-51640357D01*
X147992574Y-51497500D01*
X147849717Y-51426071D01*
X147564003Y-51426071D01*
X147421146Y-51497500D01*
X147349717Y-51640357D01*
X147349717Y-51783214D01*
X148064003Y-51926071D01*
X146849717Y-51426071D02*
X146492574Y-52426071D01*
X146135432Y-51426071D01*
X145564003Y-51854643D02*
X144421146Y-51854643D01*
X194206857Y-54976071D02*
X194206857Y-53476071D01*
X193849714Y-53476071D01*
X193635429Y-53547500D01*
X193492571Y-53690357D01*
X193421143Y-53833214D01*
X193349714Y-54118929D01*
X193349714Y-54333214D01*
X193421143Y-54618929D01*
X193492571Y-54761786D01*
X193635429Y-54904643D01*
X193849714Y-54976071D01*
X194206857Y-54976071D01*
X192135429Y-54904643D02*
X192278286Y-54976071D01*
X192564000Y-54976071D01*
X192706857Y-54904643D01*
X192778286Y-54761786D01*
X192778286Y-54190357D01*
X192706857Y-54047500D01*
X192564000Y-53976071D01*
X192278286Y-53976071D01*
X192135429Y-54047500D01*
X192064000Y-54190357D01*
X192064000Y-54333214D01*
X192778286Y-54476071D01*
X191492572Y-54904643D02*
X191349715Y-54976071D01*
X191064000Y-54976071D01*
X190921143Y-54904643D01*
X190849715Y-54761786D01*
X190849715Y-54690357D01*
X190921143Y-54547500D01*
X191064000Y-54476071D01*
X191278286Y-54476071D01*
X191421143Y-54404643D01*
X191492572Y-54261786D01*
X191492572Y-54190357D01*
X191421143Y-54047500D01*
X191278286Y-53976071D01*
X191064000Y-53976071D01*
X190921143Y-54047500D01*
X190206857Y-54976071D02*
X190206857Y-53976071D01*
X190206857Y-53476071D02*
X190278286Y-53547500D01*
X190206857Y-53618929D01*
X190135429Y-53547500D01*
X190206857Y-53476071D01*
X190206857Y-53618929D01*
X188849714Y-53976071D02*
X188849714Y-55190357D01*
X188921143Y-55333214D01*
X188992571Y-55404643D01*
X189135428Y-55476071D01*
X189349714Y-55476071D01*
X189492571Y-55404643D01*
X188849714Y-54904643D02*
X188992571Y-54976071D01*
X189278285Y-54976071D01*
X189421143Y-54904643D01*
X189492571Y-54833214D01*
X189564000Y-54690357D01*
X189564000Y-54261786D01*
X189492571Y-54118929D01*
X189421143Y-54047500D01*
X189278285Y-53976071D01*
X188992571Y-53976071D01*
X188849714Y-54047500D01*
X188135428Y-53976071D02*
X188135428Y-54976071D01*
X188135428Y-54118929D02*
X188064000Y-54047500D01*
X187921142Y-53976071D01*
X187706857Y-53976071D01*
X187564000Y-54047500D01*
X187492571Y-54190357D01*
X187492571Y-54976071D01*
X186206857Y-54904643D02*
X186349714Y-54976071D01*
X186635428Y-54976071D01*
X186778285Y-54904643D01*
X186849714Y-54761786D01*
X186849714Y-54190357D01*
X186778285Y-54047500D01*
X186635428Y-53976071D01*
X186349714Y-53976071D01*
X186206857Y-54047500D01*
X186135428Y-54190357D01*
X186135428Y-54333214D01*
X186849714Y-54476071D01*
X184849714Y-54976071D02*
X184849714Y-53476071D01*
X184849714Y-54904643D02*
X184992571Y-54976071D01*
X185278285Y-54976071D01*
X185421143Y-54904643D01*
X185492571Y-54833214D01*
X185564000Y-54690357D01*
X185564000Y-54261786D01*
X185492571Y-54118929D01*
X185421143Y-54047500D01*
X185278285Y-53976071D01*
X184992571Y-53976071D01*
X184849714Y-54047500D01*
X182492571Y-54190357D02*
X182278285Y-54261786D01*
X182206857Y-54333214D01*
X182135428Y-54476071D01*
X182135428Y-54690357D01*
X182206857Y-54833214D01*
X182278285Y-54904643D01*
X182421143Y-54976071D01*
X182992571Y-54976071D01*
X182992571Y-53476071D01*
X182492571Y-53476071D01*
X182349714Y-53547500D01*
X182278285Y-53618929D01*
X182206857Y-53761786D01*
X182206857Y-53904643D01*
X182278285Y-54047500D01*
X182349714Y-54118929D01*
X182492571Y-54190357D01*
X182992571Y-54190357D01*
X181635428Y-53976071D02*
X181278285Y-54976071D01*
X180921143Y-53976071D02*
X181278285Y-54976071D01*
X181421143Y-55333214D01*
X181492571Y-55404643D01*
X181635428Y-55476071D01*
X179206857Y-54976071D02*
X179206857Y-53476071D01*
X178706857Y-54547500D01*
X178206857Y-53476071D01*
X178206857Y-54976071D01*
X177492571Y-54833214D02*
X177421143Y-54904643D01*
X177492571Y-54976071D01*
X177564000Y-54904643D01*
X177492571Y-54833214D01*
X177492571Y-54976071D01*
X175921142Y-54833214D02*
X175992571Y-54904643D01*
X176206857Y-54976071D01*
X176349714Y-54976071D01*
X176563999Y-54904643D01*
X176706857Y-54761786D01*
X176778285Y-54618929D01*
X176849714Y-54333214D01*
X176849714Y-54118929D01*
X176778285Y-53833214D01*
X176706857Y-53690357D01*
X176563999Y-53547500D01*
X176349714Y-53476071D01*
X176206857Y-53476071D01*
X175992571Y-53547500D01*
X175921142Y-53618929D01*
X175063999Y-54976071D02*
X175206857Y-54904643D01*
X175278285Y-54833214D01*
X175349714Y-54690357D01*
X175349714Y-54261786D01*
X175278285Y-54118929D01*
X175206857Y-54047500D01*
X175063999Y-53976071D01*
X174849714Y-53976071D01*
X174706857Y-54047500D01*
X174635428Y-54118929D01*
X174563999Y-54261786D01*
X174563999Y-54690357D01*
X174635428Y-54833214D01*
X174706857Y-54904643D01*
X174849714Y-54976071D01*
X175063999Y-54976071D01*
X174063999Y-54976071D02*
X173278285Y-53976071D01*
X174063999Y-53976071D02*
X173278285Y-54976071D01*
X171635428Y-53618929D02*
X171563999Y-53547500D01*
X171421142Y-53476071D01*
X171063999Y-53476071D01*
X170921142Y-53547500D01*
X170849713Y-53618929D01*
X170778285Y-53761786D01*
X170778285Y-53904643D01*
X170849713Y-54118929D01*
X171706856Y-54976071D01*
X170778285Y-54976071D01*
X169849714Y-53476071D02*
X169706857Y-53476071D01*
X169564000Y-53547500D01*
X169492571Y-53618929D01*
X169421142Y-53761786D01*
X169349714Y-54047500D01*
X169349714Y-54404643D01*
X169421142Y-54690357D01*
X169492571Y-54833214D01*
X169564000Y-54904643D01*
X169706857Y-54976071D01*
X169849714Y-54976071D01*
X169992571Y-54904643D01*
X170064000Y-54833214D01*
X170135428Y-54690357D01*
X170206857Y-54404643D01*
X170206857Y-54047500D01*
X170135428Y-53761786D01*
X170064000Y-53618929D01*
X169992571Y-53547500D01*
X169849714Y-53476071D01*
X167921143Y-54976071D02*
X168778286Y-54976071D01*
X168349714Y-54976071D02*
X168349714Y-53476071D01*
X168492571Y-53690357D01*
X168635429Y-53833214D01*
X168778286Y-53904643D01*
X167206858Y-54976071D02*
X166921143Y-54976071D01*
X166778286Y-54904643D01*
X166706858Y-54833214D01*
X166564000Y-54618929D01*
X166492572Y-54333214D01*
X166492572Y-53761786D01*
X166564000Y-53618929D01*
X166635429Y-53547500D01*
X166778286Y-53476071D01*
X167064000Y-53476071D01*
X167206858Y-53547500D01*
X167278286Y-53618929D01*
X167349715Y-53761786D01*
X167349715Y-54118929D01*
X167278286Y-54261786D01*
X167206858Y-54333214D01*
X167064000Y-54404643D01*
X166778286Y-54404643D01*
X166635429Y-54333214D01*
X166564000Y-54261786D01*
X166492572Y-54118929D01*
D12*
X189195000Y-71240000D02*
X189195000Y-73350000D01*
X189195000Y-73350000D02*
X186955000Y-73350000D01*
X186955000Y-73350000D02*
X186955000Y-71240000D01*
X185845000Y-71240000D02*
X185845000Y-73350000D01*
X185845000Y-73350000D02*
X183605000Y-73350000D01*
X183605000Y-73350000D02*
X183605000Y-71240000D01*
X178775000Y-71240000D02*
X194525000Y-71240000D01*
X178775000Y-58540000D02*
X178775000Y-71240000D01*
X194525000Y-58540000D02*
X178775000Y-58540000D01*
X194525000Y-58540000D02*
X194525000Y-71240000D01*
X127235000Y-87187000D02*
X126985000Y-87187000D01*
X127235000Y-79437000D02*
X126890000Y-79437000D01*
X115335000Y-79437000D02*
X115680000Y-79437000D01*
X115335000Y-87187000D02*
X115680000Y-87187000D01*
X127235000Y-87187000D02*
X127235000Y-79437000D01*
X115335000Y-87187000D02*
X115335000Y-79437000D01*
X126985000Y-87187000D02*
X126985000Y-89012000D01*
X147340884Y-91440000D02*
G75*
G03X147340884Y-91440000I-1227884J0D01*
G01*
X147103272Y-71330404D02*
X147103272Y-73440404D01*
X147103272Y-73440404D02*
X144863272Y-73440404D01*
X144863272Y-73440404D02*
X144863272Y-71330404D01*
X143753272Y-71330404D02*
X143753272Y-73440404D01*
X143753272Y-73440404D02*
X141513272Y-73440404D01*
X141513272Y-73440404D02*
X141513272Y-71330404D01*
X136683272Y-71330404D02*
X152433272Y-71330404D01*
X136683272Y-58630404D02*
X136683272Y-71330404D01*
X152433272Y-58630404D02*
X136683272Y-58630404D01*
X152433272Y-58630404D02*
X152433272Y-71330404D01*
X168103272Y-71250404D02*
X168103272Y-73360404D01*
X168103272Y-73360404D02*
X165863272Y-73360404D01*
X165863272Y-73360404D02*
X165863272Y-71250404D01*
X164753272Y-71250404D02*
X164753272Y-73360404D01*
X164753272Y-73360404D02*
X162513272Y-73360404D01*
X162513272Y-73360404D02*
X162513272Y-71250404D01*
X157683272Y-71250404D02*
X173433272Y-71250404D01*
X157683272Y-58550404D02*
X157683272Y-71250404D01*
X173433272Y-58550404D02*
X157683272Y-58550404D01*
X173433272Y-58550404D02*
X173433272Y-71250404D01*
X126103272Y-71330404D02*
X126103272Y-73440404D01*
X126103272Y-73440404D02*
X123863272Y-73440404D01*
X123863272Y-73440404D02*
X123863272Y-71330404D01*
X122753272Y-71330404D02*
X122753272Y-73440404D01*
X122753272Y-73440404D02*
X120513272Y-73440404D01*
X120513272Y-73440404D02*
X120513272Y-71330404D01*
X115683272Y-71330404D02*
X131433272Y-71330404D01*
X115683272Y-58630404D02*
X115683272Y-71330404D01*
X131433272Y-58630404D02*
X115683272Y-58630404D01*
X131433272Y-58630404D02*
X131433272Y-71330404D01*
D13*
X155098000Y-84420000D02*
X155798000Y-84420000D01*
X155798000Y-83220000D02*
X155098000Y-83220000D01*
X155150000Y-81100000D02*
X155850000Y-81100000D01*
X155850000Y-79900000D02*
X155150000Y-79900000D01*
X172040500Y-82642000D02*
X172740500Y-82642000D01*
X172740500Y-81442000D02*
X172040500Y-81442000D01*
X127162000Y-76866000D02*
X127162000Y-77566000D01*
X128362000Y-77566000D02*
X128362000Y-76866000D01*
X119284000Y-90897000D02*
X119984000Y-90897000D01*
X119984000Y-89697000D02*
X119284000Y-89697000D01*
X131537000Y-91536000D02*
X131537000Y-90836000D01*
X130337000Y-90836000D02*
X130337000Y-91536000D01*
X116236000Y-90897000D02*
X116936000Y-90897000D01*
X116936000Y-89697000D02*
X116236000Y-89697000D01*
D12*
X187411905Y-74592381D02*
X187411905Y-75401905D01*
X187364286Y-75497143D01*
X187316667Y-75544762D01*
X187221429Y-75592381D01*
X187030952Y-75592381D01*
X186935714Y-75544762D01*
X186888095Y-75497143D01*
X186840476Y-75401905D01*
X186840476Y-74592381D01*
X185888095Y-74592381D02*
X186364286Y-74592381D01*
X186411905Y-75068571D01*
X186364286Y-75020952D01*
X186269048Y-74973333D01*
X186030952Y-74973333D01*
X185935714Y-75020952D01*
X185888095Y-75068571D01*
X185840476Y-75163810D01*
X185840476Y-75401905D01*
X185888095Y-75497143D01*
X185935714Y-75544762D01*
X186030952Y-75592381D01*
X186269048Y-75592381D01*
X186364286Y-75544762D01*
X186411905Y-75497143D01*
X113815881Y-82137405D02*
X114625405Y-82137405D01*
X114720643Y-82185024D01*
X114768262Y-82232643D01*
X114815881Y-82327881D01*
X114815881Y-82518358D01*
X114768262Y-82613596D01*
X114720643Y-82661215D01*
X114625405Y-82708834D01*
X113815881Y-82708834D01*
X114815881Y-83708834D02*
X114815881Y-83137405D01*
X114815881Y-83423119D02*
X113815881Y-83423119D01*
X113958738Y-83327881D01*
X114053976Y-83232643D01*
X114101595Y-83137405D01*
X114149214Y-84565977D02*
X114815881Y-84565977D01*
X113768262Y-84327881D02*
X114482548Y-84089786D01*
X114482548Y-84708834D01*
X140334905Y-89177881D02*
X140334905Y-89987405D01*
X140287286Y-90082643D01*
X140239667Y-90130262D01*
X140144429Y-90177881D01*
X139953952Y-90177881D01*
X139858714Y-90130262D01*
X139811095Y-90082643D01*
X139763476Y-89987405D01*
X139763476Y-89177881D01*
X138858714Y-89511214D02*
X138858714Y-90177881D01*
X139096810Y-89130262D02*
X139334905Y-89844548D01*
X138715857Y-89844548D01*
X156873262Y-93193167D02*
X156920881Y-93336024D01*
X156920881Y-93574120D01*
X156873262Y-93669358D01*
X156825643Y-93716977D01*
X156730405Y-93764596D01*
X156635167Y-93764596D01*
X156539929Y-93716977D01*
X156492310Y-93669358D01*
X156444690Y-93574120D01*
X156397071Y-93383643D01*
X156349452Y-93288405D01*
X156301833Y-93240786D01*
X156206595Y-93193167D01*
X156111357Y-93193167D01*
X156016119Y-93240786D01*
X155968500Y-93288405D01*
X155920881Y-93383643D01*
X155920881Y-93621739D01*
X155968500Y-93764596D01*
X155920881Y-94097929D02*
X156920881Y-94336024D01*
X156206595Y-94526501D01*
X156920881Y-94716977D01*
X155920881Y-94955072D01*
X156920881Y-95859834D02*
X156920881Y-95288405D01*
X156920881Y-95574119D02*
X155920881Y-95574119D01*
X156063738Y-95478881D01*
X156158976Y-95383643D01*
X156206595Y-95288405D01*
X140080905Y-73620381D02*
X140080905Y-74429905D01*
X140033286Y-74525143D01*
X139985667Y-74572762D01*
X139890429Y-74620381D01*
X139699952Y-74620381D01*
X139604714Y-74572762D01*
X139557095Y-74525143D01*
X139509476Y-74429905D01*
X139509476Y-73620381D01*
X139128524Y-73620381D02*
X138461857Y-73620381D01*
X138890429Y-74620381D01*
X166320177Y-74602785D02*
X166320177Y-75412309D01*
X166272558Y-75507547D01*
X166224939Y-75555166D01*
X166129701Y-75602785D01*
X165939224Y-75602785D01*
X165843986Y-75555166D01*
X165796367Y-75507547D01*
X165748748Y-75412309D01*
X165748748Y-74602785D01*
X165224939Y-75602785D02*
X165034463Y-75602785D01*
X164939224Y-75555166D01*
X164891605Y-75507547D01*
X164796367Y-75364690D01*
X164748748Y-75174214D01*
X164748748Y-74793261D01*
X164796367Y-74698023D01*
X164843986Y-74650404D01*
X164939224Y-74602785D01*
X165129701Y-74602785D01*
X165224939Y-74650404D01*
X165272558Y-74698023D01*
X165320177Y-74793261D01*
X165320177Y-75031356D01*
X165272558Y-75126594D01*
X165224939Y-75174214D01*
X165129701Y-75221833D01*
X164939224Y-75221833D01*
X164843986Y-75174214D01*
X164796367Y-75126594D01*
X164748748Y-75031356D01*
X124796367Y-74682785D02*
X124796367Y-75492309D01*
X124748748Y-75587547D01*
X124701129Y-75635166D01*
X124605891Y-75682785D01*
X124415414Y-75682785D01*
X124320176Y-75635166D01*
X124272557Y-75587547D01*
X124224938Y-75492309D01*
X124224938Y-74682785D01*
X123224938Y-75682785D02*
X123796367Y-75682785D01*
X123510653Y-75682785D02*
X123510653Y-74682785D01*
X123605891Y-74825642D01*
X123701129Y-74920880D01*
X123796367Y-74968499D01*
X122272557Y-75682785D02*
X122843986Y-75682785D01*
X122558272Y-75682785D02*
X122558272Y-74682785D01*
X122653510Y-74825642D01*
X122748748Y-74920880D01*
X122843986Y-74968499D01*
X155614666Y-85574143D02*
X155662285Y-85621762D01*
X155805142Y-85669381D01*
X155900380Y-85669381D01*
X156043238Y-85621762D01*
X156138476Y-85526524D01*
X156186095Y-85431286D01*
X156233714Y-85240810D01*
X156233714Y-85097952D01*
X156186095Y-84907476D01*
X156138476Y-84812238D01*
X156043238Y-84717000D01*
X155900380Y-84669381D01*
X155805142Y-84669381D01*
X155662285Y-84717000D01*
X155614666Y-84764619D01*
X154757523Y-85002714D02*
X154757523Y-85669381D01*
X154995619Y-84621762D02*
X155233714Y-85336048D01*
X154614666Y-85336048D01*
X153328666Y-80875143D02*
X153376285Y-80922762D01*
X153519142Y-80970381D01*
X153614380Y-80970381D01*
X153757238Y-80922762D01*
X153852476Y-80827524D01*
X153900095Y-80732286D01*
X153947714Y-80541810D01*
X153947714Y-80398952D01*
X153900095Y-80208476D01*
X153852476Y-80113238D01*
X153757238Y-80018000D01*
X153614380Y-79970381D01*
X153519142Y-79970381D01*
X153376285Y-80018000D01*
X153328666Y-80065619D01*
X152757238Y-80398952D02*
X152852476Y-80351333D01*
X152900095Y-80303714D01*
X152947714Y-80208476D01*
X152947714Y-80160857D01*
X152900095Y-80065619D01*
X152852476Y-80018000D01*
X152757238Y-79970381D01*
X152566761Y-79970381D01*
X152471523Y-80018000D01*
X152423904Y-80065619D01*
X152376285Y-80160857D01*
X152376285Y-80208476D01*
X152423904Y-80303714D01*
X152471523Y-80351333D01*
X152566761Y-80398952D01*
X152757238Y-80398952D01*
X152852476Y-80446571D01*
X152900095Y-80494190D01*
X152947714Y-80589429D01*
X152947714Y-80779905D01*
X152900095Y-80875143D01*
X152852476Y-80922762D01*
X152757238Y-80970381D01*
X152566761Y-80970381D01*
X152471523Y-80922762D01*
X152423904Y-80875143D01*
X152376285Y-80779905D01*
X152376285Y-80589429D01*
X152423904Y-80494190D01*
X152471523Y-80446571D01*
X152566761Y-80398952D01*
X173045357Y-80811643D02*
X173092976Y-80859262D01*
X173235833Y-80906881D01*
X173331071Y-80906881D01*
X173473929Y-80859262D01*
X173569167Y-80764024D01*
X173616786Y-80668786D01*
X173664405Y-80478310D01*
X173664405Y-80335452D01*
X173616786Y-80144976D01*
X173569167Y-80049738D01*
X173473929Y-79954500D01*
X173331071Y-79906881D01*
X173235833Y-79906881D01*
X173092976Y-79954500D01*
X173045357Y-80002119D01*
X172092976Y-80906881D02*
X172664405Y-80906881D01*
X172378691Y-80906881D02*
X172378691Y-79906881D01*
X172473929Y-80049738D01*
X172569167Y-80144976D01*
X172664405Y-80192595D01*
X171140595Y-80906881D02*
X171712024Y-80906881D01*
X171426310Y-80906881D02*
X171426310Y-79906881D01*
X171521548Y-80049738D01*
X171616786Y-80144976D01*
X171712024Y-80192595D01*
X129579643Y-76573143D02*
X129627262Y-76525524D01*
X129674881Y-76382667D01*
X129674881Y-76287429D01*
X129627262Y-76144571D01*
X129532024Y-76049333D01*
X129436786Y-76001714D01*
X129246310Y-75954095D01*
X129103452Y-75954095D01*
X128912976Y-76001714D01*
X128817738Y-76049333D01*
X128722500Y-76144571D01*
X128674881Y-76287429D01*
X128674881Y-76382667D01*
X128722500Y-76525524D01*
X128770119Y-76573143D01*
X129674881Y-77525524D02*
X129674881Y-76954095D01*
X129674881Y-77239809D02*
X128674881Y-77239809D01*
X128817738Y-77144571D01*
X128912976Y-77049333D01*
X128960595Y-76954095D01*
X128674881Y-78430286D02*
X128674881Y-77954095D01*
X129151071Y-77906476D01*
X129103452Y-77954095D01*
X129055833Y-78049333D01*
X129055833Y-78287429D01*
X129103452Y-78382667D01*
X129151071Y-78430286D01*
X129246310Y-78477905D01*
X129484405Y-78477905D01*
X129579643Y-78430286D01*
X129627262Y-78382667D01*
X129674881Y-78287429D01*
X129674881Y-78049333D01*
X129627262Y-77954095D01*
X129579643Y-77906476D01*
X122150143Y-90416143D02*
X122197762Y-90368524D01*
X122245381Y-90225667D01*
X122245381Y-90130429D01*
X122197762Y-89987571D01*
X122102524Y-89892333D01*
X122007286Y-89844714D01*
X121816810Y-89797095D01*
X121673952Y-89797095D01*
X121483476Y-89844714D01*
X121388238Y-89892333D01*
X121293000Y-89987571D01*
X121245381Y-90130429D01*
X121245381Y-90225667D01*
X121293000Y-90368524D01*
X121340619Y-90416143D01*
X122245381Y-91368524D02*
X122245381Y-90797095D01*
X122245381Y-91082809D02*
X121245381Y-91082809D01*
X121388238Y-90987571D01*
X121483476Y-90892333D01*
X121531095Y-90797095D01*
X121245381Y-92225667D02*
X121245381Y-92035190D01*
X121293000Y-91939952D01*
X121340619Y-91892333D01*
X121483476Y-91797095D01*
X121673952Y-91749476D01*
X122054905Y-91749476D01*
X122150143Y-91797095D01*
X122197762Y-91844714D01*
X122245381Y-91939952D01*
X122245381Y-92130429D01*
X122197762Y-92225667D01*
X122150143Y-92273286D01*
X122054905Y-92320905D01*
X121816810Y-92320905D01*
X121721571Y-92273286D01*
X121673952Y-92225667D01*
X121626333Y-92130429D01*
X121626333Y-91939952D01*
X121673952Y-91844714D01*
X121721571Y-91797095D01*
X121816810Y-91749476D01*
X129794143Y-90543143D02*
X129841762Y-90495524D01*
X129889381Y-90352667D01*
X129889381Y-90257429D01*
X129841762Y-90114571D01*
X129746524Y-90019333D01*
X129651286Y-89971714D01*
X129460810Y-89924095D01*
X129317952Y-89924095D01*
X129127476Y-89971714D01*
X129032238Y-90019333D01*
X128937000Y-90114571D01*
X128889381Y-90257429D01*
X128889381Y-90352667D01*
X128937000Y-90495524D01*
X128984619Y-90543143D01*
X129889381Y-91495524D02*
X129889381Y-90924095D01*
X129889381Y-91209809D02*
X128889381Y-91209809D01*
X129032238Y-91114571D01*
X129127476Y-91019333D01*
X129175095Y-90924095D01*
X128889381Y-91828857D02*
X128889381Y-92495524D01*
X129889381Y-92066952D01*
X114593643Y-90289143D02*
X114641262Y-90241524D01*
X114688881Y-90098667D01*
X114688881Y-90003429D01*
X114641262Y-89860571D01*
X114546024Y-89765333D01*
X114450786Y-89717714D01*
X114260310Y-89670095D01*
X114117452Y-89670095D01*
X113926976Y-89717714D01*
X113831738Y-89765333D01*
X113736500Y-89860571D01*
X113688881Y-90003429D01*
X113688881Y-90098667D01*
X113736500Y-90241524D01*
X113784119Y-90289143D01*
X114688881Y-91241524D02*
X114688881Y-90670095D01*
X114688881Y-90955809D02*
X113688881Y-90955809D01*
X113831738Y-90860571D01*
X113926976Y-90765333D01*
X113974595Y-90670095D01*
X114117452Y-91812952D02*
X114069833Y-91717714D01*
X114022214Y-91670095D01*
X113926976Y-91622476D01*
X113879357Y-91622476D01*
X113784119Y-91670095D01*
X113736500Y-91717714D01*
X113688881Y-91812952D01*
X113688881Y-92003429D01*
X113736500Y-92098667D01*
X113784119Y-92146286D01*
X113879357Y-92193905D01*
X113926976Y-92193905D01*
X114022214Y-92146286D01*
X114069833Y-92098667D01*
X114117452Y-92003429D01*
X114117452Y-91812952D01*
X114165071Y-91717714D01*
X114212690Y-91670095D01*
X114307929Y-91622476D01*
X114498405Y-91622476D01*
X114593643Y-91670095D01*
X114641262Y-91717714D01*
X114688881Y-91812952D01*
X114688881Y-92003429D01*
X114641262Y-92098667D01*
X114593643Y-92146286D01*
X114498405Y-92193905D01*
X114307929Y-92193905D01*
X114212690Y-92146286D01*
X114165071Y-92098667D01*
X114117452Y-92003429D01*
M02*
