M48
;DRILL file {KiCad 4.0.7} date 07/12/19 13:24:11
;FORMAT={3:3/ absolute / metric / suppress leading zeros}
FMAT,2
METRIC,TZ
T1C0.400
T2C0.430
T3C0.650
T4C0.762
T5C0.813
T6C1.000
T7C1.016
T8C2.000
%
G90
G05
M71
T1
X115570Y-57531
X119761Y-80709
X120777Y-80709
X121857Y-80709
X122999Y-80645
X123698Y-91821
X125857Y-76327
X126238Y-94869
X126365Y-77089
X127508Y-91567
X129413Y-94869
X130937Y-89281
X136589Y-57722
X137541Y-79248
X137541Y-86614
X137541Y-91186
X138234Y-80024
X139001Y-80645
X139510Y-81344
X139700Y-99504
X140399Y-101537
X140399Y-103442
X140462Y-82296
X141732Y-83058
X141732Y-84836
X141732Y-87503
X147701Y-83058
X147891Y-78613
X148336Y-80455
X148336Y-82296
X148400Y-81344
X148717Y-67183
X148971Y-83757
X149161Y-78423
X151448Y-89472
X152146Y-71374
X152718Y-90805
X152908Y-83947
X153670Y-83185
X154305Y-88011
X154686Y-79502
X154750Y-71438
X156337Y-79502
X157290Y-83820
X157544Y-57531
X159068Y-86043
X159131Y-77914
X160528Y-92710
X160655Y-77407
X162497Y-82042
X162751Y-92710
X167958Y-84519
X168974Y-78049
X168974Y-79049
X172466Y-91504
X173165Y-83058
X174815Y-98552
X175387Y-89344
X178689Y-57531
X178943Y-93218
X179705Y-97409
X180213Y-81915
X183642Y-81915
X185737Y-81788
X188532Y-87757
X188976Y-77216
X188976Y-81534
X193675Y-80518
X193675Y-83185
X194374Y-76518
X195453Y-72200
X195453Y-73025
X195453Y-73914
X195834Y-78867
X195834Y-80137
X195898Y-87186
X196342Y-85344
X196342Y-86297
X197168Y-60134
X197168Y-66929
X197866Y-60833
X197866Y-66294
X197866Y-73025
X198501Y-76391
X198628Y-61214
X198628Y-65786
X198628Y-73914
X199326Y-61722
X199326Y-65215
X199326Y-72200
T2
X115543Y-91948
X120423Y-91948
T3
X157734Y-89535
X157734Y-90805
X159004Y-89535
X159004Y-90805
X160274Y-89535
X160274Y-90805
X161544Y-89535
X161544Y-90805
X162814Y-89535
X162814Y-90805
T4
X133823Y-91440
T5
X133823Y-93980
X133823Y-96520
X133823Y-99060
X146113Y-91440
X146113Y-93980
X146113Y-96520
X146113Y-99060
T6
X197739Y-90361
X197739Y-92901
X197739Y-95441
X197739Y-97981
T7
X115558Y-61170
X115558Y-63710
X115558Y-66250
X115558Y-68790
X131558Y-61170
X131558Y-63710
X131558Y-66250
X131558Y-68790
X136558Y-61170
X136558Y-63710
X136558Y-66250
X136558Y-68790
X152558Y-61170
X152558Y-63710
X152558Y-66250
X152558Y-68790
X157558Y-61090
X157558Y-63630
X157558Y-66170
X157558Y-68710
X173558Y-61090
X173558Y-63630
X173558Y-66170
X173558Y-68710
X178650Y-61080
X178650Y-63620
X178650Y-66160
X178650Y-68700
X194650Y-61080
X194650Y-63620
X194650Y-66160
X194650Y-68700
T8
X113000Y-53000
X113000Y-102000
X197000Y-53000
X197000Y-102000
T0
M30
