G04 #@! TF.FileFunction,Copper,L2,Bot,Signal*
%FSLAX46Y46*%
G04 Gerber Fmt 4.6, Leading zero omitted, Abs format (unit mm)*
G04 Created by KiCad (PCBNEW 4.0.7) date 07/12/19 13:24:00*
%MOMM*%
%LPD*%
G01*
G04 APERTURE LIST*
%ADD10C,0.100000*%
%ADD11C,3.000000*%
%ADD12C,1.524000*%
%ADD13R,0.600000X2.000000*%
%ADD14R,1.000000X1.000000*%
%ADD15O,1.000000X1.000000*%
%ADD16R,1.000000X1.700000*%
%ADD17C,0.730000*%
%ADD18R,0.800000X0.750000*%
%ADD19R,0.750000X0.800000*%
%ADD20R,1.700000X1.700000*%
%ADD21O,1.700000X1.700000*%
%ADD22C,0.600000*%
%ADD23C,0.250000*%
%ADD24C,0.254000*%
G04 APERTURE END LIST*
D10*
D11*
X113000000Y-102000000D03*
X113000000Y-53000000D03*
X197000000Y-53000000D03*
X197000000Y-102000000D03*
D12*
X194650000Y-61080000D03*
X194650000Y-63620000D03*
X194650000Y-66160000D03*
X194650000Y-68700000D03*
X178650000Y-68700000D03*
X178650000Y-66160000D03*
X178650000Y-63620000D03*
X178650000Y-61080000D03*
D13*
X126365000Y-88012000D03*
X125095000Y-88012000D03*
X123825000Y-88012000D03*
X122555000Y-88012000D03*
X121285000Y-88012000D03*
X120015000Y-88012000D03*
X118745000Y-88012000D03*
X117475000Y-88012000D03*
X116205000Y-88012000D03*
X116205000Y-78612000D03*
X117475000Y-78612000D03*
X118745000Y-78612000D03*
X120015000Y-78612000D03*
X121285000Y-78612000D03*
X122555000Y-78612000D03*
X123825000Y-78612000D03*
X125095000Y-78612000D03*
X126365000Y-78612000D03*
D12*
X146113000Y-91440000D03*
X146113000Y-93980000D03*
X146113000Y-96520000D03*
X146113000Y-99060000D03*
X133823000Y-99060000D03*
X133823000Y-96520000D03*
X133823000Y-93980000D03*
X133823000Y-91440000D03*
D14*
X162814000Y-89535000D03*
D15*
X162814000Y-90805000D03*
X161544000Y-89535000D03*
X161544000Y-90805000D03*
X160274000Y-89535000D03*
X160274000Y-90805000D03*
X159004000Y-89535000D03*
X159004000Y-90805000D03*
X157734000Y-89535000D03*
X157734000Y-90805000D03*
D16*
X150568500Y-91376500D03*
X150568500Y-97676500D03*
X154368500Y-91376500D03*
X154368500Y-97676500D03*
D12*
X152558272Y-61170404D03*
X152558272Y-63710404D03*
X152558272Y-66250404D03*
X152558272Y-68790404D03*
X136558272Y-68790404D03*
X136558272Y-66250404D03*
X136558272Y-63710404D03*
X136558272Y-61170404D03*
X173558272Y-61090404D03*
X173558272Y-63630404D03*
X173558272Y-66170404D03*
X173558272Y-68710404D03*
X157558272Y-68710404D03*
X157558272Y-66170404D03*
X157558272Y-63630404D03*
X157558272Y-61090404D03*
X131558272Y-61170404D03*
X131558272Y-63710404D03*
X131558272Y-66250404D03*
X131558272Y-68790404D03*
X115558272Y-68790404D03*
X115558272Y-66250404D03*
X115558272Y-63710404D03*
X115558272Y-61170404D03*
D17*
X120423000Y-91948000D03*
X115543000Y-91948000D03*
D18*
X154698000Y-83820000D03*
X156198000Y-83820000D03*
X154750000Y-80500000D03*
X156250000Y-80500000D03*
X171640500Y-82042000D03*
X173140500Y-82042000D03*
D19*
X127762000Y-76466000D03*
X127762000Y-77966000D03*
D18*
X118884000Y-90297000D03*
X120384000Y-90297000D03*
D19*
X130937000Y-91936000D03*
X130937000Y-90436000D03*
D18*
X115836000Y-90297000D03*
X117336000Y-90297000D03*
D20*
X197739000Y-90360500D03*
D21*
X197739000Y-92900500D03*
X197739000Y-95440500D03*
X197739000Y-97980500D03*
D22*
X195897500Y-87185500D03*
X196342000Y-85344000D03*
X148971000Y-83756500D03*
X160655000Y-77406500D03*
X180213000Y-81915000D03*
X195834000Y-80137000D03*
X183642000Y-81915000D03*
X162496500Y-82042000D03*
X175387000Y-89344500D03*
X139700000Y-99504500D03*
X172466000Y-91503500D03*
X178943000Y-93218000D03*
X179705000Y-97409000D03*
X174815500Y-98552000D03*
X188531500Y-87757000D03*
X185737500Y-81788000D03*
X198501000Y-76390500D03*
X194373500Y-76517500D03*
X195834000Y-78867000D03*
X196342000Y-86296500D03*
X152717500Y-90805000D03*
X154305000Y-88011000D03*
X167957500Y-84518500D03*
X126238000Y-94869000D03*
X129413000Y-94869000D03*
X154686000Y-79502000D03*
X159067500Y-86042500D03*
X126365000Y-77089000D03*
X159131000Y-77914500D03*
X157289500Y-83820000D03*
X173164500Y-83058000D03*
X156337000Y-79502000D03*
X130937000Y-89281000D03*
X168973500Y-79049500D03*
X188976000Y-77216000D03*
X188976000Y-81534000D03*
X153670000Y-83185000D03*
X168973500Y-78049500D03*
X152908000Y-83947000D03*
X193675000Y-83185000D03*
X193675000Y-80518000D03*
X160528000Y-92710000D03*
X162750500Y-92710000D03*
X151447500Y-89471500D03*
X148336000Y-82296000D03*
X140462000Y-82296000D03*
X137541000Y-91186000D03*
X137541000Y-86614000D03*
X141732000Y-83058000D03*
X147701000Y-83058000D03*
X141732000Y-87503000D03*
X141732000Y-84836000D03*
X125857000Y-76327000D03*
X197167500Y-66929000D03*
X197167500Y-60134500D03*
X178689000Y-57531000D03*
X198628000Y-73914000D03*
X195453000Y-73914000D03*
X198628000Y-65786000D03*
X198628000Y-61214000D03*
X136588500Y-57721500D03*
X197866000Y-60833000D03*
X197866000Y-66294000D03*
X195453000Y-73025000D03*
X197866000Y-73025000D03*
X157543500Y-57531000D03*
X154750000Y-71438000D03*
X148717000Y-67183000D03*
X152146000Y-71374000D03*
X115570000Y-57531000D03*
X195453000Y-72199500D03*
X199326500Y-72199500D03*
X199326500Y-65214500D03*
X199326500Y-61722000D03*
X149161500Y-78422500D03*
X138234085Y-80023656D03*
X121856500Y-80708500D03*
X147891500Y-78613000D03*
X137541000Y-79248000D03*
X122999500Y-80645000D03*
X148336000Y-80454500D03*
X139001500Y-80645000D03*
X120777000Y-80708500D03*
X148399500Y-81343500D03*
X139509500Y-81343500D03*
X119761000Y-80708500D03*
X127508000Y-91567000D03*
X123698000Y-91821000D03*
X140398500Y-101536500D03*
X140398500Y-103441500D03*
D23*
X154698000Y-83820000D02*
X154698000Y-84697000D01*
X154698000Y-84697000D02*
X154686000Y-84709000D01*
X154750000Y-79566000D02*
X154750000Y-80500000D01*
X154686000Y-79502000D02*
X154750000Y-79566000D01*
X157289500Y-84264500D02*
X159067500Y-86042500D01*
X157289500Y-83820000D02*
X157289500Y-84264500D01*
X127762000Y-77966000D02*
X127242000Y-77966000D01*
X127242000Y-77966000D02*
X126365000Y-77089000D01*
X126365000Y-77089000D02*
X126365000Y-78612000D01*
X156888264Y-79375000D02*
X157670500Y-79375000D01*
X157670500Y-79375000D02*
X159131000Y-77914500D01*
X156337000Y-79502000D02*
X156761264Y-79502000D01*
X156761264Y-79502000D02*
X156888264Y-79375000D01*
X156198000Y-83820000D02*
X157289500Y-83820000D01*
X173140500Y-82042000D02*
X173140500Y-83034000D01*
X173140500Y-83034000D02*
X173164500Y-83058000D01*
X156250000Y-79589000D02*
X156250000Y-80500000D01*
X156337000Y-79502000D02*
X156250000Y-79589000D01*
X130937000Y-90436000D02*
X130937000Y-89281000D01*
X188976000Y-77216000D02*
X188976000Y-81534000D01*
X168700999Y-78776999D02*
X168973500Y-79049500D01*
X153670000Y-83185000D02*
X153953000Y-82902000D01*
X161320733Y-78776999D02*
X168700999Y-78776999D01*
X153953000Y-82902000D02*
X157195732Y-82902000D01*
X157195732Y-82902000D02*
X161320733Y-78776999D01*
X161132267Y-78322001D02*
X168700999Y-78322001D01*
X152908000Y-83947000D02*
X152908000Y-82550000D01*
X152908000Y-82550000D02*
X153035000Y-82423000D01*
X153035000Y-82423000D02*
X157031268Y-82423000D01*
X157031268Y-82423000D02*
X161132267Y-78322001D01*
X168700999Y-78322001D02*
X168973500Y-78049500D01*
X193675000Y-80518000D02*
X193675000Y-83185000D01*
X162750500Y-92710000D02*
X160528000Y-92710000D01*
X150568500Y-97676500D02*
X150568500Y-91376500D01*
X151447500Y-89471500D02*
X151023236Y-89471500D01*
X151023236Y-89471500D02*
X150568500Y-89926236D01*
X150568500Y-89926236D02*
X150568500Y-91376500D01*
X156146500Y-93154500D02*
X153096500Y-93154500D01*
X153096500Y-93154500D02*
X151318500Y-91376500D01*
X151318500Y-91376500D02*
X150568500Y-91376500D01*
X157734000Y-91567000D02*
X156146500Y-93154500D01*
X157734000Y-90805000D02*
X157734000Y-91567000D01*
X140462000Y-82296000D02*
X148336000Y-82296000D01*
X137541000Y-86614000D02*
X137541000Y-91186000D01*
X141732000Y-87503000D02*
X141732000Y-84836000D01*
X147701000Y-83058000D02*
X141732000Y-83058000D01*
X125095000Y-78612000D02*
X125095000Y-77089000D01*
X125095000Y-77089000D02*
X125857000Y-76327000D01*
X178650000Y-61080000D02*
X178650000Y-57570000D01*
X197167500Y-60134500D02*
X197167500Y-66929000D01*
X178650000Y-57570000D02*
X178689000Y-57531000D01*
X136558272Y-61170404D02*
X136558272Y-57751728D01*
X198628000Y-73914000D02*
X195453000Y-73914000D01*
X198628000Y-61214000D02*
X198628000Y-65786000D01*
X136558272Y-57751728D02*
X136588500Y-57721500D01*
X157558272Y-61090404D02*
X157558272Y-57545772D01*
X197866000Y-60833000D02*
X197866000Y-66294000D01*
X197866000Y-73025000D02*
X195453000Y-73025000D01*
X157558272Y-57545772D02*
X157543500Y-57531000D01*
X154686000Y-71374000D02*
X154686000Y-67056000D01*
X154750000Y-71438000D02*
X154686000Y-71374000D01*
X173558272Y-66170404D02*
X175644404Y-66170404D01*
X177038000Y-67564000D02*
X179705000Y-67564000D01*
X175644404Y-66170404D02*
X177038000Y-67564000D01*
X152558272Y-66250404D02*
X155531404Y-66250404D01*
X156845000Y-67564000D02*
X159131000Y-67564000D01*
X155531404Y-66250404D02*
X156845000Y-67564000D01*
X131558272Y-66250404D02*
X133560404Y-66250404D01*
X134874000Y-67564000D02*
X138176000Y-67564000D01*
X133560404Y-66250404D02*
X134874000Y-67564000D01*
X148717000Y-67945000D02*
X148717000Y-67183000D01*
X152146000Y-71374000D02*
X148717000Y-67945000D01*
X115558272Y-57542728D02*
X115570000Y-57531000D01*
X115558272Y-61170404D02*
X115558272Y-57542728D01*
X199326500Y-72199500D02*
X195453000Y-72199500D01*
X199326500Y-61722000D02*
X199326500Y-65214500D01*
X139821490Y-80194990D02*
X147389010Y-80194990D01*
X147389010Y-80194990D02*
X149161500Y-78422500D01*
X138234085Y-80023656D02*
X138347429Y-80137000D01*
X138347429Y-80137000D02*
X138584498Y-80137000D01*
X138701499Y-80019999D02*
X139646499Y-80019999D01*
X138584498Y-80137000D02*
X138701499Y-80019999D01*
X139646499Y-80019999D02*
X139821490Y-80194990D01*
X122555000Y-78612000D02*
X122555000Y-80010000D01*
X122555000Y-80010000D02*
X121856500Y-80708500D01*
X147202610Y-79744980D02*
X147891500Y-79056090D01*
X147891500Y-79056090D02*
X147891500Y-78613000D01*
X140069980Y-79744980D02*
X147202610Y-79744980D01*
X138751989Y-79569989D02*
X139894989Y-79569989D01*
X139894989Y-79569989D02*
X140069980Y-79744980D01*
X137541000Y-79248000D02*
X137840999Y-78948001D01*
X137840999Y-78948001D02*
X138130001Y-78948001D01*
X138130001Y-78948001D02*
X138751989Y-79569989D01*
X123825000Y-78612000D02*
X123825000Y-79819500D01*
X123825000Y-79819500D02*
X122999500Y-80645000D01*
X139001500Y-80645000D02*
X148145500Y-80645000D01*
X148145500Y-80645000D02*
X148336000Y-80454500D01*
X121285000Y-78612000D02*
X121285000Y-80200500D01*
X121285000Y-80200500D02*
X120777000Y-80708500D01*
X139509500Y-81343500D02*
X148399500Y-81343500D01*
X120015000Y-78612000D02*
X120015000Y-80454500D01*
X120015000Y-80454500D02*
X119761000Y-80708500D01*
X126365000Y-88012000D02*
X126365000Y-90424000D01*
X126365000Y-90424000D02*
X127508000Y-91567000D01*
X125095000Y-90424000D02*
X123698000Y-91821000D01*
X125095000Y-88012000D02*
X125095000Y-90424000D01*
X118884000Y-90297000D02*
X118884000Y-88151000D01*
X118884000Y-88151000D02*
X118745000Y-88012000D01*
X118884000Y-90897000D02*
X118508000Y-91273000D01*
X118508000Y-91273000D02*
X118508000Y-91948000D01*
X118508000Y-91948000D02*
X120423000Y-91948000D01*
X118884000Y-90297000D02*
X118884000Y-90897000D01*
X117336000Y-90297000D02*
X117336000Y-88151000D01*
X117336000Y-88151000D02*
X117475000Y-88012000D01*
X117336000Y-90897000D02*
X117458000Y-91019000D01*
X117458000Y-91948000D02*
X115543000Y-91948000D01*
X117458000Y-91019000D02*
X117458000Y-91948000D01*
X117336000Y-90297000D02*
X117336000Y-90897000D01*
X117475000Y-88012000D02*
X117475000Y-88712000D01*
X140398500Y-101536500D02*
X140398500Y-103441500D01*
D24*
G36*
X135374643Y-65458034D02*
X135161515Y-65971304D01*
X135161030Y-66527065D01*
X135373262Y-67040707D01*
X135765902Y-67434033D01*
X135973784Y-67520353D01*
X135868150Y-67564000D01*
X132247628Y-67564000D01*
X131837372Y-67393647D01*
X131281611Y-67393162D01*
X130868150Y-67564000D01*
X116247628Y-67564000D01*
X116142760Y-67520455D01*
X116348575Y-67435414D01*
X116741901Y-67042774D01*
X116955029Y-66529504D01*
X116955514Y-65973743D01*
X116743282Y-65460101D01*
X116688277Y-65405000D01*
X135427770Y-65405000D01*
X135374643Y-65458034D01*
X135374643Y-65458034D01*
G37*
X135374643Y-65458034D02*
X135161515Y-65971304D01*
X135161030Y-66527065D01*
X135373262Y-67040707D01*
X135765902Y-67434033D01*
X135973784Y-67520353D01*
X135868150Y-67564000D01*
X132247628Y-67564000D01*
X131837372Y-67393647D01*
X131281611Y-67393162D01*
X130868150Y-67564000D01*
X116247628Y-67564000D01*
X116142760Y-67520455D01*
X116348575Y-67435414D01*
X116741901Y-67042774D01*
X116955029Y-66529504D01*
X116955514Y-65973743D01*
X116743282Y-65460101D01*
X116688277Y-65405000D01*
X135427770Y-65405000D01*
X135374643Y-65458034D01*
G36*
X156161515Y-65891304D02*
X156161030Y-66447065D01*
X156373262Y-66960707D01*
X156765902Y-67354033D01*
X156973784Y-67440353D01*
X156767969Y-67525394D01*
X156729296Y-67564000D01*
X153247628Y-67564000D01*
X152837372Y-67393647D01*
X152281611Y-67393162D01*
X151868150Y-67564000D01*
X149571198Y-67564000D01*
X149651838Y-67369799D01*
X149652162Y-66997833D01*
X149510117Y-66654057D01*
X149247327Y-66390808D01*
X148903799Y-66248162D01*
X148531833Y-66247838D01*
X148188057Y-66389883D01*
X147924808Y-66652673D01*
X147782162Y-66996201D01*
X147781838Y-67368167D01*
X147862754Y-67564000D01*
X137247628Y-67564000D01*
X137142760Y-67520455D01*
X137348575Y-67435414D01*
X137741901Y-67042774D01*
X137955029Y-66529504D01*
X137955514Y-65973743D01*
X137743282Y-65460101D01*
X137688277Y-65405000D01*
X156363446Y-65405000D01*
X156161515Y-65891304D01*
X156161515Y-65891304D01*
G37*
X156161515Y-65891304D02*
X156161030Y-66447065D01*
X156373262Y-66960707D01*
X156765902Y-67354033D01*
X156973784Y-67440353D01*
X156767969Y-67525394D01*
X156729296Y-67564000D01*
X153247628Y-67564000D01*
X152837372Y-67393647D01*
X152281611Y-67393162D01*
X151868150Y-67564000D01*
X149571198Y-67564000D01*
X149651838Y-67369799D01*
X149652162Y-66997833D01*
X149510117Y-66654057D01*
X149247327Y-66390808D01*
X148903799Y-66248162D01*
X148531833Y-66247838D01*
X148188057Y-66389883D01*
X147924808Y-66652673D01*
X147782162Y-66996201D01*
X147781838Y-67368167D01*
X147862754Y-67564000D01*
X137247628Y-67564000D01*
X137142760Y-67520455D01*
X137348575Y-67435414D01*
X137741901Y-67042774D01*
X137955029Y-66529504D01*
X137955514Y-65973743D01*
X137743282Y-65460101D01*
X137688277Y-65405000D01*
X156363446Y-65405000D01*
X156161515Y-65891304D01*
G36*
X177253243Y-65880900D02*
X177252758Y-66436661D01*
X177464990Y-66950303D01*
X177857630Y-67343629D01*
X178065512Y-67429949D01*
X177859697Y-67514990D01*
X177810601Y-67564000D01*
X174387802Y-67564000D01*
X174350642Y-67526775D01*
X173837372Y-67313647D01*
X173281611Y-67313162D01*
X172767969Y-67525394D01*
X172729296Y-67564000D01*
X158387802Y-67564000D01*
X158350642Y-67526775D01*
X158142760Y-67440455D01*
X158348575Y-67355414D01*
X158741901Y-66962774D01*
X158955029Y-66449504D01*
X158955514Y-65893743D01*
X158753570Y-65405000D01*
X177450854Y-65405000D01*
X177253243Y-65880900D01*
X177253243Y-65880900D01*
G37*
X177253243Y-65880900D02*
X177252758Y-66436661D01*
X177464990Y-66950303D01*
X177857630Y-67343629D01*
X178065512Y-67429949D01*
X177859697Y-67514990D01*
X177810601Y-67564000D01*
X174387802Y-67564000D01*
X174350642Y-67526775D01*
X173837372Y-67313647D01*
X173281611Y-67313162D01*
X172767969Y-67525394D01*
X172729296Y-67564000D01*
X158387802Y-67564000D01*
X158350642Y-67526775D01*
X158142760Y-67440455D01*
X158348575Y-67355414D01*
X158741901Y-66962774D01*
X158955029Y-66449504D01*
X158955514Y-65893743D01*
X158753570Y-65405000D01*
X177450854Y-65405000D01*
X177253243Y-65880900D01*
G36*
X196088000Y-67564000D02*
X195489916Y-67564000D01*
X195442370Y-67516371D01*
X194929100Y-67303243D01*
X194373339Y-67302758D01*
X193859697Y-67514990D01*
X193810601Y-67564000D01*
X179489916Y-67564000D01*
X179442370Y-67516371D01*
X179234488Y-67430051D01*
X179440303Y-67345010D01*
X179833629Y-66952370D01*
X180046757Y-66439100D01*
X180047242Y-65883339D01*
X179849597Y-65405000D01*
X196088000Y-65405000D01*
X196088000Y-67564000D01*
X196088000Y-67564000D01*
G37*
X196088000Y-67564000D02*
X195489916Y-67564000D01*
X195442370Y-67516371D01*
X194929100Y-67303243D01*
X194373339Y-67302758D01*
X193859697Y-67514990D01*
X193810601Y-67564000D01*
X179489916Y-67564000D01*
X179442370Y-67516371D01*
X179234488Y-67430051D01*
X179440303Y-67345010D01*
X179833629Y-66952370D01*
X180046757Y-66439100D01*
X180047242Y-65883339D01*
X179849597Y-65405000D01*
X196088000Y-65405000D01*
X196088000Y-67564000D01*
G36*
X199290000Y-60553711D02*
X199158327Y-60421808D01*
X198814799Y-60279162D01*
X198634108Y-60279005D01*
X198396327Y-60040808D01*
X198087467Y-59912557D01*
X197960617Y-59605557D01*
X197697827Y-59342308D01*
X197354299Y-59199662D01*
X196982333Y-59199338D01*
X196638557Y-59341383D01*
X196375308Y-59604173D01*
X196232662Y-59947701D01*
X196232338Y-60319667D01*
X196374383Y-60663443D01*
X196407500Y-60696618D01*
X196407500Y-64643000D01*
X195602596Y-64643000D01*
X195833629Y-64412370D01*
X196046757Y-63899100D01*
X196047242Y-63343339D01*
X195835010Y-62829697D01*
X195442370Y-62436371D01*
X195250273Y-62356605D01*
X195381143Y-62302397D01*
X195450608Y-62060213D01*
X194650000Y-61259605D01*
X193849392Y-62060213D01*
X193918857Y-62302397D01*
X194059318Y-62352509D01*
X193859697Y-62434990D01*
X193466371Y-62827630D01*
X193253243Y-63340900D01*
X193252758Y-63896661D01*
X193464990Y-64410303D01*
X193697281Y-64643000D01*
X179602596Y-64643000D01*
X179833629Y-64412370D01*
X180046757Y-63899100D01*
X180047242Y-63343339D01*
X179835010Y-62829697D01*
X179442370Y-62436371D01*
X179234488Y-62350051D01*
X179440303Y-62265010D01*
X179833629Y-61872370D01*
X180046757Y-61359100D01*
X180047181Y-60872302D01*
X193240856Y-60872302D01*
X193268638Y-61427368D01*
X193427603Y-61811143D01*
X193669787Y-61880608D01*
X194470395Y-61080000D01*
X194829605Y-61080000D01*
X195630213Y-61880608D01*
X195872397Y-61811143D01*
X196059144Y-61287698D01*
X196031362Y-60732632D01*
X195872397Y-60348857D01*
X195630213Y-60279392D01*
X194829605Y-61080000D01*
X194470395Y-61080000D01*
X193669787Y-60279392D01*
X193427603Y-60348857D01*
X193240856Y-60872302D01*
X180047181Y-60872302D01*
X180047242Y-60803339D01*
X179835010Y-60289697D01*
X179645432Y-60099787D01*
X193849392Y-60099787D01*
X194650000Y-60900395D01*
X195450608Y-60099787D01*
X195381143Y-59857603D01*
X194857698Y-59670856D01*
X194302632Y-59698638D01*
X193918857Y-59857603D01*
X193849392Y-60099787D01*
X179645432Y-60099787D01*
X179442370Y-59896371D01*
X179410000Y-59882930D01*
X179410000Y-58132395D01*
X179481192Y-58061327D01*
X179623838Y-57717799D01*
X179624162Y-57345833D01*
X179482117Y-57002057D01*
X179219327Y-56738808D01*
X178875799Y-56596162D01*
X178503833Y-56595838D01*
X178160057Y-56737883D01*
X177896808Y-57000673D01*
X177754162Y-57344201D01*
X177753838Y-57716167D01*
X177890000Y-58045705D01*
X177890000Y-59882469D01*
X177859697Y-59894990D01*
X177466371Y-60287630D01*
X177253243Y-60800900D01*
X177252758Y-61356661D01*
X177464990Y-61870303D01*
X177857630Y-62263629D01*
X178065512Y-62349949D01*
X177859697Y-62434990D01*
X177466371Y-62827630D01*
X177253243Y-63340900D01*
X177252758Y-63896661D01*
X177464990Y-64410303D01*
X177697281Y-64643000D01*
X174521290Y-64643000D01*
X174741901Y-64422774D01*
X174955029Y-63909504D01*
X174955514Y-63353743D01*
X174743282Y-62840101D01*
X174350642Y-62446775D01*
X174158545Y-62367009D01*
X174289415Y-62312801D01*
X174358880Y-62070617D01*
X173558272Y-61270009D01*
X172757664Y-62070617D01*
X172827129Y-62312801D01*
X172967590Y-62362913D01*
X172767969Y-62445394D01*
X172374643Y-62838034D01*
X172161515Y-63351304D01*
X172161030Y-63907065D01*
X172373262Y-64420707D01*
X172595167Y-64643000D01*
X158521290Y-64643000D01*
X158741901Y-64422774D01*
X158955029Y-63909504D01*
X158955514Y-63353743D01*
X158743282Y-62840101D01*
X158350642Y-62446775D01*
X158142760Y-62360455D01*
X158348575Y-62275414D01*
X158741901Y-61882774D01*
X158955029Y-61369504D01*
X158955453Y-60882706D01*
X172149128Y-60882706D01*
X172176910Y-61437772D01*
X172335875Y-61821547D01*
X172578059Y-61891012D01*
X173378667Y-61090404D01*
X173737877Y-61090404D01*
X174538485Y-61891012D01*
X174780669Y-61821547D01*
X174967416Y-61298102D01*
X174939634Y-60743036D01*
X174780669Y-60359261D01*
X174538485Y-60289796D01*
X173737877Y-61090404D01*
X173378667Y-61090404D01*
X172578059Y-60289796D01*
X172335875Y-60359261D01*
X172149128Y-60882706D01*
X158955453Y-60882706D01*
X158955514Y-60813743D01*
X158743282Y-60300101D01*
X158553704Y-60110191D01*
X172757664Y-60110191D01*
X173558272Y-60910799D01*
X174358880Y-60110191D01*
X174289415Y-59868007D01*
X173765970Y-59681260D01*
X173210904Y-59709042D01*
X172827129Y-59868007D01*
X172757664Y-60110191D01*
X158553704Y-60110191D01*
X158350642Y-59906775D01*
X158318272Y-59893334D01*
X158318272Y-58078717D01*
X158335692Y-58061327D01*
X158478338Y-57717799D01*
X158478662Y-57345833D01*
X158336617Y-57002057D01*
X158073827Y-56738808D01*
X157730299Y-56596162D01*
X157358333Y-56595838D01*
X157014557Y-56737883D01*
X156751308Y-57000673D01*
X156608662Y-57344201D01*
X156608338Y-57716167D01*
X156750383Y-58059943D01*
X156798272Y-58107916D01*
X156798272Y-59892873D01*
X156767969Y-59905394D01*
X156374643Y-60298034D01*
X156161515Y-60811304D01*
X156161030Y-61367065D01*
X156373262Y-61880707D01*
X156765902Y-62274033D01*
X156973784Y-62360353D01*
X156767969Y-62445394D01*
X156374643Y-62838034D01*
X156161515Y-63351304D01*
X156161030Y-63907065D01*
X156373262Y-64420707D01*
X156595167Y-64643000D01*
X153601430Y-64643000D01*
X153741901Y-64502774D01*
X153955029Y-63989504D01*
X153955514Y-63433743D01*
X153743282Y-62920101D01*
X153350642Y-62526775D01*
X153158545Y-62447009D01*
X153289415Y-62392801D01*
X153358880Y-62150617D01*
X152558272Y-61350009D01*
X151757664Y-62150617D01*
X151827129Y-62392801D01*
X151967590Y-62442913D01*
X151767969Y-62525394D01*
X151374643Y-62918034D01*
X151161515Y-63431304D01*
X151161030Y-63987065D01*
X151373262Y-64500707D01*
X151515307Y-64643000D01*
X137601430Y-64643000D01*
X137741901Y-64502774D01*
X137955029Y-63989504D01*
X137955514Y-63433743D01*
X137743282Y-62920101D01*
X137350642Y-62526775D01*
X137142760Y-62440455D01*
X137348575Y-62355414D01*
X137741901Y-61962774D01*
X137955029Y-61449504D01*
X137955453Y-60962706D01*
X151149128Y-60962706D01*
X151176910Y-61517772D01*
X151335875Y-61901547D01*
X151578059Y-61971012D01*
X152378667Y-61170404D01*
X152737877Y-61170404D01*
X153538485Y-61971012D01*
X153780669Y-61901547D01*
X153967416Y-61378102D01*
X153939634Y-60823036D01*
X153780669Y-60439261D01*
X153538485Y-60369796D01*
X152737877Y-61170404D01*
X152378667Y-61170404D01*
X151578059Y-60369796D01*
X151335875Y-60439261D01*
X151149128Y-60962706D01*
X137955453Y-60962706D01*
X137955514Y-60893743D01*
X137743282Y-60380101D01*
X137553704Y-60190191D01*
X151757664Y-60190191D01*
X152558272Y-60990799D01*
X153358880Y-60190191D01*
X153289415Y-59948007D01*
X152765970Y-59761260D01*
X152210904Y-59789042D01*
X151827129Y-59948007D01*
X151757664Y-60190191D01*
X137553704Y-60190191D01*
X137350642Y-59986775D01*
X137318272Y-59973334D01*
X137318272Y-58314138D01*
X137380692Y-58251827D01*
X137523338Y-57908299D01*
X137523662Y-57536333D01*
X137381617Y-57192557D01*
X137118827Y-56929308D01*
X136775299Y-56786662D01*
X136403333Y-56786338D01*
X136059557Y-56928383D01*
X135796308Y-57191173D01*
X135653662Y-57534701D01*
X135653338Y-57906667D01*
X135795383Y-58250443D01*
X135798272Y-58253337D01*
X135798272Y-59972873D01*
X135767969Y-59985394D01*
X135374643Y-60378034D01*
X135161515Y-60891304D01*
X135161030Y-61447065D01*
X135373262Y-61960707D01*
X135765902Y-62354033D01*
X135973784Y-62440353D01*
X135767969Y-62525394D01*
X135374643Y-62918034D01*
X135161515Y-63431304D01*
X135161030Y-63987065D01*
X135373262Y-64500707D01*
X135515307Y-64643000D01*
X132601430Y-64643000D01*
X132741901Y-64502774D01*
X132955029Y-63989504D01*
X132955514Y-63433743D01*
X132743282Y-62920101D01*
X132350642Y-62526775D01*
X132158545Y-62447009D01*
X132289415Y-62392801D01*
X132358880Y-62150617D01*
X131558272Y-61350009D01*
X130757664Y-62150617D01*
X130827129Y-62392801D01*
X130967590Y-62442913D01*
X130767969Y-62525394D01*
X130374643Y-62918034D01*
X130161515Y-63431304D01*
X130161030Y-63987065D01*
X130373262Y-64500707D01*
X130515307Y-64643000D01*
X116601430Y-64643000D01*
X116741901Y-64502774D01*
X116955029Y-63989504D01*
X116955514Y-63433743D01*
X116743282Y-62920101D01*
X116350642Y-62526775D01*
X116142760Y-62440455D01*
X116348575Y-62355414D01*
X116741901Y-61962774D01*
X116955029Y-61449504D01*
X116955453Y-60962706D01*
X130149128Y-60962706D01*
X130176910Y-61517772D01*
X130335875Y-61901547D01*
X130578059Y-61971012D01*
X131378667Y-61170404D01*
X131737877Y-61170404D01*
X132538485Y-61971012D01*
X132780669Y-61901547D01*
X132967416Y-61378102D01*
X132939634Y-60823036D01*
X132780669Y-60439261D01*
X132538485Y-60369796D01*
X131737877Y-61170404D01*
X131378667Y-61170404D01*
X130578059Y-60369796D01*
X130335875Y-60439261D01*
X130149128Y-60962706D01*
X116955453Y-60962706D01*
X116955514Y-60893743D01*
X116743282Y-60380101D01*
X116553704Y-60190191D01*
X130757664Y-60190191D01*
X131558272Y-60990799D01*
X132358880Y-60190191D01*
X132289415Y-59948007D01*
X131765970Y-59761260D01*
X131210904Y-59789042D01*
X130827129Y-59948007D01*
X130757664Y-60190191D01*
X116553704Y-60190191D01*
X116350642Y-59986775D01*
X116318272Y-59973334D01*
X116318272Y-58105170D01*
X116362192Y-58061327D01*
X116504838Y-57717799D01*
X116505162Y-57345833D01*
X116363117Y-57002057D01*
X116100327Y-56738808D01*
X115756799Y-56596162D01*
X115384833Y-56595838D01*
X115041057Y-56737883D01*
X114777808Y-57000673D01*
X114635162Y-57344201D01*
X114634838Y-57716167D01*
X114776883Y-58059943D01*
X114798272Y-58081369D01*
X114798272Y-59972873D01*
X114767969Y-59985394D01*
X114374643Y-60378034D01*
X114161515Y-60891304D01*
X114161030Y-61447065D01*
X114373262Y-61960707D01*
X114765902Y-62354033D01*
X114973784Y-62440353D01*
X114767969Y-62525394D01*
X114374643Y-62918034D01*
X114161515Y-63431304D01*
X114161030Y-63987065D01*
X114373262Y-64500707D01*
X114515307Y-64643000D01*
X113538000Y-64643000D01*
X113488590Y-64653006D01*
X113446965Y-64681447D01*
X113419685Y-64723841D01*
X113411000Y-64770000D01*
X113411000Y-68199000D01*
X113421006Y-68248410D01*
X113449447Y-68290035D01*
X113491841Y-68317315D01*
X113538000Y-68326000D01*
X114238460Y-68326000D01*
X114161515Y-68511304D01*
X114161030Y-69067065D01*
X114373262Y-69580707D01*
X114765902Y-69974033D01*
X115279172Y-70187161D01*
X115834933Y-70187646D01*
X116348575Y-69975414D01*
X116741901Y-69582774D01*
X116955029Y-69069504D01*
X116955514Y-68513743D01*
X116877940Y-68326000D01*
X130238460Y-68326000D01*
X130161515Y-68511304D01*
X130161030Y-69067065D01*
X130373262Y-69580707D01*
X130765902Y-69974033D01*
X131279172Y-70187161D01*
X131834933Y-70187646D01*
X132348575Y-69975414D01*
X132741901Y-69582774D01*
X132955029Y-69069504D01*
X132955514Y-68513743D01*
X132877940Y-68326000D01*
X135238460Y-68326000D01*
X135161515Y-68511304D01*
X135161030Y-69067065D01*
X135373262Y-69580707D01*
X135765902Y-69974033D01*
X136279172Y-70187161D01*
X136834933Y-70187646D01*
X137348575Y-69975414D01*
X137741901Y-69582774D01*
X137955029Y-69069504D01*
X137955514Y-68513743D01*
X137877940Y-68326000D01*
X148075095Y-68326000D01*
X148179599Y-68482401D01*
X151210878Y-71513680D01*
X151210838Y-71559167D01*
X151352883Y-71902943D01*
X151615673Y-72166192D01*
X151959201Y-72308838D01*
X152331167Y-72309162D01*
X152674943Y-72167117D01*
X152938192Y-71904327D01*
X153080838Y-71560799D01*
X153081162Y-71188833D01*
X152939117Y-70845057D01*
X152676327Y-70581808D01*
X152332799Y-70439162D01*
X152285923Y-70439121D01*
X151859842Y-70013040D01*
X152279172Y-70187161D01*
X152834933Y-70187646D01*
X153348575Y-69975414D01*
X153741901Y-69582774D01*
X153926000Y-69139414D01*
X153926000Y-70984275D01*
X153815162Y-71251201D01*
X153814838Y-71623167D01*
X153956883Y-71966943D01*
X154219673Y-72230192D01*
X154563201Y-72372838D01*
X154935167Y-72373162D01*
X155278943Y-72231117D01*
X155542192Y-71968327D01*
X155684838Y-71624799D01*
X155685162Y-71252833D01*
X155543117Y-70909057D01*
X155446000Y-70811770D01*
X155446000Y-68326000D01*
X156205241Y-68326000D01*
X156161515Y-68431304D01*
X156161030Y-68987065D01*
X156373262Y-69500707D01*
X156765902Y-69894033D01*
X157279172Y-70107161D01*
X157834933Y-70107646D01*
X158348575Y-69895414D01*
X158741901Y-69502774D01*
X158955029Y-68989504D01*
X158955514Y-68433743D01*
X158910995Y-68326000D01*
X172205241Y-68326000D01*
X172161515Y-68431304D01*
X172161030Y-68987065D01*
X172373262Y-69500707D01*
X172765902Y-69894033D01*
X173279172Y-70107161D01*
X173834933Y-70107646D01*
X174348575Y-69895414D01*
X174741901Y-69502774D01*
X174955029Y-68989504D01*
X174955514Y-68433743D01*
X174910996Y-68326000D01*
X177292649Y-68326000D01*
X177253243Y-68420900D01*
X177252758Y-68976661D01*
X177464990Y-69490303D01*
X177857630Y-69883629D01*
X178370900Y-70096757D01*
X178926661Y-70097242D01*
X179440303Y-69885010D01*
X179833629Y-69492370D01*
X180046757Y-68979100D01*
X180047242Y-68423339D01*
X180007022Y-68326000D01*
X193292649Y-68326000D01*
X193253243Y-68420900D01*
X193252758Y-68976661D01*
X193464990Y-69490303D01*
X193857630Y-69883629D01*
X194370900Y-70096757D01*
X194926661Y-70097242D01*
X195440303Y-69885010D01*
X195833629Y-69492370D01*
X196046757Y-68979100D01*
X196047242Y-68423339D01*
X196007022Y-68326000D01*
X196723000Y-68326000D01*
X196772410Y-68315994D01*
X196814035Y-68287553D01*
X196841315Y-68245159D01*
X196850000Y-68199000D01*
X196850000Y-67809566D01*
X196980701Y-67863838D01*
X197352667Y-67864162D01*
X197696443Y-67722117D01*
X197959692Y-67459327D01*
X198056114Y-67227118D01*
X198394943Y-67087117D01*
X198658192Y-66824327D01*
X198701071Y-66721064D01*
X198813167Y-66721162D01*
X199156943Y-66579117D01*
X199290000Y-66446292D01*
X199290000Y-71264467D01*
X199141333Y-71264338D01*
X198797557Y-71406383D01*
X198764382Y-71439500D01*
X196015463Y-71439500D01*
X195983327Y-71407308D01*
X195639799Y-71264662D01*
X195267833Y-71264338D01*
X194924057Y-71406383D01*
X194660808Y-71669173D01*
X194518162Y-72012701D01*
X194517838Y-72384667D01*
X194611929Y-72612386D01*
X194518162Y-72838201D01*
X194517838Y-73210167D01*
X194625080Y-73469714D01*
X194518162Y-73727201D01*
X194517838Y-74099167D01*
X194659883Y-74442943D01*
X194922673Y-74706192D01*
X195266201Y-74848838D01*
X195638167Y-74849162D01*
X195981943Y-74707117D01*
X196015118Y-74674000D01*
X198065537Y-74674000D01*
X198097673Y-74706192D01*
X198441201Y-74848838D01*
X198813167Y-74849162D01*
X199156943Y-74707117D01*
X199290000Y-74574292D01*
X199290000Y-104290000D01*
X140793406Y-104290000D01*
X140927443Y-104234617D01*
X141190692Y-103971827D01*
X141333338Y-103628299D01*
X141333662Y-103256333D01*
X141191617Y-102912557D01*
X141158500Y-102879382D01*
X141158500Y-102422815D01*
X194864630Y-102422815D01*
X195188980Y-103207800D01*
X195789041Y-103808909D01*
X196573459Y-104134628D01*
X197422815Y-104135370D01*
X198207800Y-103811020D01*
X198808909Y-103210959D01*
X199134628Y-102426541D01*
X199135370Y-101577185D01*
X198811020Y-100792200D01*
X198210959Y-100191091D01*
X197426541Y-99865372D01*
X196577185Y-99864630D01*
X195792200Y-100188980D01*
X195191091Y-100789041D01*
X194865372Y-101573459D01*
X194864630Y-102422815D01*
X141158500Y-102422815D01*
X141158500Y-102098963D01*
X141190692Y-102066827D01*
X141333338Y-101723299D01*
X141333662Y-101351333D01*
X141191617Y-101007557D01*
X140928827Y-100744308D01*
X140585299Y-100601662D01*
X140213333Y-100601338D01*
X139869557Y-100743383D01*
X139606308Y-101006173D01*
X139463662Y-101349701D01*
X139463338Y-101721667D01*
X139605383Y-102065443D01*
X139638500Y-102098618D01*
X139638500Y-102879037D01*
X139606308Y-102911173D01*
X139463662Y-103254701D01*
X139463338Y-103626667D01*
X139605383Y-103970443D01*
X139868173Y-104233692D01*
X140003777Y-104290000D01*
X110710000Y-104290000D01*
X110710000Y-102422815D01*
X110864630Y-102422815D01*
X111188980Y-103207800D01*
X111789041Y-103808909D01*
X112573459Y-104134628D01*
X113422815Y-104135370D01*
X114207800Y-103811020D01*
X114808909Y-103210959D01*
X115134628Y-102426541D01*
X115135370Y-101577185D01*
X114811020Y-100792200D01*
X114210959Y-100191091D01*
X113426541Y-99865372D01*
X112577185Y-99864630D01*
X111792200Y-100188980D01*
X111191091Y-100789041D01*
X110865372Y-101573459D01*
X110864630Y-102422815D01*
X110710000Y-102422815D01*
X110710000Y-92146040D01*
X114542827Y-92146040D01*
X114694747Y-92513714D01*
X114975806Y-92795264D01*
X115343215Y-92947826D01*
X115741040Y-92948173D01*
X116108714Y-92796253D01*
X116197121Y-92708000D01*
X117458000Y-92708000D01*
X117748839Y-92650148D01*
X117983000Y-92493687D01*
X118217161Y-92650148D01*
X118508000Y-92708000D01*
X119768694Y-92708000D01*
X119855806Y-92795264D01*
X120223215Y-92947826D01*
X120621040Y-92948173D01*
X120988714Y-92796253D01*
X121270264Y-92515194D01*
X121422826Y-92147785D01*
X121423173Y-91749960D01*
X121271253Y-91382286D01*
X121112496Y-91223251D01*
X121143698Y-91210327D01*
X121322327Y-91031699D01*
X121419000Y-90798310D01*
X121419000Y-90582750D01*
X121260250Y-90424000D01*
X120511000Y-90424000D01*
X120511000Y-90444000D01*
X120257000Y-90444000D01*
X120257000Y-90424000D01*
X120237000Y-90424000D01*
X120237000Y-90170000D01*
X120257000Y-90170000D01*
X120257000Y-90150000D01*
X120511000Y-90150000D01*
X120511000Y-90170000D01*
X121260250Y-90170000D01*
X121419000Y-90011250D01*
X121419000Y-89795690D01*
X121362563Y-89659440D01*
X121585000Y-89659440D01*
X121820317Y-89615162D01*
X121919528Y-89551322D01*
X122003110Y-89608431D01*
X122255000Y-89659440D01*
X122855000Y-89659440D01*
X123090317Y-89615162D01*
X123189528Y-89551322D01*
X123273110Y-89608431D01*
X123525000Y-89659440D01*
X124125000Y-89659440D01*
X124335000Y-89619926D01*
X124335000Y-90109198D01*
X123558320Y-90885878D01*
X123512833Y-90885838D01*
X123169057Y-91027883D01*
X122905808Y-91290673D01*
X122763162Y-91634201D01*
X122762838Y-92006167D01*
X122904883Y-92349943D01*
X123167673Y-92613192D01*
X123511201Y-92755838D01*
X123883167Y-92756162D01*
X124226943Y-92614117D01*
X124490192Y-92351327D01*
X124632838Y-92007799D01*
X124632879Y-91960923D01*
X125632401Y-90961401D01*
X125730000Y-90815334D01*
X125827599Y-90961401D01*
X126572878Y-91706680D01*
X126572838Y-91752167D01*
X126714883Y-92095943D01*
X126977673Y-92359192D01*
X127321201Y-92501838D01*
X127693167Y-92502162D01*
X128036943Y-92360117D01*
X128175551Y-92221750D01*
X129927000Y-92221750D01*
X129927000Y-92462309D01*
X130023673Y-92695698D01*
X130202301Y-92874327D01*
X130435690Y-92971000D01*
X130651250Y-92971000D01*
X130810000Y-92812250D01*
X130810000Y-92063000D01*
X131064000Y-92063000D01*
X131064000Y-92812250D01*
X131222750Y-92971000D01*
X131438310Y-92971000D01*
X131671699Y-92874327D01*
X131850327Y-92695698D01*
X131947000Y-92462309D01*
X131947000Y-92221750D01*
X131788250Y-92063000D01*
X131064000Y-92063000D01*
X130810000Y-92063000D01*
X130085750Y-92063000D01*
X129927000Y-92221750D01*
X128175551Y-92221750D01*
X128300192Y-92097327D01*
X128442838Y-91753799D01*
X128443162Y-91381833D01*
X128301117Y-91038057D01*
X128038327Y-90774808D01*
X127694799Y-90632162D01*
X127647923Y-90632121D01*
X127125000Y-90109198D01*
X127125000Y-90036000D01*
X129914560Y-90036000D01*
X129914560Y-90836000D01*
X129958838Y-91071317D01*
X130025329Y-91174646D01*
X130023673Y-91176302D01*
X129927000Y-91409691D01*
X129927000Y-91650250D01*
X130085750Y-91809000D01*
X130810000Y-91809000D01*
X130810000Y-91789000D01*
X131064000Y-91789000D01*
X131064000Y-91809000D01*
X131788250Y-91809000D01*
X131880589Y-91716661D01*
X132425758Y-91716661D01*
X132637990Y-92230303D01*
X133030630Y-92623629D01*
X133238512Y-92709949D01*
X133032697Y-92794990D01*
X132639371Y-93187630D01*
X132426243Y-93700900D01*
X132425758Y-94256661D01*
X132637990Y-94770303D01*
X133030630Y-95163629D01*
X133238512Y-95249949D01*
X133032697Y-95334990D01*
X132639371Y-95727630D01*
X132426243Y-96240900D01*
X132425758Y-96796661D01*
X132637990Y-97310303D01*
X133030630Y-97703629D01*
X133238512Y-97789949D01*
X133032697Y-97874990D01*
X132639371Y-98267630D01*
X132426243Y-98780900D01*
X132425758Y-99336661D01*
X132637990Y-99850303D01*
X133030630Y-100243629D01*
X133543900Y-100456757D01*
X134099661Y-100457242D01*
X134613303Y-100245010D01*
X135006629Y-99852370D01*
X135219757Y-99339100D01*
X135220242Y-98783339D01*
X135008010Y-98269697D01*
X134615370Y-97876371D01*
X134407488Y-97790051D01*
X134613303Y-97705010D01*
X135006629Y-97312370D01*
X135219757Y-96799100D01*
X135220242Y-96243339D01*
X135008010Y-95729697D01*
X134615370Y-95336371D01*
X134407488Y-95250051D01*
X134613303Y-95165010D01*
X135006629Y-94772370D01*
X135219757Y-94259100D01*
X135219759Y-94256661D01*
X144715758Y-94256661D01*
X144927990Y-94770303D01*
X145320630Y-95163629D01*
X145528512Y-95249949D01*
X145322697Y-95334990D01*
X144929371Y-95727630D01*
X144716243Y-96240900D01*
X144715758Y-96796661D01*
X144927990Y-97310303D01*
X145320630Y-97703629D01*
X145528512Y-97789949D01*
X145322697Y-97874990D01*
X144929371Y-98267630D01*
X144716243Y-98780900D01*
X144715758Y-99336661D01*
X144927990Y-99850303D01*
X145320630Y-100243629D01*
X145833900Y-100456757D01*
X146389661Y-100457242D01*
X146903303Y-100245010D01*
X147296629Y-99852370D01*
X147509757Y-99339100D01*
X147510242Y-98783339D01*
X147298010Y-98269697D01*
X146905370Y-97876371D01*
X146697488Y-97790051D01*
X146903303Y-97705010D01*
X147296629Y-97312370D01*
X147509757Y-96799100D01*
X147510242Y-96243339D01*
X147298010Y-95729697D01*
X146905370Y-95336371D01*
X146697488Y-95250051D01*
X146903303Y-95165010D01*
X147296629Y-94772370D01*
X147509757Y-94259100D01*
X147510242Y-93703339D01*
X147298010Y-93189697D01*
X146905370Y-92796371D01*
X146713273Y-92716605D01*
X146844143Y-92662397D01*
X146913608Y-92420213D01*
X146113000Y-91619605D01*
X145312392Y-92420213D01*
X145381857Y-92662397D01*
X145522318Y-92712509D01*
X145322697Y-92794990D01*
X144929371Y-93187630D01*
X144716243Y-93700900D01*
X144715758Y-94256661D01*
X135219759Y-94256661D01*
X135220242Y-93703339D01*
X135008010Y-93189697D01*
X134615370Y-92796371D01*
X134407488Y-92710051D01*
X134613303Y-92625010D01*
X135006629Y-92232370D01*
X135219757Y-91719100D01*
X135220242Y-91163339D01*
X135008010Y-90649697D01*
X134615370Y-90256371D01*
X134102100Y-90043243D01*
X133546339Y-90042758D01*
X133032697Y-90254990D01*
X132639371Y-90647630D01*
X132426243Y-91160900D01*
X132425758Y-91716661D01*
X131880589Y-91716661D01*
X131947000Y-91650250D01*
X131947000Y-91409691D01*
X131850327Y-91176302D01*
X131848957Y-91174932D01*
X131908431Y-91087890D01*
X131959440Y-90836000D01*
X131959440Y-90036000D01*
X131915162Y-89800683D01*
X131804817Y-89629202D01*
X131871838Y-89467799D01*
X131872162Y-89095833D01*
X131730117Y-88752057D01*
X131467327Y-88488808D01*
X131123799Y-88346162D01*
X130751833Y-88345838D01*
X130408057Y-88487883D01*
X130144808Y-88750673D01*
X130002162Y-89094201D01*
X130001838Y-89466167D01*
X130070036Y-89631218D01*
X129965569Y-89784110D01*
X129914560Y-90036000D01*
X127125000Y-90036000D01*
X127125000Y-89463563D01*
X127261431Y-89263890D01*
X127312440Y-89012000D01*
X127312440Y-87012000D01*
X127272393Y-86799167D01*
X136605838Y-86799167D01*
X136747883Y-87142943D01*
X136781000Y-87176118D01*
X136781000Y-90623537D01*
X136748808Y-90655673D01*
X136606162Y-90999201D01*
X136605838Y-91371167D01*
X136747883Y-91714943D01*
X137010673Y-91978192D01*
X137354201Y-92120838D01*
X137726167Y-92121162D01*
X138069943Y-91979117D01*
X138333192Y-91716327D01*
X138475838Y-91372799D01*
X138475960Y-91232302D01*
X144703856Y-91232302D01*
X144731638Y-91787368D01*
X144890603Y-92171143D01*
X145132787Y-92240608D01*
X145933395Y-91440000D01*
X146292605Y-91440000D01*
X147093213Y-92240608D01*
X147335397Y-92171143D01*
X147522144Y-91647698D01*
X147494362Y-91092632D01*
X147335397Y-90708857D01*
X147093213Y-90639392D01*
X146292605Y-91440000D01*
X145933395Y-91440000D01*
X145132787Y-90639392D01*
X144890603Y-90708857D01*
X144703856Y-91232302D01*
X138475960Y-91232302D01*
X138476162Y-91000833D01*
X138334117Y-90657057D01*
X138301000Y-90623882D01*
X138301000Y-90459787D01*
X145312392Y-90459787D01*
X146113000Y-91260395D01*
X146846895Y-90526500D01*
X149421060Y-90526500D01*
X149421060Y-92226500D01*
X149465338Y-92461817D01*
X149604410Y-92677941D01*
X149808500Y-92817390D01*
X149808500Y-96239221D01*
X149617059Y-96362410D01*
X149472069Y-96574610D01*
X149421060Y-96826500D01*
X149421060Y-98526500D01*
X149465338Y-98761817D01*
X149604410Y-98977941D01*
X149816610Y-99122931D01*
X150068500Y-99173940D01*
X151068500Y-99173940D01*
X151303817Y-99129662D01*
X151519941Y-98990590D01*
X151664931Y-98778390D01*
X151715940Y-98526500D01*
X151715940Y-97962250D01*
X153233500Y-97962250D01*
X153233500Y-98652809D01*
X153330173Y-98886198D01*
X153508801Y-99064827D01*
X153742190Y-99161500D01*
X154082750Y-99161500D01*
X154241500Y-99002750D01*
X154241500Y-97803500D01*
X154495500Y-97803500D01*
X154495500Y-99002750D01*
X154654250Y-99161500D01*
X154994810Y-99161500D01*
X155228199Y-99064827D01*
X155406827Y-98886198D01*
X155503500Y-98652809D01*
X155503500Y-97962250D01*
X155344750Y-97803500D01*
X154495500Y-97803500D01*
X154241500Y-97803500D01*
X153392250Y-97803500D01*
X153233500Y-97962250D01*
X151715940Y-97962250D01*
X151715940Y-96826500D01*
X151692174Y-96700191D01*
X153233500Y-96700191D01*
X153233500Y-97390750D01*
X153392250Y-97549500D01*
X154241500Y-97549500D01*
X154241500Y-96350250D01*
X154495500Y-96350250D01*
X154495500Y-97549500D01*
X155344750Y-97549500D01*
X155503500Y-97390750D01*
X155503500Y-96700191D01*
X155406827Y-96466802D01*
X155228199Y-96288173D01*
X154994810Y-96191500D01*
X154654250Y-96191500D01*
X154495500Y-96350250D01*
X154241500Y-96350250D01*
X154082750Y-96191500D01*
X153742190Y-96191500D01*
X153508801Y-96288173D01*
X153330173Y-96466802D01*
X153233500Y-96700191D01*
X151692174Y-96700191D01*
X151671662Y-96591183D01*
X151532590Y-96375059D01*
X151328500Y-96235610D01*
X151328500Y-95440500D01*
X196224907Y-95440500D01*
X196337946Y-96008785D01*
X196659853Y-96490554D01*
X196989026Y-96710500D01*
X196659853Y-96930446D01*
X196337946Y-97412215D01*
X196224907Y-97980500D01*
X196337946Y-98548785D01*
X196659853Y-99030554D01*
X197141622Y-99352461D01*
X197709907Y-99465500D01*
X197768093Y-99465500D01*
X198336378Y-99352461D01*
X198818147Y-99030554D01*
X199140054Y-98548785D01*
X199253093Y-97980500D01*
X199140054Y-97412215D01*
X198818147Y-96930446D01*
X198488974Y-96710500D01*
X198818147Y-96490554D01*
X199140054Y-96008785D01*
X199253093Y-95440500D01*
X199140054Y-94872215D01*
X198818147Y-94390446D01*
X198477447Y-94162798D01*
X198620358Y-94095683D01*
X199010645Y-93667424D01*
X199180476Y-93257390D01*
X199059155Y-93027500D01*
X197866000Y-93027500D01*
X197866000Y-93047500D01*
X197612000Y-93047500D01*
X197612000Y-93027500D01*
X196418845Y-93027500D01*
X196297524Y-93257390D01*
X196467355Y-93667424D01*
X196857642Y-94095683D01*
X197000553Y-94162798D01*
X196659853Y-94390446D01*
X196337946Y-94872215D01*
X196224907Y-95440500D01*
X151328500Y-95440500D01*
X151328500Y-92813779D01*
X151519941Y-92690590D01*
X151535304Y-92668106D01*
X152559099Y-93691901D01*
X152805661Y-93856648D01*
X153096500Y-93914500D01*
X156146500Y-93914500D01*
X156437339Y-93856648D01*
X156683901Y-93691901D01*
X158271401Y-92104401D01*
X158436148Y-91857839D01*
X158448650Y-91794987D01*
X158569654Y-91875839D01*
X159004000Y-91962236D01*
X159438346Y-91875839D01*
X159639000Y-91741766D01*
X159839654Y-91875839D01*
X160014310Y-91910580D01*
X159999057Y-91916883D01*
X159735808Y-92179673D01*
X159593162Y-92523201D01*
X159592838Y-92895167D01*
X159734883Y-93238943D01*
X159997673Y-93502192D01*
X160341201Y-93644838D01*
X160713167Y-93645162D01*
X161056943Y-93503117D01*
X161090118Y-93470000D01*
X162188037Y-93470000D01*
X162220173Y-93502192D01*
X162563701Y-93644838D01*
X162935667Y-93645162D01*
X163279443Y-93503117D01*
X163542692Y-93240327D01*
X163685338Y-92896799D01*
X163685662Y-92524833D01*
X163543617Y-92181057D01*
X163280827Y-91917808D01*
X163201970Y-91885064D01*
X163248346Y-91875839D01*
X163616566Y-91629802D01*
X163862603Y-91261582D01*
X163949000Y-90827236D01*
X163949000Y-90782764D01*
X163863908Y-90354979D01*
X163910431Y-90286890D01*
X163961440Y-90035000D01*
X163961440Y-89510500D01*
X196241560Y-89510500D01*
X196241560Y-91210500D01*
X196285838Y-91445817D01*
X196424910Y-91661941D01*
X196637110Y-91806931D01*
X196745107Y-91828801D01*
X196467355Y-92133576D01*
X196297524Y-92543610D01*
X196418845Y-92773500D01*
X197612000Y-92773500D01*
X197612000Y-92753500D01*
X197866000Y-92753500D01*
X197866000Y-92773500D01*
X199059155Y-92773500D01*
X199180476Y-92543610D01*
X199010645Y-92133576D01*
X198734499Y-91830563D01*
X198824317Y-91813662D01*
X199040441Y-91674590D01*
X199185431Y-91462390D01*
X199236440Y-91210500D01*
X199236440Y-89510500D01*
X199192162Y-89275183D01*
X199053090Y-89059059D01*
X198840890Y-88914069D01*
X198589000Y-88863060D01*
X196889000Y-88863060D01*
X196653683Y-88907338D01*
X196437559Y-89046410D01*
X196292569Y-89258610D01*
X196241560Y-89510500D01*
X163961440Y-89510500D01*
X163961440Y-89035000D01*
X163917162Y-88799683D01*
X163778090Y-88583559D01*
X163565890Y-88438569D01*
X163314000Y-88387560D01*
X162314000Y-88387560D01*
X162078683Y-88431838D01*
X161978968Y-88496003D01*
X161845874Y-88440881D01*
X161671000Y-88567046D01*
X161671000Y-89013075D01*
X161666560Y-89035000D01*
X161666560Y-89672143D01*
X161544000Y-89647764D01*
X161417000Y-89673026D01*
X161417000Y-89662000D01*
X160401000Y-89662000D01*
X160401000Y-89673026D01*
X160274000Y-89647764D01*
X160147000Y-89673026D01*
X160147000Y-89662000D01*
X160127000Y-89662000D01*
X160127000Y-89617564D01*
X160139000Y-89557236D01*
X160139000Y-89512764D01*
X160127000Y-89452436D01*
X160127000Y-89408000D01*
X160147000Y-89408000D01*
X160147000Y-88567046D01*
X160401000Y-88567046D01*
X160401000Y-89408000D01*
X161417000Y-89408000D01*
X161417000Y-88567046D01*
X161242126Y-88440881D01*
X160983791Y-88547873D01*
X160909000Y-88612489D01*
X160834209Y-88547873D01*
X160575874Y-88440881D01*
X160401000Y-88567046D01*
X160147000Y-88567046D01*
X159972126Y-88440881D01*
X159713791Y-88547873D01*
X159648304Y-88604451D01*
X159438346Y-88464161D01*
X159004000Y-88377764D01*
X158569654Y-88464161D01*
X158369000Y-88598234D01*
X158168346Y-88464161D01*
X157734000Y-88377764D01*
X157299654Y-88464161D01*
X156931434Y-88710198D01*
X156685397Y-89078418D01*
X156599000Y-89512764D01*
X156599000Y-89557236D01*
X156685397Y-89991582D01*
X156804612Y-90170000D01*
X156685397Y-90348418D01*
X156599000Y-90782764D01*
X156599000Y-90827236D01*
X156685397Y-91261582D01*
X156797237Y-91428961D01*
X155831698Y-92394500D01*
X155486231Y-92394500D01*
X155503500Y-92352809D01*
X155503500Y-91662250D01*
X155344750Y-91503500D01*
X154495500Y-91503500D01*
X154495500Y-91523500D01*
X154241500Y-91523500D01*
X154241500Y-91503500D01*
X153392250Y-91503500D01*
X153233500Y-91662250D01*
X153233500Y-92216698D01*
X151855901Y-90839099D01*
X151715940Y-90745580D01*
X151715940Y-90526500D01*
X151692174Y-90400191D01*
X153233500Y-90400191D01*
X153233500Y-91090750D01*
X153392250Y-91249500D01*
X154241500Y-91249500D01*
X154241500Y-90050250D01*
X154495500Y-90050250D01*
X154495500Y-91249500D01*
X155344750Y-91249500D01*
X155503500Y-91090750D01*
X155503500Y-90400191D01*
X155406827Y-90166802D01*
X155228199Y-89988173D01*
X154994810Y-89891500D01*
X154654250Y-89891500D01*
X154495500Y-90050250D01*
X154241500Y-90050250D01*
X154082750Y-89891500D01*
X153742190Y-89891500D01*
X153508801Y-89988173D01*
X153330173Y-90166802D01*
X153233500Y-90400191D01*
X151692174Y-90400191D01*
X151689010Y-90383381D01*
X151976443Y-90264617D01*
X152239692Y-90001827D01*
X152382338Y-89658299D01*
X152382662Y-89286333D01*
X152240617Y-88942557D01*
X151977827Y-88679308D01*
X151634299Y-88536662D01*
X151262333Y-88536338D01*
X150918557Y-88678383D01*
X150851078Y-88745745D01*
X150732397Y-88769352D01*
X150485835Y-88934099D01*
X150031099Y-89388835D01*
X149866352Y-89635397D01*
X149808500Y-89926236D01*
X149808500Y-89939221D01*
X149617059Y-90062410D01*
X149472069Y-90274610D01*
X149421060Y-90526500D01*
X146846895Y-90526500D01*
X146913608Y-90459787D01*
X146844143Y-90217603D01*
X146320698Y-90030856D01*
X145765632Y-90058638D01*
X145381857Y-90217603D01*
X145312392Y-90459787D01*
X138301000Y-90459787D01*
X138301000Y-87176463D01*
X138333192Y-87144327D01*
X138475838Y-86800799D01*
X138476162Y-86428833D01*
X138334117Y-86085057D01*
X138071327Y-85821808D01*
X137727799Y-85679162D01*
X137355833Y-85678838D01*
X137012057Y-85820883D01*
X136748808Y-86083673D01*
X136606162Y-86427201D01*
X136605838Y-86799167D01*
X127272393Y-86799167D01*
X127268162Y-86776683D01*
X127129090Y-86560559D01*
X126916890Y-86415569D01*
X126665000Y-86364560D01*
X126065000Y-86364560D01*
X125829683Y-86408838D01*
X125730472Y-86472678D01*
X125646890Y-86415569D01*
X125395000Y-86364560D01*
X124795000Y-86364560D01*
X124559683Y-86408838D01*
X124460472Y-86472678D01*
X124376890Y-86415569D01*
X124125000Y-86364560D01*
X123525000Y-86364560D01*
X123289683Y-86408838D01*
X123190472Y-86472678D01*
X123106890Y-86415569D01*
X122855000Y-86364560D01*
X122255000Y-86364560D01*
X122019683Y-86408838D01*
X121920472Y-86472678D01*
X121836890Y-86415569D01*
X121585000Y-86364560D01*
X120985000Y-86364560D01*
X120749683Y-86408838D01*
X120650472Y-86472678D01*
X120566890Y-86415569D01*
X120315000Y-86364560D01*
X119715000Y-86364560D01*
X119479683Y-86408838D01*
X119380472Y-86472678D01*
X119296890Y-86415569D01*
X119045000Y-86364560D01*
X118445000Y-86364560D01*
X118209683Y-86408838D01*
X118110472Y-86472678D01*
X118026890Y-86415569D01*
X117775000Y-86364560D01*
X117175000Y-86364560D01*
X116939683Y-86408838D01*
X116849020Y-86467178D01*
X116631310Y-86377000D01*
X116490750Y-86377000D01*
X116332000Y-86535750D01*
X116332000Y-87885000D01*
X116352000Y-87885000D01*
X116352000Y-88139000D01*
X116332000Y-88139000D01*
X116332000Y-88159000D01*
X116078000Y-88159000D01*
X116078000Y-88139000D01*
X115428750Y-88139000D01*
X115270000Y-88297750D01*
X115270000Y-89138309D01*
X115331590Y-89287000D01*
X115309691Y-89287000D01*
X115076302Y-89383673D01*
X114897673Y-89562301D01*
X114801000Y-89795690D01*
X114801000Y-90011250D01*
X114959750Y-90170000D01*
X115709000Y-90170000D01*
X115709000Y-90150000D01*
X115963000Y-90150000D01*
X115963000Y-90170000D01*
X115983000Y-90170000D01*
X115983000Y-90424000D01*
X115963000Y-90424000D01*
X115963000Y-90444000D01*
X115709000Y-90444000D01*
X115709000Y-90424000D01*
X114959750Y-90424000D01*
X114801000Y-90582750D01*
X114801000Y-90798310D01*
X114897673Y-91031699D01*
X114971499Y-91105524D01*
X114695736Y-91380806D01*
X114543174Y-91748215D01*
X114542827Y-92146040D01*
X110710000Y-92146040D01*
X110710000Y-86885691D01*
X115270000Y-86885691D01*
X115270000Y-87726250D01*
X115428750Y-87885000D01*
X116078000Y-87885000D01*
X116078000Y-86535750D01*
X115919250Y-86377000D01*
X115778690Y-86377000D01*
X115545301Y-86473673D01*
X115366673Y-86652302D01*
X115270000Y-86885691D01*
X110710000Y-86885691D01*
X110710000Y-77612000D01*
X115257560Y-77612000D01*
X115257560Y-79612000D01*
X115301838Y-79847317D01*
X115440910Y-80063441D01*
X115653110Y-80208431D01*
X115905000Y-80259440D01*
X116505000Y-80259440D01*
X116740317Y-80215162D01*
X116839528Y-80151322D01*
X116923110Y-80208431D01*
X117175000Y-80259440D01*
X117775000Y-80259440D01*
X118010317Y-80215162D01*
X118109528Y-80151322D01*
X118193110Y-80208431D01*
X118445000Y-80259440D01*
X118935063Y-80259440D01*
X118826162Y-80521701D01*
X118825838Y-80893667D01*
X118967883Y-81237443D01*
X119230673Y-81500692D01*
X119574201Y-81643338D01*
X119946167Y-81643662D01*
X120269371Y-81510117D01*
X120590201Y-81643338D01*
X120962167Y-81643662D01*
X121305943Y-81501617D01*
X121316538Y-81491040D01*
X121326173Y-81500692D01*
X121669701Y-81643338D01*
X122041667Y-81643662D01*
X122385443Y-81501617D01*
X122459594Y-81427596D01*
X122469173Y-81437192D01*
X122812701Y-81579838D01*
X123184667Y-81580162D01*
X123528443Y-81438117D01*
X123791692Y-81175327D01*
X123934338Y-80831799D01*
X123934379Y-80784923D01*
X124362401Y-80356901D01*
X124487153Y-80170197D01*
X124543110Y-80208431D01*
X124795000Y-80259440D01*
X125395000Y-80259440D01*
X125630317Y-80215162D01*
X125729528Y-80151322D01*
X125813110Y-80208431D01*
X126065000Y-80259440D01*
X126665000Y-80259440D01*
X126900317Y-80215162D01*
X127116441Y-80076090D01*
X127261431Y-79863890D01*
X127312440Y-79612000D01*
X127312440Y-79433167D01*
X136605838Y-79433167D01*
X136747883Y-79776943D01*
X137010673Y-80040192D01*
X137298966Y-80159902D01*
X137298923Y-80208823D01*
X137440968Y-80552599D01*
X137703758Y-80815848D01*
X138047286Y-80958494D01*
X138119387Y-80958557D01*
X138208383Y-81173943D01*
X138471173Y-81437192D01*
X138574380Y-81480048D01*
X138574338Y-81528667D01*
X138716383Y-81872443D01*
X138979173Y-82135692D01*
X139322701Y-82278338D01*
X139527015Y-82278516D01*
X139526838Y-82481167D01*
X139668883Y-82824943D01*
X139931673Y-83088192D01*
X140275201Y-83230838D01*
X140647167Y-83231162D01*
X140796902Y-83169293D01*
X140796838Y-83243167D01*
X140938883Y-83586943D01*
X141201673Y-83850192D01*
X141434961Y-83947062D01*
X141203057Y-84042883D01*
X140939808Y-84305673D01*
X140797162Y-84649201D01*
X140796838Y-85021167D01*
X140938883Y-85364943D01*
X140972000Y-85398118D01*
X140972000Y-86940537D01*
X140939808Y-86972673D01*
X140797162Y-87316201D01*
X140796838Y-87688167D01*
X140938883Y-88031943D01*
X141201673Y-88295192D01*
X141545201Y-88437838D01*
X141917167Y-88438162D01*
X142260943Y-88296117D01*
X142524192Y-88033327D01*
X142666838Y-87689799D01*
X142667162Y-87317833D01*
X142525117Y-86974057D01*
X142492000Y-86940882D01*
X142492000Y-85398463D01*
X142524192Y-85366327D01*
X142666838Y-85022799D01*
X142667162Y-84650833D01*
X142525117Y-84307057D01*
X142350532Y-84132167D01*
X151972838Y-84132167D01*
X152114883Y-84475943D01*
X152377673Y-84739192D01*
X152721201Y-84881838D01*
X153093167Y-84882162D01*
X153436943Y-84740117D01*
X153700192Y-84477327D01*
X153713925Y-84444254D01*
X153759673Y-84554699D01*
X153938302Y-84733327D01*
X154171691Y-84830000D01*
X154412250Y-84830000D01*
X154571000Y-84671250D01*
X154571000Y-83947000D01*
X154551000Y-83947000D01*
X154551000Y-83693000D01*
X154571000Y-83693000D01*
X154571000Y-83673000D01*
X154825000Y-83673000D01*
X154825000Y-83693000D01*
X154845000Y-83693000D01*
X154845000Y-83947000D01*
X154825000Y-83947000D01*
X154825000Y-84671250D01*
X154983750Y-84830000D01*
X155224309Y-84830000D01*
X155457698Y-84733327D01*
X155459068Y-84731957D01*
X155546110Y-84791431D01*
X155798000Y-84842440D01*
X156598000Y-84842440D01*
X156761814Y-84811616D01*
X158132378Y-86182180D01*
X158132338Y-86227667D01*
X158274383Y-86571443D01*
X158537173Y-86834692D01*
X158880701Y-86977338D01*
X159252667Y-86977662D01*
X159596443Y-86835617D01*
X159859692Y-86572827D01*
X160002338Y-86229299D01*
X160002662Y-85857333D01*
X159860617Y-85513557D01*
X159597827Y-85250308D01*
X159254299Y-85107662D01*
X159207423Y-85107621D01*
X158189793Y-84089991D01*
X158224338Y-84006799D01*
X158224662Y-83634833D01*
X158082617Y-83291057D01*
X157982135Y-83190399D01*
X158844784Y-82327750D01*
X170605500Y-82327750D01*
X170605500Y-82543310D01*
X170702173Y-82776699D01*
X170880802Y-82955327D01*
X171114191Y-83052000D01*
X171354750Y-83052000D01*
X171513500Y-82893250D01*
X171513500Y-82169000D01*
X170764250Y-82169000D01*
X170605500Y-82327750D01*
X158844784Y-82327750D01*
X159631844Y-81540690D01*
X170605500Y-81540690D01*
X170605500Y-81756250D01*
X170764250Y-81915000D01*
X171513500Y-81915000D01*
X171513500Y-81190750D01*
X171767500Y-81190750D01*
X171767500Y-81915000D01*
X171787500Y-81915000D01*
X171787500Y-82169000D01*
X171767500Y-82169000D01*
X171767500Y-82893250D01*
X171926250Y-83052000D01*
X172166809Y-83052000D01*
X172229527Y-83026021D01*
X172229338Y-83243167D01*
X172371383Y-83586943D01*
X172634173Y-83850192D01*
X172977701Y-83992838D01*
X173349667Y-83993162D01*
X173693443Y-83851117D01*
X173956692Y-83588327D01*
X174099338Y-83244799D01*
X174099662Y-82872833D01*
X174061194Y-82779734D01*
X174136931Y-82668890D01*
X174187940Y-82417000D01*
X174187940Y-81667000D01*
X174143662Y-81431683D01*
X174004590Y-81215559D01*
X173792390Y-81070569D01*
X173540500Y-81019560D01*
X172740500Y-81019560D01*
X172505183Y-81063838D01*
X172401854Y-81130329D01*
X172400198Y-81128673D01*
X172166809Y-81032000D01*
X171926250Y-81032000D01*
X171767500Y-81190750D01*
X171513500Y-81190750D01*
X171354750Y-81032000D01*
X171114191Y-81032000D01*
X170880802Y-81128673D01*
X170702173Y-81307301D01*
X170605500Y-81540690D01*
X159631844Y-81540690D01*
X161635535Y-79536999D01*
X168163259Y-79536999D01*
X168180383Y-79578443D01*
X168443173Y-79841692D01*
X168786701Y-79984338D01*
X169158667Y-79984662D01*
X169502443Y-79842617D01*
X169765692Y-79579827D01*
X169908338Y-79236299D01*
X169908662Y-78864333D01*
X169778431Y-78549149D01*
X169908338Y-78236299D01*
X169908662Y-77864333D01*
X169766617Y-77520557D01*
X169647436Y-77401167D01*
X188040838Y-77401167D01*
X188182883Y-77744943D01*
X188216000Y-77778118D01*
X188216000Y-80971537D01*
X188183808Y-81003673D01*
X188041162Y-81347201D01*
X188040838Y-81719167D01*
X188182883Y-82062943D01*
X188445673Y-82326192D01*
X188789201Y-82468838D01*
X189161167Y-82469162D01*
X189504943Y-82327117D01*
X189768192Y-82064327D01*
X189910838Y-81720799D01*
X189911162Y-81348833D01*
X189769117Y-81005057D01*
X189736000Y-80971882D01*
X189736000Y-80703167D01*
X192739838Y-80703167D01*
X192881883Y-81046943D01*
X192915000Y-81080118D01*
X192915000Y-82622537D01*
X192882808Y-82654673D01*
X192740162Y-82998201D01*
X192739838Y-83370167D01*
X192881883Y-83713943D01*
X193144673Y-83977192D01*
X193488201Y-84119838D01*
X193860167Y-84120162D01*
X194203943Y-83978117D01*
X194467192Y-83715327D01*
X194609838Y-83371799D01*
X194610162Y-82999833D01*
X194468117Y-82656057D01*
X194435000Y-82622882D01*
X194435000Y-81080463D01*
X194467192Y-81048327D01*
X194609838Y-80704799D01*
X194610162Y-80332833D01*
X194468117Y-79989057D01*
X194205327Y-79725808D01*
X193861799Y-79583162D01*
X193489833Y-79582838D01*
X193146057Y-79724883D01*
X192882808Y-79987673D01*
X192740162Y-80331201D01*
X192739838Y-80703167D01*
X189736000Y-80703167D01*
X189736000Y-77778463D01*
X189768192Y-77746327D01*
X189910838Y-77402799D01*
X189911162Y-77030833D01*
X189769117Y-76687057D01*
X189506327Y-76423808D01*
X189162799Y-76281162D01*
X188790833Y-76280838D01*
X188447057Y-76422883D01*
X188183808Y-76685673D01*
X188041162Y-77029201D01*
X188040838Y-77401167D01*
X169647436Y-77401167D01*
X169503827Y-77257308D01*
X169160299Y-77114662D01*
X168788333Y-77114338D01*
X168444557Y-77256383D01*
X168181308Y-77519173D01*
X168163524Y-77562001D01*
X161132267Y-77562001D01*
X160889681Y-77610255D01*
X160841427Y-77619853D01*
X160594866Y-77784600D01*
X157233175Y-81146291D01*
X157246431Y-81126890D01*
X157297440Y-80875000D01*
X157297440Y-80135000D01*
X157670500Y-80135000D01*
X157961339Y-80077148D01*
X158207901Y-79912401D01*
X159270680Y-78849622D01*
X159316167Y-78849662D01*
X159659943Y-78707617D01*
X159923192Y-78444827D01*
X160065838Y-78101299D01*
X160066162Y-77729333D01*
X159924117Y-77385557D01*
X159661327Y-77122308D01*
X159317799Y-76979662D01*
X158945833Y-76979338D01*
X158602057Y-77121383D01*
X158338808Y-77384173D01*
X158196162Y-77727701D01*
X158196121Y-77774577D01*
X157355698Y-78615000D01*
X156888264Y-78615000D01*
X156719736Y-78648523D01*
X156523799Y-78567162D01*
X156151833Y-78566838D01*
X155808057Y-78708883D01*
X155544808Y-78971673D01*
X155402162Y-79315201D01*
X155401964Y-79542048D01*
X155276309Y-79490000D01*
X155035750Y-79490000D01*
X154877000Y-79648750D01*
X154877000Y-80373000D01*
X154897000Y-80373000D01*
X154897000Y-80627000D01*
X154877000Y-80627000D01*
X154877000Y-81351250D01*
X155035750Y-81510000D01*
X155276309Y-81510000D01*
X155509698Y-81413327D01*
X155511068Y-81411957D01*
X155598110Y-81471431D01*
X155850000Y-81522440D01*
X156650000Y-81522440D01*
X156885317Y-81478162D01*
X156930159Y-81449307D01*
X156716466Y-81663000D01*
X153035000Y-81663000D01*
X152744161Y-81720852D01*
X152497599Y-81885599D01*
X152370599Y-82012599D01*
X152205852Y-82259161D01*
X152148000Y-82550000D01*
X152148000Y-83384537D01*
X152115808Y-83416673D01*
X151973162Y-83760201D01*
X151972838Y-84132167D01*
X142350532Y-84132167D01*
X142262327Y-84043808D01*
X142029039Y-83946938D01*
X142260943Y-83851117D01*
X142294118Y-83818000D01*
X147138537Y-83818000D01*
X147170673Y-83850192D01*
X147514201Y-83992838D01*
X147886167Y-83993162D01*
X148229943Y-83851117D01*
X148493192Y-83588327D01*
X148635838Y-83244799D01*
X148635891Y-83183759D01*
X148864943Y-83089117D01*
X149128192Y-82826327D01*
X149270838Y-82482799D01*
X149271162Y-82110833D01*
X149178624Y-81886873D01*
X149191692Y-81873827D01*
X149334338Y-81530299D01*
X149334662Y-81158333D01*
X149195748Y-80822135D01*
X149210856Y-80785750D01*
X153715000Y-80785750D01*
X153715000Y-81001310D01*
X153811673Y-81234699D01*
X153990302Y-81413327D01*
X154223691Y-81510000D01*
X154464250Y-81510000D01*
X154623000Y-81351250D01*
X154623000Y-80627000D01*
X153873750Y-80627000D01*
X153715000Y-80785750D01*
X149210856Y-80785750D01*
X149270838Y-80641299D01*
X149271162Y-80269333D01*
X149159335Y-79998690D01*
X153715000Y-79998690D01*
X153715000Y-80214250D01*
X153873750Y-80373000D01*
X154623000Y-80373000D01*
X154623000Y-79648750D01*
X154464250Y-79490000D01*
X154223691Y-79490000D01*
X153990302Y-79586673D01*
X153811673Y-79765301D01*
X153715000Y-79998690D01*
X149159335Y-79998690D01*
X149129117Y-79925557D01*
X148931354Y-79727448D01*
X149301180Y-79357622D01*
X149346667Y-79357662D01*
X149690443Y-79215617D01*
X149953692Y-78952827D01*
X150096338Y-78609299D01*
X150096662Y-78237333D01*
X149954617Y-77893557D01*
X149691827Y-77630308D01*
X149348299Y-77487662D01*
X148976333Y-77487338D01*
X148632557Y-77629383D01*
X148431296Y-77830293D01*
X148421827Y-77820808D01*
X148078299Y-77678162D01*
X147706333Y-77677838D01*
X147362557Y-77819883D01*
X147099308Y-78082673D01*
X146956662Y-78426201D01*
X146956338Y-78798167D01*
X146990922Y-78881866D01*
X146887808Y-78984980D01*
X140361139Y-78984980D01*
X140185828Y-78867841D01*
X139894989Y-78809989D01*
X139066791Y-78809989D01*
X138667402Y-78410600D01*
X138420840Y-78245853D01*
X138130001Y-78188001D01*
X137840999Y-78188001D01*
X137550160Y-78245853D01*
X137449787Y-78312920D01*
X137355833Y-78312838D01*
X137012057Y-78454883D01*
X136748808Y-78717673D01*
X136606162Y-79061201D01*
X136605838Y-79433167D01*
X127312440Y-79433167D01*
X127312440Y-78998341D01*
X127387000Y-79013440D01*
X128137000Y-79013440D01*
X128372317Y-78969162D01*
X128588441Y-78830090D01*
X128733431Y-78617890D01*
X128784440Y-78366000D01*
X128784440Y-77566000D01*
X128740162Y-77330683D01*
X128673671Y-77227354D01*
X128675327Y-77225698D01*
X128772000Y-76992309D01*
X128772000Y-76751750D01*
X128613250Y-76593000D01*
X127889000Y-76593000D01*
X127889000Y-76613000D01*
X127635000Y-76613000D01*
X127635000Y-76593000D01*
X127615000Y-76593000D01*
X127615000Y-76339000D01*
X127635000Y-76339000D01*
X127635000Y-75589750D01*
X127889000Y-75589750D01*
X127889000Y-76339000D01*
X128613250Y-76339000D01*
X128772000Y-76180250D01*
X128772000Y-75939691D01*
X128675327Y-75706302D01*
X128496699Y-75527673D01*
X128263310Y-75431000D01*
X128047750Y-75431000D01*
X127889000Y-75589750D01*
X127635000Y-75589750D01*
X127476250Y-75431000D01*
X127260690Y-75431000D01*
X127027301Y-75527673D01*
X126848673Y-75706302D01*
X126752000Y-75939691D01*
X126752000Y-76044633D01*
X126650117Y-75798057D01*
X126387327Y-75534808D01*
X126043799Y-75392162D01*
X125671833Y-75391838D01*
X125328057Y-75533883D01*
X125064808Y-75796673D01*
X124922162Y-76140201D01*
X124922121Y-76187077D01*
X124557599Y-76551599D01*
X124392852Y-76798161D01*
X124350663Y-77010258D01*
X124125000Y-76964560D01*
X123525000Y-76964560D01*
X123289683Y-77008838D01*
X123190472Y-77072678D01*
X123106890Y-77015569D01*
X122855000Y-76964560D01*
X122255000Y-76964560D01*
X122019683Y-77008838D01*
X121920472Y-77072678D01*
X121836890Y-77015569D01*
X121585000Y-76964560D01*
X120985000Y-76964560D01*
X120749683Y-77008838D01*
X120650472Y-77072678D01*
X120566890Y-77015569D01*
X120315000Y-76964560D01*
X119715000Y-76964560D01*
X119479683Y-77008838D01*
X119380472Y-77072678D01*
X119296890Y-77015569D01*
X119045000Y-76964560D01*
X118445000Y-76964560D01*
X118209683Y-77008838D01*
X118110472Y-77072678D01*
X118026890Y-77015569D01*
X117775000Y-76964560D01*
X117175000Y-76964560D01*
X116939683Y-77008838D01*
X116840472Y-77072678D01*
X116756890Y-77015569D01*
X116505000Y-76964560D01*
X115905000Y-76964560D01*
X115669683Y-77008838D01*
X115453559Y-77147910D01*
X115308569Y-77360110D01*
X115257560Y-77612000D01*
X110710000Y-77612000D01*
X110710000Y-53422815D01*
X110864630Y-53422815D01*
X111188980Y-54207800D01*
X111789041Y-54808909D01*
X112573459Y-55134628D01*
X113422815Y-55135370D01*
X114207800Y-54811020D01*
X114808909Y-54210959D01*
X115134628Y-53426541D01*
X115134631Y-53422815D01*
X194864630Y-53422815D01*
X195188980Y-54207800D01*
X195789041Y-54808909D01*
X196573459Y-55134628D01*
X197422815Y-55135370D01*
X198207800Y-54811020D01*
X198808909Y-54210959D01*
X199134628Y-53426541D01*
X199135370Y-52577185D01*
X198811020Y-51792200D01*
X198210959Y-51191091D01*
X197426541Y-50865372D01*
X196577185Y-50864630D01*
X195792200Y-51188980D01*
X195191091Y-51789041D01*
X194865372Y-52573459D01*
X194864630Y-53422815D01*
X115134631Y-53422815D01*
X115135370Y-52577185D01*
X114811020Y-51792200D01*
X114210959Y-51191091D01*
X113426541Y-50865372D01*
X112577185Y-50864630D01*
X111792200Y-51188980D01*
X111191091Y-51789041D01*
X110865372Y-52573459D01*
X110864630Y-53422815D01*
X110710000Y-53422815D01*
X110710000Y-50710000D01*
X199290000Y-50710000D01*
X199290000Y-60553711D01*
X199290000Y-60553711D01*
G37*
X199290000Y-60553711D02*
X199158327Y-60421808D01*
X198814799Y-60279162D01*
X198634108Y-60279005D01*
X198396327Y-60040808D01*
X198087467Y-59912557D01*
X197960617Y-59605557D01*
X197697827Y-59342308D01*
X197354299Y-59199662D01*
X196982333Y-59199338D01*
X196638557Y-59341383D01*
X196375308Y-59604173D01*
X196232662Y-59947701D01*
X196232338Y-60319667D01*
X196374383Y-60663443D01*
X196407500Y-60696618D01*
X196407500Y-64643000D01*
X195602596Y-64643000D01*
X195833629Y-64412370D01*
X196046757Y-63899100D01*
X196047242Y-63343339D01*
X195835010Y-62829697D01*
X195442370Y-62436371D01*
X195250273Y-62356605D01*
X195381143Y-62302397D01*
X195450608Y-62060213D01*
X194650000Y-61259605D01*
X193849392Y-62060213D01*
X193918857Y-62302397D01*
X194059318Y-62352509D01*
X193859697Y-62434990D01*
X193466371Y-62827630D01*
X193253243Y-63340900D01*
X193252758Y-63896661D01*
X193464990Y-64410303D01*
X193697281Y-64643000D01*
X179602596Y-64643000D01*
X179833629Y-64412370D01*
X180046757Y-63899100D01*
X180047242Y-63343339D01*
X179835010Y-62829697D01*
X179442370Y-62436371D01*
X179234488Y-62350051D01*
X179440303Y-62265010D01*
X179833629Y-61872370D01*
X180046757Y-61359100D01*
X180047181Y-60872302D01*
X193240856Y-60872302D01*
X193268638Y-61427368D01*
X193427603Y-61811143D01*
X193669787Y-61880608D01*
X194470395Y-61080000D01*
X194829605Y-61080000D01*
X195630213Y-61880608D01*
X195872397Y-61811143D01*
X196059144Y-61287698D01*
X196031362Y-60732632D01*
X195872397Y-60348857D01*
X195630213Y-60279392D01*
X194829605Y-61080000D01*
X194470395Y-61080000D01*
X193669787Y-60279392D01*
X193427603Y-60348857D01*
X193240856Y-60872302D01*
X180047181Y-60872302D01*
X180047242Y-60803339D01*
X179835010Y-60289697D01*
X179645432Y-60099787D01*
X193849392Y-60099787D01*
X194650000Y-60900395D01*
X195450608Y-60099787D01*
X195381143Y-59857603D01*
X194857698Y-59670856D01*
X194302632Y-59698638D01*
X193918857Y-59857603D01*
X193849392Y-60099787D01*
X179645432Y-60099787D01*
X179442370Y-59896371D01*
X179410000Y-59882930D01*
X179410000Y-58132395D01*
X179481192Y-58061327D01*
X179623838Y-57717799D01*
X179624162Y-57345833D01*
X179482117Y-57002057D01*
X179219327Y-56738808D01*
X178875799Y-56596162D01*
X178503833Y-56595838D01*
X178160057Y-56737883D01*
X177896808Y-57000673D01*
X177754162Y-57344201D01*
X177753838Y-57716167D01*
X177890000Y-58045705D01*
X177890000Y-59882469D01*
X177859697Y-59894990D01*
X177466371Y-60287630D01*
X177253243Y-60800900D01*
X177252758Y-61356661D01*
X177464990Y-61870303D01*
X177857630Y-62263629D01*
X178065512Y-62349949D01*
X177859697Y-62434990D01*
X177466371Y-62827630D01*
X177253243Y-63340900D01*
X177252758Y-63896661D01*
X177464990Y-64410303D01*
X177697281Y-64643000D01*
X174521290Y-64643000D01*
X174741901Y-64422774D01*
X174955029Y-63909504D01*
X174955514Y-63353743D01*
X174743282Y-62840101D01*
X174350642Y-62446775D01*
X174158545Y-62367009D01*
X174289415Y-62312801D01*
X174358880Y-62070617D01*
X173558272Y-61270009D01*
X172757664Y-62070617D01*
X172827129Y-62312801D01*
X172967590Y-62362913D01*
X172767969Y-62445394D01*
X172374643Y-62838034D01*
X172161515Y-63351304D01*
X172161030Y-63907065D01*
X172373262Y-64420707D01*
X172595167Y-64643000D01*
X158521290Y-64643000D01*
X158741901Y-64422774D01*
X158955029Y-63909504D01*
X158955514Y-63353743D01*
X158743282Y-62840101D01*
X158350642Y-62446775D01*
X158142760Y-62360455D01*
X158348575Y-62275414D01*
X158741901Y-61882774D01*
X158955029Y-61369504D01*
X158955453Y-60882706D01*
X172149128Y-60882706D01*
X172176910Y-61437772D01*
X172335875Y-61821547D01*
X172578059Y-61891012D01*
X173378667Y-61090404D01*
X173737877Y-61090404D01*
X174538485Y-61891012D01*
X174780669Y-61821547D01*
X174967416Y-61298102D01*
X174939634Y-60743036D01*
X174780669Y-60359261D01*
X174538485Y-60289796D01*
X173737877Y-61090404D01*
X173378667Y-61090404D01*
X172578059Y-60289796D01*
X172335875Y-60359261D01*
X172149128Y-60882706D01*
X158955453Y-60882706D01*
X158955514Y-60813743D01*
X158743282Y-60300101D01*
X158553704Y-60110191D01*
X172757664Y-60110191D01*
X173558272Y-60910799D01*
X174358880Y-60110191D01*
X174289415Y-59868007D01*
X173765970Y-59681260D01*
X173210904Y-59709042D01*
X172827129Y-59868007D01*
X172757664Y-60110191D01*
X158553704Y-60110191D01*
X158350642Y-59906775D01*
X158318272Y-59893334D01*
X158318272Y-58078717D01*
X158335692Y-58061327D01*
X158478338Y-57717799D01*
X158478662Y-57345833D01*
X158336617Y-57002057D01*
X158073827Y-56738808D01*
X157730299Y-56596162D01*
X157358333Y-56595838D01*
X157014557Y-56737883D01*
X156751308Y-57000673D01*
X156608662Y-57344201D01*
X156608338Y-57716167D01*
X156750383Y-58059943D01*
X156798272Y-58107916D01*
X156798272Y-59892873D01*
X156767969Y-59905394D01*
X156374643Y-60298034D01*
X156161515Y-60811304D01*
X156161030Y-61367065D01*
X156373262Y-61880707D01*
X156765902Y-62274033D01*
X156973784Y-62360353D01*
X156767969Y-62445394D01*
X156374643Y-62838034D01*
X156161515Y-63351304D01*
X156161030Y-63907065D01*
X156373262Y-64420707D01*
X156595167Y-64643000D01*
X153601430Y-64643000D01*
X153741901Y-64502774D01*
X153955029Y-63989504D01*
X153955514Y-63433743D01*
X153743282Y-62920101D01*
X153350642Y-62526775D01*
X153158545Y-62447009D01*
X153289415Y-62392801D01*
X153358880Y-62150617D01*
X152558272Y-61350009D01*
X151757664Y-62150617D01*
X151827129Y-62392801D01*
X151967590Y-62442913D01*
X151767969Y-62525394D01*
X151374643Y-62918034D01*
X151161515Y-63431304D01*
X151161030Y-63987065D01*
X151373262Y-64500707D01*
X151515307Y-64643000D01*
X137601430Y-64643000D01*
X137741901Y-64502774D01*
X137955029Y-63989504D01*
X137955514Y-63433743D01*
X137743282Y-62920101D01*
X137350642Y-62526775D01*
X137142760Y-62440455D01*
X137348575Y-62355414D01*
X137741901Y-61962774D01*
X137955029Y-61449504D01*
X137955453Y-60962706D01*
X151149128Y-60962706D01*
X151176910Y-61517772D01*
X151335875Y-61901547D01*
X151578059Y-61971012D01*
X152378667Y-61170404D01*
X152737877Y-61170404D01*
X153538485Y-61971012D01*
X153780669Y-61901547D01*
X153967416Y-61378102D01*
X153939634Y-60823036D01*
X153780669Y-60439261D01*
X153538485Y-60369796D01*
X152737877Y-61170404D01*
X152378667Y-61170404D01*
X151578059Y-60369796D01*
X151335875Y-60439261D01*
X151149128Y-60962706D01*
X137955453Y-60962706D01*
X137955514Y-60893743D01*
X137743282Y-60380101D01*
X137553704Y-60190191D01*
X151757664Y-60190191D01*
X152558272Y-60990799D01*
X153358880Y-60190191D01*
X153289415Y-59948007D01*
X152765970Y-59761260D01*
X152210904Y-59789042D01*
X151827129Y-59948007D01*
X151757664Y-60190191D01*
X137553704Y-60190191D01*
X137350642Y-59986775D01*
X137318272Y-59973334D01*
X137318272Y-58314138D01*
X137380692Y-58251827D01*
X137523338Y-57908299D01*
X137523662Y-57536333D01*
X137381617Y-57192557D01*
X137118827Y-56929308D01*
X136775299Y-56786662D01*
X136403333Y-56786338D01*
X136059557Y-56928383D01*
X135796308Y-57191173D01*
X135653662Y-57534701D01*
X135653338Y-57906667D01*
X135795383Y-58250443D01*
X135798272Y-58253337D01*
X135798272Y-59972873D01*
X135767969Y-59985394D01*
X135374643Y-60378034D01*
X135161515Y-60891304D01*
X135161030Y-61447065D01*
X135373262Y-61960707D01*
X135765902Y-62354033D01*
X135973784Y-62440353D01*
X135767969Y-62525394D01*
X135374643Y-62918034D01*
X135161515Y-63431304D01*
X135161030Y-63987065D01*
X135373262Y-64500707D01*
X135515307Y-64643000D01*
X132601430Y-64643000D01*
X132741901Y-64502774D01*
X132955029Y-63989504D01*
X132955514Y-63433743D01*
X132743282Y-62920101D01*
X132350642Y-62526775D01*
X132158545Y-62447009D01*
X132289415Y-62392801D01*
X132358880Y-62150617D01*
X131558272Y-61350009D01*
X130757664Y-62150617D01*
X130827129Y-62392801D01*
X130967590Y-62442913D01*
X130767969Y-62525394D01*
X130374643Y-62918034D01*
X130161515Y-63431304D01*
X130161030Y-63987065D01*
X130373262Y-64500707D01*
X130515307Y-64643000D01*
X116601430Y-64643000D01*
X116741901Y-64502774D01*
X116955029Y-63989504D01*
X116955514Y-63433743D01*
X116743282Y-62920101D01*
X116350642Y-62526775D01*
X116142760Y-62440455D01*
X116348575Y-62355414D01*
X116741901Y-61962774D01*
X116955029Y-61449504D01*
X116955453Y-60962706D01*
X130149128Y-60962706D01*
X130176910Y-61517772D01*
X130335875Y-61901547D01*
X130578059Y-61971012D01*
X131378667Y-61170404D01*
X131737877Y-61170404D01*
X132538485Y-61971012D01*
X132780669Y-61901547D01*
X132967416Y-61378102D01*
X132939634Y-60823036D01*
X132780669Y-60439261D01*
X132538485Y-60369796D01*
X131737877Y-61170404D01*
X131378667Y-61170404D01*
X130578059Y-60369796D01*
X130335875Y-60439261D01*
X130149128Y-60962706D01*
X116955453Y-60962706D01*
X116955514Y-60893743D01*
X116743282Y-60380101D01*
X116553704Y-60190191D01*
X130757664Y-60190191D01*
X131558272Y-60990799D01*
X132358880Y-60190191D01*
X132289415Y-59948007D01*
X131765970Y-59761260D01*
X131210904Y-59789042D01*
X130827129Y-59948007D01*
X130757664Y-60190191D01*
X116553704Y-60190191D01*
X116350642Y-59986775D01*
X116318272Y-59973334D01*
X116318272Y-58105170D01*
X116362192Y-58061327D01*
X116504838Y-57717799D01*
X116505162Y-57345833D01*
X116363117Y-57002057D01*
X116100327Y-56738808D01*
X115756799Y-56596162D01*
X115384833Y-56595838D01*
X115041057Y-56737883D01*
X114777808Y-57000673D01*
X114635162Y-57344201D01*
X114634838Y-57716167D01*
X114776883Y-58059943D01*
X114798272Y-58081369D01*
X114798272Y-59972873D01*
X114767969Y-59985394D01*
X114374643Y-60378034D01*
X114161515Y-60891304D01*
X114161030Y-61447065D01*
X114373262Y-61960707D01*
X114765902Y-62354033D01*
X114973784Y-62440353D01*
X114767969Y-62525394D01*
X114374643Y-62918034D01*
X114161515Y-63431304D01*
X114161030Y-63987065D01*
X114373262Y-64500707D01*
X114515307Y-64643000D01*
X113538000Y-64643000D01*
X113488590Y-64653006D01*
X113446965Y-64681447D01*
X113419685Y-64723841D01*
X113411000Y-64770000D01*
X113411000Y-68199000D01*
X113421006Y-68248410D01*
X113449447Y-68290035D01*
X113491841Y-68317315D01*
X113538000Y-68326000D01*
X114238460Y-68326000D01*
X114161515Y-68511304D01*
X114161030Y-69067065D01*
X114373262Y-69580707D01*
X114765902Y-69974033D01*
X115279172Y-70187161D01*
X115834933Y-70187646D01*
X116348575Y-69975414D01*
X116741901Y-69582774D01*
X116955029Y-69069504D01*
X116955514Y-68513743D01*
X116877940Y-68326000D01*
X130238460Y-68326000D01*
X130161515Y-68511304D01*
X130161030Y-69067065D01*
X130373262Y-69580707D01*
X130765902Y-69974033D01*
X131279172Y-70187161D01*
X131834933Y-70187646D01*
X132348575Y-69975414D01*
X132741901Y-69582774D01*
X132955029Y-69069504D01*
X132955514Y-68513743D01*
X132877940Y-68326000D01*
X135238460Y-68326000D01*
X135161515Y-68511304D01*
X135161030Y-69067065D01*
X135373262Y-69580707D01*
X135765902Y-69974033D01*
X136279172Y-70187161D01*
X136834933Y-70187646D01*
X137348575Y-69975414D01*
X137741901Y-69582774D01*
X137955029Y-69069504D01*
X137955514Y-68513743D01*
X137877940Y-68326000D01*
X148075095Y-68326000D01*
X148179599Y-68482401D01*
X151210878Y-71513680D01*
X151210838Y-71559167D01*
X151352883Y-71902943D01*
X151615673Y-72166192D01*
X151959201Y-72308838D01*
X152331167Y-72309162D01*
X152674943Y-72167117D01*
X152938192Y-71904327D01*
X153080838Y-71560799D01*
X153081162Y-71188833D01*
X152939117Y-70845057D01*
X152676327Y-70581808D01*
X152332799Y-70439162D01*
X152285923Y-70439121D01*
X151859842Y-70013040D01*
X152279172Y-70187161D01*
X152834933Y-70187646D01*
X153348575Y-69975414D01*
X153741901Y-69582774D01*
X153926000Y-69139414D01*
X153926000Y-70984275D01*
X153815162Y-71251201D01*
X153814838Y-71623167D01*
X153956883Y-71966943D01*
X154219673Y-72230192D01*
X154563201Y-72372838D01*
X154935167Y-72373162D01*
X155278943Y-72231117D01*
X155542192Y-71968327D01*
X155684838Y-71624799D01*
X155685162Y-71252833D01*
X155543117Y-70909057D01*
X155446000Y-70811770D01*
X155446000Y-68326000D01*
X156205241Y-68326000D01*
X156161515Y-68431304D01*
X156161030Y-68987065D01*
X156373262Y-69500707D01*
X156765902Y-69894033D01*
X157279172Y-70107161D01*
X157834933Y-70107646D01*
X158348575Y-69895414D01*
X158741901Y-69502774D01*
X158955029Y-68989504D01*
X158955514Y-68433743D01*
X158910995Y-68326000D01*
X172205241Y-68326000D01*
X172161515Y-68431304D01*
X172161030Y-68987065D01*
X172373262Y-69500707D01*
X172765902Y-69894033D01*
X173279172Y-70107161D01*
X173834933Y-70107646D01*
X174348575Y-69895414D01*
X174741901Y-69502774D01*
X174955029Y-68989504D01*
X174955514Y-68433743D01*
X174910996Y-68326000D01*
X177292649Y-68326000D01*
X177253243Y-68420900D01*
X177252758Y-68976661D01*
X177464990Y-69490303D01*
X177857630Y-69883629D01*
X178370900Y-70096757D01*
X178926661Y-70097242D01*
X179440303Y-69885010D01*
X179833629Y-69492370D01*
X180046757Y-68979100D01*
X180047242Y-68423339D01*
X180007022Y-68326000D01*
X193292649Y-68326000D01*
X193253243Y-68420900D01*
X193252758Y-68976661D01*
X193464990Y-69490303D01*
X193857630Y-69883629D01*
X194370900Y-70096757D01*
X194926661Y-70097242D01*
X195440303Y-69885010D01*
X195833629Y-69492370D01*
X196046757Y-68979100D01*
X196047242Y-68423339D01*
X196007022Y-68326000D01*
X196723000Y-68326000D01*
X196772410Y-68315994D01*
X196814035Y-68287553D01*
X196841315Y-68245159D01*
X196850000Y-68199000D01*
X196850000Y-67809566D01*
X196980701Y-67863838D01*
X197352667Y-67864162D01*
X197696443Y-67722117D01*
X197959692Y-67459327D01*
X198056114Y-67227118D01*
X198394943Y-67087117D01*
X198658192Y-66824327D01*
X198701071Y-66721064D01*
X198813167Y-66721162D01*
X199156943Y-66579117D01*
X199290000Y-66446292D01*
X199290000Y-71264467D01*
X199141333Y-71264338D01*
X198797557Y-71406383D01*
X198764382Y-71439500D01*
X196015463Y-71439500D01*
X195983327Y-71407308D01*
X195639799Y-71264662D01*
X195267833Y-71264338D01*
X194924057Y-71406383D01*
X194660808Y-71669173D01*
X194518162Y-72012701D01*
X194517838Y-72384667D01*
X194611929Y-72612386D01*
X194518162Y-72838201D01*
X194517838Y-73210167D01*
X194625080Y-73469714D01*
X194518162Y-73727201D01*
X194517838Y-74099167D01*
X194659883Y-74442943D01*
X194922673Y-74706192D01*
X195266201Y-74848838D01*
X195638167Y-74849162D01*
X195981943Y-74707117D01*
X196015118Y-74674000D01*
X198065537Y-74674000D01*
X198097673Y-74706192D01*
X198441201Y-74848838D01*
X198813167Y-74849162D01*
X199156943Y-74707117D01*
X199290000Y-74574292D01*
X199290000Y-104290000D01*
X140793406Y-104290000D01*
X140927443Y-104234617D01*
X141190692Y-103971827D01*
X141333338Y-103628299D01*
X141333662Y-103256333D01*
X141191617Y-102912557D01*
X141158500Y-102879382D01*
X141158500Y-102422815D01*
X194864630Y-102422815D01*
X195188980Y-103207800D01*
X195789041Y-103808909D01*
X196573459Y-104134628D01*
X197422815Y-104135370D01*
X198207800Y-103811020D01*
X198808909Y-103210959D01*
X199134628Y-102426541D01*
X199135370Y-101577185D01*
X198811020Y-100792200D01*
X198210959Y-100191091D01*
X197426541Y-99865372D01*
X196577185Y-99864630D01*
X195792200Y-100188980D01*
X195191091Y-100789041D01*
X194865372Y-101573459D01*
X194864630Y-102422815D01*
X141158500Y-102422815D01*
X141158500Y-102098963D01*
X141190692Y-102066827D01*
X141333338Y-101723299D01*
X141333662Y-101351333D01*
X141191617Y-101007557D01*
X140928827Y-100744308D01*
X140585299Y-100601662D01*
X140213333Y-100601338D01*
X139869557Y-100743383D01*
X139606308Y-101006173D01*
X139463662Y-101349701D01*
X139463338Y-101721667D01*
X139605383Y-102065443D01*
X139638500Y-102098618D01*
X139638500Y-102879037D01*
X139606308Y-102911173D01*
X139463662Y-103254701D01*
X139463338Y-103626667D01*
X139605383Y-103970443D01*
X139868173Y-104233692D01*
X140003777Y-104290000D01*
X110710000Y-104290000D01*
X110710000Y-102422815D01*
X110864630Y-102422815D01*
X111188980Y-103207800D01*
X111789041Y-103808909D01*
X112573459Y-104134628D01*
X113422815Y-104135370D01*
X114207800Y-103811020D01*
X114808909Y-103210959D01*
X115134628Y-102426541D01*
X115135370Y-101577185D01*
X114811020Y-100792200D01*
X114210959Y-100191091D01*
X113426541Y-99865372D01*
X112577185Y-99864630D01*
X111792200Y-100188980D01*
X111191091Y-100789041D01*
X110865372Y-101573459D01*
X110864630Y-102422815D01*
X110710000Y-102422815D01*
X110710000Y-92146040D01*
X114542827Y-92146040D01*
X114694747Y-92513714D01*
X114975806Y-92795264D01*
X115343215Y-92947826D01*
X115741040Y-92948173D01*
X116108714Y-92796253D01*
X116197121Y-92708000D01*
X117458000Y-92708000D01*
X117748839Y-92650148D01*
X117983000Y-92493687D01*
X118217161Y-92650148D01*
X118508000Y-92708000D01*
X119768694Y-92708000D01*
X119855806Y-92795264D01*
X120223215Y-92947826D01*
X120621040Y-92948173D01*
X120988714Y-92796253D01*
X121270264Y-92515194D01*
X121422826Y-92147785D01*
X121423173Y-91749960D01*
X121271253Y-91382286D01*
X121112496Y-91223251D01*
X121143698Y-91210327D01*
X121322327Y-91031699D01*
X121419000Y-90798310D01*
X121419000Y-90582750D01*
X121260250Y-90424000D01*
X120511000Y-90424000D01*
X120511000Y-90444000D01*
X120257000Y-90444000D01*
X120257000Y-90424000D01*
X120237000Y-90424000D01*
X120237000Y-90170000D01*
X120257000Y-90170000D01*
X120257000Y-90150000D01*
X120511000Y-90150000D01*
X120511000Y-90170000D01*
X121260250Y-90170000D01*
X121419000Y-90011250D01*
X121419000Y-89795690D01*
X121362563Y-89659440D01*
X121585000Y-89659440D01*
X121820317Y-89615162D01*
X121919528Y-89551322D01*
X122003110Y-89608431D01*
X122255000Y-89659440D01*
X122855000Y-89659440D01*
X123090317Y-89615162D01*
X123189528Y-89551322D01*
X123273110Y-89608431D01*
X123525000Y-89659440D01*
X124125000Y-89659440D01*
X124335000Y-89619926D01*
X124335000Y-90109198D01*
X123558320Y-90885878D01*
X123512833Y-90885838D01*
X123169057Y-91027883D01*
X122905808Y-91290673D01*
X122763162Y-91634201D01*
X122762838Y-92006167D01*
X122904883Y-92349943D01*
X123167673Y-92613192D01*
X123511201Y-92755838D01*
X123883167Y-92756162D01*
X124226943Y-92614117D01*
X124490192Y-92351327D01*
X124632838Y-92007799D01*
X124632879Y-91960923D01*
X125632401Y-90961401D01*
X125730000Y-90815334D01*
X125827599Y-90961401D01*
X126572878Y-91706680D01*
X126572838Y-91752167D01*
X126714883Y-92095943D01*
X126977673Y-92359192D01*
X127321201Y-92501838D01*
X127693167Y-92502162D01*
X128036943Y-92360117D01*
X128175551Y-92221750D01*
X129927000Y-92221750D01*
X129927000Y-92462309D01*
X130023673Y-92695698D01*
X130202301Y-92874327D01*
X130435690Y-92971000D01*
X130651250Y-92971000D01*
X130810000Y-92812250D01*
X130810000Y-92063000D01*
X131064000Y-92063000D01*
X131064000Y-92812250D01*
X131222750Y-92971000D01*
X131438310Y-92971000D01*
X131671699Y-92874327D01*
X131850327Y-92695698D01*
X131947000Y-92462309D01*
X131947000Y-92221750D01*
X131788250Y-92063000D01*
X131064000Y-92063000D01*
X130810000Y-92063000D01*
X130085750Y-92063000D01*
X129927000Y-92221750D01*
X128175551Y-92221750D01*
X128300192Y-92097327D01*
X128442838Y-91753799D01*
X128443162Y-91381833D01*
X128301117Y-91038057D01*
X128038327Y-90774808D01*
X127694799Y-90632162D01*
X127647923Y-90632121D01*
X127125000Y-90109198D01*
X127125000Y-90036000D01*
X129914560Y-90036000D01*
X129914560Y-90836000D01*
X129958838Y-91071317D01*
X130025329Y-91174646D01*
X130023673Y-91176302D01*
X129927000Y-91409691D01*
X129927000Y-91650250D01*
X130085750Y-91809000D01*
X130810000Y-91809000D01*
X130810000Y-91789000D01*
X131064000Y-91789000D01*
X131064000Y-91809000D01*
X131788250Y-91809000D01*
X131880589Y-91716661D01*
X132425758Y-91716661D01*
X132637990Y-92230303D01*
X133030630Y-92623629D01*
X133238512Y-92709949D01*
X133032697Y-92794990D01*
X132639371Y-93187630D01*
X132426243Y-93700900D01*
X132425758Y-94256661D01*
X132637990Y-94770303D01*
X133030630Y-95163629D01*
X133238512Y-95249949D01*
X133032697Y-95334990D01*
X132639371Y-95727630D01*
X132426243Y-96240900D01*
X132425758Y-96796661D01*
X132637990Y-97310303D01*
X133030630Y-97703629D01*
X133238512Y-97789949D01*
X133032697Y-97874990D01*
X132639371Y-98267630D01*
X132426243Y-98780900D01*
X132425758Y-99336661D01*
X132637990Y-99850303D01*
X133030630Y-100243629D01*
X133543900Y-100456757D01*
X134099661Y-100457242D01*
X134613303Y-100245010D01*
X135006629Y-99852370D01*
X135219757Y-99339100D01*
X135220242Y-98783339D01*
X135008010Y-98269697D01*
X134615370Y-97876371D01*
X134407488Y-97790051D01*
X134613303Y-97705010D01*
X135006629Y-97312370D01*
X135219757Y-96799100D01*
X135220242Y-96243339D01*
X135008010Y-95729697D01*
X134615370Y-95336371D01*
X134407488Y-95250051D01*
X134613303Y-95165010D01*
X135006629Y-94772370D01*
X135219757Y-94259100D01*
X135219759Y-94256661D01*
X144715758Y-94256661D01*
X144927990Y-94770303D01*
X145320630Y-95163629D01*
X145528512Y-95249949D01*
X145322697Y-95334990D01*
X144929371Y-95727630D01*
X144716243Y-96240900D01*
X144715758Y-96796661D01*
X144927990Y-97310303D01*
X145320630Y-97703629D01*
X145528512Y-97789949D01*
X145322697Y-97874990D01*
X144929371Y-98267630D01*
X144716243Y-98780900D01*
X144715758Y-99336661D01*
X144927990Y-99850303D01*
X145320630Y-100243629D01*
X145833900Y-100456757D01*
X146389661Y-100457242D01*
X146903303Y-100245010D01*
X147296629Y-99852370D01*
X147509757Y-99339100D01*
X147510242Y-98783339D01*
X147298010Y-98269697D01*
X146905370Y-97876371D01*
X146697488Y-97790051D01*
X146903303Y-97705010D01*
X147296629Y-97312370D01*
X147509757Y-96799100D01*
X147510242Y-96243339D01*
X147298010Y-95729697D01*
X146905370Y-95336371D01*
X146697488Y-95250051D01*
X146903303Y-95165010D01*
X147296629Y-94772370D01*
X147509757Y-94259100D01*
X147510242Y-93703339D01*
X147298010Y-93189697D01*
X146905370Y-92796371D01*
X146713273Y-92716605D01*
X146844143Y-92662397D01*
X146913608Y-92420213D01*
X146113000Y-91619605D01*
X145312392Y-92420213D01*
X145381857Y-92662397D01*
X145522318Y-92712509D01*
X145322697Y-92794990D01*
X144929371Y-93187630D01*
X144716243Y-93700900D01*
X144715758Y-94256661D01*
X135219759Y-94256661D01*
X135220242Y-93703339D01*
X135008010Y-93189697D01*
X134615370Y-92796371D01*
X134407488Y-92710051D01*
X134613303Y-92625010D01*
X135006629Y-92232370D01*
X135219757Y-91719100D01*
X135220242Y-91163339D01*
X135008010Y-90649697D01*
X134615370Y-90256371D01*
X134102100Y-90043243D01*
X133546339Y-90042758D01*
X133032697Y-90254990D01*
X132639371Y-90647630D01*
X132426243Y-91160900D01*
X132425758Y-91716661D01*
X131880589Y-91716661D01*
X131947000Y-91650250D01*
X131947000Y-91409691D01*
X131850327Y-91176302D01*
X131848957Y-91174932D01*
X131908431Y-91087890D01*
X131959440Y-90836000D01*
X131959440Y-90036000D01*
X131915162Y-89800683D01*
X131804817Y-89629202D01*
X131871838Y-89467799D01*
X131872162Y-89095833D01*
X131730117Y-88752057D01*
X131467327Y-88488808D01*
X131123799Y-88346162D01*
X130751833Y-88345838D01*
X130408057Y-88487883D01*
X130144808Y-88750673D01*
X130002162Y-89094201D01*
X130001838Y-89466167D01*
X130070036Y-89631218D01*
X129965569Y-89784110D01*
X129914560Y-90036000D01*
X127125000Y-90036000D01*
X127125000Y-89463563D01*
X127261431Y-89263890D01*
X127312440Y-89012000D01*
X127312440Y-87012000D01*
X127272393Y-86799167D01*
X136605838Y-86799167D01*
X136747883Y-87142943D01*
X136781000Y-87176118D01*
X136781000Y-90623537D01*
X136748808Y-90655673D01*
X136606162Y-90999201D01*
X136605838Y-91371167D01*
X136747883Y-91714943D01*
X137010673Y-91978192D01*
X137354201Y-92120838D01*
X137726167Y-92121162D01*
X138069943Y-91979117D01*
X138333192Y-91716327D01*
X138475838Y-91372799D01*
X138475960Y-91232302D01*
X144703856Y-91232302D01*
X144731638Y-91787368D01*
X144890603Y-92171143D01*
X145132787Y-92240608D01*
X145933395Y-91440000D01*
X146292605Y-91440000D01*
X147093213Y-92240608D01*
X147335397Y-92171143D01*
X147522144Y-91647698D01*
X147494362Y-91092632D01*
X147335397Y-90708857D01*
X147093213Y-90639392D01*
X146292605Y-91440000D01*
X145933395Y-91440000D01*
X145132787Y-90639392D01*
X144890603Y-90708857D01*
X144703856Y-91232302D01*
X138475960Y-91232302D01*
X138476162Y-91000833D01*
X138334117Y-90657057D01*
X138301000Y-90623882D01*
X138301000Y-90459787D01*
X145312392Y-90459787D01*
X146113000Y-91260395D01*
X146846895Y-90526500D01*
X149421060Y-90526500D01*
X149421060Y-92226500D01*
X149465338Y-92461817D01*
X149604410Y-92677941D01*
X149808500Y-92817390D01*
X149808500Y-96239221D01*
X149617059Y-96362410D01*
X149472069Y-96574610D01*
X149421060Y-96826500D01*
X149421060Y-98526500D01*
X149465338Y-98761817D01*
X149604410Y-98977941D01*
X149816610Y-99122931D01*
X150068500Y-99173940D01*
X151068500Y-99173940D01*
X151303817Y-99129662D01*
X151519941Y-98990590D01*
X151664931Y-98778390D01*
X151715940Y-98526500D01*
X151715940Y-97962250D01*
X153233500Y-97962250D01*
X153233500Y-98652809D01*
X153330173Y-98886198D01*
X153508801Y-99064827D01*
X153742190Y-99161500D01*
X154082750Y-99161500D01*
X154241500Y-99002750D01*
X154241500Y-97803500D01*
X154495500Y-97803500D01*
X154495500Y-99002750D01*
X154654250Y-99161500D01*
X154994810Y-99161500D01*
X155228199Y-99064827D01*
X155406827Y-98886198D01*
X155503500Y-98652809D01*
X155503500Y-97962250D01*
X155344750Y-97803500D01*
X154495500Y-97803500D01*
X154241500Y-97803500D01*
X153392250Y-97803500D01*
X153233500Y-97962250D01*
X151715940Y-97962250D01*
X151715940Y-96826500D01*
X151692174Y-96700191D01*
X153233500Y-96700191D01*
X153233500Y-97390750D01*
X153392250Y-97549500D01*
X154241500Y-97549500D01*
X154241500Y-96350250D01*
X154495500Y-96350250D01*
X154495500Y-97549500D01*
X155344750Y-97549500D01*
X155503500Y-97390750D01*
X155503500Y-96700191D01*
X155406827Y-96466802D01*
X155228199Y-96288173D01*
X154994810Y-96191500D01*
X154654250Y-96191500D01*
X154495500Y-96350250D01*
X154241500Y-96350250D01*
X154082750Y-96191500D01*
X153742190Y-96191500D01*
X153508801Y-96288173D01*
X153330173Y-96466802D01*
X153233500Y-96700191D01*
X151692174Y-96700191D01*
X151671662Y-96591183D01*
X151532590Y-96375059D01*
X151328500Y-96235610D01*
X151328500Y-95440500D01*
X196224907Y-95440500D01*
X196337946Y-96008785D01*
X196659853Y-96490554D01*
X196989026Y-96710500D01*
X196659853Y-96930446D01*
X196337946Y-97412215D01*
X196224907Y-97980500D01*
X196337946Y-98548785D01*
X196659853Y-99030554D01*
X197141622Y-99352461D01*
X197709907Y-99465500D01*
X197768093Y-99465500D01*
X198336378Y-99352461D01*
X198818147Y-99030554D01*
X199140054Y-98548785D01*
X199253093Y-97980500D01*
X199140054Y-97412215D01*
X198818147Y-96930446D01*
X198488974Y-96710500D01*
X198818147Y-96490554D01*
X199140054Y-96008785D01*
X199253093Y-95440500D01*
X199140054Y-94872215D01*
X198818147Y-94390446D01*
X198477447Y-94162798D01*
X198620358Y-94095683D01*
X199010645Y-93667424D01*
X199180476Y-93257390D01*
X199059155Y-93027500D01*
X197866000Y-93027500D01*
X197866000Y-93047500D01*
X197612000Y-93047500D01*
X197612000Y-93027500D01*
X196418845Y-93027500D01*
X196297524Y-93257390D01*
X196467355Y-93667424D01*
X196857642Y-94095683D01*
X197000553Y-94162798D01*
X196659853Y-94390446D01*
X196337946Y-94872215D01*
X196224907Y-95440500D01*
X151328500Y-95440500D01*
X151328500Y-92813779D01*
X151519941Y-92690590D01*
X151535304Y-92668106D01*
X152559099Y-93691901D01*
X152805661Y-93856648D01*
X153096500Y-93914500D01*
X156146500Y-93914500D01*
X156437339Y-93856648D01*
X156683901Y-93691901D01*
X158271401Y-92104401D01*
X158436148Y-91857839D01*
X158448650Y-91794987D01*
X158569654Y-91875839D01*
X159004000Y-91962236D01*
X159438346Y-91875839D01*
X159639000Y-91741766D01*
X159839654Y-91875839D01*
X160014310Y-91910580D01*
X159999057Y-91916883D01*
X159735808Y-92179673D01*
X159593162Y-92523201D01*
X159592838Y-92895167D01*
X159734883Y-93238943D01*
X159997673Y-93502192D01*
X160341201Y-93644838D01*
X160713167Y-93645162D01*
X161056943Y-93503117D01*
X161090118Y-93470000D01*
X162188037Y-93470000D01*
X162220173Y-93502192D01*
X162563701Y-93644838D01*
X162935667Y-93645162D01*
X163279443Y-93503117D01*
X163542692Y-93240327D01*
X163685338Y-92896799D01*
X163685662Y-92524833D01*
X163543617Y-92181057D01*
X163280827Y-91917808D01*
X163201970Y-91885064D01*
X163248346Y-91875839D01*
X163616566Y-91629802D01*
X163862603Y-91261582D01*
X163949000Y-90827236D01*
X163949000Y-90782764D01*
X163863908Y-90354979D01*
X163910431Y-90286890D01*
X163961440Y-90035000D01*
X163961440Y-89510500D01*
X196241560Y-89510500D01*
X196241560Y-91210500D01*
X196285838Y-91445817D01*
X196424910Y-91661941D01*
X196637110Y-91806931D01*
X196745107Y-91828801D01*
X196467355Y-92133576D01*
X196297524Y-92543610D01*
X196418845Y-92773500D01*
X197612000Y-92773500D01*
X197612000Y-92753500D01*
X197866000Y-92753500D01*
X197866000Y-92773500D01*
X199059155Y-92773500D01*
X199180476Y-92543610D01*
X199010645Y-92133576D01*
X198734499Y-91830563D01*
X198824317Y-91813662D01*
X199040441Y-91674590D01*
X199185431Y-91462390D01*
X199236440Y-91210500D01*
X199236440Y-89510500D01*
X199192162Y-89275183D01*
X199053090Y-89059059D01*
X198840890Y-88914069D01*
X198589000Y-88863060D01*
X196889000Y-88863060D01*
X196653683Y-88907338D01*
X196437559Y-89046410D01*
X196292569Y-89258610D01*
X196241560Y-89510500D01*
X163961440Y-89510500D01*
X163961440Y-89035000D01*
X163917162Y-88799683D01*
X163778090Y-88583559D01*
X163565890Y-88438569D01*
X163314000Y-88387560D01*
X162314000Y-88387560D01*
X162078683Y-88431838D01*
X161978968Y-88496003D01*
X161845874Y-88440881D01*
X161671000Y-88567046D01*
X161671000Y-89013075D01*
X161666560Y-89035000D01*
X161666560Y-89672143D01*
X161544000Y-89647764D01*
X161417000Y-89673026D01*
X161417000Y-89662000D01*
X160401000Y-89662000D01*
X160401000Y-89673026D01*
X160274000Y-89647764D01*
X160147000Y-89673026D01*
X160147000Y-89662000D01*
X160127000Y-89662000D01*
X160127000Y-89617564D01*
X160139000Y-89557236D01*
X160139000Y-89512764D01*
X160127000Y-89452436D01*
X160127000Y-89408000D01*
X160147000Y-89408000D01*
X160147000Y-88567046D01*
X160401000Y-88567046D01*
X160401000Y-89408000D01*
X161417000Y-89408000D01*
X161417000Y-88567046D01*
X161242126Y-88440881D01*
X160983791Y-88547873D01*
X160909000Y-88612489D01*
X160834209Y-88547873D01*
X160575874Y-88440881D01*
X160401000Y-88567046D01*
X160147000Y-88567046D01*
X159972126Y-88440881D01*
X159713791Y-88547873D01*
X159648304Y-88604451D01*
X159438346Y-88464161D01*
X159004000Y-88377764D01*
X158569654Y-88464161D01*
X158369000Y-88598234D01*
X158168346Y-88464161D01*
X157734000Y-88377764D01*
X157299654Y-88464161D01*
X156931434Y-88710198D01*
X156685397Y-89078418D01*
X156599000Y-89512764D01*
X156599000Y-89557236D01*
X156685397Y-89991582D01*
X156804612Y-90170000D01*
X156685397Y-90348418D01*
X156599000Y-90782764D01*
X156599000Y-90827236D01*
X156685397Y-91261582D01*
X156797237Y-91428961D01*
X155831698Y-92394500D01*
X155486231Y-92394500D01*
X155503500Y-92352809D01*
X155503500Y-91662250D01*
X155344750Y-91503500D01*
X154495500Y-91503500D01*
X154495500Y-91523500D01*
X154241500Y-91523500D01*
X154241500Y-91503500D01*
X153392250Y-91503500D01*
X153233500Y-91662250D01*
X153233500Y-92216698D01*
X151855901Y-90839099D01*
X151715940Y-90745580D01*
X151715940Y-90526500D01*
X151692174Y-90400191D01*
X153233500Y-90400191D01*
X153233500Y-91090750D01*
X153392250Y-91249500D01*
X154241500Y-91249500D01*
X154241500Y-90050250D01*
X154495500Y-90050250D01*
X154495500Y-91249500D01*
X155344750Y-91249500D01*
X155503500Y-91090750D01*
X155503500Y-90400191D01*
X155406827Y-90166802D01*
X155228199Y-89988173D01*
X154994810Y-89891500D01*
X154654250Y-89891500D01*
X154495500Y-90050250D01*
X154241500Y-90050250D01*
X154082750Y-89891500D01*
X153742190Y-89891500D01*
X153508801Y-89988173D01*
X153330173Y-90166802D01*
X153233500Y-90400191D01*
X151692174Y-90400191D01*
X151689010Y-90383381D01*
X151976443Y-90264617D01*
X152239692Y-90001827D01*
X152382338Y-89658299D01*
X152382662Y-89286333D01*
X152240617Y-88942557D01*
X151977827Y-88679308D01*
X151634299Y-88536662D01*
X151262333Y-88536338D01*
X150918557Y-88678383D01*
X150851078Y-88745745D01*
X150732397Y-88769352D01*
X150485835Y-88934099D01*
X150031099Y-89388835D01*
X149866352Y-89635397D01*
X149808500Y-89926236D01*
X149808500Y-89939221D01*
X149617059Y-90062410D01*
X149472069Y-90274610D01*
X149421060Y-90526500D01*
X146846895Y-90526500D01*
X146913608Y-90459787D01*
X146844143Y-90217603D01*
X146320698Y-90030856D01*
X145765632Y-90058638D01*
X145381857Y-90217603D01*
X145312392Y-90459787D01*
X138301000Y-90459787D01*
X138301000Y-87176463D01*
X138333192Y-87144327D01*
X138475838Y-86800799D01*
X138476162Y-86428833D01*
X138334117Y-86085057D01*
X138071327Y-85821808D01*
X137727799Y-85679162D01*
X137355833Y-85678838D01*
X137012057Y-85820883D01*
X136748808Y-86083673D01*
X136606162Y-86427201D01*
X136605838Y-86799167D01*
X127272393Y-86799167D01*
X127268162Y-86776683D01*
X127129090Y-86560559D01*
X126916890Y-86415569D01*
X126665000Y-86364560D01*
X126065000Y-86364560D01*
X125829683Y-86408838D01*
X125730472Y-86472678D01*
X125646890Y-86415569D01*
X125395000Y-86364560D01*
X124795000Y-86364560D01*
X124559683Y-86408838D01*
X124460472Y-86472678D01*
X124376890Y-86415569D01*
X124125000Y-86364560D01*
X123525000Y-86364560D01*
X123289683Y-86408838D01*
X123190472Y-86472678D01*
X123106890Y-86415569D01*
X122855000Y-86364560D01*
X122255000Y-86364560D01*
X122019683Y-86408838D01*
X121920472Y-86472678D01*
X121836890Y-86415569D01*
X121585000Y-86364560D01*
X120985000Y-86364560D01*
X120749683Y-86408838D01*
X120650472Y-86472678D01*
X120566890Y-86415569D01*
X120315000Y-86364560D01*
X119715000Y-86364560D01*
X119479683Y-86408838D01*
X119380472Y-86472678D01*
X119296890Y-86415569D01*
X119045000Y-86364560D01*
X118445000Y-86364560D01*
X118209683Y-86408838D01*
X118110472Y-86472678D01*
X118026890Y-86415569D01*
X117775000Y-86364560D01*
X117175000Y-86364560D01*
X116939683Y-86408838D01*
X116849020Y-86467178D01*
X116631310Y-86377000D01*
X116490750Y-86377000D01*
X116332000Y-86535750D01*
X116332000Y-87885000D01*
X116352000Y-87885000D01*
X116352000Y-88139000D01*
X116332000Y-88139000D01*
X116332000Y-88159000D01*
X116078000Y-88159000D01*
X116078000Y-88139000D01*
X115428750Y-88139000D01*
X115270000Y-88297750D01*
X115270000Y-89138309D01*
X115331590Y-89287000D01*
X115309691Y-89287000D01*
X115076302Y-89383673D01*
X114897673Y-89562301D01*
X114801000Y-89795690D01*
X114801000Y-90011250D01*
X114959750Y-90170000D01*
X115709000Y-90170000D01*
X115709000Y-90150000D01*
X115963000Y-90150000D01*
X115963000Y-90170000D01*
X115983000Y-90170000D01*
X115983000Y-90424000D01*
X115963000Y-90424000D01*
X115963000Y-90444000D01*
X115709000Y-90444000D01*
X115709000Y-90424000D01*
X114959750Y-90424000D01*
X114801000Y-90582750D01*
X114801000Y-90798310D01*
X114897673Y-91031699D01*
X114971499Y-91105524D01*
X114695736Y-91380806D01*
X114543174Y-91748215D01*
X114542827Y-92146040D01*
X110710000Y-92146040D01*
X110710000Y-86885691D01*
X115270000Y-86885691D01*
X115270000Y-87726250D01*
X115428750Y-87885000D01*
X116078000Y-87885000D01*
X116078000Y-86535750D01*
X115919250Y-86377000D01*
X115778690Y-86377000D01*
X115545301Y-86473673D01*
X115366673Y-86652302D01*
X115270000Y-86885691D01*
X110710000Y-86885691D01*
X110710000Y-77612000D01*
X115257560Y-77612000D01*
X115257560Y-79612000D01*
X115301838Y-79847317D01*
X115440910Y-80063441D01*
X115653110Y-80208431D01*
X115905000Y-80259440D01*
X116505000Y-80259440D01*
X116740317Y-80215162D01*
X116839528Y-80151322D01*
X116923110Y-80208431D01*
X117175000Y-80259440D01*
X117775000Y-80259440D01*
X118010317Y-80215162D01*
X118109528Y-80151322D01*
X118193110Y-80208431D01*
X118445000Y-80259440D01*
X118935063Y-80259440D01*
X118826162Y-80521701D01*
X118825838Y-80893667D01*
X118967883Y-81237443D01*
X119230673Y-81500692D01*
X119574201Y-81643338D01*
X119946167Y-81643662D01*
X120269371Y-81510117D01*
X120590201Y-81643338D01*
X120962167Y-81643662D01*
X121305943Y-81501617D01*
X121316538Y-81491040D01*
X121326173Y-81500692D01*
X121669701Y-81643338D01*
X122041667Y-81643662D01*
X122385443Y-81501617D01*
X122459594Y-81427596D01*
X122469173Y-81437192D01*
X122812701Y-81579838D01*
X123184667Y-81580162D01*
X123528443Y-81438117D01*
X123791692Y-81175327D01*
X123934338Y-80831799D01*
X123934379Y-80784923D01*
X124362401Y-80356901D01*
X124487153Y-80170197D01*
X124543110Y-80208431D01*
X124795000Y-80259440D01*
X125395000Y-80259440D01*
X125630317Y-80215162D01*
X125729528Y-80151322D01*
X125813110Y-80208431D01*
X126065000Y-80259440D01*
X126665000Y-80259440D01*
X126900317Y-80215162D01*
X127116441Y-80076090D01*
X127261431Y-79863890D01*
X127312440Y-79612000D01*
X127312440Y-79433167D01*
X136605838Y-79433167D01*
X136747883Y-79776943D01*
X137010673Y-80040192D01*
X137298966Y-80159902D01*
X137298923Y-80208823D01*
X137440968Y-80552599D01*
X137703758Y-80815848D01*
X138047286Y-80958494D01*
X138119387Y-80958557D01*
X138208383Y-81173943D01*
X138471173Y-81437192D01*
X138574380Y-81480048D01*
X138574338Y-81528667D01*
X138716383Y-81872443D01*
X138979173Y-82135692D01*
X139322701Y-82278338D01*
X139527015Y-82278516D01*
X139526838Y-82481167D01*
X139668883Y-82824943D01*
X139931673Y-83088192D01*
X140275201Y-83230838D01*
X140647167Y-83231162D01*
X140796902Y-83169293D01*
X140796838Y-83243167D01*
X140938883Y-83586943D01*
X141201673Y-83850192D01*
X141434961Y-83947062D01*
X141203057Y-84042883D01*
X140939808Y-84305673D01*
X140797162Y-84649201D01*
X140796838Y-85021167D01*
X140938883Y-85364943D01*
X140972000Y-85398118D01*
X140972000Y-86940537D01*
X140939808Y-86972673D01*
X140797162Y-87316201D01*
X140796838Y-87688167D01*
X140938883Y-88031943D01*
X141201673Y-88295192D01*
X141545201Y-88437838D01*
X141917167Y-88438162D01*
X142260943Y-88296117D01*
X142524192Y-88033327D01*
X142666838Y-87689799D01*
X142667162Y-87317833D01*
X142525117Y-86974057D01*
X142492000Y-86940882D01*
X142492000Y-85398463D01*
X142524192Y-85366327D01*
X142666838Y-85022799D01*
X142667162Y-84650833D01*
X142525117Y-84307057D01*
X142350532Y-84132167D01*
X151972838Y-84132167D01*
X152114883Y-84475943D01*
X152377673Y-84739192D01*
X152721201Y-84881838D01*
X153093167Y-84882162D01*
X153436943Y-84740117D01*
X153700192Y-84477327D01*
X153713925Y-84444254D01*
X153759673Y-84554699D01*
X153938302Y-84733327D01*
X154171691Y-84830000D01*
X154412250Y-84830000D01*
X154571000Y-84671250D01*
X154571000Y-83947000D01*
X154551000Y-83947000D01*
X154551000Y-83693000D01*
X154571000Y-83693000D01*
X154571000Y-83673000D01*
X154825000Y-83673000D01*
X154825000Y-83693000D01*
X154845000Y-83693000D01*
X154845000Y-83947000D01*
X154825000Y-83947000D01*
X154825000Y-84671250D01*
X154983750Y-84830000D01*
X155224309Y-84830000D01*
X155457698Y-84733327D01*
X155459068Y-84731957D01*
X155546110Y-84791431D01*
X155798000Y-84842440D01*
X156598000Y-84842440D01*
X156761814Y-84811616D01*
X158132378Y-86182180D01*
X158132338Y-86227667D01*
X158274383Y-86571443D01*
X158537173Y-86834692D01*
X158880701Y-86977338D01*
X159252667Y-86977662D01*
X159596443Y-86835617D01*
X159859692Y-86572827D01*
X160002338Y-86229299D01*
X160002662Y-85857333D01*
X159860617Y-85513557D01*
X159597827Y-85250308D01*
X159254299Y-85107662D01*
X159207423Y-85107621D01*
X158189793Y-84089991D01*
X158224338Y-84006799D01*
X158224662Y-83634833D01*
X158082617Y-83291057D01*
X157982135Y-83190399D01*
X158844784Y-82327750D01*
X170605500Y-82327750D01*
X170605500Y-82543310D01*
X170702173Y-82776699D01*
X170880802Y-82955327D01*
X171114191Y-83052000D01*
X171354750Y-83052000D01*
X171513500Y-82893250D01*
X171513500Y-82169000D01*
X170764250Y-82169000D01*
X170605500Y-82327750D01*
X158844784Y-82327750D01*
X159631844Y-81540690D01*
X170605500Y-81540690D01*
X170605500Y-81756250D01*
X170764250Y-81915000D01*
X171513500Y-81915000D01*
X171513500Y-81190750D01*
X171767500Y-81190750D01*
X171767500Y-81915000D01*
X171787500Y-81915000D01*
X171787500Y-82169000D01*
X171767500Y-82169000D01*
X171767500Y-82893250D01*
X171926250Y-83052000D01*
X172166809Y-83052000D01*
X172229527Y-83026021D01*
X172229338Y-83243167D01*
X172371383Y-83586943D01*
X172634173Y-83850192D01*
X172977701Y-83992838D01*
X173349667Y-83993162D01*
X173693443Y-83851117D01*
X173956692Y-83588327D01*
X174099338Y-83244799D01*
X174099662Y-82872833D01*
X174061194Y-82779734D01*
X174136931Y-82668890D01*
X174187940Y-82417000D01*
X174187940Y-81667000D01*
X174143662Y-81431683D01*
X174004590Y-81215559D01*
X173792390Y-81070569D01*
X173540500Y-81019560D01*
X172740500Y-81019560D01*
X172505183Y-81063838D01*
X172401854Y-81130329D01*
X172400198Y-81128673D01*
X172166809Y-81032000D01*
X171926250Y-81032000D01*
X171767500Y-81190750D01*
X171513500Y-81190750D01*
X171354750Y-81032000D01*
X171114191Y-81032000D01*
X170880802Y-81128673D01*
X170702173Y-81307301D01*
X170605500Y-81540690D01*
X159631844Y-81540690D01*
X161635535Y-79536999D01*
X168163259Y-79536999D01*
X168180383Y-79578443D01*
X168443173Y-79841692D01*
X168786701Y-79984338D01*
X169158667Y-79984662D01*
X169502443Y-79842617D01*
X169765692Y-79579827D01*
X169908338Y-79236299D01*
X169908662Y-78864333D01*
X169778431Y-78549149D01*
X169908338Y-78236299D01*
X169908662Y-77864333D01*
X169766617Y-77520557D01*
X169647436Y-77401167D01*
X188040838Y-77401167D01*
X188182883Y-77744943D01*
X188216000Y-77778118D01*
X188216000Y-80971537D01*
X188183808Y-81003673D01*
X188041162Y-81347201D01*
X188040838Y-81719167D01*
X188182883Y-82062943D01*
X188445673Y-82326192D01*
X188789201Y-82468838D01*
X189161167Y-82469162D01*
X189504943Y-82327117D01*
X189768192Y-82064327D01*
X189910838Y-81720799D01*
X189911162Y-81348833D01*
X189769117Y-81005057D01*
X189736000Y-80971882D01*
X189736000Y-80703167D01*
X192739838Y-80703167D01*
X192881883Y-81046943D01*
X192915000Y-81080118D01*
X192915000Y-82622537D01*
X192882808Y-82654673D01*
X192740162Y-82998201D01*
X192739838Y-83370167D01*
X192881883Y-83713943D01*
X193144673Y-83977192D01*
X193488201Y-84119838D01*
X193860167Y-84120162D01*
X194203943Y-83978117D01*
X194467192Y-83715327D01*
X194609838Y-83371799D01*
X194610162Y-82999833D01*
X194468117Y-82656057D01*
X194435000Y-82622882D01*
X194435000Y-81080463D01*
X194467192Y-81048327D01*
X194609838Y-80704799D01*
X194610162Y-80332833D01*
X194468117Y-79989057D01*
X194205327Y-79725808D01*
X193861799Y-79583162D01*
X193489833Y-79582838D01*
X193146057Y-79724883D01*
X192882808Y-79987673D01*
X192740162Y-80331201D01*
X192739838Y-80703167D01*
X189736000Y-80703167D01*
X189736000Y-77778463D01*
X189768192Y-77746327D01*
X189910838Y-77402799D01*
X189911162Y-77030833D01*
X189769117Y-76687057D01*
X189506327Y-76423808D01*
X189162799Y-76281162D01*
X188790833Y-76280838D01*
X188447057Y-76422883D01*
X188183808Y-76685673D01*
X188041162Y-77029201D01*
X188040838Y-77401167D01*
X169647436Y-77401167D01*
X169503827Y-77257308D01*
X169160299Y-77114662D01*
X168788333Y-77114338D01*
X168444557Y-77256383D01*
X168181308Y-77519173D01*
X168163524Y-77562001D01*
X161132267Y-77562001D01*
X160889681Y-77610255D01*
X160841427Y-77619853D01*
X160594866Y-77784600D01*
X157233175Y-81146291D01*
X157246431Y-81126890D01*
X157297440Y-80875000D01*
X157297440Y-80135000D01*
X157670500Y-80135000D01*
X157961339Y-80077148D01*
X158207901Y-79912401D01*
X159270680Y-78849622D01*
X159316167Y-78849662D01*
X159659943Y-78707617D01*
X159923192Y-78444827D01*
X160065838Y-78101299D01*
X160066162Y-77729333D01*
X159924117Y-77385557D01*
X159661327Y-77122308D01*
X159317799Y-76979662D01*
X158945833Y-76979338D01*
X158602057Y-77121383D01*
X158338808Y-77384173D01*
X158196162Y-77727701D01*
X158196121Y-77774577D01*
X157355698Y-78615000D01*
X156888264Y-78615000D01*
X156719736Y-78648523D01*
X156523799Y-78567162D01*
X156151833Y-78566838D01*
X155808057Y-78708883D01*
X155544808Y-78971673D01*
X155402162Y-79315201D01*
X155401964Y-79542048D01*
X155276309Y-79490000D01*
X155035750Y-79490000D01*
X154877000Y-79648750D01*
X154877000Y-80373000D01*
X154897000Y-80373000D01*
X154897000Y-80627000D01*
X154877000Y-80627000D01*
X154877000Y-81351250D01*
X155035750Y-81510000D01*
X155276309Y-81510000D01*
X155509698Y-81413327D01*
X155511068Y-81411957D01*
X155598110Y-81471431D01*
X155850000Y-81522440D01*
X156650000Y-81522440D01*
X156885317Y-81478162D01*
X156930159Y-81449307D01*
X156716466Y-81663000D01*
X153035000Y-81663000D01*
X152744161Y-81720852D01*
X152497599Y-81885599D01*
X152370599Y-82012599D01*
X152205852Y-82259161D01*
X152148000Y-82550000D01*
X152148000Y-83384537D01*
X152115808Y-83416673D01*
X151973162Y-83760201D01*
X151972838Y-84132167D01*
X142350532Y-84132167D01*
X142262327Y-84043808D01*
X142029039Y-83946938D01*
X142260943Y-83851117D01*
X142294118Y-83818000D01*
X147138537Y-83818000D01*
X147170673Y-83850192D01*
X147514201Y-83992838D01*
X147886167Y-83993162D01*
X148229943Y-83851117D01*
X148493192Y-83588327D01*
X148635838Y-83244799D01*
X148635891Y-83183759D01*
X148864943Y-83089117D01*
X149128192Y-82826327D01*
X149270838Y-82482799D01*
X149271162Y-82110833D01*
X149178624Y-81886873D01*
X149191692Y-81873827D01*
X149334338Y-81530299D01*
X149334662Y-81158333D01*
X149195748Y-80822135D01*
X149210856Y-80785750D01*
X153715000Y-80785750D01*
X153715000Y-81001310D01*
X153811673Y-81234699D01*
X153990302Y-81413327D01*
X154223691Y-81510000D01*
X154464250Y-81510000D01*
X154623000Y-81351250D01*
X154623000Y-80627000D01*
X153873750Y-80627000D01*
X153715000Y-80785750D01*
X149210856Y-80785750D01*
X149270838Y-80641299D01*
X149271162Y-80269333D01*
X149159335Y-79998690D01*
X153715000Y-79998690D01*
X153715000Y-80214250D01*
X153873750Y-80373000D01*
X154623000Y-80373000D01*
X154623000Y-79648750D01*
X154464250Y-79490000D01*
X154223691Y-79490000D01*
X153990302Y-79586673D01*
X153811673Y-79765301D01*
X153715000Y-79998690D01*
X149159335Y-79998690D01*
X149129117Y-79925557D01*
X148931354Y-79727448D01*
X149301180Y-79357622D01*
X149346667Y-79357662D01*
X149690443Y-79215617D01*
X149953692Y-78952827D01*
X150096338Y-78609299D01*
X150096662Y-78237333D01*
X149954617Y-77893557D01*
X149691827Y-77630308D01*
X149348299Y-77487662D01*
X148976333Y-77487338D01*
X148632557Y-77629383D01*
X148431296Y-77830293D01*
X148421827Y-77820808D01*
X148078299Y-77678162D01*
X147706333Y-77677838D01*
X147362557Y-77819883D01*
X147099308Y-78082673D01*
X146956662Y-78426201D01*
X146956338Y-78798167D01*
X146990922Y-78881866D01*
X146887808Y-78984980D01*
X140361139Y-78984980D01*
X140185828Y-78867841D01*
X139894989Y-78809989D01*
X139066791Y-78809989D01*
X138667402Y-78410600D01*
X138420840Y-78245853D01*
X138130001Y-78188001D01*
X137840999Y-78188001D01*
X137550160Y-78245853D01*
X137449787Y-78312920D01*
X137355833Y-78312838D01*
X137012057Y-78454883D01*
X136748808Y-78717673D01*
X136606162Y-79061201D01*
X136605838Y-79433167D01*
X127312440Y-79433167D01*
X127312440Y-78998341D01*
X127387000Y-79013440D01*
X128137000Y-79013440D01*
X128372317Y-78969162D01*
X128588441Y-78830090D01*
X128733431Y-78617890D01*
X128784440Y-78366000D01*
X128784440Y-77566000D01*
X128740162Y-77330683D01*
X128673671Y-77227354D01*
X128675327Y-77225698D01*
X128772000Y-76992309D01*
X128772000Y-76751750D01*
X128613250Y-76593000D01*
X127889000Y-76593000D01*
X127889000Y-76613000D01*
X127635000Y-76613000D01*
X127635000Y-76593000D01*
X127615000Y-76593000D01*
X127615000Y-76339000D01*
X127635000Y-76339000D01*
X127635000Y-75589750D01*
X127889000Y-75589750D01*
X127889000Y-76339000D01*
X128613250Y-76339000D01*
X128772000Y-76180250D01*
X128772000Y-75939691D01*
X128675327Y-75706302D01*
X128496699Y-75527673D01*
X128263310Y-75431000D01*
X128047750Y-75431000D01*
X127889000Y-75589750D01*
X127635000Y-75589750D01*
X127476250Y-75431000D01*
X127260690Y-75431000D01*
X127027301Y-75527673D01*
X126848673Y-75706302D01*
X126752000Y-75939691D01*
X126752000Y-76044633D01*
X126650117Y-75798057D01*
X126387327Y-75534808D01*
X126043799Y-75392162D01*
X125671833Y-75391838D01*
X125328057Y-75533883D01*
X125064808Y-75796673D01*
X124922162Y-76140201D01*
X124922121Y-76187077D01*
X124557599Y-76551599D01*
X124392852Y-76798161D01*
X124350663Y-77010258D01*
X124125000Y-76964560D01*
X123525000Y-76964560D01*
X123289683Y-77008838D01*
X123190472Y-77072678D01*
X123106890Y-77015569D01*
X122855000Y-76964560D01*
X122255000Y-76964560D01*
X122019683Y-77008838D01*
X121920472Y-77072678D01*
X121836890Y-77015569D01*
X121585000Y-76964560D01*
X120985000Y-76964560D01*
X120749683Y-77008838D01*
X120650472Y-77072678D01*
X120566890Y-77015569D01*
X120315000Y-76964560D01*
X119715000Y-76964560D01*
X119479683Y-77008838D01*
X119380472Y-77072678D01*
X119296890Y-77015569D01*
X119045000Y-76964560D01*
X118445000Y-76964560D01*
X118209683Y-77008838D01*
X118110472Y-77072678D01*
X118026890Y-77015569D01*
X117775000Y-76964560D01*
X117175000Y-76964560D01*
X116939683Y-77008838D01*
X116840472Y-77072678D01*
X116756890Y-77015569D01*
X116505000Y-76964560D01*
X115905000Y-76964560D01*
X115669683Y-77008838D01*
X115453559Y-77147910D01*
X115308569Y-77360110D01*
X115257560Y-77612000D01*
X110710000Y-77612000D01*
X110710000Y-53422815D01*
X110864630Y-53422815D01*
X111188980Y-54207800D01*
X111789041Y-54808909D01*
X112573459Y-55134628D01*
X113422815Y-55135370D01*
X114207800Y-54811020D01*
X114808909Y-54210959D01*
X115134628Y-53426541D01*
X115134631Y-53422815D01*
X194864630Y-53422815D01*
X195188980Y-54207800D01*
X195789041Y-54808909D01*
X196573459Y-55134628D01*
X197422815Y-55135370D01*
X198207800Y-54811020D01*
X198808909Y-54210959D01*
X199134628Y-53426541D01*
X199135370Y-52577185D01*
X198811020Y-51792200D01*
X198210959Y-51191091D01*
X197426541Y-50865372D01*
X196577185Y-50864630D01*
X195792200Y-51188980D01*
X195191091Y-51789041D01*
X194865372Y-52573459D01*
X194864630Y-53422815D01*
X115134631Y-53422815D01*
X115135370Y-52577185D01*
X114811020Y-51792200D01*
X114210959Y-51191091D01*
X113426541Y-50865372D01*
X112577185Y-50864630D01*
X111792200Y-51188980D01*
X111191091Y-51789041D01*
X110865372Y-52573459D01*
X110864630Y-53422815D01*
X110710000Y-53422815D01*
X110710000Y-50710000D01*
X199290000Y-50710000D01*
X199290000Y-60553711D01*
M02*
