G04 #@! TF.FileFunction,Soldermask,Top*
%FSLAX46Y46*%
G04 Gerber Fmt 4.6, Leading zero omitted, Abs format (unit mm)*
G04 Created by KiCad (PCBNEW 4.0.7) date 07/26/19 17:10:30*
%MOMM*%
%LPD*%
G01*
G04 APERTURE LIST*
%ADD10C,0.100000*%
%ADD11R,0.900000X1.300000*%
%ADD12R,1.850000X0.700000*%
%ADD13R,0.700000X1.850000*%
%ADD14R,2.900000X1.400000*%
%ADD15R,2.900000X2.900000*%
%ADD16R,4.200000X2.400000*%
%ADD17R,1.900000X2.400000*%
%ADD18C,1.924000*%
%ADD19R,1.000000X1.950000*%
%ADD20R,1.600000X1.800000*%
%ADD21R,1.400000X1.800000*%
%ADD22R,1.400000X2.000000*%
%ADD23R,2.000000X1.400000*%
%ADD24R,1.900000X1.900000*%
%ADD25R,1.300000X1.200000*%
%ADD26R,1.300000X2.900000*%
%ADD27R,1.400000X1.400000*%
%ADD28O,1.400000X1.400000*%
%ADD29R,2.300000X2.200000*%
%ADD30R,2.300000X2.700000*%
%ADD31R,1.800000X0.800000*%
%ADD32R,1.050000X1.460000*%
%ADD33C,1.130000*%
%ADD34R,1.200000X1.150000*%
%ADD35R,1.150000X1.200000*%
%ADD36R,1.300000X0.900000*%
%ADD37R,2.100000X1.600000*%
%ADD38O,2.100000X1.600000*%
G04 APERTURE END LIST*
D10*
D11*
X164695000Y-81089500D03*
X163195000Y-81089500D03*
D12*
X159200000Y-84750000D03*
X159200000Y-84250000D03*
X159200000Y-83750000D03*
X159200000Y-83250000D03*
X159200000Y-82750000D03*
X159200000Y-82250000D03*
X159200000Y-81750000D03*
X159200000Y-81250000D03*
X159200000Y-80750000D03*
X159200000Y-79750000D03*
X159200000Y-79250000D03*
D13*
X157750000Y-77800000D03*
X157250000Y-77800000D03*
X156750000Y-77800000D03*
X156250000Y-77800000D03*
X155750000Y-77800000D03*
X155250000Y-77800000D03*
X154750000Y-77800000D03*
X154250000Y-77800000D03*
X153750000Y-77800000D03*
X153250000Y-77800000D03*
X152750000Y-77800000D03*
X152250000Y-77800000D03*
D12*
X159200000Y-80250000D03*
X150830000Y-79250000D03*
X150800000Y-79750000D03*
X150800000Y-80250000D03*
X150800000Y-80750000D03*
X150800000Y-81250000D03*
X150800000Y-81750000D03*
X150800000Y-82250000D03*
X150800000Y-82750000D03*
X150800000Y-83250000D03*
X150800000Y-84250000D03*
X150800000Y-84750000D03*
X150800000Y-83750000D03*
D13*
X152250000Y-86200000D03*
X152750000Y-86200000D03*
X153250000Y-86200000D03*
X153750000Y-86200000D03*
X154250000Y-86200000D03*
X154750000Y-86200000D03*
X155250000Y-86200000D03*
X155750000Y-86200000D03*
X156250000Y-86200000D03*
X156750000Y-86200000D03*
X157250000Y-86200000D03*
X157750000Y-86200000D03*
D14*
X162560000Y-85748500D03*
X162560000Y-83248500D03*
D15*
X170310000Y-84498500D03*
D16*
X182753000Y-86893000D03*
D17*
X182753000Y-93193000D03*
X185053000Y-93193000D03*
X180453000Y-93193000D03*
D18*
X194650000Y-61080000D03*
X194650000Y-63620000D03*
X194650000Y-66160000D03*
X194650000Y-68700000D03*
X178650000Y-68700000D03*
X178650000Y-66160000D03*
X178650000Y-63620000D03*
X178650000Y-61080000D03*
D19*
X127508000Y-93312000D03*
X126238000Y-93312000D03*
X124968000Y-93312000D03*
X123698000Y-93312000D03*
X123698000Y-98712000D03*
X124968000Y-98712000D03*
X126238000Y-98712000D03*
X127508000Y-98712000D03*
D18*
X146113000Y-91440000D03*
X146113000Y-93980000D03*
X146113000Y-96520000D03*
X146113000Y-99060000D03*
X133823000Y-99060000D03*
X133823000Y-96520000D03*
X133823000Y-93980000D03*
X133823000Y-91440000D03*
D20*
X191905000Y-76497000D03*
D21*
X190185000Y-76497000D03*
X190185000Y-78697000D03*
X192085000Y-78697000D03*
D22*
X165584000Y-77724000D03*
X162584000Y-77724000D03*
D23*
X193040000Y-90273000D03*
X193040000Y-87273000D03*
D22*
X182729000Y-95758000D03*
X179729000Y-95758000D03*
D24*
X172974000Y-95252000D03*
X172974000Y-98552000D03*
D25*
X120634000Y-101534000D03*
X120634000Y-99634000D03*
X118634000Y-100584000D03*
D26*
X189685000Y-83947000D03*
X192585000Y-83947000D03*
D27*
X162814000Y-89535000D03*
D28*
X162814000Y-90805000D03*
X161544000Y-89535000D03*
X161544000Y-90805000D03*
X160274000Y-89535000D03*
X160274000Y-90805000D03*
X159004000Y-89535000D03*
X159004000Y-90805000D03*
X157734000Y-89535000D03*
X157734000Y-90805000D03*
D29*
X198501000Y-81400000D03*
D30*
X198501000Y-78800000D03*
D29*
X198501000Y-83700000D03*
D30*
X198501000Y-86300000D03*
D31*
X195826000Y-81250000D03*
X195826000Y-81900000D03*
X195826000Y-82550000D03*
X195826000Y-83200000D03*
X195826000Y-83850000D03*
D25*
X185690000Y-82997000D03*
X185690000Y-84897000D03*
X187690000Y-83947000D03*
X138668000Y-85024000D03*
X138668000Y-83124000D03*
X136668000Y-84074000D03*
X138668000Y-89088000D03*
X138668000Y-87188000D03*
X136668000Y-88138000D03*
D32*
X174437000Y-88095000D03*
X175387000Y-88095000D03*
X176337000Y-88095000D03*
X176337000Y-85895000D03*
X174437000Y-85895000D03*
D18*
X152558272Y-61170404D03*
X152558272Y-63710404D03*
X152558272Y-66250404D03*
X152558272Y-68790404D03*
X136558272Y-68790404D03*
X136558272Y-66250404D03*
X136558272Y-63710404D03*
X136558272Y-61170404D03*
X173558272Y-61090404D03*
X173558272Y-63630404D03*
X173558272Y-66170404D03*
X173558272Y-68710404D03*
X157558272Y-68710404D03*
X157558272Y-66170404D03*
X157558272Y-63630404D03*
X157558272Y-61090404D03*
X131558272Y-61170404D03*
X131558272Y-63710404D03*
X131558272Y-66250404D03*
X131558272Y-68790404D03*
X115558272Y-68790404D03*
X115558272Y-66250404D03*
X115558272Y-63710404D03*
X115558272Y-61170404D03*
D33*
X120423000Y-91948000D03*
X115543000Y-91948000D03*
D34*
X166826500Y-82232500D03*
X168326500Y-82232500D03*
X166775000Y-86995000D03*
X168275000Y-86995000D03*
X152729500Y-89789000D03*
X154229500Y-89789000D03*
D35*
X161734500Y-79565500D03*
X161734500Y-81065500D03*
X148717000Y-84911500D03*
X148717000Y-86411500D03*
D34*
X186702000Y-86360000D03*
X188202000Y-86360000D03*
D35*
X183642000Y-83070000D03*
X183642000Y-84570000D03*
D34*
X172478000Y-90043000D03*
X173978000Y-90043000D03*
D11*
X150900000Y-88138000D03*
X152400000Y-88138000D03*
X169164000Y-95250000D03*
X170664000Y-95250000D03*
D36*
X180213000Y-83070000D03*
X180213000Y-84570000D03*
X140462000Y-84824000D03*
X140462000Y-83324000D03*
D11*
X132981000Y-84201000D03*
X134481000Y-84201000D03*
D36*
X140462000Y-89015000D03*
X140462000Y-87515000D03*
D11*
X132981000Y-88138000D03*
X134481000Y-88138000D03*
D36*
X127762000Y-77839000D03*
X127762000Y-76339000D03*
X129413000Y-97397000D03*
X129413000Y-95897000D03*
X192250000Y-96500000D03*
X192250000Y-98000000D03*
D37*
X197104000Y-92202000D03*
D38*
X197104000Y-94202000D03*
X197104000Y-96202000D03*
X197104000Y-98202000D03*
M02*
