%TF.GenerationSoftware,KiCad,Pcbnew,4.0.7*%
%TF.CreationDate,2019-07-19T19:42:11-04:00*%
%TF.ProjectId,Pressure Scanner Board,5072657373757265205363616E6E6572,rev?*%
%TF.FileFunction,Copper,L1,Top,Signal*%
%FSLAX46Y46*%
G04 Gerber Fmt 4.6, Leading zero omitted, Abs format (unit mm)*
G04 Created by KiCad (PCBNEW 4.0.7) date 07/19/19 19:42:11*
%MOMM*%
%LPD*%
G01*
G04 APERTURE LIST*
%ADD10C,0.100000*%
%ADD11C,3.000000*%
%ADD12R,0.500000X0.900000*%
%ADD13R,1.450000X0.300000*%
%ADD14R,0.300000X1.450000*%
%ADD15R,2.500000X1.000000*%
%ADD16R,2.500000X2.500000*%
%ADD17R,3.800000X2.000000*%
%ADD18R,1.500000X2.000000*%
%ADD19C,1.524000*%
%ADD20R,0.600000X1.550000*%
%ADD21R,1.200000X1.400000*%
%ADD22R,1.000000X1.400000*%
%ADD23R,1.000000X1.600000*%
%ADD24R,1.600000X1.000000*%
%ADD25R,1.500000X1.500000*%
%ADD26R,0.900000X0.800000*%
%ADD27R,0.900000X2.500000*%
%ADD28R,1.000000X1.000000*%
%ADD29O,1.000000X1.000000*%
%ADD30R,1.900000X1.800000*%
%ADD31R,1.900000X2.300000*%
%ADD32R,1.400000X0.400000*%
%ADD33R,0.650000X1.060000*%
%ADD34C,0.730000*%
%ADD35R,0.800000X0.750000*%
%ADD36R,0.750000X0.800000*%
%ADD37R,0.900000X0.500000*%
%ADD38R,1.700000X1.700000*%
%ADD39O,1.700000X1.700000*%
%ADD40C,0.600000*%
%ADD41C,0.250000*%
%ADD42C,0.450000*%
%ADD43C,0.254000*%
G04 APERTURE END LIST*
D10*
D11*
X113000000Y-102000000D03*
X113000000Y-53000000D03*
X197000000Y-53000000D03*
X197000000Y-102000000D03*
D12*
X164695000Y-81089500D03*
X163195000Y-81089500D03*
D13*
X159200000Y-84750000D03*
X159200000Y-84250000D03*
X159200000Y-83750000D03*
X159200000Y-83250000D03*
X159200000Y-82750000D03*
X159200000Y-82250000D03*
X159200000Y-81750000D03*
X159200000Y-81250000D03*
X159200000Y-80750000D03*
X159200000Y-79750000D03*
X159200000Y-79250000D03*
D14*
X157750000Y-77800000D03*
X157250000Y-77800000D03*
X156750000Y-77800000D03*
X156250000Y-77800000D03*
X155750000Y-77800000D03*
X155250000Y-77800000D03*
X154750000Y-77800000D03*
X154250000Y-77800000D03*
X153750000Y-77800000D03*
X153250000Y-77800000D03*
X152750000Y-77800000D03*
X152250000Y-77800000D03*
D13*
X159200000Y-80250000D03*
X150830000Y-79250000D03*
X150800000Y-79750000D03*
X150800000Y-80250000D03*
X150800000Y-80750000D03*
X150800000Y-81250000D03*
X150800000Y-81750000D03*
X150800000Y-82250000D03*
X150800000Y-82750000D03*
X150800000Y-83250000D03*
X150800000Y-84250000D03*
X150800000Y-84750000D03*
X150800000Y-83750000D03*
D14*
X152250000Y-86200000D03*
X152750000Y-86200000D03*
X153250000Y-86200000D03*
X153750000Y-86200000D03*
X154250000Y-86200000D03*
X154750000Y-86200000D03*
X155250000Y-86200000D03*
X155750000Y-86200000D03*
X156250000Y-86200000D03*
X156750000Y-86200000D03*
X157250000Y-86200000D03*
X157750000Y-86200000D03*
D15*
X162560000Y-85748500D03*
X162560000Y-83248500D03*
D16*
X170310000Y-84498500D03*
D17*
X182753000Y-86893000D03*
D18*
X182753000Y-93193000D03*
X185053000Y-93193000D03*
X180453000Y-93193000D03*
D19*
X194650000Y-61080000D03*
X194650000Y-63620000D03*
X194650000Y-66160000D03*
X194650000Y-68700000D03*
X178650000Y-68700000D03*
X178650000Y-66160000D03*
X178650000Y-63620000D03*
X178650000Y-61080000D03*
D20*
X127508000Y-93312000D03*
X126238000Y-93312000D03*
X124968000Y-93312000D03*
X123698000Y-93312000D03*
X123698000Y-98712000D03*
X124968000Y-98712000D03*
X126238000Y-98712000D03*
X127508000Y-98712000D03*
D19*
X146113000Y-91440000D03*
X146113000Y-93980000D03*
X146113000Y-96520000D03*
X146113000Y-99060000D03*
X133823000Y-99060000D03*
X133823000Y-96520000D03*
X133823000Y-93980000D03*
X133823000Y-91440000D03*
D21*
X191905000Y-76497000D03*
D22*
X190185000Y-76497000D03*
X190185000Y-78697000D03*
X192085000Y-78697000D03*
D23*
X165584000Y-77724000D03*
X162584000Y-77724000D03*
D24*
X193675000Y-90209500D03*
X193675000Y-87209500D03*
D23*
X182729000Y-95758000D03*
X179729000Y-95758000D03*
D25*
X172974000Y-95252000D03*
X172974000Y-98552000D03*
D26*
X120634000Y-101534000D03*
X120634000Y-99634000D03*
X118634000Y-100584000D03*
D27*
X189685000Y-83947000D03*
X192585000Y-83947000D03*
D28*
X162814000Y-89535000D03*
D29*
X162814000Y-90805000D03*
X161544000Y-89535000D03*
X161544000Y-90805000D03*
X160274000Y-89535000D03*
X160274000Y-90805000D03*
X159004000Y-89535000D03*
X159004000Y-90805000D03*
X157734000Y-89535000D03*
X157734000Y-90805000D03*
D30*
X198501000Y-81400000D03*
D31*
X198501000Y-78800000D03*
D30*
X198501000Y-83700000D03*
D31*
X198501000Y-86300000D03*
D32*
X195826000Y-81250000D03*
X195826000Y-81900000D03*
X195826000Y-82550000D03*
X195826000Y-83200000D03*
X195826000Y-83850000D03*
D26*
X185690000Y-82997000D03*
X185690000Y-84897000D03*
X187690000Y-83947000D03*
X138668000Y-85024000D03*
X138668000Y-83124000D03*
X136668000Y-84074000D03*
X138668000Y-89088000D03*
X138668000Y-87188000D03*
X136668000Y-88138000D03*
D33*
X174437000Y-88095000D03*
X175387000Y-88095000D03*
X176337000Y-88095000D03*
X176337000Y-85895000D03*
X174437000Y-85895000D03*
D19*
X152558272Y-61170404D03*
X152558272Y-63710404D03*
X152558272Y-66250404D03*
X152558272Y-68790404D03*
X136558272Y-68790404D03*
X136558272Y-66250404D03*
X136558272Y-63710404D03*
X136558272Y-61170404D03*
X173558272Y-61090404D03*
X173558272Y-63630404D03*
X173558272Y-66170404D03*
X173558272Y-68710404D03*
X157558272Y-68710404D03*
X157558272Y-66170404D03*
X157558272Y-63630404D03*
X157558272Y-61090404D03*
X131558272Y-61170404D03*
X131558272Y-63710404D03*
X131558272Y-66250404D03*
X131558272Y-68790404D03*
X115558272Y-68790404D03*
X115558272Y-66250404D03*
X115558272Y-63710404D03*
X115558272Y-61170404D03*
D34*
X120423000Y-91948000D03*
X115543000Y-91948000D03*
D35*
X166826500Y-82232500D03*
X168326500Y-82232500D03*
X166775000Y-86995000D03*
X168275000Y-86995000D03*
X152729500Y-89789000D03*
X154229500Y-89789000D03*
D36*
X161734500Y-79565500D03*
X161734500Y-81065500D03*
X148717000Y-84911500D03*
X148717000Y-86411500D03*
D35*
X186702000Y-86360000D03*
X188202000Y-86360000D03*
D36*
X183642000Y-83070000D03*
X183642000Y-84570000D03*
D35*
X172478000Y-90043000D03*
X173978000Y-90043000D03*
D12*
X150900000Y-88138000D03*
X152400000Y-88138000D03*
X169164000Y-95250000D03*
X170664000Y-95250000D03*
D37*
X180213000Y-83070000D03*
X180213000Y-84570000D03*
X140462000Y-84824000D03*
X140462000Y-83324000D03*
D12*
X132981000Y-84201000D03*
X134481000Y-84201000D03*
D37*
X140462000Y-89015000D03*
X140462000Y-87515000D03*
D12*
X132981000Y-88138000D03*
X134481000Y-88138000D03*
D37*
X127762000Y-77839000D03*
X127762000Y-76339000D03*
X129413000Y-97397000D03*
X129413000Y-95897000D03*
X195199000Y-95972500D03*
X195199000Y-97472500D03*
D38*
X197739000Y-90360500D03*
D39*
X197739000Y-92900500D03*
X197739000Y-95440500D03*
X197739000Y-97980500D03*
D40*
X117221000Y-100584000D03*
X195897500Y-87185500D03*
X196342000Y-85344000D03*
X148971000Y-83756500D03*
X160655000Y-77406500D03*
X180213000Y-81915000D03*
X195834000Y-80137000D03*
X183642000Y-81915000D03*
X162496500Y-82042000D03*
X175387000Y-89344500D03*
X172466000Y-91503500D03*
X178943000Y-93218000D03*
X179705000Y-97409000D03*
X174815500Y-98552000D03*
X188531500Y-87757000D03*
X185737500Y-81788000D03*
X198501000Y-76390500D03*
X194373500Y-76517500D03*
X195834000Y-78867000D03*
X196342000Y-86296500D03*
X152717500Y-90805000D03*
X154305000Y-88011000D03*
X167957500Y-84518500D03*
X126238000Y-94869000D03*
X129413000Y-94869000D03*
X154686000Y-79502000D03*
X159067500Y-86042500D03*
X126365000Y-77089000D03*
X159131000Y-77914500D03*
X157289500Y-83820000D03*
X173164500Y-83058000D03*
X156337000Y-79502000D03*
X130937000Y-89281000D03*
X168973500Y-79049500D03*
X188976000Y-77216000D03*
X188976000Y-81534000D03*
X153670000Y-83185000D03*
X168973500Y-78049500D03*
X152908000Y-83947000D03*
X193675000Y-83185000D03*
X193675000Y-80518000D03*
X160528000Y-92710000D03*
X162750500Y-92710000D03*
X151447500Y-89471500D03*
X148336000Y-82296000D03*
X140462000Y-82296000D03*
X137541000Y-91186000D03*
X137541000Y-86614000D03*
X141732000Y-83058000D03*
X147701000Y-83058000D03*
X141732000Y-87503000D03*
X141732000Y-84836000D03*
X125857000Y-76327000D03*
X197167500Y-66929000D03*
X197167500Y-60134500D03*
X178689000Y-57531000D03*
X198628000Y-73914000D03*
X195453000Y-73914000D03*
X198628000Y-65786000D03*
X198628000Y-61214000D03*
X136588500Y-57721500D03*
X197866000Y-60833000D03*
X197866000Y-66294000D03*
X195453000Y-73025000D03*
X197866000Y-73025000D03*
X157543500Y-57531000D03*
X154750000Y-71438000D03*
X148717000Y-67183000D03*
X152146000Y-71374000D03*
X115570000Y-57531000D03*
X195453000Y-72199500D03*
X199326500Y-72199500D03*
X199326500Y-65214500D03*
X199326500Y-61722000D03*
X149161500Y-78422500D03*
X138234085Y-80023656D03*
X121856500Y-80708500D03*
X147891500Y-78613000D03*
X137541000Y-79248000D03*
X122999500Y-80645000D03*
X148336000Y-80454500D03*
X139001500Y-80645000D03*
X120777000Y-80708500D03*
X148399500Y-81343500D03*
X139509500Y-81343500D03*
X119761000Y-80708500D03*
X127508000Y-91567000D03*
X123698000Y-91821000D03*
X126746000Y-101536500D03*
X124269500Y-101536500D03*
D41*
X118634000Y-100584000D02*
X117221000Y-100584000D01*
X193675000Y-87209500D02*
X195873500Y-87209500D01*
X195873500Y-87209500D02*
X195897500Y-87185500D01*
X198501000Y-81400000D02*
X198113000Y-81400000D01*
X198113000Y-81400000D02*
X196850000Y-80137000D01*
X196850000Y-80137000D02*
X195834000Y-80137000D01*
X198501000Y-83700000D02*
X197986000Y-83700000D01*
X197986000Y-83700000D02*
X196342000Y-85344000D01*
X148717000Y-84911500D02*
X148717000Y-84010500D01*
X149464500Y-84250000D02*
X148971000Y-83756500D01*
X149464500Y-84250000D02*
X150800000Y-84250000D01*
X148717000Y-84010500D02*
X148971000Y-83756500D01*
X162584000Y-77724000D02*
X160972500Y-77724000D01*
X160845500Y-77597000D02*
X160655000Y-77406500D01*
X160845500Y-79502000D02*
X160909000Y-79565500D01*
X160909000Y-79565500D02*
X161734500Y-79565500D01*
X160845500Y-79248000D02*
X160845500Y-79502000D01*
X160845500Y-79248000D02*
X160845500Y-77597000D01*
X160972500Y-77724000D02*
X160655000Y-77406500D01*
X180213000Y-83070000D02*
X180213000Y-81915000D01*
X195826000Y-81250000D02*
X195826000Y-80145000D01*
X195826000Y-80145000D02*
X195834000Y-80137000D01*
X183642000Y-83070000D02*
X183642000Y-81915000D01*
X161734500Y-79565500D02*
X161544000Y-79565500D01*
X159200000Y-82750000D02*
X160772500Y-82750000D01*
X161480500Y-82042000D02*
X162496500Y-82042000D01*
X160772500Y-82750000D02*
X161480500Y-82042000D01*
X175387000Y-88095000D02*
X175387000Y-89344500D01*
X172478000Y-90043000D02*
X172478000Y-91491500D01*
X172478000Y-91491500D02*
X172466000Y-91503500D01*
X180453000Y-93193000D02*
X178968000Y-93193000D01*
X178968000Y-93193000D02*
X178943000Y-93218000D01*
X179729000Y-95758000D02*
X179729000Y-97385000D01*
X179729000Y-97385000D02*
X179705000Y-97409000D01*
X172974000Y-98552000D02*
X174815500Y-98552000D01*
X187642500Y-87757000D02*
X188531500Y-87757000D01*
X183642000Y-83070000D02*
X183642000Y-82420000D01*
X183642000Y-82420000D02*
X184274000Y-81788000D01*
X184274000Y-81788000D02*
X185737500Y-81788000D01*
X185690000Y-82997000D02*
X185690000Y-81835500D01*
X185690000Y-81835500D02*
X185737500Y-81788000D01*
X187474000Y-87757000D02*
X187642500Y-87757000D01*
X186702000Y-86360000D02*
X186702000Y-86985000D01*
X186702000Y-86985000D02*
X187474000Y-87757000D01*
X198501000Y-77400000D02*
X198501000Y-76390500D01*
X198501000Y-78800000D02*
X198501000Y-77400000D01*
X192775500Y-76517500D02*
X194373500Y-76517500D01*
X191905000Y-76497000D02*
X192755000Y-76497000D01*
X192755000Y-76497000D02*
X192775500Y-76517500D01*
X198501000Y-78800000D02*
X195901000Y-78800000D01*
X195901000Y-78800000D02*
X195834000Y-78867000D01*
X198501000Y-86300000D02*
X196345500Y-86300000D01*
X196345500Y-86300000D02*
X196342000Y-86296500D01*
X152729500Y-89789000D02*
X152729500Y-90793000D01*
X152729500Y-90793000D02*
X152717500Y-90805000D01*
X154750000Y-86200000D02*
X154750000Y-87566000D01*
X154750000Y-87566000D02*
X154305000Y-88011000D01*
X168326500Y-82232500D02*
X169544000Y-82232500D01*
X169544000Y-82232500D02*
X170310000Y-82998500D01*
X170310000Y-82998500D02*
X170310000Y-84498500D01*
X170310000Y-84498500D02*
X167977500Y-84498500D01*
X167977500Y-84498500D02*
X167957500Y-84518500D01*
X168275000Y-86995000D02*
X169735500Y-86995000D01*
X169735500Y-86995000D02*
X170310000Y-86420500D01*
X170310000Y-86420500D02*
X170310000Y-84498500D01*
X126238000Y-93312000D02*
X126238000Y-94869000D01*
X129413000Y-95897000D02*
X129413000Y-94869000D01*
X155250000Y-77800000D02*
X155250000Y-78938000D01*
X155250000Y-78938000D02*
X154686000Y-79502000D01*
X155257500Y-88786000D02*
X155250000Y-88778500D01*
X155250000Y-88778500D02*
X155250000Y-86200000D01*
X154229500Y-89789000D02*
X154254500Y-89789000D01*
X154254500Y-89789000D02*
X155257500Y-88786000D01*
X150800000Y-84750000D02*
X150800000Y-85737500D01*
X150126000Y-86411500D02*
X148717000Y-86411500D01*
X150800000Y-85737500D02*
X150126000Y-86411500D01*
X127762000Y-77839000D02*
X127115000Y-77839000D01*
X127115000Y-77839000D02*
X126365000Y-77089000D01*
X155849236Y-84625264D02*
X155750000Y-84724500D01*
X155750000Y-84724500D02*
X155750000Y-86200000D01*
X156908500Y-84625264D02*
X155849236Y-84625264D01*
X157289500Y-83820000D02*
X157289500Y-84244264D01*
X157289500Y-84244264D02*
X156908500Y-84625264D01*
D42*
X138668000Y-85024000D02*
X140262000Y-85024000D01*
X140262000Y-85024000D02*
X140462000Y-84824000D01*
D41*
X155750000Y-77800000D02*
X155750000Y-78915000D01*
X155750000Y-78915000D02*
X156337000Y-79502000D01*
X173558272Y-63630404D02*
X173605596Y-63630404D01*
X173605596Y-63630404D02*
X174879000Y-62357000D01*
X174879000Y-62357000D02*
X180340000Y-62357000D01*
X152558272Y-63710404D02*
X152558272Y-63595728D01*
X152558272Y-63595728D02*
X153797000Y-62357000D01*
X153797000Y-62357000D02*
X159131000Y-62357000D01*
X131558272Y-63710404D02*
X131558272Y-63640728D01*
X131558272Y-63640728D02*
X132842000Y-62357000D01*
X132842000Y-62357000D02*
X137795000Y-62357000D01*
X159200000Y-82250000D02*
X160575000Y-82250000D01*
X160575000Y-82250000D02*
X161734500Y-81090500D01*
X161734500Y-81090500D02*
X161734500Y-81065500D01*
D42*
X164147500Y-78676500D02*
X164147500Y-78210500D01*
X164147500Y-78210500D02*
X164634000Y-77724000D01*
X164634000Y-77724000D02*
X165584000Y-77724000D01*
X163639500Y-79184500D02*
X164147500Y-78676500D01*
X163512500Y-79184500D02*
X163639500Y-79184500D01*
X163195000Y-79502000D02*
X163512500Y-79184500D01*
X163195000Y-81089500D02*
X163195000Y-79502000D01*
X161734500Y-81065500D02*
X163171000Y-81065500D01*
X163171000Y-81065500D02*
X163195000Y-81089500D01*
X188202000Y-86360000D02*
X188202000Y-84459000D01*
X188202000Y-84459000D02*
X187690000Y-83947000D01*
X189685000Y-83947000D02*
X187690000Y-83947000D01*
D41*
X176337000Y-88095000D02*
X176337000Y-89728000D01*
X176022000Y-90043000D02*
X173978000Y-90043000D01*
X176337000Y-89728000D02*
X176022000Y-90043000D01*
D42*
X182753000Y-86893000D02*
X185395000Y-86893000D01*
X185690000Y-86598000D02*
X185690000Y-84897000D01*
X185395000Y-86893000D02*
X185690000Y-86598000D01*
X182753000Y-86893000D02*
X182753000Y-85459000D01*
X182753000Y-85459000D02*
X183642000Y-84570000D01*
X182753000Y-86893000D02*
X182753000Y-85344000D01*
X182753000Y-85344000D02*
X181979000Y-84570000D01*
X180213000Y-84570000D02*
X181979000Y-84570000D01*
X181979000Y-84570000D02*
X183642000Y-84570000D01*
X185690000Y-84897000D02*
X183969000Y-84897000D01*
X183969000Y-84897000D02*
X183642000Y-84570000D01*
D41*
X173978000Y-90043000D02*
X173978000Y-89801000D01*
X173978000Y-89801000D02*
X174437000Y-89342000D01*
X174437000Y-89342000D02*
X174437000Y-88095000D01*
D42*
X182753000Y-93193000D02*
X182753000Y-95734000D01*
X182753000Y-95734000D02*
X182729000Y-95758000D01*
D41*
X174096848Y-80872500D02*
X188976000Y-80872500D01*
X188976000Y-80872500D02*
X192270662Y-80872500D01*
X188976000Y-81534000D02*
X188976000Y-81109736D01*
X188976000Y-81109736D02*
X188976000Y-80872500D01*
X192270662Y-80872500D02*
X194500662Y-83102500D01*
X195228500Y-83102500D02*
X195326000Y-83200000D01*
X168973500Y-79049500D02*
X169246001Y-78776999D01*
X169246001Y-78776999D02*
X172001347Y-78776999D01*
X172001347Y-78776999D02*
X174096848Y-80872500D01*
X194500662Y-83102500D02*
X195228500Y-83102500D01*
X195326000Y-83200000D02*
X195826000Y-83200000D01*
X188976000Y-77216000D02*
X189695000Y-76497000D01*
X189695000Y-76497000D02*
X190185000Y-76497000D01*
X153605000Y-83250000D02*
X150800000Y-83250000D01*
X153670000Y-83185000D02*
X153605000Y-83250000D01*
X174285312Y-80417500D02*
X190182500Y-80417500D01*
X190182500Y-80417500D02*
X192459126Y-80417500D01*
X190185000Y-78697000D02*
X190185000Y-79647000D01*
X190185000Y-79647000D02*
X190182500Y-79649500D01*
X190182500Y-79649500D02*
X190182500Y-80417500D01*
X192459126Y-80417500D02*
X194689126Y-82647500D01*
X195326000Y-82550000D02*
X195826000Y-82550000D01*
X168973500Y-78049500D02*
X169246001Y-78322001D01*
X169246001Y-78322001D02*
X172189813Y-78322001D01*
X172189813Y-78322001D02*
X174285312Y-80417500D01*
X195228500Y-82647500D02*
X195326000Y-82550000D01*
X194689126Y-82647500D02*
X195228500Y-82647500D01*
X150800000Y-83750000D02*
X152711000Y-83750000D01*
X152711000Y-83750000D02*
X152908000Y-83947000D01*
X192085000Y-78697000D02*
X193124000Y-78697000D01*
X193675000Y-83185000D02*
X192913000Y-83947000D01*
X193675000Y-79248000D02*
X193675000Y-80518000D01*
X193124000Y-78697000D02*
X193675000Y-79248000D01*
X192913000Y-83947000D02*
X192585000Y-83947000D01*
D42*
X195826000Y-83850000D02*
X192682000Y-83850000D01*
X192682000Y-83850000D02*
X192585000Y-83947000D01*
D41*
X170664000Y-95250000D02*
X172972000Y-95250000D01*
X172972000Y-95250000D02*
X172974000Y-95252000D01*
X156527500Y-88139410D02*
X156750000Y-87916910D01*
X156750000Y-87916910D02*
X156750000Y-86200000D01*
X156527500Y-90297000D02*
X156527500Y-88139410D01*
X155956000Y-90868500D02*
X156527500Y-90297000D01*
X155956000Y-92646500D02*
X155956000Y-90868500D01*
X156019500Y-92710000D02*
X155956000Y-92646500D01*
X160528000Y-92710000D02*
X156019500Y-92710000D01*
X162814000Y-90805000D02*
X162814000Y-92646500D01*
X162814000Y-92646500D02*
X162750500Y-92710000D01*
X155892500Y-88138000D02*
X156250000Y-87780500D01*
X156250000Y-87780500D02*
X156250000Y-86200000D01*
X155892500Y-90107910D02*
X155892500Y-88138000D01*
X155384500Y-93154500D02*
X155384500Y-90615910D01*
X155384500Y-90615910D02*
X155892500Y-90107910D01*
X155829000Y-93599000D02*
X155384500Y-93154500D01*
X161099500Y-93599000D02*
X155829000Y-93599000D01*
X161544000Y-93154500D02*
X161099500Y-93599000D01*
X161544000Y-90805000D02*
X161544000Y-93154500D01*
X152400000Y-88138000D02*
X152400000Y-88519000D01*
X152400000Y-88519000D02*
X151447500Y-89471500D01*
X152400000Y-88138000D02*
X152900000Y-88138000D01*
X152900000Y-88138000D02*
X153750000Y-87288000D01*
X153750000Y-87288000D02*
X153750000Y-86200000D01*
X138668000Y-83124000D02*
X139385000Y-83124000D01*
X139585000Y-83324000D02*
X140462000Y-83324000D01*
X139385000Y-83124000D02*
X139585000Y-83324000D01*
X140462000Y-83324000D02*
X140462000Y-82296000D01*
X148382000Y-82250000D02*
X150800000Y-82250000D01*
X148336000Y-82296000D02*
X148382000Y-82250000D01*
X136668000Y-84074000D02*
X136668000Y-85741000D01*
X142748000Y-96520000D02*
X146113000Y-96520000D01*
X141097000Y-94869000D02*
X142748000Y-96520000D01*
X138176000Y-94869000D02*
X141097000Y-94869000D01*
X137541000Y-94234000D02*
X138176000Y-94869000D01*
X137541000Y-91186000D02*
X137541000Y-94234000D01*
X136668000Y-85741000D02*
X137541000Y-86614000D01*
X134481000Y-84201000D02*
X136541000Y-84201000D01*
X136541000Y-84201000D02*
X136668000Y-84074000D01*
X150800000Y-82750000D02*
X149406000Y-82750000D01*
X149098000Y-83058000D02*
X147701000Y-83058000D01*
X149406000Y-82750000D02*
X149098000Y-83058000D01*
X141720000Y-87515000D02*
X141732000Y-87503000D01*
X141732000Y-84836000D02*
X141732000Y-83058000D01*
X141720000Y-87515000D02*
X140462000Y-87515000D01*
X138668000Y-87188000D02*
X139131000Y-87188000D01*
X139458000Y-87515000D02*
X140462000Y-87515000D01*
X139131000Y-87188000D02*
X139458000Y-87515000D01*
X136668000Y-88138000D02*
X136668000Y-94885000D01*
X143002000Y-99060000D02*
X146113000Y-99060000D01*
X142240000Y-98298000D02*
X143002000Y-99060000D01*
X142240000Y-96901000D02*
X142240000Y-98298000D01*
X140843000Y-95504000D02*
X142240000Y-96901000D01*
X137287000Y-95504000D02*
X140843000Y-95504000D01*
X136668000Y-94885000D02*
X137287000Y-95504000D01*
X134481000Y-88138000D02*
X136668000Y-88138000D01*
X125869000Y-76339000D02*
X127762000Y-76339000D01*
X125857000Y-76327000D02*
X125869000Y-76339000D01*
X128778000Y-100203000D02*
X129413000Y-99568000D01*
X129413000Y-99568000D02*
X129413000Y-97397000D01*
X127762000Y-100203000D02*
X128778000Y-100203000D01*
X127508000Y-99949000D02*
X127762000Y-100203000D01*
X127508000Y-98712000D02*
X127508000Y-99949000D01*
X157750000Y-75168000D02*
X157750000Y-77800000D01*
X158242000Y-74676000D02*
X157750000Y-75168000D01*
X158623000Y-74676000D02*
X158242000Y-74676000D01*
X160464500Y-74676000D02*
X158623000Y-74676000D01*
X164465000Y-74676000D02*
X160464500Y-74676000D01*
X175577500Y-74676000D02*
X164465000Y-74676000D01*
X184785000Y-74676000D02*
X175577500Y-74676000D01*
X194437000Y-74676000D02*
X184785000Y-74676000D01*
X197167500Y-74676000D02*
X194437000Y-74676000D01*
X197167500Y-66929000D02*
X197167500Y-74676000D01*
X197167500Y-57282502D02*
X197167500Y-60134500D01*
X197046002Y-57161004D02*
X197167500Y-57282502D01*
X179058996Y-57161004D02*
X197046002Y-57161004D01*
X178689000Y-57531000D02*
X179058996Y-57161004D01*
X195453000Y-73914000D02*
X157480000Y-73914000D01*
X157250000Y-74144000D02*
X157480000Y-73914000D01*
X157250000Y-74144000D02*
X157250000Y-77800000D01*
X198374000Y-56261000D02*
X198628000Y-56515000D01*
X198628000Y-56515000D02*
X198628000Y-61214000D01*
X137229002Y-56261000D02*
X198374000Y-56261000D01*
X198628000Y-65786000D02*
X198628000Y-73914000D01*
X136906000Y-56261000D02*
X137229002Y-56261000D01*
X136588500Y-56578500D02*
X136906000Y-56261000D01*
X136588500Y-57721500D02*
X136588500Y-56578500D01*
X197866000Y-73025000D02*
X197866000Y-66294000D01*
X197866000Y-56896000D02*
X197866000Y-60833000D01*
X197681002Y-56711002D02*
X197866000Y-56896000D01*
X156750000Y-73374000D02*
X156750000Y-77800000D01*
X156750000Y-73374000D02*
X157099000Y-73025000D01*
X195453000Y-73025000D02*
X157099000Y-73025000D01*
X157861000Y-56711002D02*
X197681002Y-56711002D01*
X157607000Y-56965002D02*
X157861000Y-56711002D01*
X157607000Y-57467500D02*
X157607000Y-56965002D01*
X157543500Y-57531000D02*
X157607000Y-57467500D01*
X154750000Y-77800000D02*
X154750000Y-71438000D01*
X154250000Y-77800000D02*
X154250000Y-71954000D01*
X153924000Y-71628000D02*
X153924000Y-70104000D01*
X154250000Y-71954000D02*
X153924000Y-71628000D01*
X153750000Y-72978000D02*
X152146000Y-71374000D01*
X153750000Y-77800000D02*
X153750000Y-72978000D01*
X176537000Y-66160000D02*
X175133000Y-67564000D01*
X178650000Y-66160000D02*
X176537000Y-66160000D01*
X175133000Y-67564000D02*
X172212000Y-67564000D01*
X136558272Y-66250404D02*
X134028596Y-66250404D01*
X132715000Y-67564000D02*
X130429000Y-67564000D01*
X134028596Y-66250404D02*
X132715000Y-67564000D01*
X157558272Y-66170404D02*
X154809596Y-66170404D01*
X153416000Y-67564000D02*
X151257000Y-67564000D01*
X154809596Y-66170404D02*
X153416000Y-67564000D01*
X115570000Y-57531000D02*
X115570000Y-57277000D01*
X156250000Y-72667500D02*
X156250000Y-77800000D01*
X156718000Y-72199500D02*
X156250000Y-72667500D01*
X158115000Y-72199500D02*
X156718000Y-72199500D01*
X162179000Y-72199500D02*
X158115000Y-72199500D01*
X184975500Y-72199500D02*
X162179000Y-72199500D01*
X195453000Y-72199500D02*
X184975500Y-72199500D01*
X199326500Y-65214500D02*
X199326500Y-72199500D01*
X199326500Y-56577102D02*
X199326500Y-61722000D01*
X198560396Y-55810998D02*
X199326500Y-56577102D01*
X117036002Y-55810998D02*
X198560396Y-55810998D01*
X115570000Y-57277000D02*
X117036002Y-55810998D01*
X149161500Y-78994000D02*
X149417500Y-79250000D01*
X149417500Y-79250000D02*
X150830000Y-79250000D01*
X149161500Y-78422500D02*
X149161500Y-78994000D01*
X121856500Y-81776980D02*
X136480761Y-81776980D01*
X136480761Y-81776980D02*
X138234085Y-80023656D01*
X121856500Y-80708500D02*
X121856500Y-81776980D01*
X147891500Y-78613000D02*
X149028500Y-79750000D01*
X149028500Y-79750000D02*
X150800000Y-79750000D01*
X123257206Y-81326970D02*
X135462030Y-81326970D01*
X135462030Y-81326970D02*
X137541000Y-79248000D01*
X122999500Y-80645000D02*
X122999500Y-81069264D01*
X122999500Y-81069264D02*
X123257206Y-81326970D01*
X148336000Y-80454500D02*
X148540500Y-80250000D01*
X148540500Y-80250000D02*
X150800000Y-80250000D01*
X136719600Y-82226990D02*
X138301590Y-80645000D01*
X138301590Y-80645000D02*
X139001500Y-80645000D01*
X121279490Y-82226990D02*
X136719600Y-82226990D01*
X120777000Y-80708500D02*
X120777000Y-81724500D01*
X120777000Y-81724500D02*
X121279490Y-82226990D01*
X148993000Y-80750000D02*
X150800000Y-80750000D01*
X148399500Y-81343500D02*
X148993000Y-80750000D01*
X136906000Y-82677000D02*
X138239500Y-81343500D01*
X138239500Y-81343500D02*
X139509500Y-81343500D01*
X120805498Y-82677000D02*
X136906000Y-82677000D01*
X120060999Y-81932501D02*
X120805498Y-82677000D01*
X119761000Y-80708500D02*
X120060999Y-81008499D01*
X120060999Y-81008499D02*
X120060999Y-81932501D01*
X127508000Y-91567000D02*
X127508000Y-93312000D01*
X123698000Y-91821000D02*
X123698000Y-93312000D01*
X162560000Y-83248500D02*
X166560500Y-83248500D01*
X166560500Y-83248500D02*
X166826500Y-82982500D01*
X166826500Y-82982500D02*
X166826500Y-82232500D01*
X159200000Y-84250000D02*
X162308500Y-84250000D01*
X162308500Y-84250000D02*
X162560000Y-83998500D01*
X162560000Y-83998500D02*
X162560000Y-83248500D01*
X162347000Y-84750000D02*
X162560000Y-84963000D01*
X162560000Y-84963000D02*
X162560000Y-85748500D01*
X159200000Y-84750000D02*
X162347000Y-84750000D01*
X166393500Y-85748500D02*
X166775000Y-86130000D01*
X166775000Y-86130000D02*
X166775000Y-86995000D01*
X162560000Y-85748500D02*
X166393500Y-85748500D01*
X120634000Y-101534000D02*
X124267000Y-101534000D01*
X126746000Y-101536500D02*
X125830500Y-101536500D01*
X124267000Y-101534000D02*
X124269500Y-101536500D01*
X195199000Y-95972500D02*
X197207000Y-95972500D01*
X197207000Y-95972500D02*
X197739000Y-95440500D01*
X191987000Y-101442268D02*
X191987000Y-97251268D01*
X137160000Y-102325000D02*
X191104268Y-102325000D01*
X191104268Y-102325000D02*
X191987000Y-101442268D01*
X191987000Y-97251268D02*
X192743268Y-96495000D01*
X194001500Y-96495000D02*
X194524000Y-95972500D01*
X192743268Y-96495000D02*
X194001500Y-96495000D01*
X194524000Y-95972500D02*
X195199000Y-95972500D01*
X137162500Y-102325000D02*
X137160000Y-102322500D01*
X126268732Y-102325000D02*
X137160000Y-102325000D01*
X125830500Y-101886768D02*
X126268732Y-102325000D01*
X125830500Y-100282000D02*
X125830500Y-101536500D01*
X125830500Y-101536500D02*
X125830500Y-101886768D01*
X126238000Y-98712000D02*
X126238000Y-99874500D01*
X126238000Y-99874500D02*
X125830500Y-100282000D01*
X120634000Y-99634000D02*
X121605000Y-99634000D01*
X122682000Y-100711000D02*
X125375500Y-100711000D01*
X121605000Y-99634000D02*
X122682000Y-100711000D01*
X195199000Y-97472500D02*
X197231000Y-97472500D01*
X197231000Y-97472500D02*
X197739000Y-97980500D01*
X140398500Y-102780000D02*
X191292732Y-102780000D01*
X191292732Y-102780000D02*
X192442000Y-101630732D01*
X192442000Y-101630732D02*
X192442000Y-97439732D01*
X192442000Y-97439732D02*
X192931732Y-96950000D01*
X192931732Y-96950000D02*
X194001500Y-96950000D01*
X194001500Y-96950000D02*
X194524000Y-97472500D01*
X194524000Y-97472500D02*
X195199000Y-97472500D01*
X126080268Y-102780000D02*
X140271500Y-102780000D01*
X140271500Y-102780000D02*
X140398500Y-102780000D01*
X125375500Y-102075232D02*
X126080268Y-102780000D01*
X125375500Y-100282000D02*
X125375500Y-100711000D01*
X125375500Y-100711000D02*
X125375500Y-102075232D01*
X124968000Y-98712000D02*
X124968000Y-99874500D01*
X124968000Y-99874500D02*
X125375500Y-100282000D01*
D43*
G36*
X130374643Y-65458034D02*
X130161515Y-65971304D01*
X130161030Y-66527065D01*
X130373262Y-67040707D01*
X130765902Y-67434033D01*
X130973784Y-67520353D01*
X130868150Y-67564000D01*
X116247628Y-67564000D01*
X115837372Y-67393647D01*
X115281611Y-67393162D01*
X114868150Y-67564000D01*
X114173000Y-67564000D01*
X114173000Y-65405000D01*
X130427770Y-65405000D01*
X130374643Y-65458034D01*
X130374643Y-65458034D01*
G37*
X130374643Y-65458034D02*
X130161515Y-65971304D01*
X130161030Y-66527065D01*
X130373262Y-67040707D01*
X130765902Y-67434033D01*
X130973784Y-67520353D01*
X130868150Y-67564000D01*
X116247628Y-67564000D01*
X115837372Y-67393647D01*
X115281611Y-67393162D01*
X114868150Y-67564000D01*
X114173000Y-67564000D01*
X114173000Y-65405000D01*
X130427770Y-65405000D01*
X130374643Y-65458034D01*
G36*
X151374643Y-65458034D02*
X151161515Y-65971304D01*
X151161030Y-66527065D01*
X151373262Y-67040707D01*
X151765902Y-67434033D01*
X151973784Y-67520353D01*
X151868150Y-67564000D01*
X137247628Y-67564000D01*
X136837372Y-67393647D01*
X136281611Y-67393162D01*
X135868150Y-67564000D01*
X132247628Y-67564000D01*
X132142760Y-67520455D01*
X132348575Y-67435414D01*
X132741901Y-67042774D01*
X132955029Y-66529504D01*
X132955514Y-65973743D01*
X132743282Y-65460101D01*
X132688277Y-65405000D01*
X151427770Y-65405000D01*
X151374643Y-65458034D01*
X151374643Y-65458034D01*
G37*
X151374643Y-65458034D02*
X151161515Y-65971304D01*
X151161030Y-66527065D01*
X151373262Y-67040707D01*
X151765902Y-67434033D01*
X151973784Y-67520353D01*
X151868150Y-67564000D01*
X137247628Y-67564000D01*
X136837372Y-67393647D01*
X136281611Y-67393162D01*
X135868150Y-67564000D01*
X132247628Y-67564000D01*
X132142760Y-67520455D01*
X132348575Y-67435414D01*
X132741901Y-67042774D01*
X132955029Y-66529504D01*
X132955514Y-65973743D01*
X132743282Y-65460101D01*
X132688277Y-65405000D01*
X151427770Y-65405000D01*
X151374643Y-65458034D01*
G36*
X172161515Y-65891304D02*
X172161030Y-66447065D01*
X172373262Y-66960707D01*
X172765902Y-67354033D01*
X172973784Y-67440353D01*
X172767969Y-67525394D01*
X172729296Y-67564000D01*
X158387802Y-67564000D01*
X158350642Y-67526775D01*
X157837372Y-67313647D01*
X157281611Y-67313162D01*
X156767969Y-67525394D01*
X156729296Y-67564000D01*
X153247628Y-67564000D01*
X153142760Y-67520455D01*
X153348575Y-67435414D01*
X153741901Y-67042774D01*
X153955029Y-66529504D01*
X153955514Y-65973743D01*
X153743282Y-65460101D01*
X153688277Y-65405000D01*
X172363446Y-65405000D01*
X172161515Y-65891304D01*
X172161515Y-65891304D01*
G37*
X172161515Y-65891304D02*
X172161030Y-66447065D01*
X172373262Y-66960707D01*
X172765902Y-67354033D01*
X172973784Y-67440353D01*
X172767969Y-67525394D01*
X172729296Y-67564000D01*
X158387802Y-67564000D01*
X158350642Y-67526775D01*
X157837372Y-67313647D01*
X157281611Y-67313162D01*
X156767969Y-67525394D01*
X156729296Y-67564000D01*
X153247628Y-67564000D01*
X153142760Y-67520455D01*
X153348575Y-67435414D01*
X153741901Y-67042774D01*
X153955029Y-66529504D01*
X153955514Y-65973743D01*
X153743282Y-65460101D01*
X153688277Y-65405000D01*
X172363446Y-65405000D01*
X172161515Y-65891304D01*
G36*
X193253243Y-65880900D02*
X193252758Y-66436661D01*
X193464990Y-66950303D01*
X193857630Y-67343629D01*
X194065512Y-67429949D01*
X193859697Y-67514990D01*
X193810601Y-67564000D01*
X179489916Y-67564000D01*
X179442370Y-67516371D01*
X178929100Y-67303243D01*
X178373339Y-67302758D01*
X177859697Y-67514990D01*
X177810601Y-67564000D01*
X174387802Y-67564000D01*
X174350642Y-67526775D01*
X174142760Y-67440455D01*
X174348575Y-67355414D01*
X174741901Y-66962774D01*
X174955029Y-66449504D01*
X174955514Y-65893743D01*
X174753570Y-65405000D01*
X193450854Y-65405000D01*
X193253243Y-65880900D01*
X193253243Y-65880900D01*
G37*
X193253243Y-65880900D02*
X193252758Y-66436661D01*
X193464990Y-66950303D01*
X193857630Y-67343629D01*
X194065512Y-67429949D01*
X193859697Y-67514990D01*
X193810601Y-67564000D01*
X179489916Y-67564000D01*
X179442370Y-67516371D01*
X178929100Y-67303243D01*
X178373339Y-67302758D01*
X177859697Y-67514990D01*
X177810601Y-67564000D01*
X174387802Y-67564000D01*
X174350642Y-67526775D01*
X174142760Y-67440455D01*
X174348575Y-67355414D01*
X174741901Y-66962774D01*
X174955029Y-66449504D01*
X174955514Y-65893743D01*
X174753570Y-65405000D01*
X193450854Y-65405000D01*
X193253243Y-65880900D01*
G36*
X135161515Y-68511304D02*
X135161030Y-69067065D01*
X135373262Y-69580707D01*
X135765902Y-69974033D01*
X136279172Y-70187161D01*
X136834933Y-70187646D01*
X137348575Y-69975414D01*
X137741901Y-69582774D01*
X137955029Y-69069504D01*
X137955514Y-68513743D01*
X137877940Y-68326000D01*
X156205241Y-68326000D01*
X156161515Y-68431304D01*
X156161030Y-68987065D01*
X156373262Y-69500707D01*
X156765902Y-69894033D01*
X157279172Y-70107161D01*
X157834933Y-70107646D01*
X158348575Y-69895414D01*
X158741901Y-69502774D01*
X158955029Y-68989504D01*
X158955514Y-68433743D01*
X158910996Y-68326000D01*
X177292649Y-68326000D01*
X177253243Y-68420900D01*
X177252758Y-68976661D01*
X177464990Y-69490303D01*
X177857630Y-69883629D01*
X178370900Y-70096757D01*
X178926661Y-70097242D01*
X179440303Y-69885010D01*
X179833629Y-69492370D01*
X180046757Y-68979100D01*
X180047242Y-68423339D01*
X180007022Y-68326000D01*
X196088000Y-68326000D01*
X196088000Y-70485000D01*
X152443189Y-70485000D01*
X152332799Y-70439162D01*
X151960833Y-70438838D01*
X151849112Y-70485000D01*
X114173000Y-70485000D01*
X114173000Y-69096035D01*
X114373262Y-69580707D01*
X114765902Y-69974033D01*
X115279172Y-70187161D01*
X115834933Y-70187646D01*
X116348575Y-69975414D01*
X116741901Y-69582774D01*
X116955029Y-69069504D01*
X116955514Y-68513743D01*
X116877940Y-68326000D01*
X135238460Y-68326000D01*
X135161515Y-68511304D01*
X135161515Y-68511304D01*
G37*
X135161515Y-68511304D02*
X135161030Y-69067065D01*
X135373262Y-69580707D01*
X135765902Y-69974033D01*
X136279172Y-70187161D01*
X136834933Y-70187646D01*
X137348575Y-69975414D01*
X137741901Y-69582774D01*
X137955029Y-69069504D01*
X137955514Y-68513743D01*
X137877940Y-68326000D01*
X156205241Y-68326000D01*
X156161515Y-68431304D01*
X156161030Y-68987065D01*
X156373262Y-69500707D01*
X156765902Y-69894033D01*
X157279172Y-70107161D01*
X157834933Y-70107646D01*
X158348575Y-69895414D01*
X158741901Y-69502774D01*
X158955029Y-68989504D01*
X158955514Y-68433743D01*
X158910996Y-68326000D01*
X177292649Y-68326000D01*
X177253243Y-68420900D01*
X177252758Y-68976661D01*
X177464990Y-69490303D01*
X177857630Y-69883629D01*
X178370900Y-70096757D01*
X178926661Y-70097242D01*
X179440303Y-69885010D01*
X179833629Y-69492370D01*
X180046757Y-68979100D01*
X180047242Y-68423339D01*
X180007022Y-68326000D01*
X196088000Y-68326000D01*
X196088000Y-70485000D01*
X152443189Y-70485000D01*
X152332799Y-70439162D01*
X151960833Y-70438838D01*
X151849112Y-70485000D01*
X114173000Y-70485000D01*
X114173000Y-69096035D01*
X114373262Y-69580707D01*
X114765902Y-69974033D01*
X115279172Y-70187161D01*
X115834933Y-70187646D01*
X116348575Y-69975414D01*
X116741901Y-69582774D01*
X116955029Y-69069504D01*
X116955514Y-68513743D01*
X116877940Y-68326000D01*
X135238460Y-68326000D01*
X135161515Y-68511304D01*
G36*
X199263000Y-55438800D02*
X199097797Y-55273597D01*
X198851235Y-55108850D01*
X198560396Y-55050998D01*
X197627010Y-55050998D01*
X198207800Y-54811020D01*
X198808909Y-54210959D01*
X199134628Y-53426541D01*
X199135370Y-52577185D01*
X198811020Y-51792200D01*
X198210959Y-51191091D01*
X197426541Y-50865372D01*
X196577185Y-50864630D01*
X195792200Y-51188980D01*
X195191091Y-51789041D01*
X194865372Y-52573459D01*
X194864630Y-53422815D01*
X195188980Y-54207800D01*
X195789041Y-54808909D01*
X196372056Y-55050998D01*
X117036002Y-55050998D01*
X116745163Y-55108850D01*
X116498601Y-55273597D01*
X115032599Y-56739599D01*
X115019100Y-56759802D01*
X114777808Y-57000673D01*
X114635162Y-57344201D01*
X114634838Y-57716167D01*
X114776883Y-58059943D01*
X115039673Y-58323192D01*
X115383201Y-58465838D01*
X115755167Y-58466162D01*
X116098943Y-58324117D01*
X116362192Y-58061327D01*
X116504838Y-57717799D01*
X116505100Y-57416702D01*
X117350804Y-56570998D01*
X135829992Y-56570998D01*
X135828500Y-56578500D01*
X135828500Y-57159037D01*
X135796308Y-57191173D01*
X135653662Y-57534701D01*
X135653338Y-57906667D01*
X135795383Y-58250443D01*
X136058173Y-58513692D01*
X136401701Y-58656338D01*
X136773667Y-58656662D01*
X137117443Y-58514617D01*
X137380692Y-58251827D01*
X137523338Y-57908299D01*
X137523662Y-57536333D01*
X137381617Y-57192557D01*
X137348500Y-57159382D01*
X137348500Y-57021000D01*
X156742867Y-57021000D01*
X156608662Y-57344201D01*
X156608338Y-57716167D01*
X156750383Y-58059943D01*
X157013173Y-58323192D01*
X157356701Y-58465838D01*
X157728667Y-58466162D01*
X158072443Y-58324117D01*
X158335692Y-58061327D01*
X158478338Y-57717799D01*
X158478553Y-57471002D01*
X177754052Y-57471002D01*
X177753838Y-57716167D01*
X177895883Y-58059943D01*
X178158673Y-58323192D01*
X178502201Y-58465838D01*
X178874167Y-58466162D01*
X179217943Y-58324117D01*
X179481192Y-58061327D01*
X179539459Y-57921004D01*
X196407500Y-57921004D01*
X196407500Y-59572037D01*
X196375308Y-59604173D01*
X196232662Y-59947701D01*
X196232338Y-60319667D01*
X196374383Y-60663443D01*
X196637173Y-60926692D01*
X196946033Y-61054943D01*
X197072883Y-61361943D01*
X197335673Y-61625192D01*
X197679201Y-61767838D01*
X197859892Y-61767995D01*
X198097673Y-62006192D01*
X198441201Y-62148838D01*
X198491212Y-62148882D01*
X198533383Y-62250943D01*
X198796173Y-62514192D01*
X199139701Y-62656838D01*
X199263000Y-62656945D01*
X199263000Y-64279444D01*
X199141333Y-64279338D01*
X198797557Y-64421383D01*
X198575553Y-64643000D01*
X195438336Y-64643000D01*
X195450608Y-64600213D01*
X194650000Y-63799605D01*
X193849392Y-64600213D01*
X193861664Y-64643000D01*
X179602596Y-64643000D01*
X179833629Y-64412370D01*
X180046757Y-63899100D01*
X180047181Y-63412302D01*
X193240856Y-63412302D01*
X193268638Y-63967368D01*
X193427603Y-64351143D01*
X193669787Y-64420608D01*
X194470395Y-63620000D01*
X194829605Y-63620000D01*
X195630213Y-64420608D01*
X195872397Y-64351143D01*
X196059144Y-63827698D01*
X196031362Y-63272632D01*
X195872397Y-62888857D01*
X195630213Y-62819392D01*
X194829605Y-63620000D01*
X194470395Y-63620000D01*
X193669787Y-62819392D01*
X193427603Y-62888857D01*
X193240856Y-63412302D01*
X180047181Y-63412302D01*
X180047242Y-63343339D01*
X179835010Y-62829697D01*
X179442370Y-62436371D01*
X179234488Y-62350051D01*
X179440303Y-62265010D01*
X179833629Y-61872370D01*
X180046757Y-61359100D01*
X180046759Y-61356661D01*
X193252758Y-61356661D01*
X193464990Y-61870303D01*
X193857630Y-62263629D01*
X194049727Y-62343395D01*
X193918857Y-62397603D01*
X193849392Y-62639787D01*
X194650000Y-63440395D01*
X195450608Y-62639787D01*
X195381143Y-62397603D01*
X195240682Y-62347491D01*
X195440303Y-62265010D01*
X195833629Y-61872370D01*
X196046757Y-61359100D01*
X196047242Y-60803339D01*
X195835010Y-60289697D01*
X195442370Y-59896371D01*
X194929100Y-59683243D01*
X194373339Y-59682758D01*
X193859697Y-59894990D01*
X193466371Y-60287630D01*
X193253243Y-60800900D01*
X193252758Y-61356661D01*
X180046759Y-61356661D01*
X180047242Y-60803339D01*
X179835010Y-60289697D01*
X179442370Y-59896371D01*
X178929100Y-59683243D01*
X178373339Y-59682758D01*
X177859697Y-59894990D01*
X177466371Y-60287630D01*
X177253243Y-60800900D01*
X177252758Y-61356661D01*
X177464990Y-61870303D01*
X177857630Y-62263629D01*
X178065512Y-62349949D01*
X177859697Y-62434990D01*
X177466371Y-62827630D01*
X177253243Y-63340900D01*
X177252758Y-63896661D01*
X177464990Y-64410303D01*
X177697281Y-64643000D01*
X174349592Y-64643000D01*
X174358880Y-64610617D01*
X173558272Y-63810009D01*
X172757664Y-64610617D01*
X172766952Y-64643000D01*
X158521290Y-64643000D01*
X158741901Y-64422774D01*
X158955029Y-63909504D01*
X158955453Y-63422706D01*
X172149128Y-63422706D01*
X172176910Y-63977772D01*
X172335875Y-64361547D01*
X172578059Y-64431012D01*
X173378667Y-63630404D01*
X173737877Y-63630404D01*
X174538485Y-64431012D01*
X174780669Y-64361547D01*
X174967416Y-63838102D01*
X174939634Y-63283036D01*
X174780669Y-62899261D01*
X174538485Y-62829796D01*
X173737877Y-63630404D01*
X173378667Y-63630404D01*
X172578059Y-62829796D01*
X172335875Y-62899261D01*
X172149128Y-63422706D01*
X158955453Y-63422706D01*
X158955514Y-63353743D01*
X158743282Y-62840101D01*
X158350642Y-62446775D01*
X158142760Y-62360455D01*
X158348575Y-62275414D01*
X158741901Y-61882774D01*
X158955029Y-61369504D01*
X158955031Y-61367065D01*
X172161030Y-61367065D01*
X172373262Y-61880707D01*
X172765902Y-62274033D01*
X172957999Y-62353799D01*
X172827129Y-62408007D01*
X172757664Y-62650191D01*
X173558272Y-63450799D01*
X174358880Y-62650191D01*
X174289415Y-62408007D01*
X174148954Y-62357895D01*
X174348575Y-62275414D01*
X174741901Y-61882774D01*
X174955029Y-61369504D01*
X174955514Y-60813743D01*
X174743282Y-60300101D01*
X174350642Y-59906775D01*
X173837372Y-59693647D01*
X173281611Y-59693162D01*
X172767969Y-59905394D01*
X172374643Y-60298034D01*
X172161515Y-60811304D01*
X172161030Y-61367065D01*
X158955031Y-61367065D01*
X158955514Y-60813743D01*
X158743282Y-60300101D01*
X158350642Y-59906775D01*
X157837372Y-59693647D01*
X157281611Y-59693162D01*
X156767969Y-59905394D01*
X156374643Y-60298034D01*
X156161515Y-60811304D01*
X156161030Y-61367065D01*
X156373262Y-61880707D01*
X156765902Y-62274033D01*
X156973784Y-62360353D01*
X156767969Y-62445394D01*
X156374643Y-62838034D01*
X156161515Y-63351304D01*
X156161030Y-63907065D01*
X156373262Y-64420707D01*
X156595167Y-64643000D01*
X153636520Y-64643000D01*
X153653498Y-64626022D01*
X153538487Y-64511011D01*
X153780669Y-64441547D01*
X153967416Y-63918102D01*
X153939634Y-63363036D01*
X153780669Y-62979261D01*
X153538485Y-62909796D01*
X152737877Y-63710404D01*
X152752020Y-63724547D01*
X152572415Y-63904152D01*
X152558272Y-63890009D01*
X152544130Y-63904152D01*
X152364525Y-63724547D01*
X152378667Y-63710404D01*
X151578059Y-62909796D01*
X151335875Y-62979261D01*
X151149128Y-63502706D01*
X151176910Y-64057772D01*
X151335875Y-64441547D01*
X151578057Y-64511011D01*
X151463046Y-64626022D01*
X151480024Y-64643000D01*
X137601430Y-64643000D01*
X137741901Y-64502774D01*
X137955029Y-63989504D01*
X137955514Y-63433743D01*
X137743282Y-62920101D01*
X137350642Y-62526775D01*
X137142760Y-62440455D01*
X137348575Y-62355414D01*
X137741901Y-61962774D01*
X137955029Y-61449504D01*
X137955031Y-61447065D01*
X151161030Y-61447065D01*
X151373262Y-61960707D01*
X151765902Y-62354033D01*
X151957999Y-62433799D01*
X151827129Y-62488007D01*
X151757664Y-62730191D01*
X152558272Y-63530799D01*
X153358880Y-62730191D01*
X153289415Y-62488007D01*
X153148954Y-62437895D01*
X153348575Y-62355414D01*
X153741901Y-61962774D01*
X153955029Y-61449504D01*
X153955514Y-60893743D01*
X153743282Y-60380101D01*
X153350642Y-59986775D01*
X152837372Y-59773647D01*
X152281611Y-59773162D01*
X151767969Y-59985394D01*
X151374643Y-60378034D01*
X151161515Y-60891304D01*
X151161030Y-61447065D01*
X137955031Y-61447065D01*
X137955514Y-60893743D01*
X137743282Y-60380101D01*
X137350642Y-59986775D01*
X136837372Y-59773647D01*
X136281611Y-59773162D01*
X135767969Y-59985394D01*
X135374643Y-60378034D01*
X135161515Y-60891304D01*
X135161030Y-61447065D01*
X135373262Y-61960707D01*
X135765902Y-62354033D01*
X135973784Y-62440353D01*
X135767969Y-62525394D01*
X135374643Y-62918034D01*
X135161515Y-63431304D01*
X135161030Y-63987065D01*
X135373262Y-64500707D01*
X135515307Y-64643000D01*
X132636520Y-64643000D01*
X132653498Y-64626022D01*
X132538487Y-64511011D01*
X132780669Y-64441547D01*
X132967416Y-63918102D01*
X132939634Y-63363036D01*
X132780669Y-62979261D01*
X132538485Y-62909796D01*
X131737877Y-63710404D01*
X131752020Y-63724547D01*
X131572415Y-63904152D01*
X131558272Y-63890009D01*
X131544130Y-63904152D01*
X131364525Y-63724547D01*
X131378667Y-63710404D01*
X130578059Y-62909796D01*
X130335875Y-62979261D01*
X130149128Y-63502706D01*
X130176910Y-64057772D01*
X130335875Y-64441547D01*
X130578057Y-64511011D01*
X130463046Y-64626022D01*
X130480024Y-64643000D01*
X116601430Y-64643000D01*
X116741901Y-64502774D01*
X116955029Y-63989504D01*
X116955514Y-63433743D01*
X116743282Y-62920101D01*
X116350642Y-62526775D01*
X116142760Y-62440455D01*
X116348575Y-62355414D01*
X116741901Y-61962774D01*
X116955029Y-61449504D01*
X116955031Y-61447065D01*
X130161030Y-61447065D01*
X130373262Y-61960707D01*
X130765902Y-62354033D01*
X130957999Y-62433799D01*
X130827129Y-62488007D01*
X130757664Y-62730191D01*
X131558272Y-63530799D01*
X132358880Y-62730191D01*
X132289415Y-62488007D01*
X132148954Y-62437895D01*
X132348575Y-62355414D01*
X132741901Y-61962774D01*
X132955029Y-61449504D01*
X132955514Y-60893743D01*
X132743282Y-60380101D01*
X132350642Y-59986775D01*
X131837372Y-59773647D01*
X131281611Y-59773162D01*
X130767969Y-59985394D01*
X130374643Y-60378034D01*
X130161515Y-60891304D01*
X130161030Y-61447065D01*
X116955031Y-61447065D01*
X116955514Y-60893743D01*
X116743282Y-60380101D01*
X116350642Y-59986775D01*
X115837372Y-59773647D01*
X115281611Y-59773162D01*
X114767969Y-59985394D01*
X114374643Y-60378034D01*
X114161515Y-60891304D01*
X114161030Y-61447065D01*
X114373262Y-61960707D01*
X114765902Y-62354033D01*
X114973784Y-62440353D01*
X114767969Y-62525394D01*
X114374643Y-62918034D01*
X114161515Y-63431304D01*
X114161030Y-63987065D01*
X114373262Y-64500707D01*
X114515307Y-64643000D01*
X113538000Y-64643000D01*
X113488590Y-64653006D01*
X113446965Y-64681447D01*
X113419685Y-64723841D01*
X113411000Y-64770000D01*
X113411000Y-71120000D01*
X113421006Y-71169410D01*
X113449447Y-71211035D01*
X113491841Y-71238315D01*
X113538000Y-71247000D01*
X151211110Y-71247000D01*
X151210838Y-71559167D01*
X151352883Y-71902943D01*
X151615673Y-72166192D01*
X151959201Y-72308838D01*
X152006077Y-72308879D01*
X152990000Y-73292802D01*
X152990000Y-76445785D01*
X152900000Y-76427560D01*
X152600000Y-76427560D01*
X152496329Y-76447067D01*
X152400000Y-76427560D01*
X152100000Y-76427560D01*
X151864683Y-76471838D01*
X151648559Y-76610910D01*
X151503569Y-76823110D01*
X151452560Y-77075000D01*
X151452560Y-78452560D01*
X150105000Y-78452560D01*
X150096473Y-78454164D01*
X150096662Y-78237333D01*
X149954617Y-77893557D01*
X149691827Y-77630308D01*
X149348299Y-77487662D01*
X148976333Y-77487338D01*
X148632557Y-77629383D01*
X148431296Y-77830293D01*
X148421827Y-77820808D01*
X148078299Y-77678162D01*
X147706333Y-77677838D01*
X147362557Y-77819883D01*
X147099308Y-78082673D01*
X146956662Y-78426201D01*
X146956338Y-78798167D01*
X147098383Y-79141943D01*
X147361173Y-79405192D01*
X147704701Y-79547838D01*
X147751577Y-79547879D01*
X147848116Y-79644418D01*
X147807057Y-79661383D01*
X147543808Y-79924173D01*
X147401162Y-80267701D01*
X147400838Y-80639667D01*
X147539752Y-80975865D01*
X147464662Y-81156701D01*
X147464338Y-81528667D01*
X147556876Y-81752627D01*
X147543808Y-81765673D01*
X147401162Y-82109201D01*
X147401109Y-82170241D01*
X147172057Y-82264883D01*
X146908808Y-82527673D01*
X146766162Y-82871201D01*
X146765838Y-83243167D01*
X146907883Y-83586943D01*
X147170673Y-83850192D01*
X147514201Y-83992838D01*
X147886167Y-83993162D01*
X147967101Y-83959721D01*
X147958333Y-84003799D01*
X147890559Y-84047410D01*
X147745569Y-84259610D01*
X147694560Y-84511500D01*
X147694560Y-85311500D01*
X147738838Y-85546817D01*
X147805329Y-85650146D01*
X147803673Y-85651802D01*
X147707000Y-85885191D01*
X147707000Y-86125750D01*
X147865750Y-86284500D01*
X148590000Y-86284500D01*
X148590000Y-86264500D01*
X148844000Y-86264500D01*
X148844000Y-86284500D01*
X149568250Y-86284500D01*
X149727000Y-86125750D01*
X149727000Y-85885191D01*
X149630327Y-85651802D01*
X149628957Y-85650432D01*
X149688431Y-85563390D01*
X149714017Y-85437042D01*
X149715302Y-85438327D01*
X149948691Y-85535000D01*
X150514250Y-85535000D01*
X150673000Y-85376250D01*
X150673000Y-85047440D01*
X150927000Y-85047440D01*
X150927000Y-85376250D01*
X151085750Y-85535000D01*
X151452560Y-85535000D01*
X151452560Y-86925000D01*
X151493579Y-87142996D01*
X151276309Y-87053000D01*
X151183750Y-87053000D01*
X151025000Y-87211750D01*
X151025000Y-88011000D01*
X151047000Y-88011000D01*
X151047000Y-88265000D01*
X151025000Y-88265000D01*
X151025000Y-88285000D01*
X150775000Y-88285000D01*
X150775000Y-88265000D01*
X150173750Y-88265000D01*
X150015000Y-88423750D01*
X150015000Y-88714310D01*
X150111673Y-88947699D01*
X150290302Y-89126327D01*
X150523691Y-89223000D01*
X150538283Y-89223000D01*
X150512662Y-89284701D01*
X150512338Y-89656667D01*
X150654383Y-90000443D01*
X150917173Y-90263692D01*
X151260701Y-90406338D01*
X151632667Y-90406662D01*
X151720863Y-90370220D01*
X151726338Y-90399317D01*
X151815813Y-90538365D01*
X151782662Y-90618201D01*
X151782338Y-90990167D01*
X151924383Y-91333943D01*
X152187173Y-91597192D01*
X152530701Y-91739838D01*
X152902667Y-91740162D01*
X153246443Y-91598117D01*
X153509692Y-91335327D01*
X153652338Y-90991799D01*
X153652526Y-90775602D01*
X153829500Y-90811440D01*
X154624500Y-90811440D01*
X154624500Y-93154500D01*
X154682352Y-93445339D01*
X154847099Y-93691901D01*
X155291599Y-94136401D01*
X155538161Y-94301148D01*
X155829000Y-94359000D01*
X161099500Y-94359000D01*
X161390339Y-94301148D01*
X161636901Y-94136401D01*
X162081401Y-93691901D01*
X162212977Y-93494983D01*
X162220173Y-93502192D01*
X162563701Y-93644838D01*
X162935667Y-93645162D01*
X163279443Y-93503117D01*
X163542692Y-93240327D01*
X163685338Y-92896799D01*
X163685662Y-92524833D01*
X163574000Y-92254590D01*
X163574000Y-91658244D01*
X163616566Y-91629802D01*
X163862603Y-91261582D01*
X163949000Y-90827236D01*
X163949000Y-90782764D01*
X163865488Y-90362924D01*
X163949000Y-90161309D01*
X163949000Y-89820750D01*
X163790250Y-89662000D01*
X162941000Y-89662000D01*
X162941000Y-89673026D01*
X162814000Y-89647764D01*
X162687000Y-89673026D01*
X162687000Y-89662000D01*
X162667000Y-89662000D01*
X162667000Y-89617564D01*
X162679000Y-89557236D01*
X162679000Y-89512764D01*
X162667000Y-89452436D01*
X162667000Y-89408000D01*
X162687000Y-89408000D01*
X162687000Y-88558750D01*
X162941000Y-88558750D01*
X162941000Y-89408000D01*
X163790250Y-89408000D01*
X163949000Y-89249250D01*
X163949000Y-88908691D01*
X163852327Y-88675302D01*
X163673699Y-88496673D01*
X163440310Y-88400000D01*
X163099750Y-88400000D01*
X162941000Y-88558750D01*
X162687000Y-88558750D01*
X162528250Y-88400000D01*
X162187690Y-88400000D01*
X161999182Y-88478083D01*
X161978346Y-88464161D01*
X161544000Y-88377764D01*
X161109654Y-88464161D01*
X160909000Y-88598234D01*
X160708346Y-88464161D01*
X160274000Y-88377764D01*
X159839654Y-88464161D01*
X159639000Y-88598234D01*
X159438346Y-88464161D01*
X159004000Y-88377764D01*
X158569654Y-88464161D01*
X158369000Y-88598234D01*
X158168346Y-88464161D01*
X157734000Y-88377764D01*
X157299654Y-88464161D01*
X157287500Y-88472282D01*
X157287500Y-88454163D01*
X157452148Y-88207749D01*
X157510000Y-87916910D01*
X157510000Y-87554215D01*
X157600000Y-87572440D01*
X157900000Y-87572440D01*
X158135317Y-87528162D01*
X158351441Y-87389090D01*
X158496431Y-87176890D01*
X158547440Y-86925000D01*
X158547440Y-85547440D01*
X159925000Y-85547440D01*
X160123976Y-85510000D01*
X160662560Y-85510000D01*
X160662560Y-86248500D01*
X160706838Y-86483817D01*
X160845910Y-86699941D01*
X161058110Y-86844931D01*
X161310000Y-86895940D01*
X163810000Y-86895940D01*
X164045317Y-86851662D01*
X164261441Y-86712590D01*
X164400890Y-86508500D01*
X165750139Y-86508500D01*
X165727560Y-86620000D01*
X165727560Y-87370000D01*
X165771838Y-87605317D01*
X165910910Y-87821441D01*
X166123110Y-87966431D01*
X166375000Y-88017440D01*
X167175000Y-88017440D01*
X167410317Y-87973162D01*
X167524978Y-87899380D01*
X167623110Y-87966431D01*
X167875000Y-88017440D01*
X168675000Y-88017440D01*
X168910317Y-87973162D01*
X169126441Y-87834090D01*
X169180481Y-87755000D01*
X169735500Y-87755000D01*
X170026339Y-87697148D01*
X170272901Y-87532401D01*
X170847401Y-86957901D01*
X171012148Y-86711339D01*
X171070000Y-86420500D01*
X171070000Y-86395940D01*
X171560000Y-86395940D01*
X171795317Y-86351662D01*
X172011441Y-86212590D01*
X172156431Y-86000390D01*
X172207440Y-85748500D01*
X172207440Y-85238691D01*
X173477000Y-85238691D01*
X173477000Y-85609250D01*
X173635750Y-85768000D01*
X174310000Y-85768000D01*
X174310000Y-84888750D01*
X174151250Y-84730000D01*
X173985690Y-84730000D01*
X173752301Y-84826673D01*
X173573673Y-85005302D01*
X173477000Y-85238691D01*
X172207440Y-85238691D01*
X172207440Y-83248500D01*
X172163162Y-83013183D01*
X172024090Y-82797059D01*
X171811890Y-82652069D01*
X171560000Y-82601060D01*
X170940920Y-82601060D01*
X170847401Y-82461099D01*
X170081401Y-81695099D01*
X169834839Y-81530352D01*
X169544000Y-81472500D01*
X169233344Y-81472500D01*
X169190590Y-81406059D01*
X168978390Y-81261069D01*
X168726500Y-81210060D01*
X167926500Y-81210060D01*
X167691183Y-81254338D01*
X167576522Y-81328120D01*
X167478390Y-81261069D01*
X167226500Y-81210060D01*
X166426500Y-81210060D01*
X166191183Y-81254338D01*
X165975059Y-81393410D01*
X165830069Y-81605610D01*
X165779060Y-81857500D01*
X165779060Y-82488500D01*
X164397279Y-82488500D01*
X164274090Y-82297059D01*
X164061890Y-82152069D01*
X163810000Y-82101060D01*
X163744968Y-82101060D01*
X163896441Y-82003590D01*
X163942969Y-81935494D01*
X164085302Y-82077827D01*
X164318691Y-82174500D01*
X164411250Y-82174500D01*
X164570000Y-82015750D01*
X164570000Y-81216500D01*
X164820000Y-81216500D01*
X164820000Y-82015750D01*
X164978750Y-82174500D01*
X165071309Y-82174500D01*
X165304698Y-82077827D01*
X165483327Y-81899199D01*
X165580000Y-81665810D01*
X165580000Y-81375250D01*
X165421250Y-81216500D01*
X164820000Y-81216500D01*
X164570000Y-81216500D01*
X164548000Y-81216500D01*
X164548000Y-80962500D01*
X164570000Y-80962500D01*
X164570000Y-80163250D01*
X164820000Y-80163250D01*
X164820000Y-80962500D01*
X165421250Y-80962500D01*
X165580000Y-80803750D01*
X165580000Y-80513190D01*
X165483327Y-80279801D01*
X165304698Y-80101173D01*
X165071309Y-80004500D01*
X164978750Y-80004500D01*
X164820000Y-80163250D01*
X164570000Y-80163250D01*
X164411250Y-80004500D01*
X164318691Y-80004500D01*
X164085302Y-80101173D01*
X164055000Y-80131475D01*
X164055000Y-79921311D01*
X164247612Y-79792612D01*
X164755609Y-79284614D01*
X164755612Y-79284612D01*
X164861357Y-79126354D01*
X165084000Y-79171440D01*
X166084000Y-79171440D01*
X166319317Y-79127162D01*
X166535441Y-78988090D01*
X166680431Y-78775890D01*
X166731440Y-78524000D01*
X166731440Y-76924000D01*
X166687162Y-76688683D01*
X166548090Y-76472559D01*
X166335890Y-76327569D01*
X166084000Y-76276560D01*
X165084000Y-76276560D01*
X164848683Y-76320838D01*
X164632559Y-76459910D01*
X164487569Y-76672110D01*
X164440933Y-76902404D01*
X164304892Y-76929464D01*
X164052881Y-77097852D01*
X164025888Y-77115888D01*
X163731440Y-77410336D01*
X163731440Y-76924000D01*
X163687162Y-76688683D01*
X163548090Y-76472559D01*
X163335890Y-76327569D01*
X163084000Y-76276560D01*
X162084000Y-76276560D01*
X161848683Y-76320838D01*
X161632559Y-76459910D01*
X161487569Y-76672110D01*
X161446328Y-76875765D01*
X161185327Y-76614308D01*
X160841799Y-76471662D01*
X160469833Y-76471338D01*
X160126057Y-76613383D01*
X159862808Y-76876173D01*
X159720162Y-77219701D01*
X159719838Y-77591667D01*
X159861883Y-77935443D01*
X160085500Y-78159451D01*
X160085500Y-78485062D01*
X159925000Y-78452560D01*
X158547440Y-78452560D01*
X158547440Y-77075000D01*
X158510000Y-76876024D01*
X158510000Y-75482802D01*
X158556802Y-75436000D01*
X175006000Y-75436000D01*
X175006000Y-79657500D01*
X174600114Y-79657500D01*
X172727214Y-77784600D01*
X172480652Y-77619853D01*
X172189813Y-77562001D01*
X169783741Y-77562001D01*
X169766617Y-77520557D01*
X169503827Y-77257308D01*
X169160299Y-77114662D01*
X168788333Y-77114338D01*
X168444557Y-77256383D01*
X168181308Y-77519173D01*
X168038662Y-77862701D01*
X168038338Y-78234667D01*
X168168569Y-78549851D01*
X168038662Y-78862701D01*
X168038338Y-79234667D01*
X168180383Y-79578443D01*
X168443173Y-79841692D01*
X168786701Y-79984338D01*
X169158667Y-79984662D01*
X169502443Y-79842617D01*
X169765692Y-79579827D01*
X169783476Y-79536999D01*
X171686545Y-79536999D01*
X173559447Y-81409901D01*
X173806009Y-81574648D01*
X174096848Y-81632500D01*
X175006000Y-81632500D01*
X175006000Y-84778749D01*
X174888310Y-84730000D01*
X174722750Y-84730000D01*
X174564000Y-84888750D01*
X174564000Y-85768000D01*
X174584000Y-85768000D01*
X174584000Y-86022000D01*
X174564000Y-86022000D01*
X174564000Y-86042000D01*
X174310000Y-86042000D01*
X174310000Y-86022000D01*
X173635750Y-86022000D01*
X173477000Y-86180750D01*
X173477000Y-86551309D01*
X173502967Y-86614000D01*
X173355000Y-86614000D01*
X173305590Y-86624006D01*
X173263965Y-86652447D01*
X173236685Y-86694841D01*
X173228000Y-86741000D01*
X173228000Y-88646000D01*
X171196000Y-88646000D01*
X171146590Y-88656006D01*
X171104965Y-88684447D01*
X171077685Y-88726841D01*
X171069000Y-88773000D01*
X171069000Y-94183948D01*
X170914000Y-94152560D01*
X170414000Y-94152560D01*
X170178683Y-94196838D01*
X169962559Y-94335910D01*
X169916031Y-94404006D01*
X169773698Y-94261673D01*
X169540309Y-94165000D01*
X169447750Y-94165000D01*
X169289000Y-94323750D01*
X169289000Y-95123000D01*
X169311000Y-95123000D01*
X169311000Y-95377000D01*
X169289000Y-95377000D01*
X169289000Y-96176250D01*
X169447750Y-96335000D01*
X169540309Y-96335000D01*
X169773698Y-96238327D01*
X169914936Y-96097090D01*
X169949910Y-96151441D01*
X170162110Y-96296431D01*
X170414000Y-96347440D01*
X170914000Y-96347440D01*
X171069000Y-96318275D01*
X171069000Y-99568000D01*
X148717000Y-99568000D01*
X148717000Y-95535750D01*
X168279000Y-95535750D01*
X168279000Y-95826310D01*
X168375673Y-96059699D01*
X168554302Y-96238327D01*
X168787691Y-96335000D01*
X168880250Y-96335000D01*
X169039000Y-96176250D01*
X169039000Y-95377000D01*
X168437750Y-95377000D01*
X168279000Y-95535750D01*
X148717000Y-95535750D01*
X148717000Y-94673690D01*
X168279000Y-94673690D01*
X168279000Y-94964250D01*
X168437750Y-95123000D01*
X169039000Y-95123000D01*
X169039000Y-94323750D01*
X168880250Y-94165000D01*
X168787691Y-94165000D01*
X168554302Y-94261673D01*
X168375673Y-94440301D01*
X168279000Y-94673690D01*
X148717000Y-94673690D01*
X148717000Y-91440000D01*
X148706994Y-91390590D01*
X148678553Y-91348965D01*
X148636159Y-91321685D01*
X148590000Y-91313000D01*
X147510111Y-91313000D01*
X147510242Y-91163339D01*
X147298010Y-90649697D01*
X146905370Y-90256371D01*
X146392100Y-90043243D01*
X145836339Y-90042758D01*
X145322697Y-90254990D01*
X144929371Y-90647630D01*
X144716243Y-91160900D01*
X144716110Y-91313000D01*
X138475890Y-91313000D01*
X138476162Y-91000833D01*
X138334117Y-90657057D01*
X138071327Y-90393808D01*
X137727799Y-90251162D01*
X137428000Y-90250901D01*
X137428000Y-89373750D01*
X137583000Y-89373750D01*
X137583000Y-89614310D01*
X137679673Y-89847699D01*
X137858302Y-90026327D01*
X138091691Y-90123000D01*
X138382250Y-90123000D01*
X138541000Y-89964250D01*
X138541000Y-89215000D01*
X138795000Y-89215000D01*
X138795000Y-89964250D01*
X138953750Y-90123000D01*
X139244309Y-90123000D01*
X139477698Y-90026327D01*
X139656327Y-89847699D01*
X139671425Y-89811249D01*
X139885690Y-89900000D01*
X140176250Y-89900000D01*
X140335000Y-89741250D01*
X140335000Y-89140000D01*
X140589000Y-89140000D01*
X140589000Y-89741250D01*
X140747750Y-89900000D01*
X141038310Y-89900000D01*
X141271699Y-89803327D01*
X141450327Y-89624698D01*
X141547000Y-89391309D01*
X141547000Y-89298750D01*
X141388250Y-89140000D01*
X140589000Y-89140000D01*
X140335000Y-89140000D01*
X139535750Y-89140000D01*
X139460750Y-89215000D01*
X138795000Y-89215000D01*
X138541000Y-89215000D01*
X137741750Y-89215000D01*
X137583000Y-89373750D01*
X137428000Y-89373750D01*
X137428000Y-89093105D01*
X137569441Y-89002090D01*
X137656064Y-88875314D01*
X137741750Y-88961000D01*
X138541000Y-88961000D01*
X138541000Y-88941000D01*
X138795000Y-88941000D01*
X138795000Y-88961000D01*
X139594250Y-88961000D01*
X139665250Y-88890000D01*
X140335000Y-88890000D01*
X140335000Y-88868000D01*
X140589000Y-88868000D01*
X140589000Y-88890000D01*
X141388250Y-88890000D01*
X141547000Y-88731250D01*
X141547000Y-88638691D01*
X141450327Y-88405302D01*
X141438597Y-88393572D01*
X141545201Y-88437838D01*
X141917167Y-88438162D01*
X142260943Y-88296117D01*
X142524192Y-88033327D01*
X142666838Y-87689799D01*
X142666949Y-87561690D01*
X150015000Y-87561690D01*
X150015000Y-87852250D01*
X150173750Y-88011000D01*
X150775000Y-88011000D01*
X150775000Y-87211750D01*
X150616250Y-87053000D01*
X150523691Y-87053000D01*
X150290302Y-87149673D01*
X150111673Y-87328301D01*
X150015000Y-87561690D01*
X142666949Y-87561690D01*
X142667162Y-87317833D01*
X142525117Y-86974057D01*
X142262327Y-86710808D01*
X142229676Y-86697250D01*
X147707000Y-86697250D01*
X147707000Y-86937809D01*
X147803673Y-87171198D01*
X147982301Y-87349827D01*
X148215690Y-87446500D01*
X148431250Y-87446500D01*
X148590000Y-87287750D01*
X148590000Y-86538500D01*
X148844000Y-86538500D01*
X148844000Y-87287750D01*
X149002750Y-87446500D01*
X149218310Y-87446500D01*
X149451699Y-87349827D01*
X149630327Y-87171198D01*
X149727000Y-86937809D01*
X149727000Y-86697250D01*
X149568250Y-86538500D01*
X148844000Y-86538500D01*
X148590000Y-86538500D01*
X147865750Y-86538500D01*
X147707000Y-86697250D01*
X142229676Y-86697250D01*
X141918799Y-86568162D01*
X141546833Y-86567838D01*
X141216329Y-86704399D01*
X141163890Y-86668569D01*
X140912000Y-86617560D01*
X140012000Y-86617560D01*
X139776683Y-86661838D01*
X139745479Y-86681917D01*
X139721162Y-86552683D01*
X139582090Y-86336559D01*
X139369890Y-86191569D01*
X139118000Y-86140560D01*
X138357050Y-86140560D01*
X138334117Y-86085057D01*
X138308105Y-86059000D01*
X138382250Y-86059000D01*
X138541000Y-85900250D01*
X138541000Y-85151000D01*
X137741750Y-85151000D01*
X137583000Y-85309750D01*
X137583000Y-85550310D01*
X137604841Y-85603039D01*
X137428000Y-85426198D01*
X137428000Y-85029105D01*
X137569441Y-84938090D01*
X137656064Y-84811314D01*
X137741750Y-84897000D01*
X138541000Y-84897000D01*
X138541000Y-84877000D01*
X138795000Y-84877000D01*
X138795000Y-84897000D01*
X138815000Y-84897000D01*
X138815000Y-85151000D01*
X138795000Y-85151000D01*
X138795000Y-85900250D01*
X138953750Y-86059000D01*
X139244309Y-86059000D01*
X139477698Y-85962327D01*
X139656327Y-85783699D01*
X139716327Y-85638847D01*
X139885690Y-85709000D01*
X140176250Y-85709000D01*
X140335000Y-85550250D01*
X140335000Y-84949000D01*
X140315000Y-84949000D01*
X140315000Y-84699000D01*
X140335000Y-84699000D01*
X140335000Y-84677000D01*
X140589000Y-84677000D01*
X140589000Y-84699000D01*
X140609000Y-84699000D01*
X140609000Y-84949000D01*
X140589000Y-84949000D01*
X140589000Y-85550250D01*
X140747750Y-85709000D01*
X141038310Y-85709000D01*
X141217516Y-85634770D01*
X141545201Y-85770838D01*
X141917167Y-85771162D01*
X142260943Y-85629117D01*
X142524192Y-85366327D01*
X142666838Y-85022799D01*
X142667162Y-84650833D01*
X142525117Y-84307057D01*
X142492000Y-84273882D01*
X142492000Y-83620463D01*
X142524192Y-83588327D01*
X142666838Y-83244799D01*
X142667162Y-82872833D01*
X142525117Y-82529057D01*
X142262327Y-82265808D01*
X141918799Y-82123162D01*
X141546833Y-82122838D01*
X141397098Y-82184707D01*
X141397162Y-82110833D01*
X141255117Y-81767057D01*
X140992327Y-81503808D01*
X140648799Y-81361162D01*
X140444485Y-81360984D01*
X140444662Y-81158333D01*
X140302617Y-80814557D01*
X140039827Y-80551308D01*
X139936620Y-80508452D01*
X139936662Y-80459833D01*
X139794617Y-80116057D01*
X139531827Y-79852808D01*
X139188299Y-79710162D01*
X139116198Y-79710099D01*
X139027202Y-79494713D01*
X138764412Y-79231464D01*
X138476119Y-79111754D01*
X138476162Y-79062833D01*
X138334117Y-78719057D01*
X138071327Y-78455808D01*
X137727799Y-78313162D01*
X137355833Y-78312838D01*
X137012057Y-78454883D01*
X136748808Y-78717673D01*
X136606162Y-79061201D01*
X136606121Y-79108077D01*
X135147228Y-80566970D01*
X134112000Y-80566970D01*
X134112000Y-79502000D01*
X134101994Y-79452590D01*
X134073553Y-79410965D01*
X134031159Y-79383685D01*
X133985000Y-79375000D01*
X110710000Y-79375000D01*
X110710000Y-78122750D01*
X126677000Y-78122750D01*
X126677000Y-78215309D01*
X126773673Y-78448698D01*
X126952301Y-78627327D01*
X127185690Y-78724000D01*
X127476250Y-78724000D01*
X127635000Y-78565250D01*
X127635000Y-77964000D01*
X127889000Y-77964000D01*
X127889000Y-78565250D01*
X128047750Y-78724000D01*
X128338310Y-78724000D01*
X128571699Y-78627327D01*
X128750327Y-78448698D01*
X128847000Y-78215309D01*
X128847000Y-78122750D01*
X128688250Y-77964000D01*
X127889000Y-77964000D01*
X127635000Y-77964000D01*
X126835750Y-77964000D01*
X126677000Y-78122750D01*
X110710000Y-78122750D01*
X110710000Y-76512167D01*
X124921838Y-76512167D01*
X125063883Y-76855943D01*
X125326673Y-77119192D01*
X125670201Y-77261838D01*
X126042167Y-77262162D01*
X126385943Y-77120117D01*
X126407097Y-77099000D01*
X126903974Y-77099000D01*
X126773673Y-77229302D01*
X126677000Y-77462691D01*
X126677000Y-77555250D01*
X126835750Y-77714000D01*
X127635000Y-77714000D01*
X127635000Y-77692000D01*
X127889000Y-77692000D01*
X127889000Y-77714000D01*
X128688250Y-77714000D01*
X128847000Y-77555250D01*
X128847000Y-77462691D01*
X128750327Y-77229302D01*
X128609090Y-77088064D01*
X128663441Y-77053090D01*
X128808431Y-76840890D01*
X128859440Y-76589000D01*
X128859440Y-76089000D01*
X128815162Y-75853683D01*
X128676090Y-75637559D01*
X128463890Y-75492569D01*
X128212000Y-75441560D01*
X127312000Y-75441560D01*
X127076683Y-75485838D01*
X126931905Y-75579000D01*
X126431442Y-75579000D01*
X126387327Y-75534808D01*
X126043799Y-75392162D01*
X125671833Y-75391838D01*
X125328057Y-75533883D01*
X125064808Y-75796673D01*
X124922162Y-76140201D01*
X124921838Y-76512167D01*
X110710000Y-76512167D01*
X110710000Y-53422815D01*
X110864630Y-53422815D01*
X111188980Y-54207800D01*
X111789041Y-54808909D01*
X112573459Y-55134628D01*
X113422815Y-55135370D01*
X114207800Y-54811020D01*
X114808909Y-54210959D01*
X115134628Y-53426541D01*
X115135370Y-52577185D01*
X114811020Y-51792200D01*
X114210959Y-51191091D01*
X113426541Y-50865372D01*
X112577185Y-50864630D01*
X111792200Y-51188980D01*
X111191091Y-51789041D01*
X110865372Y-52573459D01*
X110864630Y-53422815D01*
X110710000Y-53422815D01*
X110710000Y-50710000D01*
X199263000Y-50710000D01*
X199263000Y-55438800D01*
X199263000Y-55438800D01*
G37*
X199263000Y-55438800D02*
X199097797Y-55273597D01*
X198851235Y-55108850D01*
X198560396Y-55050998D01*
X197627010Y-55050998D01*
X198207800Y-54811020D01*
X198808909Y-54210959D01*
X199134628Y-53426541D01*
X199135370Y-52577185D01*
X198811020Y-51792200D01*
X198210959Y-51191091D01*
X197426541Y-50865372D01*
X196577185Y-50864630D01*
X195792200Y-51188980D01*
X195191091Y-51789041D01*
X194865372Y-52573459D01*
X194864630Y-53422815D01*
X195188980Y-54207800D01*
X195789041Y-54808909D01*
X196372056Y-55050998D01*
X117036002Y-55050998D01*
X116745163Y-55108850D01*
X116498601Y-55273597D01*
X115032599Y-56739599D01*
X115019100Y-56759802D01*
X114777808Y-57000673D01*
X114635162Y-57344201D01*
X114634838Y-57716167D01*
X114776883Y-58059943D01*
X115039673Y-58323192D01*
X115383201Y-58465838D01*
X115755167Y-58466162D01*
X116098943Y-58324117D01*
X116362192Y-58061327D01*
X116504838Y-57717799D01*
X116505100Y-57416702D01*
X117350804Y-56570998D01*
X135829992Y-56570998D01*
X135828500Y-56578500D01*
X135828500Y-57159037D01*
X135796308Y-57191173D01*
X135653662Y-57534701D01*
X135653338Y-57906667D01*
X135795383Y-58250443D01*
X136058173Y-58513692D01*
X136401701Y-58656338D01*
X136773667Y-58656662D01*
X137117443Y-58514617D01*
X137380692Y-58251827D01*
X137523338Y-57908299D01*
X137523662Y-57536333D01*
X137381617Y-57192557D01*
X137348500Y-57159382D01*
X137348500Y-57021000D01*
X156742867Y-57021000D01*
X156608662Y-57344201D01*
X156608338Y-57716167D01*
X156750383Y-58059943D01*
X157013173Y-58323192D01*
X157356701Y-58465838D01*
X157728667Y-58466162D01*
X158072443Y-58324117D01*
X158335692Y-58061327D01*
X158478338Y-57717799D01*
X158478553Y-57471002D01*
X177754052Y-57471002D01*
X177753838Y-57716167D01*
X177895883Y-58059943D01*
X178158673Y-58323192D01*
X178502201Y-58465838D01*
X178874167Y-58466162D01*
X179217943Y-58324117D01*
X179481192Y-58061327D01*
X179539459Y-57921004D01*
X196407500Y-57921004D01*
X196407500Y-59572037D01*
X196375308Y-59604173D01*
X196232662Y-59947701D01*
X196232338Y-60319667D01*
X196374383Y-60663443D01*
X196637173Y-60926692D01*
X196946033Y-61054943D01*
X197072883Y-61361943D01*
X197335673Y-61625192D01*
X197679201Y-61767838D01*
X197859892Y-61767995D01*
X198097673Y-62006192D01*
X198441201Y-62148838D01*
X198491212Y-62148882D01*
X198533383Y-62250943D01*
X198796173Y-62514192D01*
X199139701Y-62656838D01*
X199263000Y-62656945D01*
X199263000Y-64279444D01*
X199141333Y-64279338D01*
X198797557Y-64421383D01*
X198575553Y-64643000D01*
X195438336Y-64643000D01*
X195450608Y-64600213D01*
X194650000Y-63799605D01*
X193849392Y-64600213D01*
X193861664Y-64643000D01*
X179602596Y-64643000D01*
X179833629Y-64412370D01*
X180046757Y-63899100D01*
X180047181Y-63412302D01*
X193240856Y-63412302D01*
X193268638Y-63967368D01*
X193427603Y-64351143D01*
X193669787Y-64420608D01*
X194470395Y-63620000D01*
X194829605Y-63620000D01*
X195630213Y-64420608D01*
X195872397Y-64351143D01*
X196059144Y-63827698D01*
X196031362Y-63272632D01*
X195872397Y-62888857D01*
X195630213Y-62819392D01*
X194829605Y-63620000D01*
X194470395Y-63620000D01*
X193669787Y-62819392D01*
X193427603Y-62888857D01*
X193240856Y-63412302D01*
X180047181Y-63412302D01*
X180047242Y-63343339D01*
X179835010Y-62829697D01*
X179442370Y-62436371D01*
X179234488Y-62350051D01*
X179440303Y-62265010D01*
X179833629Y-61872370D01*
X180046757Y-61359100D01*
X180046759Y-61356661D01*
X193252758Y-61356661D01*
X193464990Y-61870303D01*
X193857630Y-62263629D01*
X194049727Y-62343395D01*
X193918857Y-62397603D01*
X193849392Y-62639787D01*
X194650000Y-63440395D01*
X195450608Y-62639787D01*
X195381143Y-62397603D01*
X195240682Y-62347491D01*
X195440303Y-62265010D01*
X195833629Y-61872370D01*
X196046757Y-61359100D01*
X196047242Y-60803339D01*
X195835010Y-60289697D01*
X195442370Y-59896371D01*
X194929100Y-59683243D01*
X194373339Y-59682758D01*
X193859697Y-59894990D01*
X193466371Y-60287630D01*
X193253243Y-60800900D01*
X193252758Y-61356661D01*
X180046759Y-61356661D01*
X180047242Y-60803339D01*
X179835010Y-60289697D01*
X179442370Y-59896371D01*
X178929100Y-59683243D01*
X178373339Y-59682758D01*
X177859697Y-59894990D01*
X177466371Y-60287630D01*
X177253243Y-60800900D01*
X177252758Y-61356661D01*
X177464990Y-61870303D01*
X177857630Y-62263629D01*
X178065512Y-62349949D01*
X177859697Y-62434990D01*
X177466371Y-62827630D01*
X177253243Y-63340900D01*
X177252758Y-63896661D01*
X177464990Y-64410303D01*
X177697281Y-64643000D01*
X174349592Y-64643000D01*
X174358880Y-64610617D01*
X173558272Y-63810009D01*
X172757664Y-64610617D01*
X172766952Y-64643000D01*
X158521290Y-64643000D01*
X158741901Y-64422774D01*
X158955029Y-63909504D01*
X158955453Y-63422706D01*
X172149128Y-63422706D01*
X172176910Y-63977772D01*
X172335875Y-64361547D01*
X172578059Y-64431012D01*
X173378667Y-63630404D01*
X173737877Y-63630404D01*
X174538485Y-64431012D01*
X174780669Y-64361547D01*
X174967416Y-63838102D01*
X174939634Y-63283036D01*
X174780669Y-62899261D01*
X174538485Y-62829796D01*
X173737877Y-63630404D01*
X173378667Y-63630404D01*
X172578059Y-62829796D01*
X172335875Y-62899261D01*
X172149128Y-63422706D01*
X158955453Y-63422706D01*
X158955514Y-63353743D01*
X158743282Y-62840101D01*
X158350642Y-62446775D01*
X158142760Y-62360455D01*
X158348575Y-62275414D01*
X158741901Y-61882774D01*
X158955029Y-61369504D01*
X158955031Y-61367065D01*
X172161030Y-61367065D01*
X172373262Y-61880707D01*
X172765902Y-62274033D01*
X172957999Y-62353799D01*
X172827129Y-62408007D01*
X172757664Y-62650191D01*
X173558272Y-63450799D01*
X174358880Y-62650191D01*
X174289415Y-62408007D01*
X174148954Y-62357895D01*
X174348575Y-62275414D01*
X174741901Y-61882774D01*
X174955029Y-61369504D01*
X174955514Y-60813743D01*
X174743282Y-60300101D01*
X174350642Y-59906775D01*
X173837372Y-59693647D01*
X173281611Y-59693162D01*
X172767969Y-59905394D01*
X172374643Y-60298034D01*
X172161515Y-60811304D01*
X172161030Y-61367065D01*
X158955031Y-61367065D01*
X158955514Y-60813743D01*
X158743282Y-60300101D01*
X158350642Y-59906775D01*
X157837372Y-59693647D01*
X157281611Y-59693162D01*
X156767969Y-59905394D01*
X156374643Y-60298034D01*
X156161515Y-60811304D01*
X156161030Y-61367065D01*
X156373262Y-61880707D01*
X156765902Y-62274033D01*
X156973784Y-62360353D01*
X156767969Y-62445394D01*
X156374643Y-62838034D01*
X156161515Y-63351304D01*
X156161030Y-63907065D01*
X156373262Y-64420707D01*
X156595167Y-64643000D01*
X153636520Y-64643000D01*
X153653498Y-64626022D01*
X153538487Y-64511011D01*
X153780669Y-64441547D01*
X153967416Y-63918102D01*
X153939634Y-63363036D01*
X153780669Y-62979261D01*
X153538485Y-62909796D01*
X152737877Y-63710404D01*
X152752020Y-63724547D01*
X152572415Y-63904152D01*
X152558272Y-63890009D01*
X152544130Y-63904152D01*
X152364525Y-63724547D01*
X152378667Y-63710404D01*
X151578059Y-62909796D01*
X151335875Y-62979261D01*
X151149128Y-63502706D01*
X151176910Y-64057772D01*
X151335875Y-64441547D01*
X151578057Y-64511011D01*
X151463046Y-64626022D01*
X151480024Y-64643000D01*
X137601430Y-64643000D01*
X137741901Y-64502774D01*
X137955029Y-63989504D01*
X137955514Y-63433743D01*
X137743282Y-62920101D01*
X137350642Y-62526775D01*
X137142760Y-62440455D01*
X137348575Y-62355414D01*
X137741901Y-61962774D01*
X137955029Y-61449504D01*
X137955031Y-61447065D01*
X151161030Y-61447065D01*
X151373262Y-61960707D01*
X151765902Y-62354033D01*
X151957999Y-62433799D01*
X151827129Y-62488007D01*
X151757664Y-62730191D01*
X152558272Y-63530799D01*
X153358880Y-62730191D01*
X153289415Y-62488007D01*
X153148954Y-62437895D01*
X153348575Y-62355414D01*
X153741901Y-61962774D01*
X153955029Y-61449504D01*
X153955514Y-60893743D01*
X153743282Y-60380101D01*
X153350642Y-59986775D01*
X152837372Y-59773647D01*
X152281611Y-59773162D01*
X151767969Y-59985394D01*
X151374643Y-60378034D01*
X151161515Y-60891304D01*
X151161030Y-61447065D01*
X137955031Y-61447065D01*
X137955514Y-60893743D01*
X137743282Y-60380101D01*
X137350642Y-59986775D01*
X136837372Y-59773647D01*
X136281611Y-59773162D01*
X135767969Y-59985394D01*
X135374643Y-60378034D01*
X135161515Y-60891304D01*
X135161030Y-61447065D01*
X135373262Y-61960707D01*
X135765902Y-62354033D01*
X135973784Y-62440353D01*
X135767969Y-62525394D01*
X135374643Y-62918034D01*
X135161515Y-63431304D01*
X135161030Y-63987065D01*
X135373262Y-64500707D01*
X135515307Y-64643000D01*
X132636520Y-64643000D01*
X132653498Y-64626022D01*
X132538487Y-64511011D01*
X132780669Y-64441547D01*
X132967416Y-63918102D01*
X132939634Y-63363036D01*
X132780669Y-62979261D01*
X132538485Y-62909796D01*
X131737877Y-63710404D01*
X131752020Y-63724547D01*
X131572415Y-63904152D01*
X131558272Y-63890009D01*
X131544130Y-63904152D01*
X131364525Y-63724547D01*
X131378667Y-63710404D01*
X130578059Y-62909796D01*
X130335875Y-62979261D01*
X130149128Y-63502706D01*
X130176910Y-64057772D01*
X130335875Y-64441547D01*
X130578057Y-64511011D01*
X130463046Y-64626022D01*
X130480024Y-64643000D01*
X116601430Y-64643000D01*
X116741901Y-64502774D01*
X116955029Y-63989504D01*
X116955514Y-63433743D01*
X116743282Y-62920101D01*
X116350642Y-62526775D01*
X116142760Y-62440455D01*
X116348575Y-62355414D01*
X116741901Y-61962774D01*
X116955029Y-61449504D01*
X116955031Y-61447065D01*
X130161030Y-61447065D01*
X130373262Y-61960707D01*
X130765902Y-62354033D01*
X130957999Y-62433799D01*
X130827129Y-62488007D01*
X130757664Y-62730191D01*
X131558272Y-63530799D01*
X132358880Y-62730191D01*
X132289415Y-62488007D01*
X132148954Y-62437895D01*
X132348575Y-62355414D01*
X132741901Y-61962774D01*
X132955029Y-61449504D01*
X132955514Y-60893743D01*
X132743282Y-60380101D01*
X132350642Y-59986775D01*
X131837372Y-59773647D01*
X131281611Y-59773162D01*
X130767969Y-59985394D01*
X130374643Y-60378034D01*
X130161515Y-60891304D01*
X130161030Y-61447065D01*
X116955031Y-61447065D01*
X116955514Y-60893743D01*
X116743282Y-60380101D01*
X116350642Y-59986775D01*
X115837372Y-59773647D01*
X115281611Y-59773162D01*
X114767969Y-59985394D01*
X114374643Y-60378034D01*
X114161515Y-60891304D01*
X114161030Y-61447065D01*
X114373262Y-61960707D01*
X114765902Y-62354033D01*
X114973784Y-62440353D01*
X114767969Y-62525394D01*
X114374643Y-62918034D01*
X114161515Y-63431304D01*
X114161030Y-63987065D01*
X114373262Y-64500707D01*
X114515307Y-64643000D01*
X113538000Y-64643000D01*
X113488590Y-64653006D01*
X113446965Y-64681447D01*
X113419685Y-64723841D01*
X113411000Y-64770000D01*
X113411000Y-71120000D01*
X113421006Y-71169410D01*
X113449447Y-71211035D01*
X113491841Y-71238315D01*
X113538000Y-71247000D01*
X151211110Y-71247000D01*
X151210838Y-71559167D01*
X151352883Y-71902943D01*
X151615673Y-72166192D01*
X151959201Y-72308838D01*
X152006077Y-72308879D01*
X152990000Y-73292802D01*
X152990000Y-76445785D01*
X152900000Y-76427560D01*
X152600000Y-76427560D01*
X152496329Y-76447067D01*
X152400000Y-76427560D01*
X152100000Y-76427560D01*
X151864683Y-76471838D01*
X151648559Y-76610910D01*
X151503569Y-76823110D01*
X151452560Y-77075000D01*
X151452560Y-78452560D01*
X150105000Y-78452560D01*
X150096473Y-78454164D01*
X150096662Y-78237333D01*
X149954617Y-77893557D01*
X149691827Y-77630308D01*
X149348299Y-77487662D01*
X148976333Y-77487338D01*
X148632557Y-77629383D01*
X148431296Y-77830293D01*
X148421827Y-77820808D01*
X148078299Y-77678162D01*
X147706333Y-77677838D01*
X147362557Y-77819883D01*
X147099308Y-78082673D01*
X146956662Y-78426201D01*
X146956338Y-78798167D01*
X147098383Y-79141943D01*
X147361173Y-79405192D01*
X147704701Y-79547838D01*
X147751577Y-79547879D01*
X147848116Y-79644418D01*
X147807057Y-79661383D01*
X147543808Y-79924173D01*
X147401162Y-80267701D01*
X147400838Y-80639667D01*
X147539752Y-80975865D01*
X147464662Y-81156701D01*
X147464338Y-81528667D01*
X147556876Y-81752627D01*
X147543808Y-81765673D01*
X147401162Y-82109201D01*
X147401109Y-82170241D01*
X147172057Y-82264883D01*
X146908808Y-82527673D01*
X146766162Y-82871201D01*
X146765838Y-83243167D01*
X146907883Y-83586943D01*
X147170673Y-83850192D01*
X147514201Y-83992838D01*
X147886167Y-83993162D01*
X147967101Y-83959721D01*
X147958333Y-84003799D01*
X147890559Y-84047410D01*
X147745569Y-84259610D01*
X147694560Y-84511500D01*
X147694560Y-85311500D01*
X147738838Y-85546817D01*
X147805329Y-85650146D01*
X147803673Y-85651802D01*
X147707000Y-85885191D01*
X147707000Y-86125750D01*
X147865750Y-86284500D01*
X148590000Y-86284500D01*
X148590000Y-86264500D01*
X148844000Y-86264500D01*
X148844000Y-86284500D01*
X149568250Y-86284500D01*
X149727000Y-86125750D01*
X149727000Y-85885191D01*
X149630327Y-85651802D01*
X149628957Y-85650432D01*
X149688431Y-85563390D01*
X149714017Y-85437042D01*
X149715302Y-85438327D01*
X149948691Y-85535000D01*
X150514250Y-85535000D01*
X150673000Y-85376250D01*
X150673000Y-85047440D01*
X150927000Y-85047440D01*
X150927000Y-85376250D01*
X151085750Y-85535000D01*
X151452560Y-85535000D01*
X151452560Y-86925000D01*
X151493579Y-87142996D01*
X151276309Y-87053000D01*
X151183750Y-87053000D01*
X151025000Y-87211750D01*
X151025000Y-88011000D01*
X151047000Y-88011000D01*
X151047000Y-88265000D01*
X151025000Y-88265000D01*
X151025000Y-88285000D01*
X150775000Y-88285000D01*
X150775000Y-88265000D01*
X150173750Y-88265000D01*
X150015000Y-88423750D01*
X150015000Y-88714310D01*
X150111673Y-88947699D01*
X150290302Y-89126327D01*
X150523691Y-89223000D01*
X150538283Y-89223000D01*
X150512662Y-89284701D01*
X150512338Y-89656667D01*
X150654383Y-90000443D01*
X150917173Y-90263692D01*
X151260701Y-90406338D01*
X151632667Y-90406662D01*
X151720863Y-90370220D01*
X151726338Y-90399317D01*
X151815813Y-90538365D01*
X151782662Y-90618201D01*
X151782338Y-90990167D01*
X151924383Y-91333943D01*
X152187173Y-91597192D01*
X152530701Y-91739838D01*
X152902667Y-91740162D01*
X153246443Y-91598117D01*
X153509692Y-91335327D01*
X153652338Y-90991799D01*
X153652526Y-90775602D01*
X153829500Y-90811440D01*
X154624500Y-90811440D01*
X154624500Y-93154500D01*
X154682352Y-93445339D01*
X154847099Y-93691901D01*
X155291599Y-94136401D01*
X155538161Y-94301148D01*
X155829000Y-94359000D01*
X161099500Y-94359000D01*
X161390339Y-94301148D01*
X161636901Y-94136401D01*
X162081401Y-93691901D01*
X162212977Y-93494983D01*
X162220173Y-93502192D01*
X162563701Y-93644838D01*
X162935667Y-93645162D01*
X163279443Y-93503117D01*
X163542692Y-93240327D01*
X163685338Y-92896799D01*
X163685662Y-92524833D01*
X163574000Y-92254590D01*
X163574000Y-91658244D01*
X163616566Y-91629802D01*
X163862603Y-91261582D01*
X163949000Y-90827236D01*
X163949000Y-90782764D01*
X163865488Y-90362924D01*
X163949000Y-90161309D01*
X163949000Y-89820750D01*
X163790250Y-89662000D01*
X162941000Y-89662000D01*
X162941000Y-89673026D01*
X162814000Y-89647764D01*
X162687000Y-89673026D01*
X162687000Y-89662000D01*
X162667000Y-89662000D01*
X162667000Y-89617564D01*
X162679000Y-89557236D01*
X162679000Y-89512764D01*
X162667000Y-89452436D01*
X162667000Y-89408000D01*
X162687000Y-89408000D01*
X162687000Y-88558750D01*
X162941000Y-88558750D01*
X162941000Y-89408000D01*
X163790250Y-89408000D01*
X163949000Y-89249250D01*
X163949000Y-88908691D01*
X163852327Y-88675302D01*
X163673699Y-88496673D01*
X163440310Y-88400000D01*
X163099750Y-88400000D01*
X162941000Y-88558750D01*
X162687000Y-88558750D01*
X162528250Y-88400000D01*
X162187690Y-88400000D01*
X161999182Y-88478083D01*
X161978346Y-88464161D01*
X161544000Y-88377764D01*
X161109654Y-88464161D01*
X160909000Y-88598234D01*
X160708346Y-88464161D01*
X160274000Y-88377764D01*
X159839654Y-88464161D01*
X159639000Y-88598234D01*
X159438346Y-88464161D01*
X159004000Y-88377764D01*
X158569654Y-88464161D01*
X158369000Y-88598234D01*
X158168346Y-88464161D01*
X157734000Y-88377764D01*
X157299654Y-88464161D01*
X157287500Y-88472282D01*
X157287500Y-88454163D01*
X157452148Y-88207749D01*
X157510000Y-87916910D01*
X157510000Y-87554215D01*
X157600000Y-87572440D01*
X157900000Y-87572440D01*
X158135317Y-87528162D01*
X158351441Y-87389090D01*
X158496431Y-87176890D01*
X158547440Y-86925000D01*
X158547440Y-85547440D01*
X159925000Y-85547440D01*
X160123976Y-85510000D01*
X160662560Y-85510000D01*
X160662560Y-86248500D01*
X160706838Y-86483817D01*
X160845910Y-86699941D01*
X161058110Y-86844931D01*
X161310000Y-86895940D01*
X163810000Y-86895940D01*
X164045317Y-86851662D01*
X164261441Y-86712590D01*
X164400890Y-86508500D01*
X165750139Y-86508500D01*
X165727560Y-86620000D01*
X165727560Y-87370000D01*
X165771838Y-87605317D01*
X165910910Y-87821441D01*
X166123110Y-87966431D01*
X166375000Y-88017440D01*
X167175000Y-88017440D01*
X167410317Y-87973162D01*
X167524978Y-87899380D01*
X167623110Y-87966431D01*
X167875000Y-88017440D01*
X168675000Y-88017440D01*
X168910317Y-87973162D01*
X169126441Y-87834090D01*
X169180481Y-87755000D01*
X169735500Y-87755000D01*
X170026339Y-87697148D01*
X170272901Y-87532401D01*
X170847401Y-86957901D01*
X171012148Y-86711339D01*
X171070000Y-86420500D01*
X171070000Y-86395940D01*
X171560000Y-86395940D01*
X171795317Y-86351662D01*
X172011441Y-86212590D01*
X172156431Y-86000390D01*
X172207440Y-85748500D01*
X172207440Y-85238691D01*
X173477000Y-85238691D01*
X173477000Y-85609250D01*
X173635750Y-85768000D01*
X174310000Y-85768000D01*
X174310000Y-84888750D01*
X174151250Y-84730000D01*
X173985690Y-84730000D01*
X173752301Y-84826673D01*
X173573673Y-85005302D01*
X173477000Y-85238691D01*
X172207440Y-85238691D01*
X172207440Y-83248500D01*
X172163162Y-83013183D01*
X172024090Y-82797059D01*
X171811890Y-82652069D01*
X171560000Y-82601060D01*
X170940920Y-82601060D01*
X170847401Y-82461099D01*
X170081401Y-81695099D01*
X169834839Y-81530352D01*
X169544000Y-81472500D01*
X169233344Y-81472500D01*
X169190590Y-81406059D01*
X168978390Y-81261069D01*
X168726500Y-81210060D01*
X167926500Y-81210060D01*
X167691183Y-81254338D01*
X167576522Y-81328120D01*
X167478390Y-81261069D01*
X167226500Y-81210060D01*
X166426500Y-81210060D01*
X166191183Y-81254338D01*
X165975059Y-81393410D01*
X165830069Y-81605610D01*
X165779060Y-81857500D01*
X165779060Y-82488500D01*
X164397279Y-82488500D01*
X164274090Y-82297059D01*
X164061890Y-82152069D01*
X163810000Y-82101060D01*
X163744968Y-82101060D01*
X163896441Y-82003590D01*
X163942969Y-81935494D01*
X164085302Y-82077827D01*
X164318691Y-82174500D01*
X164411250Y-82174500D01*
X164570000Y-82015750D01*
X164570000Y-81216500D01*
X164820000Y-81216500D01*
X164820000Y-82015750D01*
X164978750Y-82174500D01*
X165071309Y-82174500D01*
X165304698Y-82077827D01*
X165483327Y-81899199D01*
X165580000Y-81665810D01*
X165580000Y-81375250D01*
X165421250Y-81216500D01*
X164820000Y-81216500D01*
X164570000Y-81216500D01*
X164548000Y-81216500D01*
X164548000Y-80962500D01*
X164570000Y-80962500D01*
X164570000Y-80163250D01*
X164820000Y-80163250D01*
X164820000Y-80962500D01*
X165421250Y-80962500D01*
X165580000Y-80803750D01*
X165580000Y-80513190D01*
X165483327Y-80279801D01*
X165304698Y-80101173D01*
X165071309Y-80004500D01*
X164978750Y-80004500D01*
X164820000Y-80163250D01*
X164570000Y-80163250D01*
X164411250Y-80004500D01*
X164318691Y-80004500D01*
X164085302Y-80101173D01*
X164055000Y-80131475D01*
X164055000Y-79921311D01*
X164247612Y-79792612D01*
X164755609Y-79284614D01*
X164755612Y-79284612D01*
X164861357Y-79126354D01*
X165084000Y-79171440D01*
X166084000Y-79171440D01*
X166319317Y-79127162D01*
X166535441Y-78988090D01*
X166680431Y-78775890D01*
X166731440Y-78524000D01*
X166731440Y-76924000D01*
X166687162Y-76688683D01*
X166548090Y-76472559D01*
X166335890Y-76327569D01*
X166084000Y-76276560D01*
X165084000Y-76276560D01*
X164848683Y-76320838D01*
X164632559Y-76459910D01*
X164487569Y-76672110D01*
X164440933Y-76902404D01*
X164304892Y-76929464D01*
X164052881Y-77097852D01*
X164025888Y-77115888D01*
X163731440Y-77410336D01*
X163731440Y-76924000D01*
X163687162Y-76688683D01*
X163548090Y-76472559D01*
X163335890Y-76327569D01*
X163084000Y-76276560D01*
X162084000Y-76276560D01*
X161848683Y-76320838D01*
X161632559Y-76459910D01*
X161487569Y-76672110D01*
X161446328Y-76875765D01*
X161185327Y-76614308D01*
X160841799Y-76471662D01*
X160469833Y-76471338D01*
X160126057Y-76613383D01*
X159862808Y-76876173D01*
X159720162Y-77219701D01*
X159719838Y-77591667D01*
X159861883Y-77935443D01*
X160085500Y-78159451D01*
X160085500Y-78485062D01*
X159925000Y-78452560D01*
X158547440Y-78452560D01*
X158547440Y-77075000D01*
X158510000Y-76876024D01*
X158510000Y-75482802D01*
X158556802Y-75436000D01*
X175006000Y-75436000D01*
X175006000Y-79657500D01*
X174600114Y-79657500D01*
X172727214Y-77784600D01*
X172480652Y-77619853D01*
X172189813Y-77562001D01*
X169783741Y-77562001D01*
X169766617Y-77520557D01*
X169503827Y-77257308D01*
X169160299Y-77114662D01*
X168788333Y-77114338D01*
X168444557Y-77256383D01*
X168181308Y-77519173D01*
X168038662Y-77862701D01*
X168038338Y-78234667D01*
X168168569Y-78549851D01*
X168038662Y-78862701D01*
X168038338Y-79234667D01*
X168180383Y-79578443D01*
X168443173Y-79841692D01*
X168786701Y-79984338D01*
X169158667Y-79984662D01*
X169502443Y-79842617D01*
X169765692Y-79579827D01*
X169783476Y-79536999D01*
X171686545Y-79536999D01*
X173559447Y-81409901D01*
X173806009Y-81574648D01*
X174096848Y-81632500D01*
X175006000Y-81632500D01*
X175006000Y-84778749D01*
X174888310Y-84730000D01*
X174722750Y-84730000D01*
X174564000Y-84888750D01*
X174564000Y-85768000D01*
X174584000Y-85768000D01*
X174584000Y-86022000D01*
X174564000Y-86022000D01*
X174564000Y-86042000D01*
X174310000Y-86042000D01*
X174310000Y-86022000D01*
X173635750Y-86022000D01*
X173477000Y-86180750D01*
X173477000Y-86551309D01*
X173502967Y-86614000D01*
X173355000Y-86614000D01*
X173305590Y-86624006D01*
X173263965Y-86652447D01*
X173236685Y-86694841D01*
X173228000Y-86741000D01*
X173228000Y-88646000D01*
X171196000Y-88646000D01*
X171146590Y-88656006D01*
X171104965Y-88684447D01*
X171077685Y-88726841D01*
X171069000Y-88773000D01*
X171069000Y-94183948D01*
X170914000Y-94152560D01*
X170414000Y-94152560D01*
X170178683Y-94196838D01*
X169962559Y-94335910D01*
X169916031Y-94404006D01*
X169773698Y-94261673D01*
X169540309Y-94165000D01*
X169447750Y-94165000D01*
X169289000Y-94323750D01*
X169289000Y-95123000D01*
X169311000Y-95123000D01*
X169311000Y-95377000D01*
X169289000Y-95377000D01*
X169289000Y-96176250D01*
X169447750Y-96335000D01*
X169540309Y-96335000D01*
X169773698Y-96238327D01*
X169914936Y-96097090D01*
X169949910Y-96151441D01*
X170162110Y-96296431D01*
X170414000Y-96347440D01*
X170914000Y-96347440D01*
X171069000Y-96318275D01*
X171069000Y-99568000D01*
X148717000Y-99568000D01*
X148717000Y-95535750D01*
X168279000Y-95535750D01*
X168279000Y-95826310D01*
X168375673Y-96059699D01*
X168554302Y-96238327D01*
X168787691Y-96335000D01*
X168880250Y-96335000D01*
X169039000Y-96176250D01*
X169039000Y-95377000D01*
X168437750Y-95377000D01*
X168279000Y-95535750D01*
X148717000Y-95535750D01*
X148717000Y-94673690D01*
X168279000Y-94673690D01*
X168279000Y-94964250D01*
X168437750Y-95123000D01*
X169039000Y-95123000D01*
X169039000Y-94323750D01*
X168880250Y-94165000D01*
X168787691Y-94165000D01*
X168554302Y-94261673D01*
X168375673Y-94440301D01*
X168279000Y-94673690D01*
X148717000Y-94673690D01*
X148717000Y-91440000D01*
X148706994Y-91390590D01*
X148678553Y-91348965D01*
X148636159Y-91321685D01*
X148590000Y-91313000D01*
X147510111Y-91313000D01*
X147510242Y-91163339D01*
X147298010Y-90649697D01*
X146905370Y-90256371D01*
X146392100Y-90043243D01*
X145836339Y-90042758D01*
X145322697Y-90254990D01*
X144929371Y-90647630D01*
X144716243Y-91160900D01*
X144716110Y-91313000D01*
X138475890Y-91313000D01*
X138476162Y-91000833D01*
X138334117Y-90657057D01*
X138071327Y-90393808D01*
X137727799Y-90251162D01*
X137428000Y-90250901D01*
X137428000Y-89373750D01*
X137583000Y-89373750D01*
X137583000Y-89614310D01*
X137679673Y-89847699D01*
X137858302Y-90026327D01*
X138091691Y-90123000D01*
X138382250Y-90123000D01*
X138541000Y-89964250D01*
X138541000Y-89215000D01*
X138795000Y-89215000D01*
X138795000Y-89964250D01*
X138953750Y-90123000D01*
X139244309Y-90123000D01*
X139477698Y-90026327D01*
X139656327Y-89847699D01*
X139671425Y-89811249D01*
X139885690Y-89900000D01*
X140176250Y-89900000D01*
X140335000Y-89741250D01*
X140335000Y-89140000D01*
X140589000Y-89140000D01*
X140589000Y-89741250D01*
X140747750Y-89900000D01*
X141038310Y-89900000D01*
X141271699Y-89803327D01*
X141450327Y-89624698D01*
X141547000Y-89391309D01*
X141547000Y-89298750D01*
X141388250Y-89140000D01*
X140589000Y-89140000D01*
X140335000Y-89140000D01*
X139535750Y-89140000D01*
X139460750Y-89215000D01*
X138795000Y-89215000D01*
X138541000Y-89215000D01*
X137741750Y-89215000D01*
X137583000Y-89373750D01*
X137428000Y-89373750D01*
X137428000Y-89093105D01*
X137569441Y-89002090D01*
X137656064Y-88875314D01*
X137741750Y-88961000D01*
X138541000Y-88961000D01*
X138541000Y-88941000D01*
X138795000Y-88941000D01*
X138795000Y-88961000D01*
X139594250Y-88961000D01*
X139665250Y-88890000D01*
X140335000Y-88890000D01*
X140335000Y-88868000D01*
X140589000Y-88868000D01*
X140589000Y-88890000D01*
X141388250Y-88890000D01*
X141547000Y-88731250D01*
X141547000Y-88638691D01*
X141450327Y-88405302D01*
X141438597Y-88393572D01*
X141545201Y-88437838D01*
X141917167Y-88438162D01*
X142260943Y-88296117D01*
X142524192Y-88033327D01*
X142666838Y-87689799D01*
X142666949Y-87561690D01*
X150015000Y-87561690D01*
X150015000Y-87852250D01*
X150173750Y-88011000D01*
X150775000Y-88011000D01*
X150775000Y-87211750D01*
X150616250Y-87053000D01*
X150523691Y-87053000D01*
X150290302Y-87149673D01*
X150111673Y-87328301D01*
X150015000Y-87561690D01*
X142666949Y-87561690D01*
X142667162Y-87317833D01*
X142525117Y-86974057D01*
X142262327Y-86710808D01*
X142229676Y-86697250D01*
X147707000Y-86697250D01*
X147707000Y-86937809D01*
X147803673Y-87171198D01*
X147982301Y-87349827D01*
X148215690Y-87446500D01*
X148431250Y-87446500D01*
X148590000Y-87287750D01*
X148590000Y-86538500D01*
X148844000Y-86538500D01*
X148844000Y-87287750D01*
X149002750Y-87446500D01*
X149218310Y-87446500D01*
X149451699Y-87349827D01*
X149630327Y-87171198D01*
X149727000Y-86937809D01*
X149727000Y-86697250D01*
X149568250Y-86538500D01*
X148844000Y-86538500D01*
X148590000Y-86538500D01*
X147865750Y-86538500D01*
X147707000Y-86697250D01*
X142229676Y-86697250D01*
X141918799Y-86568162D01*
X141546833Y-86567838D01*
X141216329Y-86704399D01*
X141163890Y-86668569D01*
X140912000Y-86617560D01*
X140012000Y-86617560D01*
X139776683Y-86661838D01*
X139745479Y-86681917D01*
X139721162Y-86552683D01*
X139582090Y-86336559D01*
X139369890Y-86191569D01*
X139118000Y-86140560D01*
X138357050Y-86140560D01*
X138334117Y-86085057D01*
X138308105Y-86059000D01*
X138382250Y-86059000D01*
X138541000Y-85900250D01*
X138541000Y-85151000D01*
X137741750Y-85151000D01*
X137583000Y-85309750D01*
X137583000Y-85550310D01*
X137604841Y-85603039D01*
X137428000Y-85426198D01*
X137428000Y-85029105D01*
X137569441Y-84938090D01*
X137656064Y-84811314D01*
X137741750Y-84897000D01*
X138541000Y-84897000D01*
X138541000Y-84877000D01*
X138795000Y-84877000D01*
X138795000Y-84897000D01*
X138815000Y-84897000D01*
X138815000Y-85151000D01*
X138795000Y-85151000D01*
X138795000Y-85900250D01*
X138953750Y-86059000D01*
X139244309Y-86059000D01*
X139477698Y-85962327D01*
X139656327Y-85783699D01*
X139716327Y-85638847D01*
X139885690Y-85709000D01*
X140176250Y-85709000D01*
X140335000Y-85550250D01*
X140335000Y-84949000D01*
X140315000Y-84949000D01*
X140315000Y-84699000D01*
X140335000Y-84699000D01*
X140335000Y-84677000D01*
X140589000Y-84677000D01*
X140589000Y-84699000D01*
X140609000Y-84699000D01*
X140609000Y-84949000D01*
X140589000Y-84949000D01*
X140589000Y-85550250D01*
X140747750Y-85709000D01*
X141038310Y-85709000D01*
X141217516Y-85634770D01*
X141545201Y-85770838D01*
X141917167Y-85771162D01*
X142260943Y-85629117D01*
X142524192Y-85366327D01*
X142666838Y-85022799D01*
X142667162Y-84650833D01*
X142525117Y-84307057D01*
X142492000Y-84273882D01*
X142492000Y-83620463D01*
X142524192Y-83588327D01*
X142666838Y-83244799D01*
X142667162Y-82872833D01*
X142525117Y-82529057D01*
X142262327Y-82265808D01*
X141918799Y-82123162D01*
X141546833Y-82122838D01*
X141397098Y-82184707D01*
X141397162Y-82110833D01*
X141255117Y-81767057D01*
X140992327Y-81503808D01*
X140648799Y-81361162D01*
X140444485Y-81360984D01*
X140444662Y-81158333D01*
X140302617Y-80814557D01*
X140039827Y-80551308D01*
X139936620Y-80508452D01*
X139936662Y-80459833D01*
X139794617Y-80116057D01*
X139531827Y-79852808D01*
X139188299Y-79710162D01*
X139116198Y-79710099D01*
X139027202Y-79494713D01*
X138764412Y-79231464D01*
X138476119Y-79111754D01*
X138476162Y-79062833D01*
X138334117Y-78719057D01*
X138071327Y-78455808D01*
X137727799Y-78313162D01*
X137355833Y-78312838D01*
X137012057Y-78454883D01*
X136748808Y-78717673D01*
X136606162Y-79061201D01*
X136606121Y-79108077D01*
X135147228Y-80566970D01*
X134112000Y-80566970D01*
X134112000Y-79502000D01*
X134101994Y-79452590D01*
X134073553Y-79410965D01*
X134031159Y-79383685D01*
X133985000Y-79375000D01*
X110710000Y-79375000D01*
X110710000Y-78122750D01*
X126677000Y-78122750D01*
X126677000Y-78215309D01*
X126773673Y-78448698D01*
X126952301Y-78627327D01*
X127185690Y-78724000D01*
X127476250Y-78724000D01*
X127635000Y-78565250D01*
X127635000Y-77964000D01*
X127889000Y-77964000D01*
X127889000Y-78565250D01*
X128047750Y-78724000D01*
X128338310Y-78724000D01*
X128571699Y-78627327D01*
X128750327Y-78448698D01*
X128847000Y-78215309D01*
X128847000Y-78122750D01*
X128688250Y-77964000D01*
X127889000Y-77964000D01*
X127635000Y-77964000D01*
X126835750Y-77964000D01*
X126677000Y-78122750D01*
X110710000Y-78122750D01*
X110710000Y-76512167D01*
X124921838Y-76512167D01*
X125063883Y-76855943D01*
X125326673Y-77119192D01*
X125670201Y-77261838D01*
X126042167Y-77262162D01*
X126385943Y-77120117D01*
X126407097Y-77099000D01*
X126903974Y-77099000D01*
X126773673Y-77229302D01*
X126677000Y-77462691D01*
X126677000Y-77555250D01*
X126835750Y-77714000D01*
X127635000Y-77714000D01*
X127635000Y-77692000D01*
X127889000Y-77692000D01*
X127889000Y-77714000D01*
X128688250Y-77714000D01*
X128847000Y-77555250D01*
X128847000Y-77462691D01*
X128750327Y-77229302D01*
X128609090Y-77088064D01*
X128663441Y-77053090D01*
X128808431Y-76840890D01*
X128859440Y-76589000D01*
X128859440Y-76089000D01*
X128815162Y-75853683D01*
X128676090Y-75637559D01*
X128463890Y-75492569D01*
X128212000Y-75441560D01*
X127312000Y-75441560D01*
X127076683Y-75485838D01*
X126931905Y-75579000D01*
X126431442Y-75579000D01*
X126387327Y-75534808D01*
X126043799Y-75392162D01*
X125671833Y-75391838D01*
X125328057Y-75533883D01*
X125064808Y-75796673D01*
X124922162Y-76140201D01*
X124921838Y-76512167D01*
X110710000Y-76512167D01*
X110710000Y-53422815D01*
X110864630Y-53422815D01*
X111188980Y-54207800D01*
X111789041Y-54808909D01*
X112573459Y-55134628D01*
X113422815Y-55135370D01*
X114207800Y-54811020D01*
X114808909Y-54210959D01*
X115134628Y-53426541D01*
X115135370Y-52577185D01*
X114811020Y-51792200D01*
X114210959Y-51191091D01*
X113426541Y-50865372D01*
X112577185Y-50864630D01*
X111792200Y-51188980D01*
X111191091Y-51789041D01*
X110865372Y-52573459D01*
X110864630Y-53422815D01*
X110710000Y-53422815D01*
X110710000Y-50710000D01*
X199263000Y-50710000D01*
X199263000Y-55438800D01*
G36*
X155969830Y-79146080D02*
X155983750Y-79160000D01*
X156026310Y-79160000D01*
X156030335Y-79158333D01*
X156100000Y-79172440D01*
X156400000Y-79172440D01*
X156503671Y-79152933D01*
X156600000Y-79172440D01*
X156900000Y-79172440D01*
X157003671Y-79152933D01*
X157100000Y-79172440D01*
X157400000Y-79172440D01*
X157503671Y-79152933D01*
X157600000Y-79172440D01*
X157827560Y-79172440D01*
X157827560Y-79400000D01*
X157847067Y-79503671D01*
X157827560Y-79600000D01*
X157827560Y-79900000D01*
X157847067Y-80003671D01*
X157827560Y-80100000D01*
X157827560Y-80400000D01*
X157847067Y-80503671D01*
X157827560Y-80600000D01*
X157827560Y-80900000D01*
X157847067Y-81003671D01*
X157827560Y-81100000D01*
X157827560Y-81400000D01*
X157847067Y-81503671D01*
X157827560Y-81600000D01*
X157827560Y-81900000D01*
X157847067Y-82003671D01*
X157827560Y-82100000D01*
X157827560Y-82400000D01*
X157847067Y-82503671D01*
X157827560Y-82600000D01*
X157827560Y-82900000D01*
X157847067Y-83003671D01*
X157827560Y-83100000D01*
X157827560Y-83400000D01*
X157847067Y-83503671D01*
X157827560Y-83600000D01*
X157827560Y-83900000D01*
X157847067Y-84003671D01*
X157827560Y-84100000D01*
X157827560Y-84400000D01*
X157847067Y-84503671D01*
X157827560Y-84600000D01*
X157827560Y-84827560D01*
X157600000Y-84827560D01*
X157496329Y-84847067D01*
X157400000Y-84827560D01*
X157100000Y-84827560D01*
X156996329Y-84847067D01*
X156900000Y-84827560D01*
X156600000Y-84827560D01*
X156496329Y-84847067D01*
X156400000Y-84827560D01*
X156100000Y-84827560D01*
X156028677Y-84840980D01*
X156026310Y-84840000D01*
X155983750Y-84840000D01*
X155972129Y-84851621D01*
X155864683Y-84871838D01*
X155750022Y-84945620D01*
X155651890Y-84878569D01*
X155530170Y-84853920D01*
X155516250Y-84840000D01*
X155473690Y-84840000D01*
X155469665Y-84841667D01*
X155400000Y-84827560D01*
X155100000Y-84827560D01*
X154996329Y-84847067D01*
X154900000Y-84827560D01*
X154600000Y-84827560D01*
X154496329Y-84847067D01*
X154400000Y-84827560D01*
X154100000Y-84827560D01*
X153996329Y-84847067D01*
X153900000Y-84827560D01*
X153600000Y-84827560D01*
X153496329Y-84847067D01*
X153400000Y-84827560D01*
X153225314Y-84827560D01*
X153436943Y-84740117D01*
X153700192Y-84477327D01*
X153842838Y-84133799D01*
X153842850Y-84120151D01*
X153855167Y-84120162D01*
X154198943Y-83978117D01*
X154462192Y-83715327D01*
X154604838Y-83371799D01*
X154605162Y-82999833D01*
X154463117Y-82656057D01*
X154200327Y-82392808D01*
X153856799Y-82250162D01*
X153484833Y-82249838D01*
X153141057Y-82391883D01*
X153042769Y-82490000D01*
X152154215Y-82490000D01*
X152172440Y-82400000D01*
X152172440Y-82100000D01*
X152152933Y-81996329D01*
X152172440Y-81900000D01*
X152172440Y-81600000D01*
X152152933Y-81496329D01*
X152172440Y-81400000D01*
X152172440Y-81100000D01*
X152152933Y-80996329D01*
X152172440Y-80900000D01*
X152172440Y-80600000D01*
X152152933Y-80496329D01*
X152172440Y-80400000D01*
X152172440Y-80100000D01*
X152152933Y-79996329D01*
X152172440Y-79900000D01*
X152172440Y-79600000D01*
X152167382Y-79573120D01*
X152202440Y-79400000D01*
X152202440Y-79172440D01*
X152400000Y-79172440D01*
X152503671Y-79152933D01*
X152600000Y-79172440D01*
X152900000Y-79172440D01*
X153003671Y-79152933D01*
X153100000Y-79172440D01*
X153400000Y-79172440D01*
X153503671Y-79152933D01*
X153600000Y-79172440D01*
X153810442Y-79172440D01*
X153751162Y-79315201D01*
X153750838Y-79687167D01*
X153892883Y-80030943D01*
X154155673Y-80294192D01*
X154499201Y-80436838D01*
X154871167Y-80437162D01*
X155214943Y-80295117D01*
X155478192Y-80032327D01*
X155620838Y-79688799D01*
X155620879Y-79641923D01*
X155787401Y-79475401D01*
X155952148Y-79228840D01*
X155968117Y-79148559D01*
X155968657Y-79145842D01*
X155969830Y-79146080D01*
X155969830Y-79146080D01*
G37*
X155969830Y-79146080D02*
X155983750Y-79160000D01*
X156026310Y-79160000D01*
X156030335Y-79158333D01*
X156100000Y-79172440D01*
X156400000Y-79172440D01*
X156503671Y-79152933D01*
X156600000Y-79172440D01*
X156900000Y-79172440D01*
X157003671Y-79152933D01*
X157100000Y-79172440D01*
X157400000Y-79172440D01*
X157503671Y-79152933D01*
X157600000Y-79172440D01*
X157827560Y-79172440D01*
X157827560Y-79400000D01*
X157847067Y-79503671D01*
X157827560Y-79600000D01*
X157827560Y-79900000D01*
X157847067Y-80003671D01*
X157827560Y-80100000D01*
X157827560Y-80400000D01*
X157847067Y-80503671D01*
X157827560Y-80600000D01*
X157827560Y-80900000D01*
X157847067Y-81003671D01*
X157827560Y-81100000D01*
X157827560Y-81400000D01*
X157847067Y-81503671D01*
X157827560Y-81600000D01*
X157827560Y-81900000D01*
X157847067Y-82003671D01*
X157827560Y-82100000D01*
X157827560Y-82400000D01*
X157847067Y-82503671D01*
X157827560Y-82600000D01*
X157827560Y-82900000D01*
X157847067Y-83003671D01*
X157827560Y-83100000D01*
X157827560Y-83400000D01*
X157847067Y-83503671D01*
X157827560Y-83600000D01*
X157827560Y-83900000D01*
X157847067Y-84003671D01*
X157827560Y-84100000D01*
X157827560Y-84400000D01*
X157847067Y-84503671D01*
X157827560Y-84600000D01*
X157827560Y-84827560D01*
X157600000Y-84827560D01*
X157496329Y-84847067D01*
X157400000Y-84827560D01*
X157100000Y-84827560D01*
X156996329Y-84847067D01*
X156900000Y-84827560D01*
X156600000Y-84827560D01*
X156496329Y-84847067D01*
X156400000Y-84827560D01*
X156100000Y-84827560D01*
X156028677Y-84840980D01*
X156026310Y-84840000D01*
X155983750Y-84840000D01*
X155972129Y-84851621D01*
X155864683Y-84871838D01*
X155750022Y-84945620D01*
X155651890Y-84878569D01*
X155530170Y-84853920D01*
X155516250Y-84840000D01*
X155473690Y-84840000D01*
X155469665Y-84841667D01*
X155400000Y-84827560D01*
X155100000Y-84827560D01*
X154996329Y-84847067D01*
X154900000Y-84827560D01*
X154600000Y-84827560D01*
X154496329Y-84847067D01*
X154400000Y-84827560D01*
X154100000Y-84827560D01*
X153996329Y-84847067D01*
X153900000Y-84827560D01*
X153600000Y-84827560D01*
X153496329Y-84847067D01*
X153400000Y-84827560D01*
X153225314Y-84827560D01*
X153436943Y-84740117D01*
X153700192Y-84477327D01*
X153842838Y-84133799D01*
X153842850Y-84120151D01*
X153855167Y-84120162D01*
X154198943Y-83978117D01*
X154462192Y-83715327D01*
X154604838Y-83371799D01*
X154605162Y-82999833D01*
X154463117Y-82656057D01*
X154200327Y-82392808D01*
X153856799Y-82250162D01*
X153484833Y-82249838D01*
X153141057Y-82391883D01*
X153042769Y-82490000D01*
X152154215Y-82490000D01*
X152172440Y-82400000D01*
X152172440Y-82100000D01*
X152152933Y-81996329D01*
X152172440Y-81900000D01*
X152172440Y-81600000D01*
X152152933Y-81496329D01*
X152172440Y-81400000D01*
X152172440Y-81100000D01*
X152152933Y-80996329D01*
X152172440Y-80900000D01*
X152172440Y-80600000D01*
X152152933Y-80496329D01*
X152172440Y-80400000D01*
X152172440Y-80100000D01*
X152152933Y-79996329D01*
X152172440Y-79900000D01*
X152172440Y-79600000D01*
X152167382Y-79573120D01*
X152202440Y-79400000D01*
X152202440Y-79172440D01*
X152400000Y-79172440D01*
X152503671Y-79152933D01*
X152600000Y-79172440D01*
X152900000Y-79172440D01*
X153003671Y-79152933D01*
X153100000Y-79172440D01*
X153400000Y-79172440D01*
X153503671Y-79152933D01*
X153600000Y-79172440D01*
X153810442Y-79172440D01*
X153751162Y-79315201D01*
X153750838Y-79687167D01*
X153892883Y-80030943D01*
X154155673Y-80294192D01*
X154499201Y-80436838D01*
X154871167Y-80437162D01*
X155214943Y-80295117D01*
X155478192Y-80032327D01*
X155620838Y-79688799D01*
X155620879Y-79641923D01*
X155787401Y-79475401D01*
X155952148Y-79228840D01*
X155968117Y-79148559D01*
X155968657Y-79145842D01*
X155969830Y-79146080D01*
G36*
X118968808Y-80178173D02*
X118826162Y-80521701D01*
X118825838Y-80893667D01*
X118967883Y-81237443D01*
X119230673Y-81500692D01*
X119300999Y-81529894D01*
X119300999Y-81932501D01*
X119358851Y-82223340D01*
X119523598Y-82469902D01*
X120268097Y-83214401D01*
X120514659Y-83379148D01*
X120805498Y-83437000D01*
X132173744Y-83437000D01*
X132096000Y-83624690D01*
X132096000Y-83915250D01*
X132254750Y-84074000D01*
X132856000Y-84074000D01*
X132856000Y-84054000D01*
X133106000Y-84054000D01*
X133106000Y-84074000D01*
X133128000Y-84074000D01*
X133128000Y-84328000D01*
X133106000Y-84328000D01*
X133106000Y-85127250D01*
X133223000Y-85244250D01*
X133223000Y-87094750D01*
X133106000Y-87211750D01*
X133106000Y-88011000D01*
X133128000Y-88011000D01*
X133128000Y-88265000D01*
X133106000Y-88265000D01*
X133106000Y-89064250D01*
X133223000Y-89181250D01*
X133223000Y-90176359D01*
X133032697Y-90254990D01*
X132639371Y-90647630D01*
X132426243Y-91160900D01*
X132425758Y-91716661D01*
X132637990Y-92230303D01*
X133030630Y-92623629D01*
X133238512Y-92709949D01*
X133032697Y-92794990D01*
X132639371Y-93187630D01*
X132426243Y-93700900D01*
X132425758Y-94256661D01*
X132637990Y-94770303D01*
X133030630Y-95163629D01*
X133238512Y-95249949D01*
X133032697Y-95334990D01*
X132639371Y-95727630D01*
X132426243Y-96240900D01*
X132425758Y-96796661D01*
X132637990Y-97310303D01*
X133030630Y-97703629D01*
X133238512Y-97789949D01*
X133032697Y-97874990D01*
X132639371Y-98267630D01*
X132426243Y-98780900D01*
X132425758Y-99336661D01*
X132637990Y-99850303D01*
X133030630Y-100243629D01*
X133543900Y-100456757D01*
X134099661Y-100457242D01*
X134613303Y-100245010D01*
X135006629Y-99852370D01*
X135219757Y-99339100D01*
X135220242Y-98783339D01*
X135008010Y-98269697D01*
X134615370Y-97876371D01*
X134407488Y-97790051D01*
X134613303Y-97705010D01*
X135006629Y-97312370D01*
X135219757Y-96799100D01*
X135220242Y-96243339D01*
X135008010Y-95729697D01*
X134615370Y-95336371D01*
X134407488Y-95250051D01*
X134613303Y-95165010D01*
X135006629Y-94772370D01*
X135219757Y-94259100D01*
X135220242Y-93703339D01*
X135008010Y-93189697D01*
X134615370Y-92796371D01*
X134407488Y-92710051D01*
X134613303Y-92625010D01*
X135006629Y-92232370D01*
X135071975Y-92075000D01*
X135908000Y-92075000D01*
X135908000Y-94885000D01*
X135965852Y-95175839D01*
X136130599Y-95422401D01*
X136749599Y-96041401D01*
X136996160Y-96206148D01*
X137287000Y-96264000D01*
X140528198Y-96264000D01*
X141480000Y-97215802D01*
X141480000Y-98298000D01*
X141537852Y-98588839D01*
X141702599Y-98835401D01*
X142464599Y-99597401D01*
X142711161Y-99762148D01*
X143002000Y-99820000D01*
X144915469Y-99820000D01*
X144927990Y-99850303D01*
X145320630Y-100243629D01*
X145833900Y-100456757D01*
X146389661Y-100457242D01*
X146903303Y-100245010D01*
X147296629Y-99852370D01*
X147509757Y-99339100D01*
X147510242Y-98783339D01*
X147298010Y-98269697D01*
X146905370Y-97876371D01*
X146697488Y-97790051D01*
X146903303Y-97705010D01*
X147296629Y-97312370D01*
X147509757Y-96799100D01*
X147510242Y-96243339D01*
X147298010Y-95729697D01*
X146905370Y-95336371D01*
X146713273Y-95256605D01*
X146844143Y-95202397D01*
X146913608Y-94960213D01*
X146113000Y-94159605D01*
X145312392Y-94960213D01*
X145381857Y-95202397D01*
X145522318Y-95252509D01*
X145322697Y-95334990D01*
X144929371Y-95727630D01*
X144915930Y-95760000D01*
X143062802Y-95760000D01*
X141634401Y-94331599D01*
X141387839Y-94166852D01*
X141097000Y-94109000D01*
X138490802Y-94109000D01*
X138301000Y-93919198D01*
X138301000Y-93772302D01*
X144703856Y-93772302D01*
X144731638Y-94327368D01*
X144890603Y-94711143D01*
X145132787Y-94780608D01*
X145933395Y-93980000D01*
X146292605Y-93980000D01*
X147093213Y-94780608D01*
X147335397Y-94711143D01*
X147522144Y-94187698D01*
X147494362Y-93632632D01*
X147335397Y-93248857D01*
X147093213Y-93179392D01*
X146292605Y-93980000D01*
X145933395Y-93980000D01*
X145132787Y-93179392D01*
X144890603Y-93248857D01*
X144703856Y-93772302D01*
X138301000Y-93772302D01*
X138301000Y-92075000D01*
X144863820Y-92075000D01*
X144927990Y-92230303D01*
X145320630Y-92623629D01*
X145512727Y-92703395D01*
X145381857Y-92757603D01*
X145312392Y-92999787D01*
X146113000Y-93800395D01*
X146913608Y-92999787D01*
X146844143Y-92757603D01*
X146703682Y-92707491D01*
X146903303Y-92625010D01*
X147296629Y-92232370D01*
X147361975Y-92075000D01*
X147955000Y-92075000D01*
X147955000Y-100203000D01*
X147965006Y-100252410D01*
X147993447Y-100294035D01*
X148035841Y-100321315D01*
X148082000Y-100330000D01*
X171704000Y-100330000D01*
X171753410Y-100319994D01*
X171795035Y-100291553D01*
X171822315Y-100249159D01*
X171831000Y-100203000D01*
X171831000Y-99802015D01*
X171972110Y-99898431D01*
X172224000Y-99949440D01*
X173724000Y-99949440D01*
X173959317Y-99905162D01*
X174175441Y-99766090D01*
X174320431Y-99553890D01*
X174356867Y-99373962D01*
X174628701Y-99486838D01*
X175000667Y-99487162D01*
X175344443Y-99345117D01*
X175607692Y-99082327D01*
X175750338Y-98738799D01*
X175750662Y-98366833D01*
X175608617Y-98023057D01*
X175345827Y-97759808D01*
X175002299Y-97617162D01*
X174630333Y-97616838D01*
X174357789Y-97729451D01*
X174327162Y-97566683D01*
X174188090Y-97350559D01*
X173975890Y-97205569D01*
X173724000Y-97154560D01*
X172224000Y-97154560D01*
X171988683Y-97198838D01*
X171831000Y-97300304D01*
X171831000Y-96502015D01*
X171972110Y-96598431D01*
X172224000Y-96649440D01*
X173724000Y-96649440D01*
X173959317Y-96605162D01*
X174175441Y-96466090D01*
X174320431Y-96253890D01*
X174371440Y-96002000D01*
X174371440Y-94502000D01*
X174327162Y-94266683D01*
X174188090Y-94050559D01*
X173975890Y-93905569D01*
X173724000Y-93854560D01*
X172224000Y-93854560D01*
X171988683Y-93898838D01*
X171831000Y-94000304D01*
X171831000Y-93403167D01*
X178007838Y-93403167D01*
X178149883Y-93746943D01*
X178412673Y-94010192D01*
X178756201Y-94152838D01*
X179055560Y-94153099D01*
X179055560Y-94193000D01*
X179082855Y-94338059D01*
X178993683Y-94354838D01*
X178777559Y-94493910D01*
X178632569Y-94706110D01*
X178581560Y-94958000D01*
X178581560Y-96558000D01*
X178625838Y-96793317D01*
X178764910Y-97009441D01*
X178837822Y-97059259D01*
X178770162Y-97222201D01*
X178769838Y-97594167D01*
X178911883Y-97937943D01*
X179174673Y-98201192D01*
X179518201Y-98343838D01*
X179890167Y-98344162D01*
X180233943Y-98202117D01*
X180497192Y-97939327D01*
X180639838Y-97595799D01*
X180640162Y-97223833D01*
X180582772Y-97084938D01*
X180680441Y-97022090D01*
X180825431Y-96809890D01*
X180876440Y-96558000D01*
X180876440Y-96043750D01*
X181594000Y-96043750D01*
X181594000Y-96684310D01*
X181690673Y-96917699D01*
X181869302Y-97096327D01*
X182102691Y-97193000D01*
X182443250Y-97193000D01*
X182602000Y-97034250D01*
X182602000Y-95885000D01*
X182856000Y-95885000D01*
X182856000Y-97034250D01*
X183014750Y-97193000D01*
X183355309Y-97193000D01*
X183588698Y-97096327D01*
X183767327Y-96917699D01*
X183864000Y-96684310D01*
X183864000Y-96043750D01*
X183705250Y-95885000D01*
X182856000Y-95885000D01*
X182602000Y-95885000D01*
X181752750Y-95885000D01*
X181594000Y-96043750D01*
X180876440Y-96043750D01*
X180876440Y-94958000D01*
X180854320Y-94840440D01*
X181203000Y-94840440D01*
X181438317Y-94796162D01*
X181602492Y-94690518D01*
X181637836Y-94725862D01*
X181594000Y-94831690D01*
X181594000Y-95472250D01*
X181752750Y-95631000D01*
X182602000Y-95631000D01*
X182602000Y-94693250D01*
X182626000Y-94669250D01*
X182626000Y-93320000D01*
X182606000Y-93320000D01*
X182606000Y-93066000D01*
X182626000Y-93066000D01*
X182626000Y-91716750D01*
X182467250Y-91558000D01*
X181876690Y-91558000D01*
X181643301Y-91654673D01*
X181601340Y-91696634D01*
X181454890Y-91596569D01*
X181203000Y-91545560D01*
X179703000Y-91545560D01*
X179467683Y-91589838D01*
X179251559Y-91728910D01*
X179106569Y-91941110D01*
X179055560Y-92193000D01*
X179055560Y-92283097D01*
X178757833Y-92282838D01*
X178414057Y-92424883D01*
X178150808Y-92687673D01*
X178008162Y-93031201D01*
X178007838Y-93403167D01*
X171831000Y-93403167D01*
X171831000Y-92190836D01*
X171935673Y-92295692D01*
X172279201Y-92438338D01*
X172651167Y-92438662D01*
X172994943Y-92296617D01*
X173258192Y-92033827D01*
X173400838Y-91690299D01*
X173401162Y-91318333D01*
X173259117Y-90974557D01*
X173256864Y-90972300D01*
X173451691Y-91053000D01*
X173692250Y-91053000D01*
X173851000Y-90894250D01*
X173851000Y-90170000D01*
X173831000Y-90170000D01*
X173831000Y-89916000D01*
X173851000Y-89916000D01*
X173851000Y-89896000D01*
X174105000Y-89896000D01*
X174105000Y-89916000D01*
X174125000Y-89916000D01*
X174125000Y-90170000D01*
X174105000Y-90170000D01*
X174105000Y-90894250D01*
X174263750Y-91053000D01*
X174504309Y-91053000D01*
X174737698Y-90956327D01*
X174916327Y-90777699D01*
X175013000Y-90544310D01*
X175013000Y-90328750D01*
X174854252Y-90170002D01*
X174936892Y-90170002D01*
X175200201Y-90279338D01*
X175572167Y-90279662D01*
X175915943Y-90137617D01*
X176179192Y-89874827D01*
X176321838Y-89531299D01*
X176322162Y-89159333D01*
X176244263Y-88970803D01*
X176308431Y-88876890D01*
X176359440Y-88625000D01*
X176359440Y-88222000D01*
X176464000Y-88222000D01*
X176464000Y-89101250D01*
X176622750Y-89260000D01*
X176788310Y-89260000D01*
X177021699Y-89163327D01*
X177200327Y-88984698D01*
X177297000Y-88751309D01*
X177297000Y-88380750D01*
X177138250Y-88222000D01*
X176464000Y-88222000D01*
X176359440Y-88222000D01*
X176359440Y-87948000D01*
X176464000Y-87948000D01*
X176464000Y-87968000D01*
X177138250Y-87968000D01*
X177297000Y-87809250D01*
X177297000Y-87438691D01*
X177200327Y-87205302D01*
X177173776Y-87178750D01*
X180218000Y-87178750D01*
X180218000Y-88019309D01*
X180314673Y-88252698D01*
X180493301Y-88431327D01*
X180726690Y-88528000D01*
X182467250Y-88528000D01*
X182626000Y-88369250D01*
X182626000Y-87020000D01*
X180376750Y-87020000D01*
X180218000Y-87178750D01*
X177173776Y-87178750D01*
X177021699Y-87026673D01*
X176947435Y-86995912D01*
X177113441Y-86889090D01*
X177258431Y-86676890D01*
X177309440Y-86425000D01*
X177309440Y-85365000D01*
X177265162Y-85129683D01*
X177126090Y-84913559D01*
X177038557Y-84853750D01*
X179128000Y-84853750D01*
X179128000Y-84946309D01*
X179224673Y-85179698D01*
X179403301Y-85358327D01*
X179636690Y-85455000D01*
X179927250Y-85455000D01*
X180086000Y-85296250D01*
X180086000Y-84695000D01*
X179286750Y-84695000D01*
X179128000Y-84853750D01*
X177038557Y-84853750D01*
X176913890Y-84768569D01*
X176662000Y-84717560D01*
X176012000Y-84717560D01*
X175776683Y-84761838D01*
X175768000Y-84767425D01*
X175768000Y-81632500D01*
X179317901Y-81632500D01*
X179278162Y-81728201D01*
X179277838Y-82100167D01*
X179368397Y-82319336D01*
X179311559Y-82355910D01*
X179166569Y-82568110D01*
X179115560Y-82820000D01*
X179115560Y-83320000D01*
X179159838Y-83555317D01*
X179298910Y-83771441D01*
X179367006Y-83817969D01*
X179224673Y-83960302D01*
X179128000Y-84193691D01*
X179128000Y-84286250D01*
X179286750Y-84445000D01*
X180086000Y-84445000D01*
X180086000Y-84423000D01*
X180340000Y-84423000D01*
X180340000Y-84445000D01*
X181139250Y-84445000D01*
X181298000Y-84286250D01*
X181298000Y-84193691D01*
X181201327Y-83960302D01*
X181060090Y-83819064D01*
X181114441Y-83784090D01*
X181259431Y-83571890D01*
X181310440Y-83320000D01*
X181310440Y-82820000D01*
X181266162Y-82584683D01*
X181127090Y-82368559D01*
X181056965Y-82320645D01*
X181147838Y-82101799D01*
X181148162Y-81729833D01*
X181107945Y-81632500D01*
X182746901Y-81632500D01*
X182707162Y-81728201D01*
X182706838Y-82100167D01*
X182775036Y-82265218D01*
X182670569Y-82418110D01*
X182619560Y-82670000D01*
X182619560Y-83470000D01*
X182663838Y-83705317D01*
X182730329Y-83808646D01*
X182728673Y-83810302D01*
X182632000Y-84043691D01*
X182632000Y-84284250D01*
X182790750Y-84443000D01*
X183515000Y-84443000D01*
X183515000Y-84423000D01*
X183769000Y-84423000D01*
X183769000Y-84443000D01*
X183789000Y-84443000D01*
X183789000Y-84697000D01*
X183769000Y-84697000D01*
X183769000Y-84717000D01*
X183515000Y-84717000D01*
X183515000Y-84697000D01*
X182790750Y-84697000D01*
X182632000Y-84855750D01*
X182632000Y-85096309D01*
X182698975Y-85258000D01*
X182625998Y-85258000D01*
X182625998Y-85416748D01*
X182467250Y-85258000D01*
X181123025Y-85258000D01*
X181201327Y-85179698D01*
X181298000Y-84946309D01*
X181298000Y-84853750D01*
X181139250Y-84695000D01*
X180340000Y-84695000D01*
X180340000Y-85296250D01*
X180445862Y-85402112D01*
X180314673Y-85533302D01*
X180218000Y-85766691D01*
X180218000Y-86607250D01*
X180376750Y-86766000D01*
X182626000Y-86766000D01*
X182626000Y-86746000D01*
X182880000Y-86746000D01*
X182880000Y-86766000D01*
X185129250Y-86766000D01*
X185288000Y-86607250D01*
X185288000Y-85932000D01*
X185404250Y-85932000D01*
X185562998Y-85773252D01*
X185562998Y-85932000D01*
X185665293Y-85932000D01*
X185654560Y-85985000D01*
X185654560Y-86735000D01*
X185698838Y-86970317D01*
X185837910Y-87186441D01*
X186025982Y-87314945D01*
X186164599Y-87522401D01*
X186563000Y-87920802D01*
X186563000Y-88265000D01*
X185179025Y-88265000D01*
X185191327Y-88252698D01*
X185288000Y-88019309D01*
X185288000Y-87178750D01*
X185129250Y-87020000D01*
X182880000Y-87020000D01*
X182880000Y-88369250D01*
X183038750Y-88528000D01*
X183896000Y-88528000D01*
X183896000Y-91687974D01*
X183862699Y-91654673D01*
X183629310Y-91558000D01*
X183038750Y-91558000D01*
X182880000Y-91716750D01*
X182880000Y-93066000D01*
X182900000Y-93066000D01*
X182900000Y-93320000D01*
X182880000Y-93320000D01*
X182880000Y-94457750D01*
X182856000Y-94481750D01*
X182856000Y-95631000D01*
X183705250Y-95631000D01*
X183864000Y-95472250D01*
X183864000Y-94831690D01*
X183828326Y-94745565D01*
X183862699Y-94731327D01*
X183896000Y-94698026D01*
X183896000Y-97282000D01*
X181356000Y-97282000D01*
X181306590Y-97292006D01*
X181264965Y-97320447D01*
X181237685Y-97362841D01*
X181229000Y-97409000D01*
X181229000Y-101565000D01*
X137172568Y-101565000D01*
X137160000Y-101562500D01*
X137147432Y-101565000D01*
X127680976Y-101565000D01*
X127681162Y-101351333D01*
X127539117Y-101007557D01*
X127368232Y-100836374D01*
X127471160Y-100905148D01*
X127762000Y-100963000D01*
X128778000Y-100963000D01*
X129068839Y-100905148D01*
X129315401Y-100740401D01*
X129950401Y-100105401D01*
X130115148Y-99858839D01*
X130173000Y-99568000D01*
X130173000Y-98202105D01*
X130314441Y-98111090D01*
X130459431Y-97898890D01*
X130510440Y-97647000D01*
X130510440Y-97147000D01*
X130466162Y-96911683D01*
X130327090Y-96695559D01*
X130257289Y-96647866D01*
X130314441Y-96611090D01*
X130459431Y-96398890D01*
X130510440Y-96147000D01*
X130510440Y-95647000D01*
X130466162Y-95411683D01*
X130327090Y-95195559D01*
X130298045Y-95175713D01*
X130347838Y-95055799D01*
X130348162Y-94683833D01*
X130206117Y-94340057D01*
X129943327Y-94076808D01*
X129599799Y-93934162D01*
X129227833Y-93933838D01*
X128884057Y-94075883D01*
X128620808Y-94338673D01*
X128478162Y-94682201D01*
X128477838Y-95054167D01*
X128526943Y-95173011D01*
X128511559Y-95182910D01*
X128366569Y-95395110D01*
X128315560Y-95647000D01*
X128315560Y-96147000D01*
X128359838Y-96382317D01*
X128498910Y-96598441D01*
X128568711Y-96646134D01*
X128511559Y-96682910D01*
X128366569Y-96895110D01*
X128315560Y-97147000D01*
X128315560Y-97553113D01*
X128272090Y-97485559D01*
X128059890Y-97340569D01*
X127808000Y-97289560D01*
X127208000Y-97289560D01*
X126972683Y-97333838D01*
X126873472Y-97397678D01*
X126789890Y-97340569D01*
X126538000Y-97289560D01*
X125938000Y-97289560D01*
X125702683Y-97333838D01*
X125603472Y-97397678D01*
X125519890Y-97340569D01*
X125268000Y-97289560D01*
X124668000Y-97289560D01*
X124432683Y-97333838D01*
X124333472Y-97397678D01*
X124249890Y-97340569D01*
X123998000Y-97289560D01*
X123398000Y-97289560D01*
X123162683Y-97333838D01*
X122946559Y-97472910D01*
X122801569Y-97685110D01*
X122750560Y-97937000D01*
X122750560Y-99487000D01*
X122794838Y-99722317D01*
X122843063Y-99797261D01*
X122142401Y-99096599D01*
X121895839Y-98931852D01*
X121607214Y-98874440D01*
X121548090Y-98782559D01*
X121335890Y-98637569D01*
X121084000Y-98586560D01*
X120184000Y-98586560D01*
X119948683Y-98630838D01*
X119732559Y-98769910D01*
X119587569Y-98982110D01*
X119536560Y-99234000D01*
X119536560Y-99724681D01*
X119335890Y-99587569D01*
X119084000Y-99536560D01*
X118184000Y-99536560D01*
X117948683Y-99580838D01*
X117732559Y-99719910D01*
X117698439Y-99769847D01*
X117407799Y-99649162D01*
X117035833Y-99648838D01*
X116692057Y-99790883D01*
X116428808Y-100053673D01*
X116286162Y-100397201D01*
X116285838Y-100769167D01*
X116427883Y-101112943D01*
X116690673Y-101376192D01*
X117034201Y-101518838D01*
X117406167Y-101519162D01*
X117696570Y-101399170D01*
X117719910Y-101435441D01*
X117932110Y-101580431D01*
X118184000Y-101631440D01*
X119084000Y-101631440D01*
X119319317Y-101587162D01*
X119535441Y-101448090D01*
X119536560Y-101446452D01*
X119536560Y-101934000D01*
X119580838Y-102169317D01*
X119719910Y-102385441D01*
X119932110Y-102530431D01*
X120184000Y-102581440D01*
X121084000Y-102581440D01*
X121319317Y-102537162D01*
X121535441Y-102398090D01*
X121606563Y-102294000D01*
X123704541Y-102294000D01*
X123739173Y-102328692D01*
X124082701Y-102471338D01*
X124454667Y-102471662D01*
X124681328Y-102378008D01*
X124838099Y-102612633D01*
X125542867Y-103317401D01*
X125789428Y-103482148D01*
X125837682Y-103491746D01*
X126080268Y-103540000D01*
X181229000Y-103540000D01*
X181229000Y-104290000D01*
X110710000Y-104290000D01*
X110710000Y-102422815D01*
X110864630Y-102422815D01*
X111188980Y-103207800D01*
X111789041Y-103808909D01*
X112573459Y-104134628D01*
X113422815Y-104135370D01*
X114207800Y-103811020D01*
X114808909Y-103210959D01*
X115134628Y-102426541D01*
X115135370Y-101577185D01*
X114811020Y-100792200D01*
X114210959Y-100191091D01*
X113426541Y-99865372D01*
X112577185Y-99864630D01*
X111792200Y-100188980D01*
X111191091Y-100789041D01*
X110865372Y-101573459D01*
X110864630Y-102422815D01*
X110710000Y-102422815D01*
X110710000Y-92146040D01*
X114542827Y-92146040D01*
X114694747Y-92513714D01*
X114975806Y-92795264D01*
X115343215Y-92947826D01*
X115741040Y-92948173D01*
X116108714Y-92796253D01*
X116390264Y-92515194D01*
X116542826Y-92147785D01*
X116542827Y-92146040D01*
X119422827Y-92146040D01*
X119574747Y-92513714D01*
X119855806Y-92795264D01*
X120223215Y-92947826D01*
X120621040Y-92948173D01*
X120988714Y-92796253D01*
X121248419Y-92537000D01*
X122750560Y-92537000D01*
X122750560Y-94087000D01*
X122794838Y-94322317D01*
X122933910Y-94538441D01*
X123146110Y-94683431D01*
X123398000Y-94734440D01*
X123998000Y-94734440D01*
X124233317Y-94690162D01*
X124323980Y-94631822D01*
X124541690Y-94722000D01*
X124682250Y-94722000D01*
X124841000Y-94563250D01*
X124841000Y-93439000D01*
X124821000Y-93439000D01*
X124821000Y-93185000D01*
X124841000Y-93185000D01*
X124841000Y-92060750D01*
X125095000Y-92060750D01*
X125095000Y-93185000D01*
X125115000Y-93185000D01*
X125115000Y-93439000D01*
X125095000Y-93439000D01*
X125095000Y-94563250D01*
X125253750Y-94722000D01*
X125303127Y-94722000D01*
X125302838Y-95054167D01*
X125444883Y-95397943D01*
X125707673Y-95661192D01*
X126051201Y-95803838D01*
X126423167Y-95804162D01*
X126766943Y-95662117D01*
X127030192Y-95399327D01*
X127172838Y-95055799D01*
X127173124Y-94727377D01*
X127208000Y-94734440D01*
X127808000Y-94734440D01*
X128043317Y-94690162D01*
X128259441Y-94551090D01*
X128404431Y-94338890D01*
X128455440Y-94087000D01*
X128455440Y-92537000D01*
X128411162Y-92301683D01*
X128287692Y-92109805D01*
X128300192Y-92097327D01*
X128442838Y-91753799D01*
X128443162Y-91381833D01*
X128301117Y-91038057D01*
X128038327Y-90774808D01*
X127694799Y-90632162D01*
X127322833Y-90631838D01*
X126979057Y-90773883D01*
X126715808Y-91036673D01*
X126573162Y-91380201D01*
X126572838Y-91752167D01*
X126637973Y-91909805D01*
X126538000Y-91889560D01*
X125938000Y-91889560D01*
X125702683Y-91933838D01*
X125612020Y-91992178D01*
X125394310Y-91902000D01*
X125253750Y-91902000D01*
X125095000Y-92060750D01*
X124841000Y-92060750D01*
X124682250Y-91902000D01*
X124632930Y-91902000D01*
X124633162Y-91635833D01*
X124491117Y-91292057D01*
X124228327Y-91028808D01*
X123884799Y-90886162D01*
X123512833Y-90885838D01*
X123169057Y-91027883D01*
X122905808Y-91290673D01*
X122763162Y-91634201D01*
X122762838Y-92006167D01*
X122849257Y-92215317D01*
X122801569Y-92285110D01*
X122750560Y-92537000D01*
X121248419Y-92537000D01*
X121270264Y-92515194D01*
X121422826Y-92147785D01*
X121423173Y-91749960D01*
X121271253Y-91382286D01*
X120990194Y-91100736D01*
X120622785Y-90948174D01*
X120224960Y-90947827D01*
X119857286Y-91099747D01*
X119575736Y-91380806D01*
X119423174Y-91748215D01*
X119422827Y-92146040D01*
X116542827Y-92146040D01*
X116543173Y-91749960D01*
X116391253Y-91382286D01*
X116110194Y-91100736D01*
X115742785Y-90948174D01*
X115344960Y-90947827D01*
X114977286Y-91099747D01*
X114695736Y-91380806D01*
X114543174Y-91748215D01*
X114542827Y-92146040D01*
X110710000Y-92146040D01*
X110710000Y-88423750D01*
X132096000Y-88423750D01*
X132096000Y-88714310D01*
X132192673Y-88947699D01*
X132371302Y-89126327D01*
X132604691Y-89223000D01*
X132697250Y-89223000D01*
X132856000Y-89064250D01*
X132856000Y-88265000D01*
X132254750Y-88265000D01*
X132096000Y-88423750D01*
X110710000Y-88423750D01*
X110710000Y-87561690D01*
X132096000Y-87561690D01*
X132096000Y-87852250D01*
X132254750Y-88011000D01*
X132856000Y-88011000D01*
X132856000Y-87211750D01*
X132697250Y-87053000D01*
X132604691Y-87053000D01*
X132371302Y-87149673D01*
X132192673Y-87328301D01*
X132096000Y-87561690D01*
X110710000Y-87561690D01*
X110710000Y-84486750D01*
X132096000Y-84486750D01*
X132096000Y-84777310D01*
X132192673Y-85010699D01*
X132371302Y-85189327D01*
X132604691Y-85286000D01*
X132697250Y-85286000D01*
X132856000Y-85127250D01*
X132856000Y-84328000D01*
X132254750Y-84328000D01*
X132096000Y-84486750D01*
X110710000Y-84486750D01*
X110710000Y-80137000D01*
X119010053Y-80137000D01*
X118968808Y-80178173D01*
X118968808Y-80178173D01*
G37*
X118968808Y-80178173D02*
X118826162Y-80521701D01*
X118825838Y-80893667D01*
X118967883Y-81237443D01*
X119230673Y-81500692D01*
X119300999Y-81529894D01*
X119300999Y-81932501D01*
X119358851Y-82223340D01*
X119523598Y-82469902D01*
X120268097Y-83214401D01*
X120514659Y-83379148D01*
X120805498Y-83437000D01*
X132173744Y-83437000D01*
X132096000Y-83624690D01*
X132096000Y-83915250D01*
X132254750Y-84074000D01*
X132856000Y-84074000D01*
X132856000Y-84054000D01*
X133106000Y-84054000D01*
X133106000Y-84074000D01*
X133128000Y-84074000D01*
X133128000Y-84328000D01*
X133106000Y-84328000D01*
X133106000Y-85127250D01*
X133223000Y-85244250D01*
X133223000Y-87094750D01*
X133106000Y-87211750D01*
X133106000Y-88011000D01*
X133128000Y-88011000D01*
X133128000Y-88265000D01*
X133106000Y-88265000D01*
X133106000Y-89064250D01*
X133223000Y-89181250D01*
X133223000Y-90176359D01*
X133032697Y-90254990D01*
X132639371Y-90647630D01*
X132426243Y-91160900D01*
X132425758Y-91716661D01*
X132637990Y-92230303D01*
X133030630Y-92623629D01*
X133238512Y-92709949D01*
X133032697Y-92794990D01*
X132639371Y-93187630D01*
X132426243Y-93700900D01*
X132425758Y-94256661D01*
X132637990Y-94770303D01*
X133030630Y-95163629D01*
X133238512Y-95249949D01*
X133032697Y-95334990D01*
X132639371Y-95727630D01*
X132426243Y-96240900D01*
X132425758Y-96796661D01*
X132637990Y-97310303D01*
X133030630Y-97703629D01*
X133238512Y-97789949D01*
X133032697Y-97874990D01*
X132639371Y-98267630D01*
X132426243Y-98780900D01*
X132425758Y-99336661D01*
X132637990Y-99850303D01*
X133030630Y-100243629D01*
X133543900Y-100456757D01*
X134099661Y-100457242D01*
X134613303Y-100245010D01*
X135006629Y-99852370D01*
X135219757Y-99339100D01*
X135220242Y-98783339D01*
X135008010Y-98269697D01*
X134615370Y-97876371D01*
X134407488Y-97790051D01*
X134613303Y-97705010D01*
X135006629Y-97312370D01*
X135219757Y-96799100D01*
X135220242Y-96243339D01*
X135008010Y-95729697D01*
X134615370Y-95336371D01*
X134407488Y-95250051D01*
X134613303Y-95165010D01*
X135006629Y-94772370D01*
X135219757Y-94259100D01*
X135220242Y-93703339D01*
X135008010Y-93189697D01*
X134615370Y-92796371D01*
X134407488Y-92710051D01*
X134613303Y-92625010D01*
X135006629Y-92232370D01*
X135071975Y-92075000D01*
X135908000Y-92075000D01*
X135908000Y-94885000D01*
X135965852Y-95175839D01*
X136130599Y-95422401D01*
X136749599Y-96041401D01*
X136996160Y-96206148D01*
X137287000Y-96264000D01*
X140528198Y-96264000D01*
X141480000Y-97215802D01*
X141480000Y-98298000D01*
X141537852Y-98588839D01*
X141702599Y-98835401D01*
X142464599Y-99597401D01*
X142711161Y-99762148D01*
X143002000Y-99820000D01*
X144915469Y-99820000D01*
X144927990Y-99850303D01*
X145320630Y-100243629D01*
X145833900Y-100456757D01*
X146389661Y-100457242D01*
X146903303Y-100245010D01*
X147296629Y-99852370D01*
X147509757Y-99339100D01*
X147510242Y-98783339D01*
X147298010Y-98269697D01*
X146905370Y-97876371D01*
X146697488Y-97790051D01*
X146903303Y-97705010D01*
X147296629Y-97312370D01*
X147509757Y-96799100D01*
X147510242Y-96243339D01*
X147298010Y-95729697D01*
X146905370Y-95336371D01*
X146713273Y-95256605D01*
X146844143Y-95202397D01*
X146913608Y-94960213D01*
X146113000Y-94159605D01*
X145312392Y-94960213D01*
X145381857Y-95202397D01*
X145522318Y-95252509D01*
X145322697Y-95334990D01*
X144929371Y-95727630D01*
X144915930Y-95760000D01*
X143062802Y-95760000D01*
X141634401Y-94331599D01*
X141387839Y-94166852D01*
X141097000Y-94109000D01*
X138490802Y-94109000D01*
X138301000Y-93919198D01*
X138301000Y-93772302D01*
X144703856Y-93772302D01*
X144731638Y-94327368D01*
X144890603Y-94711143D01*
X145132787Y-94780608D01*
X145933395Y-93980000D01*
X146292605Y-93980000D01*
X147093213Y-94780608D01*
X147335397Y-94711143D01*
X147522144Y-94187698D01*
X147494362Y-93632632D01*
X147335397Y-93248857D01*
X147093213Y-93179392D01*
X146292605Y-93980000D01*
X145933395Y-93980000D01*
X145132787Y-93179392D01*
X144890603Y-93248857D01*
X144703856Y-93772302D01*
X138301000Y-93772302D01*
X138301000Y-92075000D01*
X144863820Y-92075000D01*
X144927990Y-92230303D01*
X145320630Y-92623629D01*
X145512727Y-92703395D01*
X145381857Y-92757603D01*
X145312392Y-92999787D01*
X146113000Y-93800395D01*
X146913608Y-92999787D01*
X146844143Y-92757603D01*
X146703682Y-92707491D01*
X146903303Y-92625010D01*
X147296629Y-92232370D01*
X147361975Y-92075000D01*
X147955000Y-92075000D01*
X147955000Y-100203000D01*
X147965006Y-100252410D01*
X147993447Y-100294035D01*
X148035841Y-100321315D01*
X148082000Y-100330000D01*
X171704000Y-100330000D01*
X171753410Y-100319994D01*
X171795035Y-100291553D01*
X171822315Y-100249159D01*
X171831000Y-100203000D01*
X171831000Y-99802015D01*
X171972110Y-99898431D01*
X172224000Y-99949440D01*
X173724000Y-99949440D01*
X173959317Y-99905162D01*
X174175441Y-99766090D01*
X174320431Y-99553890D01*
X174356867Y-99373962D01*
X174628701Y-99486838D01*
X175000667Y-99487162D01*
X175344443Y-99345117D01*
X175607692Y-99082327D01*
X175750338Y-98738799D01*
X175750662Y-98366833D01*
X175608617Y-98023057D01*
X175345827Y-97759808D01*
X175002299Y-97617162D01*
X174630333Y-97616838D01*
X174357789Y-97729451D01*
X174327162Y-97566683D01*
X174188090Y-97350559D01*
X173975890Y-97205569D01*
X173724000Y-97154560D01*
X172224000Y-97154560D01*
X171988683Y-97198838D01*
X171831000Y-97300304D01*
X171831000Y-96502015D01*
X171972110Y-96598431D01*
X172224000Y-96649440D01*
X173724000Y-96649440D01*
X173959317Y-96605162D01*
X174175441Y-96466090D01*
X174320431Y-96253890D01*
X174371440Y-96002000D01*
X174371440Y-94502000D01*
X174327162Y-94266683D01*
X174188090Y-94050559D01*
X173975890Y-93905569D01*
X173724000Y-93854560D01*
X172224000Y-93854560D01*
X171988683Y-93898838D01*
X171831000Y-94000304D01*
X171831000Y-93403167D01*
X178007838Y-93403167D01*
X178149883Y-93746943D01*
X178412673Y-94010192D01*
X178756201Y-94152838D01*
X179055560Y-94153099D01*
X179055560Y-94193000D01*
X179082855Y-94338059D01*
X178993683Y-94354838D01*
X178777559Y-94493910D01*
X178632569Y-94706110D01*
X178581560Y-94958000D01*
X178581560Y-96558000D01*
X178625838Y-96793317D01*
X178764910Y-97009441D01*
X178837822Y-97059259D01*
X178770162Y-97222201D01*
X178769838Y-97594167D01*
X178911883Y-97937943D01*
X179174673Y-98201192D01*
X179518201Y-98343838D01*
X179890167Y-98344162D01*
X180233943Y-98202117D01*
X180497192Y-97939327D01*
X180639838Y-97595799D01*
X180640162Y-97223833D01*
X180582772Y-97084938D01*
X180680441Y-97022090D01*
X180825431Y-96809890D01*
X180876440Y-96558000D01*
X180876440Y-96043750D01*
X181594000Y-96043750D01*
X181594000Y-96684310D01*
X181690673Y-96917699D01*
X181869302Y-97096327D01*
X182102691Y-97193000D01*
X182443250Y-97193000D01*
X182602000Y-97034250D01*
X182602000Y-95885000D01*
X182856000Y-95885000D01*
X182856000Y-97034250D01*
X183014750Y-97193000D01*
X183355309Y-97193000D01*
X183588698Y-97096327D01*
X183767327Y-96917699D01*
X183864000Y-96684310D01*
X183864000Y-96043750D01*
X183705250Y-95885000D01*
X182856000Y-95885000D01*
X182602000Y-95885000D01*
X181752750Y-95885000D01*
X181594000Y-96043750D01*
X180876440Y-96043750D01*
X180876440Y-94958000D01*
X180854320Y-94840440D01*
X181203000Y-94840440D01*
X181438317Y-94796162D01*
X181602492Y-94690518D01*
X181637836Y-94725862D01*
X181594000Y-94831690D01*
X181594000Y-95472250D01*
X181752750Y-95631000D01*
X182602000Y-95631000D01*
X182602000Y-94693250D01*
X182626000Y-94669250D01*
X182626000Y-93320000D01*
X182606000Y-93320000D01*
X182606000Y-93066000D01*
X182626000Y-93066000D01*
X182626000Y-91716750D01*
X182467250Y-91558000D01*
X181876690Y-91558000D01*
X181643301Y-91654673D01*
X181601340Y-91696634D01*
X181454890Y-91596569D01*
X181203000Y-91545560D01*
X179703000Y-91545560D01*
X179467683Y-91589838D01*
X179251559Y-91728910D01*
X179106569Y-91941110D01*
X179055560Y-92193000D01*
X179055560Y-92283097D01*
X178757833Y-92282838D01*
X178414057Y-92424883D01*
X178150808Y-92687673D01*
X178008162Y-93031201D01*
X178007838Y-93403167D01*
X171831000Y-93403167D01*
X171831000Y-92190836D01*
X171935673Y-92295692D01*
X172279201Y-92438338D01*
X172651167Y-92438662D01*
X172994943Y-92296617D01*
X173258192Y-92033827D01*
X173400838Y-91690299D01*
X173401162Y-91318333D01*
X173259117Y-90974557D01*
X173256864Y-90972300D01*
X173451691Y-91053000D01*
X173692250Y-91053000D01*
X173851000Y-90894250D01*
X173851000Y-90170000D01*
X173831000Y-90170000D01*
X173831000Y-89916000D01*
X173851000Y-89916000D01*
X173851000Y-89896000D01*
X174105000Y-89896000D01*
X174105000Y-89916000D01*
X174125000Y-89916000D01*
X174125000Y-90170000D01*
X174105000Y-90170000D01*
X174105000Y-90894250D01*
X174263750Y-91053000D01*
X174504309Y-91053000D01*
X174737698Y-90956327D01*
X174916327Y-90777699D01*
X175013000Y-90544310D01*
X175013000Y-90328750D01*
X174854252Y-90170002D01*
X174936892Y-90170002D01*
X175200201Y-90279338D01*
X175572167Y-90279662D01*
X175915943Y-90137617D01*
X176179192Y-89874827D01*
X176321838Y-89531299D01*
X176322162Y-89159333D01*
X176244263Y-88970803D01*
X176308431Y-88876890D01*
X176359440Y-88625000D01*
X176359440Y-88222000D01*
X176464000Y-88222000D01*
X176464000Y-89101250D01*
X176622750Y-89260000D01*
X176788310Y-89260000D01*
X177021699Y-89163327D01*
X177200327Y-88984698D01*
X177297000Y-88751309D01*
X177297000Y-88380750D01*
X177138250Y-88222000D01*
X176464000Y-88222000D01*
X176359440Y-88222000D01*
X176359440Y-87948000D01*
X176464000Y-87948000D01*
X176464000Y-87968000D01*
X177138250Y-87968000D01*
X177297000Y-87809250D01*
X177297000Y-87438691D01*
X177200327Y-87205302D01*
X177173776Y-87178750D01*
X180218000Y-87178750D01*
X180218000Y-88019309D01*
X180314673Y-88252698D01*
X180493301Y-88431327D01*
X180726690Y-88528000D01*
X182467250Y-88528000D01*
X182626000Y-88369250D01*
X182626000Y-87020000D01*
X180376750Y-87020000D01*
X180218000Y-87178750D01*
X177173776Y-87178750D01*
X177021699Y-87026673D01*
X176947435Y-86995912D01*
X177113441Y-86889090D01*
X177258431Y-86676890D01*
X177309440Y-86425000D01*
X177309440Y-85365000D01*
X177265162Y-85129683D01*
X177126090Y-84913559D01*
X177038557Y-84853750D01*
X179128000Y-84853750D01*
X179128000Y-84946309D01*
X179224673Y-85179698D01*
X179403301Y-85358327D01*
X179636690Y-85455000D01*
X179927250Y-85455000D01*
X180086000Y-85296250D01*
X180086000Y-84695000D01*
X179286750Y-84695000D01*
X179128000Y-84853750D01*
X177038557Y-84853750D01*
X176913890Y-84768569D01*
X176662000Y-84717560D01*
X176012000Y-84717560D01*
X175776683Y-84761838D01*
X175768000Y-84767425D01*
X175768000Y-81632500D01*
X179317901Y-81632500D01*
X179278162Y-81728201D01*
X179277838Y-82100167D01*
X179368397Y-82319336D01*
X179311559Y-82355910D01*
X179166569Y-82568110D01*
X179115560Y-82820000D01*
X179115560Y-83320000D01*
X179159838Y-83555317D01*
X179298910Y-83771441D01*
X179367006Y-83817969D01*
X179224673Y-83960302D01*
X179128000Y-84193691D01*
X179128000Y-84286250D01*
X179286750Y-84445000D01*
X180086000Y-84445000D01*
X180086000Y-84423000D01*
X180340000Y-84423000D01*
X180340000Y-84445000D01*
X181139250Y-84445000D01*
X181298000Y-84286250D01*
X181298000Y-84193691D01*
X181201327Y-83960302D01*
X181060090Y-83819064D01*
X181114441Y-83784090D01*
X181259431Y-83571890D01*
X181310440Y-83320000D01*
X181310440Y-82820000D01*
X181266162Y-82584683D01*
X181127090Y-82368559D01*
X181056965Y-82320645D01*
X181147838Y-82101799D01*
X181148162Y-81729833D01*
X181107945Y-81632500D01*
X182746901Y-81632500D01*
X182707162Y-81728201D01*
X182706838Y-82100167D01*
X182775036Y-82265218D01*
X182670569Y-82418110D01*
X182619560Y-82670000D01*
X182619560Y-83470000D01*
X182663838Y-83705317D01*
X182730329Y-83808646D01*
X182728673Y-83810302D01*
X182632000Y-84043691D01*
X182632000Y-84284250D01*
X182790750Y-84443000D01*
X183515000Y-84443000D01*
X183515000Y-84423000D01*
X183769000Y-84423000D01*
X183769000Y-84443000D01*
X183789000Y-84443000D01*
X183789000Y-84697000D01*
X183769000Y-84697000D01*
X183769000Y-84717000D01*
X183515000Y-84717000D01*
X183515000Y-84697000D01*
X182790750Y-84697000D01*
X182632000Y-84855750D01*
X182632000Y-85096309D01*
X182698975Y-85258000D01*
X182625998Y-85258000D01*
X182625998Y-85416748D01*
X182467250Y-85258000D01*
X181123025Y-85258000D01*
X181201327Y-85179698D01*
X181298000Y-84946309D01*
X181298000Y-84853750D01*
X181139250Y-84695000D01*
X180340000Y-84695000D01*
X180340000Y-85296250D01*
X180445862Y-85402112D01*
X180314673Y-85533302D01*
X180218000Y-85766691D01*
X180218000Y-86607250D01*
X180376750Y-86766000D01*
X182626000Y-86766000D01*
X182626000Y-86746000D01*
X182880000Y-86746000D01*
X182880000Y-86766000D01*
X185129250Y-86766000D01*
X185288000Y-86607250D01*
X185288000Y-85932000D01*
X185404250Y-85932000D01*
X185562998Y-85773252D01*
X185562998Y-85932000D01*
X185665293Y-85932000D01*
X185654560Y-85985000D01*
X185654560Y-86735000D01*
X185698838Y-86970317D01*
X185837910Y-87186441D01*
X186025982Y-87314945D01*
X186164599Y-87522401D01*
X186563000Y-87920802D01*
X186563000Y-88265000D01*
X185179025Y-88265000D01*
X185191327Y-88252698D01*
X185288000Y-88019309D01*
X185288000Y-87178750D01*
X185129250Y-87020000D01*
X182880000Y-87020000D01*
X182880000Y-88369250D01*
X183038750Y-88528000D01*
X183896000Y-88528000D01*
X183896000Y-91687974D01*
X183862699Y-91654673D01*
X183629310Y-91558000D01*
X183038750Y-91558000D01*
X182880000Y-91716750D01*
X182880000Y-93066000D01*
X182900000Y-93066000D01*
X182900000Y-93320000D01*
X182880000Y-93320000D01*
X182880000Y-94457750D01*
X182856000Y-94481750D01*
X182856000Y-95631000D01*
X183705250Y-95631000D01*
X183864000Y-95472250D01*
X183864000Y-94831690D01*
X183828326Y-94745565D01*
X183862699Y-94731327D01*
X183896000Y-94698026D01*
X183896000Y-97282000D01*
X181356000Y-97282000D01*
X181306590Y-97292006D01*
X181264965Y-97320447D01*
X181237685Y-97362841D01*
X181229000Y-97409000D01*
X181229000Y-101565000D01*
X137172568Y-101565000D01*
X137160000Y-101562500D01*
X137147432Y-101565000D01*
X127680976Y-101565000D01*
X127681162Y-101351333D01*
X127539117Y-101007557D01*
X127368232Y-100836374D01*
X127471160Y-100905148D01*
X127762000Y-100963000D01*
X128778000Y-100963000D01*
X129068839Y-100905148D01*
X129315401Y-100740401D01*
X129950401Y-100105401D01*
X130115148Y-99858839D01*
X130173000Y-99568000D01*
X130173000Y-98202105D01*
X130314441Y-98111090D01*
X130459431Y-97898890D01*
X130510440Y-97647000D01*
X130510440Y-97147000D01*
X130466162Y-96911683D01*
X130327090Y-96695559D01*
X130257289Y-96647866D01*
X130314441Y-96611090D01*
X130459431Y-96398890D01*
X130510440Y-96147000D01*
X130510440Y-95647000D01*
X130466162Y-95411683D01*
X130327090Y-95195559D01*
X130298045Y-95175713D01*
X130347838Y-95055799D01*
X130348162Y-94683833D01*
X130206117Y-94340057D01*
X129943327Y-94076808D01*
X129599799Y-93934162D01*
X129227833Y-93933838D01*
X128884057Y-94075883D01*
X128620808Y-94338673D01*
X128478162Y-94682201D01*
X128477838Y-95054167D01*
X128526943Y-95173011D01*
X128511559Y-95182910D01*
X128366569Y-95395110D01*
X128315560Y-95647000D01*
X128315560Y-96147000D01*
X128359838Y-96382317D01*
X128498910Y-96598441D01*
X128568711Y-96646134D01*
X128511559Y-96682910D01*
X128366569Y-96895110D01*
X128315560Y-97147000D01*
X128315560Y-97553113D01*
X128272090Y-97485559D01*
X128059890Y-97340569D01*
X127808000Y-97289560D01*
X127208000Y-97289560D01*
X126972683Y-97333838D01*
X126873472Y-97397678D01*
X126789890Y-97340569D01*
X126538000Y-97289560D01*
X125938000Y-97289560D01*
X125702683Y-97333838D01*
X125603472Y-97397678D01*
X125519890Y-97340569D01*
X125268000Y-97289560D01*
X124668000Y-97289560D01*
X124432683Y-97333838D01*
X124333472Y-97397678D01*
X124249890Y-97340569D01*
X123998000Y-97289560D01*
X123398000Y-97289560D01*
X123162683Y-97333838D01*
X122946559Y-97472910D01*
X122801569Y-97685110D01*
X122750560Y-97937000D01*
X122750560Y-99487000D01*
X122794838Y-99722317D01*
X122843063Y-99797261D01*
X122142401Y-99096599D01*
X121895839Y-98931852D01*
X121607214Y-98874440D01*
X121548090Y-98782559D01*
X121335890Y-98637569D01*
X121084000Y-98586560D01*
X120184000Y-98586560D01*
X119948683Y-98630838D01*
X119732559Y-98769910D01*
X119587569Y-98982110D01*
X119536560Y-99234000D01*
X119536560Y-99724681D01*
X119335890Y-99587569D01*
X119084000Y-99536560D01*
X118184000Y-99536560D01*
X117948683Y-99580838D01*
X117732559Y-99719910D01*
X117698439Y-99769847D01*
X117407799Y-99649162D01*
X117035833Y-99648838D01*
X116692057Y-99790883D01*
X116428808Y-100053673D01*
X116286162Y-100397201D01*
X116285838Y-100769167D01*
X116427883Y-101112943D01*
X116690673Y-101376192D01*
X117034201Y-101518838D01*
X117406167Y-101519162D01*
X117696570Y-101399170D01*
X117719910Y-101435441D01*
X117932110Y-101580431D01*
X118184000Y-101631440D01*
X119084000Y-101631440D01*
X119319317Y-101587162D01*
X119535441Y-101448090D01*
X119536560Y-101446452D01*
X119536560Y-101934000D01*
X119580838Y-102169317D01*
X119719910Y-102385441D01*
X119932110Y-102530431D01*
X120184000Y-102581440D01*
X121084000Y-102581440D01*
X121319317Y-102537162D01*
X121535441Y-102398090D01*
X121606563Y-102294000D01*
X123704541Y-102294000D01*
X123739173Y-102328692D01*
X124082701Y-102471338D01*
X124454667Y-102471662D01*
X124681328Y-102378008D01*
X124838099Y-102612633D01*
X125542867Y-103317401D01*
X125789428Y-103482148D01*
X125837682Y-103491746D01*
X126080268Y-103540000D01*
X181229000Y-103540000D01*
X181229000Y-104290000D01*
X110710000Y-104290000D01*
X110710000Y-102422815D01*
X110864630Y-102422815D01*
X111188980Y-103207800D01*
X111789041Y-103808909D01*
X112573459Y-104134628D01*
X113422815Y-104135370D01*
X114207800Y-103811020D01*
X114808909Y-103210959D01*
X115134628Y-102426541D01*
X115135370Y-101577185D01*
X114811020Y-100792200D01*
X114210959Y-100191091D01*
X113426541Y-99865372D01*
X112577185Y-99864630D01*
X111792200Y-100188980D01*
X111191091Y-100789041D01*
X110865372Y-101573459D01*
X110864630Y-102422815D01*
X110710000Y-102422815D01*
X110710000Y-92146040D01*
X114542827Y-92146040D01*
X114694747Y-92513714D01*
X114975806Y-92795264D01*
X115343215Y-92947826D01*
X115741040Y-92948173D01*
X116108714Y-92796253D01*
X116390264Y-92515194D01*
X116542826Y-92147785D01*
X116542827Y-92146040D01*
X119422827Y-92146040D01*
X119574747Y-92513714D01*
X119855806Y-92795264D01*
X120223215Y-92947826D01*
X120621040Y-92948173D01*
X120988714Y-92796253D01*
X121248419Y-92537000D01*
X122750560Y-92537000D01*
X122750560Y-94087000D01*
X122794838Y-94322317D01*
X122933910Y-94538441D01*
X123146110Y-94683431D01*
X123398000Y-94734440D01*
X123998000Y-94734440D01*
X124233317Y-94690162D01*
X124323980Y-94631822D01*
X124541690Y-94722000D01*
X124682250Y-94722000D01*
X124841000Y-94563250D01*
X124841000Y-93439000D01*
X124821000Y-93439000D01*
X124821000Y-93185000D01*
X124841000Y-93185000D01*
X124841000Y-92060750D01*
X125095000Y-92060750D01*
X125095000Y-93185000D01*
X125115000Y-93185000D01*
X125115000Y-93439000D01*
X125095000Y-93439000D01*
X125095000Y-94563250D01*
X125253750Y-94722000D01*
X125303127Y-94722000D01*
X125302838Y-95054167D01*
X125444883Y-95397943D01*
X125707673Y-95661192D01*
X126051201Y-95803838D01*
X126423167Y-95804162D01*
X126766943Y-95662117D01*
X127030192Y-95399327D01*
X127172838Y-95055799D01*
X127173124Y-94727377D01*
X127208000Y-94734440D01*
X127808000Y-94734440D01*
X128043317Y-94690162D01*
X128259441Y-94551090D01*
X128404431Y-94338890D01*
X128455440Y-94087000D01*
X128455440Y-92537000D01*
X128411162Y-92301683D01*
X128287692Y-92109805D01*
X128300192Y-92097327D01*
X128442838Y-91753799D01*
X128443162Y-91381833D01*
X128301117Y-91038057D01*
X128038327Y-90774808D01*
X127694799Y-90632162D01*
X127322833Y-90631838D01*
X126979057Y-90773883D01*
X126715808Y-91036673D01*
X126573162Y-91380201D01*
X126572838Y-91752167D01*
X126637973Y-91909805D01*
X126538000Y-91889560D01*
X125938000Y-91889560D01*
X125702683Y-91933838D01*
X125612020Y-91992178D01*
X125394310Y-91902000D01*
X125253750Y-91902000D01*
X125095000Y-92060750D01*
X124841000Y-92060750D01*
X124682250Y-91902000D01*
X124632930Y-91902000D01*
X124633162Y-91635833D01*
X124491117Y-91292057D01*
X124228327Y-91028808D01*
X123884799Y-90886162D01*
X123512833Y-90885838D01*
X123169057Y-91027883D01*
X122905808Y-91290673D01*
X122763162Y-91634201D01*
X122762838Y-92006167D01*
X122849257Y-92215317D01*
X122801569Y-92285110D01*
X122750560Y-92537000D01*
X121248419Y-92537000D01*
X121270264Y-92515194D01*
X121422826Y-92147785D01*
X121423173Y-91749960D01*
X121271253Y-91382286D01*
X120990194Y-91100736D01*
X120622785Y-90948174D01*
X120224960Y-90947827D01*
X119857286Y-91099747D01*
X119575736Y-91380806D01*
X119423174Y-91748215D01*
X119422827Y-92146040D01*
X116542827Y-92146040D01*
X116543173Y-91749960D01*
X116391253Y-91382286D01*
X116110194Y-91100736D01*
X115742785Y-90948174D01*
X115344960Y-90947827D01*
X114977286Y-91099747D01*
X114695736Y-91380806D01*
X114543174Y-91748215D01*
X114542827Y-92146040D01*
X110710000Y-92146040D01*
X110710000Y-88423750D01*
X132096000Y-88423750D01*
X132096000Y-88714310D01*
X132192673Y-88947699D01*
X132371302Y-89126327D01*
X132604691Y-89223000D01*
X132697250Y-89223000D01*
X132856000Y-89064250D01*
X132856000Y-88265000D01*
X132254750Y-88265000D01*
X132096000Y-88423750D01*
X110710000Y-88423750D01*
X110710000Y-87561690D01*
X132096000Y-87561690D01*
X132096000Y-87852250D01*
X132254750Y-88011000D01*
X132856000Y-88011000D01*
X132856000Y-87211750D01*
X132697250Y-87053000D01*
X132604691Y-87053000D01*
X132371302Y-87149673D01*
X132192673Y-87328301D01*
X132096000Y-87561690D01*
X110710000Y-87561690D01*
X110710000Y-84486750D01*
X132096000Y-84486750D01*
X132096000Y-84777310D01*
X132192673Y-85010699D01*
X132371302Y-85189327D01*
X132604691Y-85286000D01*
X132697250Y-85286000D01*
X132856000Y-85127250D01*
X132856000Y-84328000D01*
X132254750Y-84328000D01*
X132096000Y-84486750D01*
X110710000Y-84486750D01*
X110710000Y-80137000D01*
X119010053Y-80137000D01*
X118968808Y-80178173D01*
G36*
X185817000Y-84770000D02*
X185837000Y-84770000D01*
X185837000Y-85024000D01*
X185817000Y-85024000D01*
X185817000Y-85044000D01*
X185563000Y-85044000D01*
X185563000Y-85024000D01*
X185543000Y-85024000D01*
X185543000Y-84770000D01*
X185563000Y-84770000D01*
X185563000Y-84750000D01*
X185817000Y-84750000D01*
X185817000Y-84770000D01*
X185817000Y-84770000D01*
G37*
X185817000Y-84770000D02*
X185837000Y-84770000D01*
X185837000Y-85024000D01*
X185817000Y-85024000D01*
X185817000Y-85044000D01*
X185563000Y-85044000D01*
X185563000Y-85024000D01*
X185543000Y-85024000D01*
X185543000Y-84770000D01*
X185563000Y-84770000D01*
X185563000Y-84750000D01*
X185817000Y-84750000D01*
X185817000Y-84770000D01*
G36*
X196350673Y-89150801D02*
X196254000Y-89384190D01*
X196254000Y-90074750D01*
X196412750Y-90233500D01*
X197612000Y-90233500D01*
X197612000Y-90213500D01*
X197866000Y-90213500D01*
X197866000Y-90233500D01*
X199065250Y-90233500D01*
X199224000Y-90074750D01*
X199224000Y-89384190D01*
X199127327Y-89150801D01*
X199003525Y-89027000D01*
X199290000Y-89027000D01*
X199290000Y-94869000D01*
X199137906Y-94869000D01*
X198818147Y-94390446D01*
X198488974Y-94170500D01*
X198818147Y-93950554D01*
X199140054Y-93468785D01*
X199253093Y-92900500D01*
X199140054Y-92332215D01*
X198818147Y-91850446D01*
X198774223Y-91821097D01*
X198948698Y-91748827D01*
X199127327Y-91570199D01*
X199224000Y-91336810D01*
X199224000Y-90646250D01*
X199065250Y-90487500D01*
X197866000Y-90487500D01*
X197866000Y-90507500D01*
X197612000Y-90507500D01*
X197612000Y-90487500D01*
X196412750Y-90487500D01*
X196254000Y-90646250D01*
X196254000Y-91336810D01*
X196350673Y-91570199D01*
X196529302Y-91748827D01*
X196703777Y-91821097D01*
X196659853Y-91850446D01*
X196337946Y-92332215D01*
X196224907Y-92900500D01*
X196337946Y-93468785D01*
X196659853Y-93950554D01*
X196989026Y-94170500D01*
X196659853Y-94390446D01*
X196340094Y-94869000D01*
X184658000Y-94869000D01*
X184658000Y-94828000D01*
X184767250Y-94828000D01*
X184926000Y-94669250D01*
X184926000Y-93320000D01*
X185180000Y-93320000D01*
X185180000Y-94669250D01*
X185338750Y-94828000D01*
X185929310Y-94828000D01*
X186162699Y-94731327D01*
X186341327Y-94552698D01*
X186438000Y-94319309D01*
X186438000Y-93478750D01*
X186279250Y-93320000D01*
X185180000Y-93320000D01*
X184926000Y-93320000D01*
X184906000Y-93320000D01*
X184906000Y-93066000D01*
X184926000Y-93066000D01*
X184926000Y-91716750D01*
X185180000Y-91716750D01*
X185180000Y-93066000D01*
X186279250Y-93066000D01*
X186438000Y-92907250D01*
X186438000Y-92066691D01*
X186341327Y-91833302D01*
X186162699Y-91654673D01*
X185929310Y-91558000D01*
X185338750Y-91558000D01*
X185180000Y-91716750D01*
X184926000Y-91716750D01*
X184767250Y-91558000D01*
X184658000Y-91558000D01*
X184658000Y-90495250D01*
X192240000Y-90495250D01*
X192240000Y-90835809D01*
X192336673Y-91069198D01*
X192515301Y-91247827D01*
X192748690Y-91344500D01*
X193389250Y-91344500D01*
X193548000Y-91185750D01*
X193548000Y-90336500D01*
X193802000Y-90336500D01*
X193802000Y-91185750D01*
X193960750Y-91344500D01*
X194601310Y-91344500D01*
X194834699Y-91247827D01*
X195013327Y-91069198D01*
X195110000Y-90835809D01*
X195110000Y-90495250D01*
X194951250Y-90336500D01*
X193802000Y-90336500D01*
X193548000Y-90336500D01*
X192398750Y-90336500D01*
X192240000Y-90495250D01*
X184658000Y-90495250D01*
X184658000Y-89583191D01*
X192240000Y-89583191D01*
X192240000Y-89923750D01*
X192398750Y-90082500D01*
X193548000Y-90082500D01*
X193548000Y-89233250D01*
X193802000Y-89233250D01*
X193802000Y-90082500D01*
X194951250Y-90082500D01*
X195110000Y-89923750D01*
X195110000Y-89583191D01*
X195013327Y-89349802D01*
X194834699Y-89171173D01*
X194601310Y-89074500D01*
X193960750Y-89074500D01*
X193802000Y-89233250D01*
X193548000Y-89233250D01*
X193389250Y-89074500D01*
X192748690Y-89074500D01*
X192515301Y-89171173D01*
X192336673Y-89349802D01*
X192240000Y-89583191D01*
X184658000Y-89583191D01*
X184658000Y-89027000D01*
X196474475Y-89027000D01*
X196350673Y-89150801D01*
X196350673Y-89150801D01*
G37*
X196350673Y-89150801D02*
X196254000Y-89384190D01*
X196254000Y-90074750D01*
X196412750Y-90233500D01*
X197612000Y-90233500D01*
X197612000Y-90213500D01*
X197866000Y-90213500D01*
X197866000Y-90233500D01*
X199065250Y-90233500D01*
X199224000Y-90074750D01*
X199224000Y-89384190D01*
X199127327Y-89150801D01*
X199003525Y-89027000D01*
X199290000Y-89027000D01*
X199290000Y-94869000D01*
X199137906Y-94869000D01*
X198818147Y-94390446D01*
X198488974Y-94170500D01*
X198818147Y-93950554D01*
X199140054Y-93468785D01*
X199253093Y-92900500D01*
X199140054Y-92332215D01*
X198818147Y-91850446D01*
X198774223Y-91821097D01*
X198948698Y-91748827D01*
X199127327Y-91570199D01*
X199224000Y-91336810D01*
X199224000Y-90646250D01*
X199065250Y-90487500D01*
X197866000Y-90487500D01*
X197866000Y-90507500D01*
X197612000Y-90507500D01*
X197612000Y-90487500D01*
X196412750Y-90487500D01*
X196254000Y-90646250D01*
X196254000Y-91336810D01*
X196350673Y-91570199D01*
X196529302Y-91748827D01*
X196703777Y-91821097D01*
X196659853Y-91850446D01*
X196337946Y-92332215D01*
X196224907Y-92900500D01*
X196337946Y-93468785D01*
X196659853Y-93950554D01*
X196989026Y-94170500D01*
X196659853Y-94390446D01*
X196340094Y-94869000D01*
X184658000Y-94869000D01*
X184658000Y-94828000D01*
X184767250Y-94828000D01*
X184926000Y-94669250D01*
X184926000Y-93320000D01*
X185180000Y-93320000D01*
X185180000Y-94669250D01*
X185338750Y-94828000D01*
X185929310Y-94828000D01*
X186162699Y-94731327D01*
X186341327Y-94552698D01*
X186438000Y-94319309D01*
X186438000Y-93478750D01*
X186279250Y-93320000D01*
X185180000Y-93320000D01*
X184926000Y-93320000D01*
X184906000Y-93320000D01*
X184906000Y-93066000D01*
X184926000Y-93066000D01*
X184926000Y-91716750D01*
X185180000Y-91716750D01*
X185180000Y-93066000D01*
X186279250Y-93066000D01*
X186438000Y-92907250D01*
X186438000Y-92066691D01*
X186341327Y-91833302D01*
X186162699Y-91654673D01*
X185929310Y-91558000D01*
X185338750Y-91558000D01*
X185180000Y-91716750D01*
X184926000Y-91716750D01*
X184767250Y-91558000D01*
X184658000Y-91558000D01*
X184658000Y-90495250D01*
X192240000Y-90495250D01*
X192240000Y-90835809D01*
X192336673Y-91069198D01*
X192515301Y-91247827D01*
X192748690Y-91344500D01*
X193389250Y-91344500D01*
X193548000Y-91185750D01*
X193548000Y-90336500D01*
X193802000Y-90336500D01*
X193802000Y-91185750D01*
X193960750Y-91344500D01*
X194601310Y-91344500D01*
X194834699Y-91247827D01*
X195013327Y-91069198D01*
X195110000Y-90835809D01*
X195110000Y-90495250D01*
X194951250Y-90336500D01*
X193802000Y-90336500D01*
X193548000Y-90336500D01*
X192398750Y-90336500D01*
X192240000Y-90495250D01*
X184658000Y-90495250D01*
X184658000Y-89583191D01*
X192240000Y-89583191D01*
X192240000Y-89923750D01*
X192398750Y-90082500D01*
X193548000Y-90082500D01*
X193548000Y-89233250D01*
X193802000Y-89233250D01*
X193802000Y-90082500D01*
X194951250Y-90082500D01*
X195110000Y-89923750D01*
X195110000Y-89583191D01*
X195013327Y-89349802D01*
X194834699Y-89171173D01*
X194601310Y-89074500D01*
X193960750Y-89074500D01*
X193802000Y-89233250D01*
X193548000Y-89233250D01*
X193389250Y-89074500D01*
X192748690Y-89074500D01*
X192515301Y-89171173D01*
X192336673Y-89349802D01*
X192240000Y-89583191D01*
X184658000Y-89583191D01*
X184658000Y-89027000D01*
X196474475Y-89027000D01*
X196350673Y-89150801D01*
G36*
X199290000Y-77015000D02*
X198786750Y-77015000D01*
X198628000Y-77173750D01*
X198628000Y-78673000D01*
X198648000Y-78673000D01*
X198648000Y-78927000D01*
X198628000Y-78927000D01*
X198628000Y-81273000D01*
X198648000Y-81273000D01*
X198648000Y-81527000D01*
X198628000Y-81527000D01*
X198628000Y-83573000D01*
X198648000Y-83573000D01*
X198648000Y-83827000D01*
X198628000Y-83827000D01*
X198628000Y-86173000D01*
X198648000Y-86173000D01*
X198648000Y-86427000D01*
X198628000Y-86427000D01*
X198628000Y-87926250D01*
X198786750Y-88085000D01*
X199290000Y-88085000D01*
X199290000Y-88265000D01*
X194793240Y-88265000D01*
X194834699Y-88247827D01*
X195013327Y-88069198D01*
X195110000Y-87835809D01*
X195110000Y-87495250D01*
X194951250Y-87336500D01*
X193802000Y-87336500D01*
X193802000Y-87356500D01*
X193548000Y-87356500D01*
X193548000Y-87336500D01*
X192398750Y-87336500D01*
X192240000Y-87495250D01*
X192240000Y-87835809D01*
X192336673Y-88069198D01*
X192515301Y-88247827D01*
X192556760Y-88265000D01*
X187325000Y-88265000D01*
X187325000Y-87329949D01*
X187461698Y-87273327D01*
X187463068Y-87271957D01*
X187550110Y-87331431D01*
X187802000Y-87382440D01*
X188602000Y-87382440D01*
X188837317Y-87338162D01*
X189053441Y-87199090D01*
X189198431Y-86986890D01*
X189249440Y-86735000D01*
X189249440Y-86583191D01*
X192240000Y-86583191D01*
X192240000Y-86923750D01*
X192398750Y-87082500D01*
X193548000Y-87082500D01*
X193548000Y-86233250D01*
X193802000Y-86233250D01*
X193802000Y-87082500D01*
X194951250Y-87082500D01*
X195110000Y-86923750D01*
X195110000Y-86585750D01*
X196916000Y-86585750D01*
X196916000Y-87576309D01*
X197012673Y-87809698D01*
X197191301Y-87988327D01*
X197424690Y-88085000D01*
X198215250Y-88085000D01*
X198374000Y-87926250D01*
X198374000Y-86427000D01*
X197074750Y-86427000D01*
X196916000Y-86585750D01*
X195110000Y-86585750D01*
X195110000Y-86583191D01*
X195013327Y-86349802D01*
X194834699Y-86171173D01*
X194601310Y-86074500D01*
X193960750Y-86074500D01*
X193802000Y-86233250D01*
X193548000Y-86233250D01*
X193389250Y-86074500D01*
X192748690Y-86074500D01*
X192515301Y-86171173D01*
X192336673Y-86349802D01*
X192240000Y-86583191D01*
X189249440Y-86583191D01*
X189249440Y-85985000D01*
X189222516Y-85841912D01*
X189235000Y-85844440D01*
X190135000Y-85844440D01*
X190370317Y-85800162D01*
X190586441Y-85661090D01*
X190731431Y-85448890D01*
X190782440Y-85197000D01*
X190782440Y-82697000D01*
X190738162Y-82461683D01*
X190599090Y-82245559D01*
X190386890Y-82100569D01*
X190135000Y-82049560D01*
X189774324Y-82049560D01*
X189910838Y-81720799D01*
X189910915Y-81632500D01*
X191955860Y-81632500D01*
X192372920Y-82049560D01*
X192135000Y-82049560D01*
X191899683Y-82093838D01*
X191683559Y-82232910D01*
X191538569Y-82445110D01*
X191487560Y-82697000D01*
X191487560Y-85197000D01*
X191531838Y-85432317D01*
X191670910Y-85648441D01*
X191883110Y-85793431D01*
X192135000Y-85844440D01*
X193035000Y-85844440D01*
X193270317Y-85800162D01*
X193486441Y-85661090D01*
X193631431Y-85448890D01*
X193682440Y-85197000D01*
X193682440Y-84710000D01*
X195826000Y-84710000D01*
X195889143Y-84697440D01*
X196526000Y-84697440D01*
X196761317Y-84653162D01*
X196916000Y-84553626D01*
X196916000Y-84726309D01*
X196977590Y-84875000D01*
X196916000Y-85023691D01*
X196916000Y-86014250D01*
X197074750Y-86173000D01*
X198374000Y-86173000D01*
X198374000Y-83827000D01*
X198354000Y-83827000D01*
X198354000Y-83573000D01*
X198374000Y-83573000D01*
X198374000Y-81527000D01*
X198354000Y-81527000D01*
X198354000Y-81273000D01*
X198374000Y-81273000D01*
X198374000Y-78927000D01*
X197074750Y-78927000D01*
X196916000Y-79085750D01*
X196916000Y-80076309D01*
X196977590Y-80225000D01*
X196916000Y-80373691D01*
X196916000Y-80541974D01*
X196885699Y-80511673D01*
X196652310Y-80415000D01*
X196111750Y-80415000D01*
X195953000Y-80573750D01*
X195953000Y-81052560D01*
X195699000Y-81052560D01*
X195699000Y-80573750D01*
X195540250Y-80415000D01*
X194999690Y-80415000D01*
X194766301Y-80511673D01*
X194609870Y-80668105D01*
X194610162Y-80332833D01*
X194468117Y-79989057D01*
X194435000Y-79955882D01*
X194435000Y-79248000D01*
X194377148Y-78957161D01*
X194212401Y-78710599D01*
X193661401Y-78159599D01*
X193414839Y-77994852D01*
X193224928Y-77957076D01*
X193188162Y-77761683D01*
X193049090Y-77545559D01*
X193048195Y-77544947D01*
X193056999Y-77523691D01*
X196916000Y-77523691D01*
X196916000Y-78514250D01*
X197074750Y-78673000D01*
X198374000Y-78673000D01*
X198374000Y-77173750D01*
X198215250Y-77015000D01*
X197424690Y-77015000D01*
X197191301Y-77111673D01*
X197012673Y-77290302D01*
X196916000Y-77523691D01*
X193056999Y-77523691D01*
X193140000Y-77323310D01*
X193140000Y-76782750D01*
X192981250Y-76624000D01*
X192032000Y-76624000D01*
X192032000Y-76644000D01*
X191778000Y-76644000D01*
X191778000Y-76624000D01*
X191758000Y-76624000D01*
X191758000Y-76370000D01*
X191778000Y-76370000D01*
X191778000Y-76350000D01*
X192032000Y-76350000D01*
X192032000Y-76370000D01*
X192981250Y-76370000D01*
X193140000Y-76211250D01*
X193140000Y-75670690D01*
X193043327Y-75437301D01*
X193042026Y-75436000D01*
X197167500Y-75436000D01*
X197458339Y-75378148D01*
X197558833Y-75311000D01*
X199290000Y-75311000D01*
X199290000Y-77015000D01*
X199290000Y-77015000D01*
G37*
X199290000Y-77015000D02*
X198786750Y-77015000D01*
X198628000Y-77173750D01*
X198628000Y-78673000D01*
X198648000Y-78673000D01*
X198648000Y-78927000D01*
X198628000Y-78927000D01*
X198628000Y-81273000D01*
X198648000Y-81273000D01*
X198648000Y-81527000D01*
X198628000Y-81527000D01*
X198628000Y-83573000D01*
X198648000Y-83573000D01*
X198648000Y-83827000D01*
X198628000Y-83827000D01*
X198628000Y-86173000D01*
X198648000Y-86173000D01*
X198648000Y-86427000D01*
X198628000Y-86427000D01*
X198628000Y-87926250D01*
X198786750Y-88085000D01*
X199290000Y-88085000D01*
X199290000Y-88265000D01*
X194793240Y-88265000D01*
X194834699Y-88247827D01*
X195013327Y-88069198D01*
X195110000Y-87835809D01*
X195110000Y-87495250D01*
X194951250Y-87336500D01*
X193802000Y-87336500D01*
X193802000Y-87356500D01*
X193548000Y-87356500D01*
X193548000Y-87336500D01*
X192398750Y-87336500D01*
X192240000Y-87495250D01*
X192240000Y-87835809D01*
X192336673Y-88069198D01*
X192515301Y-88247827D01*
X192556760Y-88265000D01*
X187325000Y-88265000D01*
X187325000Y-87329949D01*
X187461698Y-87273327D01*
X187463068Y-87271957D01*
X187550110Y-87331431D01*
X187802000Y-87382440D01*
X188602000Y-87382440D01*
X188837317Y-87338162D01*
X189053441Y-87199090D01*
X189198431Y-86986890D01*
X189249440Y-86735000D01*
X189249440Y-86583191D01*
X192240000Y-86583191D01*
X192240000Y-86923750D01*
X192398750Y-87082500D01*
X193548000Y-87082500D01*
X193548000Y-86233250D01*
X193802000Y-86233250D01*
X193802000Y-87082500D01*
X194951250Y-87082500D01*
X195110000Y-86923750D01*
X195110000Y-86585750D01*
X196916000Y-86585750D01*
X196916000Y-87576309D01*
X197012673Y-87809698D01*
X197191301Y-87988327D01*
X197424690Y-88085000D01*
X198215250Y-88085000D01*
X198374000Y-87926250D01*
X198374000Y-86427000D01*
X197074750Y-86427000D01*
X196916000Y-86585750D01*
X195110000Y-86585750D01*
X195110000Y-86583191D01*
X195013327Y-86349802D01*
X194834699Y-86171173D01*
X194601310Y-86074500D01*
X193960750Y-86074500D01*
X193802000Y-86233250D01*
X193548000Y-86233250D01*
X193389250Y-86074500D01*
X192748690Y-86074500D01*
X192515301Y-86171173D01*
X192336673Y-86349802D01*
X192240000Y-86583191D01*
X189249440Y-86583191D01*
X189249440Y-85985000D01*
X189222516Y-85841912D01*
X189235000Y-85844440D01*
X190135000Y-85844440D01*
X190370317Y-85800162D01*
X190586441Y-85661090D01*
X190731431Y-85448890D01*
X190782440Y-85197000D01*
X190782440Y-82697000D01*
X190738162Y-82461683D01*
X190599090Y-82245559D01*
X190386890Y-82100569D01*
X190135000Y-82049560D01*
X189774324Y-82049560D01*
X189910838Y-81720799D01*
X189910915Y-81632500D01*
X191955860Y-81632500D01*
X192372920Y-82049560D01*
X192135000Y-82049560D01*
X191899683Y-82093838D01*
X191683559Y-82232910D01*
X191538569Y-82445110D01*
X191487560Y-82697000D01*
X191487560Y-85197000D01*
X191531838Y-85432317D01*
X191670910Y-85648441D01*
X191883110Y-85793431D01*
X192135000Y-85844440D01*
X193035000Y-85844440D01*
X193270317Y-85800162D01*
X193486441Y-85661090D01*
X193631431Y-85448890D01*
X193682440Y-85197000D01*
X193682440Y-84710000D01*
X195826000Y-84710000D01*
X195889143Y-84697440D01*
X196526000Y-84697440D01*
X196761317Y-84653162D01*
X196916000Y-84553626D01*
X196916000Y-84726309D01*
X196977590Y-84875000D01*
X196916000Y-85023691D01*
X196916000Y-86014250D01*
X197074750Y-86173000D01*
X198374000Y-86173000D01*
X198374000Y-83827000D01*
X198354000Y-83827000D01*
X198354000Y-83573000D01*
X198374000Y-83573000D01*
X198374000Y-81527000D01*
X198354000Y-81527000D01*
X198354000Y-81273000D01*
X198374000Y-81273000D01*
X198374000Y-78927000D01*
X197074750Y-78927000D01*
X196916000Y-79085750D01*
X196916000Y-80076309D01*
X196977590Y-80225000D01*
X196916000Y-80373691D01*
X196916000Y-80541974D01*
X196885699Y-80511673D01*
X196652310Y-80415000D01*
X196111750Y-80415000D01*
X195953000Y-80573750D01*
X195953000Y-81052560D01*
X195699000Y-81052560D01*
X195699000Y-80573750D01*
X195540250Y-80415000D01*
X194999690Y-80415000D01*
X194766301Y-80511673D01*
X194609870Y-80668105D01*
X194610162Y-80332833D01*
X194468117Y-79989057D01*
X194435000Y-79955882D01*
X194435000Y-79248000D01*
X194377148Y-78957161D01*
X194212401Y-78710599D01*
X193661401Y-78159599D01*
X193414839Y-77994852D01*
X193224928Y-77957076D01*
X193188162Y-77761683D01*
X193049090Y-77545559D01*
X193048195Y-77544947D01*
X193056999Y-77523691D01*
X196916000Y-77523691D01*
X196916000Y-78514250D01*
X197074750Y-78673000D01*
X198374000Y-78673000D01*
X198374000Y-77173750D01*
X198215250Y-77015000D01*
X197424690Y-77015000D01*
X197191301Y-77111673D01*
X197012673Y-77290302D01*
X196916000Y-77523691D01*
X193056999Y-77523691D01*
X193140000Y-77323310D01*
X193140000Y-76782750D01*
X192981250Y-76624000D01*
X192032000Y-76624000D01*
X192032000Y-76644000D01*
X191778000Y-76644000D01*
X191778000Y-76624000D01*
X191758000Y-76624000D01*
X191758000Y-76370000D01*
X191778000Y-76370000D01*
X191778000Y-76350000D01*
X192032000Y-76350000D01*
X192032000Y-76370000D01*
X192981250Y-76370000D01*
X193140000Y-76211250D01*
X193140000Y-75670690D01*
X193043327Y-75437301D01*
X193042026Y-75436000D01*
X197167500Y-75436000D01*
X197458339Y-75378148D01*
X197558833Y-75311000D01*
X199290000Y-75311000D01*
X199290000Y-77015000D01*
G36*
X188040838Y-81719167D02*
X188182883Y-82062943D01*
X188445673Y-82326192D01*
X188659231Y-82414870D01*
X188638569Y-82445110D01*
X188587560Y-82697000D01*
X188587560Y-83084265D01*
X188391890Y-82950569D01*
X188140000Y-82899560D01*
X187240000Y-82899560D01*
X187004683Y-82943838D01*
X186788559Y-83082910D01*
X186701936Y-83209686D01*
X186616250Y-83124000D01*
X185817000Y-83124000D01*
X185817000Y-83144000D01*
X185563000Y-83144000D01*
X185563000Y-83124000D01*
X185543000Y-83124000D01*
X185543000Y-82870000D01*
X185563000Y-82870000D01*
X185563000Y-82120750D01*
X185817000Y-82120750D01*
X185817000Y-82870000D01*
X186616250Y-82870000D01*
X186775000Y-82711250D01*
X186775000Y-82470690D01*
X186678327Y-82237301D01*
X186499698Y-82058673D01*
X186266309Y-81962000D01*
X185975750Y-81962000D01*
X185817000Y-82120750D01*
X185563000Y-82120750D01*
X185404250Y-81962000D01*
X185113691Y-81962000D01*
X184880302Y-82058673D01*
X184701673Y-82237301D01*
X184658000Y-82342737D01*
X184658000Y-81632500D01*
X188040913Y-81632500D01*
X188040838Y-81719167D01*
X188040838Y-81719167D01*
G37*
X188040838Y-81719167D02*
X188182883Y-82062943D01*
X188445673Y-82326192D01*
X188659231Y-82414870D01*
X188638569Y-82445110D01*
X188587560Y-82697000D01*
X188587560Y-83084265D01*
X188391890Y-82950569D01*
X188140000Y-82899560D01*
X187240000Y-82899560D01*
X187004683Y-82943838D01*
X186788559Y-83082910D01*
X186701936Y-83209686D01*
X186616250Y-83124000D01*
X185817000Y-83124000D01*
X185817000Y-83144000D01*
X185563000Y-83144000D01*
X185563000Y-83124000D01*
X185543000Y-83124000D01*
X185543000Y-82870000D01*
X185563000Y-82870000D01*
X185563000Y-82120750D01*
X185817000Y-82120750D01*
X185817000Y-82870000D01*
X186616250Y-82870000D01*
X186775000Y-82711250D01*
X186775000Y-82470690D01*
X186678327Y-82237301D01*
X186499698Y-82058673D01*
X186266309Y-81962000D01*
X185975750Y-81962000D01*
X185817000Y-82120750D01*
X185563000Y-82120750D01*
X185404250Y-81962000D01*
X185113691Y-81962000D01*
X184880302Y-82058673D01*
X184701673Y-82237301D01*
X184658000Y-82342737D01*
X184658000Y-81632500D01*
X188040913Y-81632500D01*
X188040838Y-81719167D01*
G36*
X199290000Y-104290000D02*
X181991000Y-104290000D01*
X181991000Y-103540000D01*
X191292732Y-103540000D01*
X191583571Y-103482148D01*
X191830133Y-103317401D01*
X192979401Y-102168133D01*
X193144148Y-101921572D01*
X193202000Y-101630732D01*
X193202000Y-101616187D01*
X194857277Y-101616187D01*
X194864982Y-102019454D01*
X194864630Y-102422815D01*
X194873080Y-102443266D01*
X194873503Y-102465387D01*
X195167261Y-103174582D01*
X195177343Y-103179635D01*
X195188980Y-103207800D01*
X195789041Y-103808909D01*
X195819895Y-103821721D01*
X195825418Y-103832739D01*
X196200954Y-103979950D01*
X196573459Y-104134628D01*
X196595586Y-104134647D01*
X196616187Y-104142723D01*
X197019454Y-104135018D01*
X197422815Y-104135370D01*
X197443266Y-104126920D01*
X197465387Y-104126497D01*
X198174582Y-103832739D01*
X198179635Y-103822657D01*
X198207800Y-103811020D01*
X198808909Y-103210959D01*
X198821721Y-103180105D01*
X198832739Y-103174582D01*
X198979950Y-102799046D01*
X199134628Y-102426541D01*
X199134647Y-102404414D01*
X199142723Y-102383813D01*
X199135018Y-101980546D01*
X199135370Y-101577185D01*
X199126920Y-101556734D01*
X199126497Y-101534613D01*
X198832739Y-100825418D01*
X198822657Y-100820365D01*
X198811020Y-100792200D01*
X198210959Y-100191091D01*
X198180105Y-100178279D01*
X198174582Y-100167261D01*
X197799046Y-100020050D01*
X197426541Y-99865372D01*
X197404414Y-99865353D01*
X197383813Y-99857277D01*
X196980546Y-99864982D01*
X196577185Y-99864630D01*
X196556734Y-99873080D01*
X196534613Y-99873503D01*
X195825418Y-100167261D01*
X195820365Y-100177343D01*
X195792200Y-100188980D01*
X195191091Y-100789041D01*
X195178279Y-100819895D01*
X195167261Y-100825418D01*
X195020050Y-101200954D01*
X194865372Y-101573459D01*
X194865353Y-101595586D01*
X194857277Y-101616187D01*
X193202000Y-101616187D01*
X193202000Y-97754534D01*
X193246534Y-97710000D01*
X193686698Y-97710000D01*
X193986599Y-98009901D01*
X194233161Y-98174648D01*
X194307622Y-98189459D01*
X194497110Y-98318931D01*
X194749000Y-98369940D01*
X195649000Y-98369940D01*
X195884317Y-98325662D01*
X196029095Y-98232500D01*
X196275033Y-98232500D01*
X196337946Y-98548785D01*
X196659853Y-99030554D01*
X197141622Y-99352461D01*
X197709907Y-99465500D01*
X197768093Y-99465500D01*
X198336378Y-99352461D01*
X198818147Y-99030554D01*
X199140054Y-98548785D01*
X199253093Y-97980500D01*
X199140054Y-97412215D01*
X198818147Y-96930446D01*
X198488974Y-96710500D01*
X198818147Y-96490554D01*
X199140054Y-96008785D01*
X199215200Y-95631000D01*
X199290000Y-95631000D01*
X199290000Y-104290000D01*
X199290000Y-104290000D01*
G37*
X199290000Y-104290000D02*
X181991000Y-104290000D01*
X181991000Y-103540000D01*
X191292732Y-103540000D01*
X191583571Y-103482148D01*
X191830133Y-103317401D01*
X192979401Y-102168133D01*
X193144148Y-101921572D01*
X193202000Y-101630732D01*
X193202000Y-101616187D01*
X194857277Y-101616187D01*
X194864982Y-102019454D01*
X194864630Y-102422815D01*
X194873080Y-102443266D01*
X194873503Y-102465387D01*
X195167261Y-103174582D01*
X195177343Y-103179635D01*
X195188980Y-103207800D01*
X195789041Y-103808909D01*
X195819895Y-103821721D01*
X195825418Y-103832739D01*
X196200954Y-103979950D01*
X196573459Y-104134628D01*
X196595586Y-104134647D01*
X196616187Y-104142723D01*
X197019454Y-104135018D01*
X197422815Y-104135370D01*
X197443266Y-104126920D01*
X197465387Y-104126497D01*
X198174582Y-103832739D01*
X198179635Y-103822657D01*
X198207800Y-103811020D01*
X198808909Y-103210959D01*
X198821721Y-103180105D01*
X198832739Y-103174582D01*
X198979950Y-102799046D01*
X199134628Y-102426541D01*
X199134647Y-102404414D01*
X199142723Y-102383813D01*
X199135018Y-101980546D01*
X199135370Y-101577185D01*
X199126920Y-101556734D01*
X199126497Y-101534613D01*
X198832739Y-100825418D01*
X198822657Y-100820365D01*
X198811020Y-100792200D01*
X198210959Y-100191091D01*
X198180105Y-100178279D01*
X198174582Y-100167261D01*
X197799046Y-100020050D01*
X197426541Y-99865372D01*
X197404414Y-99865353D01*
X197383813Y-99857277D01*
X196980546Y-99864982D01*
X196577185Y-99864630D01*
X196556734Y-99873080D01*
X196534613Y-99873503D01*
X195825418Y-100167261D01*
X195820365Y-100177343D01*
X195792200Y-100188980D01*
X195191091Y-100789041D01*
X195178279Y-100819895D01*
X195167261Y-100825418D01*
X195020050Y-101200954D01*
X194865372Y-101573459D01*
X194865353Y-101595586D01*
X194857277Y-101616187D01*
X193202000Y-101616187D01*
X193202000Y-97754534D01*
X193246534Y-97710000D01*
X193686698Y-97710000D01*
X193986599Y-98009901D01*
X194233161Y-98174648D01*
X194307622Y-98189459D01*
X194497110Y-98318931D01*
X194749000Y-98369940D01*
X195649000Y-98369940D01*
X195884317Y-98325662D01*
X196029095Y-98232500D01*
X196275033Y-98232500D01*
X196337946Y-98548785D01*
X196659853Y-99030554D01*
X197141622Y-99352461D01*
X197709907Y-99465500D01*
X197768093Y-99465500D01*
X198336378Y-99352461D01*
X198818147Y-99030554D01*
X199140054Y-98548785D01*
X199253093Y-97980500D01*
X199140054Y-97412215D01*
X198818147Y-96930446D01*
X198488974Y-96710500D01*
X198818147Y-96490554D01*
X199140054Y-96008785D01*
X199215200Y-95631000D01*
X199290000Y-95631000D01*
X199290000Y-104290000D01*
G36*
X193686698Y-95735000D02*
X192743268Y-95735000D01*
X192500682Y-95783254D01*
X192452428Y-95792852D01*
X192205867Y-95957599D01*
X191449599Y-96713867D01*
X191284852Y-96960429D01*
X191227000Y-97251268D01*
X191227000Y-101127466D01*
X190789466Y-101565000D01*
X181991000Y-101565000D01*
X181991000Y-98044000D01*
X184531000Y-98044000D01*
X184580410Y-98033994D01*
X184622035Y-98005553D01*
X184649315Y-97963159D01*
X184658000Y-97917000D01*
X184658000Y-95631000D01*
X193790698Y-95631000D01*
X193686698Y-95735000D01*
X193686698Y-95735000D01*
G37*
X193686698Y-95735000D02*
X192743268Y-95735000D01*
X192500682Y-95783254D01*
X192452428Y-95792852D01*
X192205867Y-95957599D01*
X191449599Y-96713867D01*
X191284852Y-96960429D01*
X191227000Y-97251268D01*
X191227000Y-101127466D01*
X190789466Y-101565000D01*
X181991000Y-101565000D01*
X181991000Y-98044000D01*
X184531000Y-98044000D01*
X184580410Y-98033994D01*
X184622035Y-98005553D01*
X184649315Y-97963159D01*
X184658000Y-97917000D01*
X184658000Y-95631000D01*
X193790698Y-95631000D01*
X193686698Y-95735000D01*
G36*
X188595000Y-76361754D02*
X188447057Y-76422883D01*
X188183808Y-76685673D01*
X188041162Y-77029201D01*
X188040838Y-77401167D01*
X188182883Y-77744943D01*
X188445673Y-78008192D01*
X188595000Y-78070198D01*
X188595000Y-79657500D01*
X175768000Y-79657500D01*
X175768000Y-75436000D01*
X188595000Y-75436000D01*
X188595000Y-76361754D01*
X188595000Y-76361754D01*
G37*
X188595000Y-76361754D02*
X188447057Y-76422883D01*
X188183808Y-76685673D01*
X188041162Y-77029201D01*
X188040838Y-77401167D01*
X188182883Y-77744943D01*
X188445673Y-78008192D01*
X188595000Y-78070198D01*
X188595000Y-79657500D01*
X175768000Y-79657500D01*
X175768000Y-75436000D01*
X188595000Y-75436000D01*
X188595000Y-76361754D01*
G36*
X197940755Y-74549000D02*
X197927500Y-74549000D01*
X197927500Y-74535722D01*
X197940755Y-74549000D01*
X197940755Y-74549000D01*
G37*
X197940755Y-74549000D02*
X197927500Y-74549000D01*
X197927500Y-74535722D01*
X197940755Y-74549000D01*
G36*
X196407500Y-73916000D02*
X196387999Y-73916000D01*
X196388162Y-73728833D01*
X196280920Y-73469286D01*
X196387838Y-73211799D01*
X196388162Y-72839833D01*
X196294071Y-72612114D01*
X196387838Y-72386299D01*
X196388162Y-72014333D01*
X196246117Y-71670557D01*
X195983327Y-71407308D01*
X195639799Y-71264662D01*
X195267833Y-71264338D01*
X194924057Y-71406383D01*
X194890882Y-71439500D01*
X156718000Y-71439500D01*
X156427161Y-71497352D01*
X156180599Y-71662099D01*
X155956000Y-71886698D01*
X155956000Y-71247000D01*
X196407500Y-71247000D01*
X196407500Y-73916000D01*
X196407500Y-73916000D01*
G37*
X196407500Y-73916000D02*
X196387999Y-73916000D01*
X196388162Y-73728833D01*
X196280920Y-73469286D01*
X196387838Y-73211799D01*
X196388162Y-72839833D01*
X196294071Y-72612114D01*
X196387838Y-72386299D01*
X196388162Y-72014333D01*
X196246117Y-71670557D01*
X195983327Y-71407308D01*
X195639799Y-71264662D01*
X195267833Y-71264338D01*
X194924057Y-71406383D01*
X194890882Y-71439500D01*
X156718000Y-71439500D01*
X156427161Y-71497352D01*
X156180599Y-71662099D01*
X155956000Y-71886698D01*
X155956000Y-71247000D01*
X196407500Y-71247000D01*
X196407500Y-73916000D01*
M02*
