G04 #@! TF.FileFunction,Legend,Bot*
%FSLAX46Y46*%
G04 Gerber Fmt 4.6, Leading zero omitted, Abs format (unit mm)*
G04 Created by KiCad (PCBNEW 4.0.7) date 07/12/19 13:24:00*
%MOMM*%
%LPD*%
G01*
G04 APERTURE LIST*
%ADD10C,0.100000*%
%ADD11C,0.150000*%
%ADD12C,0.120000*%
G04 APERTURE END LIST*
D10*
D11*
X189195000Y-71240000D02*
X189195000Y-73350000D01*
X189195000Y-73350000D02*
X186955000Y-73350000D01*
X186955000Y-73350000D02*
X186955000Y-71240000D01*
X185845000Y-71240000D02*
X185845000Y-73350000D01*
X185845000Y-73350000D02*
X183605000Y-73350000D01*
X183605000Y-73350000D02*
X183605000Y-71240000D01*
X178775000Y-71240000D02*
X194525000Y-71240000D01*
X178775000Y-58540000D02*
X178775000Y-71240000D01*
X194525000Y-58540000D02*
X178775000Y-58540000D01*
X194525000Y-58540000D02*
X194525000Y-71240000D01*
X127235000Y-87187000D02*
X126985000Y-87187000D01*
X127235000Y-79437000D02*
X126890000Y-79437000D01*
X115335000Y-79437000D02*
X115680000Y-79437000D01*
X115335000Y-87187000D02*
X115680000Y-87187000D01*
X127235000Y-87187000D02*
X127235000Y-79437000D01*
X115335000Y-87187000D02*
X115335000Y-79437000D01*
X126985000Y-87187000D02*
X126985000Y-89012000D01*
X147340884Y-91440000D02*
G75*
G03X147340884Y-91440000I-1227884J0D01*
G01*
X147103272Y-71330404D02*
X147103272Y-73440404D01*
X147103272Y-73440404D02*
X144863272Y-73440404D01*
X144863272Y-73440404D02*
X144863272Y-71330404D01*
X143753272Y-71330404D02*
X143753272Y-73440404D01*
X143753272Y-73440404D02*
X141513272Y-73440404D01*
X141513272Y-73440404D02*
X141513272Y-71330404D01*
X136683272Y-71330404D02*
X152433272Y-71330404D01*
X136683272Y-58630404D02*
X136683272Y-71330404D01*
X152433272Y-58630404D02*
X136683272Y-58630404D01*
X152433272Y-58630404D02*
X152433272Y-71330404D01*
X168103272Y-71250404D02*
X168103272Y-73360404D01*
X168103272Y-73360404D02*
X165863272Y-73360404D01*
X165863272Y-73360404D02*
X165863272Y-71250404D01*
X164753272Y-71250404D02*
X164753272Y-73360404D01*
X164753272Y-73360404D02*
X162513272Y-73360404D01*
X162513272Y-73360404D02*
X162513272Y-71250404D01*
X157683272Y-71250404D02*
X173433272Y-71250404D01*
X157683272Y-58550404D02*
X157683272Y-71250404D01*
X173433272Y-58550404D02*
X157683272Y-58550404D01*
X173433272Y-58550404D02*
X173433272Y-71250404D01*
X126103272Y-71330404D02*
X126103272Y-73440404D01*
X126103272Y-73440404D02*
X123863272Y-73440404D01*
X123863272Y-73440404D02*
X123863272Y-71330404D01*
X122753272Y-71330404D02*
X122753272Y-73440404D01*
X122753272Y-73440404D02*
X120513272Y-73440404D01*
X120513272Y-73440404D02*
X120513272Y-71330404D01*
X115683272Y-71330404D02*
X131433272Y-71330404D01*
X115683272Y-58630404D02*
X115683272Y-71330404D01*
X131433272Y-58630404D02*
X115683272Y-58630404D01*
X131433272Y-58630404D02*
X131433272Y-71330404D01*
D12*
X155098000Y-84420000D02*
X155798000Y-84420000D01*
X155798000Y-83220000D02*
X155098000Y-83220000D01*
X155150000Y-81100000D02*
X155850000Y-81100000D01*
X155850000Y-79900000D02*
X155150000Y-79900000D01*
X172040500Y-82642000D02*
X172740500Y-82642000D01*
X172740500Y-81442000D02*
X172040500Y-81442000D01*
X127162000Y-76866000D02*
X127162000Y-77566000D01*
X128362000Y-77566000D02*
X128362000Y-76866000D01*
X119284000Y-90897000D02*
X119984000Y-90897000D01*
X119984000Y-89697000D02*
X119284000Y-89697000D01*
X131537000Y-91536000D02*
X131537000Y-90836000D01*
X130337000Y-90836000D02*
X130337000Y-91536000D01*
X116236000Y-90897000D02*
X116936000Y-90897000D01*
X116936000Y-89697000D02*
X116236000Y-89697000D01*
D11*
X187411905Y-74592381D02*
X187411905Y-75401905D01*
X187364286Y-75497143D01*
X187316667Y-75544762D01*
X187221429Y-75592381D01*
X187030952Y-75592381D01*
X186935714Y-75544762D01*
X186888095Y-75497143D01*
X186840476Y-75401905D01*
X186840476Y-74592381D01*
X185888095Y-74592381D02*
X186364286Y-74592381D01*
X186411905Y-75068571D01*
X186364286Y-75020952D01*
X186269048Y-74973333D01*
X186030952Y-74973333D01*
X185935714Y-75020952D01*
X185888095Y-75068571D01*
X185840476Y-75163810D01*
X185840476Y-75401905D01*
X185888095Y-75497143D01*
X185935714Y-75544762D01*
X186030952Y-75592381D01*
X186269048Y-75592381D01*
X186364286Y-75544762D01*
X186411905Y-75497143D01*
X127587381Y-86473905D02*
X128396905Y-86473905D01*
X128492143Y-86521524D01*
X128539762Y-86569143D01*
X128587381Y-86664381D01*
X128587381Y-86854858D01*
X128539762Y-86950096D01*
X128492143Y-86997715D01*
X128396905Y-87045334D01*
X127587381Y-87045334D01*
X128587381Y-88045334D02*
X128587381Y-87473905D01*
X128587381Y-87759619D02*
X127587381Y-87759619D01*
X127730238Y-87664381D01*
X127825476Y-87569143D01*
X127873095Y-87473905D01*
X127920714Y-88902477D02*
X128587381Y-88902477D01*
X127539762Y-88664381D02*
X128254048Y-88426286D01*
X128254048Y-89045334D01*
X145084905Y-100012381D02*
X145084905Y-100821905D01*
X145037286Y-100917143D01*
X144989667Y-100964762D01*
X144894429Y-101012381D01*
X144703952Y-101012381D01*
X144608714Y-100964762D01*
X144561095Y-100917143D01*
X144513476Y-100821905D01*
X144513476Y-100012381D01*
X143608714Y-100345714D02*
X143608714Y-101012381D01*
X143846810Y-99964762D02*
X144084905Y-100679048D01*
X143465857Y-100679048D01*
X156873262Y-93193167D02*
X156920881Y-93336024D01*
X156920881Y-93574120D01*
X156873262Y-93669358D01*
X156825643Y-93716977D01*
X156730405Y-93764596D01*
X156635167Y-93764596D01*
X156539929Y-93716977D01*
X156492310Y-93669358D01*
X156444690Y-93574120D01*
X156397071Y-93383643D01*
X156349452Y-93288405D01*
X156301833Y-93240786D01*
X156206595Y-93193167D01*
X156111357Y-93193167D01*
X156016119Y-93240786D01*
X155968500Y-93288405D01*
X155920881Y-93383643D01*
X155920881Y-93621739D01*
X155968500Y-93764596D01*
X155920881Y-94097929D02*
X156920881Y-94336024D01*
X156206595Y-94526501D01*
X156920881Y-94716977D01*
X155920881Y-94955072D01*
X156920881Y-95859834D02*
X156920881Y-95288405D01*
X156920881Y-95574119D02*
X155920881Y-95574119D01*
X156063738Y-95478881D01*
X156158976Y-95383643D01*
X156206595Y-95288405D01*
X140080905Y-73620381D02*
X140080905Y-74429905D01*
X140033286Y-74525143D01*
X139985667Y-74572762D01*
X139890429Y-74620381D01*
X139699952Y-74620381D01*
X139604714Y-74572762D01*
X139557095Y-74525143D01*
X139509476Y-74429905D01*
X139509476Y-73620381D01*
X139128524Y-73620381D02*
X138461857Y-73620381D01*
X138890429Y-74620381D01*
X166320177Y-74602785D02*
X166320177Y-75412309D01*
X166272558Y-75507547D01*
X166224939Y-75555166D01*
X166129701Y-75602785D01*
X165939224Y-75602785D01*
X165843986Y-75555166D01*
X165796367Y-75507547D01*
X165748748Y-75412309D01*
X165748748Y-74602785D01*
X165224939Y-75602785D02*
X165034463Y-75602785D01*
X164939224Y-75555166D01*
X164891605Y-75507547D01*
X164796367Y-75364690D01*
X164748748Y-75174214D01*
X164748748Y-74793261D01*
X164796367Y-74698023D01*
X164843986Y-74650404D01*
X164939224Y-74602785D01*
X165129701Y-74602785D01*
X165224939Y-74650404D01*
X165272558Y-74698023D01*
X165320177Y-74793261D01*
X165320177Y-75031356D01*
X165272558Y-75126594D01*
X165224939Y-75174214D01*
X165129701Y-75221833D01*
X164939224Y-75221833D01*
X164843986Y-75174214D01*
X164796367Y-75126594D01*
X164748748Y-75031356D01*
X124796367Y-74682785D02*
X124796367Y-75492309D01*
X124748748Y-75587547D01*
X124701129Y-75635166D01*
X124605891Y-75682785D01*
X124415414Y-75682785D01*
X124320176Y-75635166D01*
X124272557Y-75587547D01*
X124224938Y-75492309D01*
X124224938Y-74682785D01*
X123224938Y-75682785D02*
X123796367Y-75682785D01*
X123510653Y-75682785D02*
X123510653Y-74682785D01*
X123605891Y-74825642D01*
X123701129Y-74920880D01*
X123796367Y-74968499D01*
X122272557Y-75682785D02*
X122843986Y-75682785D01*
X122558272Y-75682785D02*
X122558272Y-74682785D01*
X122653510Y-74825642D01*
X122748748Y-74920880D01*
X122843986Y-74968499D01*
X153328666Y-84304143D02*
X153376285Y-84351762D01*
X153519142Y-84399381D01*
X153614380Y-84399381D01*
X153757238Y-84351762D01*
X153852476Y-84256524D01*
X153900095Y-84161286D01*
X153947714Y-83970810D01*
X153947714Y-83827952D01*
X153900095Y-83637476D01*
X153852476Y-83542238D01*
X153757238Y-83447000D01*
X153614380Y-83399381D01*
X153519142Y-83399381D01*
X153376285Y-83447000D01*
X153328666Y-83494619D01*
X152471523Y-83732714D02*
X152471523Y-84399381D01*
X152709619Y-83351762D02*
X152947714Y-84066048D01*
X152328666Y-84066048D01*
X153328666Y-80875143D02*
X153376285Y-80922762D01*
X153519142Y-80970381D01*
X153614380Y-80970381D01*
X153757238Y-80922762D01*
X153852476Y-80827524D01*
X153900095Y-80732286D01*
X153947714Y-80541810D01*
X153947714Y-80398952D01*
X153900095Y-80208476D01*
X153852476Y-80113238D01*
X153757238Y-80018000D01*
X153614380Y-79970381D01*
X153519142Y-79970381D01*
X153376285Y-80018000D01*
X153328666Y-80065619D01*
X152757238Y-80398952D02*
X152852476Y-80351333D01*
X152900095Y-80303714D01*
X152947714Y-80208476D01*
X152947714Y-80160857D01*
X152900095Y-80065619D01*
X152852476Y-80018000D01*
X152757238Y-79970381D01*
X152566761Y-79970381D01*
X152471523Y-80018000D01*
X152423904Y-80065619D01*
X152376285Y-80160857D01*
X152376285Y-80208476D01*
X152423904Y-80303714D01*
X152471523Y-80351333D01*
X152566761Y-80398952D01*
X152757238Y-80398952D01*
X152852476Y-80446571D01*
X152900095Y-80494190D01*
X152947714Y-80589429D01*
X152947714Y-80779905D01*
X152900095Y-80875143D01*
X152852476Y-80922762D01*
X152757238Y-80970381D01*
X152566761Y-80970381D01*
X152471523Y-80922762D01*
X152423904Y-80875143D01*
X152376285Y-80779905D01*
X152376285Y-80589429D01*
X152423904Y-80494190D01*
X152471523Y-80446571D01*
X152566761Y-80398952D01*
X175827357Y-82399143D02*
X175874976Y-82446762D01*
X176017833Y-82494381D01*
X176113071Y-82494381D01*
X176255929Y-82446762D01*
X176351167Y-82351524D01*
X176398786Y-82256286D01*
X176446405Y-82065810D01*
X176446405Y-81922952D01*
X176398786Y-81732476D01*
X176351167Y-81637238D01*
X176255929Y-81542000D01*
X176113071Y-81494381D01*
X176017833Y-81494381D01*
X175874976Y-81542000D01*
X175827357Y-81589619D01*
X174874976Y-82494381D02*
X175446405Y-82494381D01*
X175160691Y-82494381D02*
X175160691Y-81494381D01*
X175255929Y-81637238D01*
X175351167Y-81732476D01*
X175446405Y-81780095D01*
X173922595Y-82494381D02*
X174494024Y-82494381D01*
X174208310Y-82494381D02*
X174208310Y-81494381D01*
X174303548Y-81637238D01*
X174398786Y-81732476D01*
X174494024Y-81780095D01*
X126595143Y-76573143D02*
X126642762Y-76525524D01*
X126690381Y-76382667D01*
X126690381Y-76287429D01*
X126642762Y-76144571D01*
X126547524Y-76049333D01*
X126452286Y-76001714D01*
X126261810Y-75954095D01*
X126118952Y-75954095D01*
X125928476Y-76001714D01*
X125833238Y-76049333D01*
X125738000Y-76144571D01*
X125690381Y-76287429D01*
X125690381Y-76382667D01*
X125738000Y-76525524D01*
X125785619Y-76573143D01*
X126690381Y-77525524D02*
X126690381Y-76954095D01*
X126690381Y-77239809D02*
X125690381Y-77239809D01*
X125833238Y-77144571D01*
X125928476Y-77049333D01*
X125976095Y-76954095D01*
X125690381Y-78430286D02*
X125690381Y-77954095D01*
X126166571Y-77906476D01*
X126118952Y-77954095D01*
X126071333Y-78049333D01*
X126071333Y-78287429D01*
X126118952Y-78382667D01*
X126166571Y-78430286D01*
X126261810Y-78477905D01*
X126499905Y-78477905D01*
X126595143Y-78430286D01*
X126642762Y-78382667D01*
X126690381Y-78287429D01*
X126690381Y-78049333D01*
X126642762Y-77954095D01*
X126595143Y-77906476D01*
X122150143Y-90416143D02*
X122197762Y-90368524D01*
X122245381Y-90225667D01*
X122245381Y-90130429D01*
X122197762Y-89987571D01*
X122102524Y-89892333D01*
X122007286Y-89844714D01*
X121816810Y-89797095D01*
X121673952Y-89797095D01*
X121483476Y-89844714D01*
X121388238Y-89892333D01*
X121293000Y-89987571D01*
X121245381Y-90130429D01*
X121245381Y-90225667D01*
X121293000Y-90368524D01*
X121340619Y-90416143D01*
X122245381Y-91368524D02*
X122245381Y-90797095D01*
X122245381Y-91082809D02*
X121245381Y-91082809D01*
X121388238Y-90987571D01*
X121483476Y-90892333D01*
X121531095Y-90797095D01*
X121245381Y-92225667D02*
X121245381Y-92035190D01*
X121293000Y-91939952D01*
X121340619Y-91892333D01*
X121483476Y-91797095D01*
X121673952Y-91749476D01*
X122054905Y-91749476D01*
X122150143Y-91797095D01*
X122197762Y-91844714D01*
X122245381Y-91939952D01*
X122245381Y-92130429D01*
X122197762Y-92225667D01*
X122150143Y-92273286D01*
X122054905Y-92320905D01*
X121816810Y-92320905D01*
X121721571Y-92273286D01*
X121673952Y-92225667D01*
X121626333Y-92130429D01*
X121626333Y-91939952D01*
X121673952Y-91844714D01*
X121721571Y-91797095D01*
X121816810Y-91749476D01*
X129794143Y-90543143D02*
X129841762Y-90495524D01*
X129889381Y-90352667D01*
X129889381Y-90257429D01*
X129841762Y-90114571D01*
X129746524Y-90019333D01*
X129651286Y-89971714D01*
X129460810Y-89924095D01*
X129317952Y-89924095D01*
X129127476Y-89971714D01*
X129032238Y-90019333D01*
X128937000Y-90114571D01*
X128889381Y-90257429D01*
X128889381Y-90352667D01*
X128937000Y-90495524D01*
X128984619Y-90543143D01*
X129889381Y-91495524D02*
X129889381Y-90924095D01*
X129889381Y-91209809D02*
X128889381Y-91209809D01*
X129032238Y-91114571D01*
X129127476Y-91019333D01*
X129175095Y-90924095D01*
X128889381Y-91828857D02*
X128889381Y-92495524D01*
X129889381Y-92066952D01*
X114784143Y-90289143D02*
X114831762Y-90241524D01*
X114879381Y-90098667D01*
X114879381Y-90003429D01*
X114831762Y-89860571D01*
X114736524Y-89765333D01*
X114641286Y-89717714D01*
X114450810Y-89670095D01*
X114307952Y-89670095D01*
X114117476Y-89717714D01*
X114022238Y-89765333D01*
X113927000Y-89860571D01*
X113879381Y-90003429D01*
X113879381Y-90098667D01*
X113927000Y-90241524D01*
X113974619Y-90289143D01*
X114879381Y-91241524D02*
X114879381Y-90670095D01*
X114879381Y-90955809D02*
X113879381Y-90955809D01*
X114022238Y-90860571D01*
X114117476Y-90765333D01*
X114165095Y-90670095D01*
X114307952Y-91812952D02*
X114260333Y-91717714D01*
X114212714Y-91670095D01*
X114117476Y-91622476D01*
X114069857Y-91622476D01*
X113974619Y-91670095D01*
X113927000Y-91717714D01*
X113879381Y-91812952D01*
X113879381Y-92003429D01*
X113927000Y-92098667D01*
X113974619Y-92146286D01*
X114069857Y-92193905D01*
X114117476Y-92193905D01*
X114212714Y-92146286D01*
X114260333Y-92098667D01*
X114307952Y-92003429D01*
X114307952Y-91812952D01*
X114355571Y-91717714D01*
X114403190Y-91670095D01*
X114498429Y-91622476D01*
X114688905Y-91622476D01*
X114784143Y-91670095D01*
X114831762Y-91717714D01*
X114879381Y-91812952D01*
X114879381Y-92003429D01*
X114831762Y-92098667D01*
X114784143Y-92146286D01*
X114688905Y-92193905D01*
X114498429Y-92193905D01*
X114403190Y-92146286D01*
X114355571Y-92098667D01*
X114307952Y-92003429D01*
M02*
